<svg width="33" height="28" viewBox="0 0 33 28" fill="none" xmlns="http://www.w3.org/2000/svg">
<path d="M30.4807 16.9105V7.93682L30.8358 7.82504C32.201 7.39526 32.4875 6.66763 32.4875 6.13289C32.4874 5.59815 32.2008 4.87052 30.8357 4.44093L19.154 0.764615C18.4345 0.538191 17.4915 0.413513 16.499 0.413513C15.5064 0.413513 14.5635 0.538191 13.8438 0.764615L2.16214 4.44093C0.796862 4.87052 0.510254 5.59815 0.510254 6.13296C0.510254 6.6677 0.7968 7.39539 2.16208 7.82511L6.53103 9.20004V16.6085C6.53103 17.5284 7.10107 18.8242 9.8167 19.7738C11.6154 20.4028 13.9885 20.7492 16.4989 20.7492C19.0092 20.7492 21.3823 20.4028 23.181 19.7738C25.8967 18.8242 26.4667 17.5284 26.4667 16.6085V9.2001L28.607 8.52653V16.9105C27.4419 17.3221 26.6001 18.4781 26.6001 19.8373V24.0478C26.6001 25.7505 27.9206 27.1358 29.5438 27.1358C31.1669 27.1358 32.4875 25.7506 32.4875 24.0478V19.8373C32.4876 18.4781 31.6457 17.322 30.4807 16.9105ZM14.3822 2.64723C14.924 2.47669 15.6955 2.37894 16.499 2.37894C17.3024 2.37894 18.0739 2.47669 18.6156 2.64716L29.6919 6.13296L25.2561 7.52898C25.2535 7.52983 25.251 7.53055 25.2485 7.5314L18.6157 9.61882C18.0739 9.78929 17.3025 9.88704 16.4991 9.88704C15.6956 9.88704 14.9241 9.78929 14.3823 9.61882L7.74954 7.5314C7.74698 7.53055 7.74448 7.52983 7.74192 7.52898L3.30608 6.13296L14.3822 2.64723ZM24.5932 14.0276C24.5932 16.7351 24.253 17.3271 22.5886 17.9091C20.9759 18.4731 18.8132 18.7836 16.4989 18.7836C14.1847 18.7836 12.0219 18.4731 10.4093 17.9091C8.74496 17.3271 8.4047 16.735 8.4047 16.6084V9.78962L13.8439 11.5014C14.5634 11.7278 15.5064 11.8525 16.499 11.8525C17.4915 11.8525 18.4344 11.7278 19.1541 11.5014L24.5932 9.78962V14.0276ZM30.6139 24.0477C30.6139 24.6667 30.1339 25.1702 29.5438 25.1702C28.9538 25.1702 28.4738 24.6667 28.4738 24.0477V19.8373C28.4738 19.2183 28.9538 18.7146 29.5438 18.7146C30.1339 18.7146 30.6139 19.2183 30.6139 19.8373V24.0477Z" fill="white"/>
</svg>
