<svg width="31" height="28" viewBox="0 0 31 28" fill="none" xmlns="http://www.w3.org/2000/svg">
<path d="M26.9347 0.155945H3.64018C1.88284 0.155945 0.453125 1.65573 0.453125 3.49919V19.5468C0.453125 21.3902 1.88284 22.89 3.64018 22.89H11.1451C11.2367 22.89 11.3238 22.9362 11.3782 23.0135L14.1163 26.9077C14.3907 27.298 14.8132 27.5231 15.2755 27.5253H15.2825C15.7421 27.5253 16.1638 27.3046 16.4402 26.9189L19.2404 23.0113C19.2948 22.9353 19.3815 22.89 19.472 22.89H26.9347C28.692 22.89 30.1218 21.3902 30.1218 19.5467V3.49913C30.1218 1.65566 28.692 0.155945 26.9347 0.155945ZM28.3834 19.5468C28.3834 19.6904 28.3639 19.8291 28.3283 19.9609L19.3984 11.7494L28.3834 3.92749V19.5468ZM26.9347 1.97953C27.1997 1.97953 27.4481 2.05491 27.662 2.18578L16.215 12.1508C15.6789 12.6176 14.9009 12.6176 14.3648 12.1508L2.9158 2.18402C3.12904 2.05424 3.37641 1.97953 3.64018 1.97953H26.9347ZM2.24663 19.9609C2.21099 19.8291 2.19152 19.6903 2.19152 19.5468V3.92324L11.1789 11.7471L2.24663 19.9609ZM17.8509 21.9155L15.2844 25.4968L12.7772 21.9311C12.3966 21.3896 11.7864 21.0664 11.145 21.0664H3.6815L12.5335 12.9264L13.2546 13.5541C13.8443 14.0675 14.5669 14.3241 15.2899 14.3241C16.0126 14.3241 16.7355 14.0673 17.3251 13.5541L18.0436 12.9286L26.8933 21.0664H19.472C18.8381 21.0664 18.232 21.3838 17.8509 21.9155Z" fill="white"/>
</svg>
