<svg width="20" height="14" viewBox="0 0 20 14" fill="none" xmlns="http://www.w3.org/2000/svg">
<path d="M17.9131 6.86051H16.706H1.65037C1.44008 6.86051 1.26953 7.03106 1.26953 7.24135C1.26953 7.4516 1.44011 7.62219 1.65037 7.62219H16.706H17.9131L17.0596 8.47574L12.926 12.6094L12.926 12.6094C12.7773 12.7582 12.7772 12.9992 12.9259 13.148C12.926 13.148 12.926 13.148 12.926 13.148M17.9131 6.86051L12.5723 2.22683C12.2283 1.88281 12.2283 1.32513 12.5723 0.981108C12.9163 0.637157 13.4741 0.637157 13.818 0.981108L19.4554 6.61849C19.7994 6.96251 19.7994 7.52019 19.4554 7.86421L13.8182 13.5016C13.6462 13.6735 13.4207 13.7596 13.1953 13.7596C12.9699 13.7596 12.7444 13.6735 12.5725 13.5016L12.926 13.148M17.9131 6.86051L17.0595 6.00696L12.9259 1.87327C12.7771 1.72452 12.7771 1.48342 12.9259 1.33466C13.0746 1.18597 13.3158 1.18597 13.4645 1.33466L19.1019 6.97204C19.2506 7.1208 19.2506 7.3619 19.1019 7.51066L19.4282 7.83702L19.1019 7.51066L13.4648 13.1479L13.8176 13.501L13.4646 13.148M17.9131 6.86051L13.4646 13.148M12.926 13.148C13.0005 13.2225 13.0972 13.2596 13.1953 13.2596C13.2933 13.2596 13.39 13.2225 13.4646 13.148M12.926 13.148L13.4646 13.148" fill="white" stroke="white"/>
</svg>
