<svg width="20" height="14" viewBox="0 0 20 14" fill="none" xmlns="http://www.w3.org/2000/svg">
<path d="M16.706 6.86051H17.9131L17.0595 6.00696L12.9259 1.87328C12.7771 1.72452 12.7771 1.48342 12.9259 1.33466C13.0746 1.18597 13.3158 1.18597 13.4645 1.33466L19.1019 6.97204C19.2506 7.1208 19.2506 7.3619 19.1019 7.51066L19.4554 7.86421L19.1019 7.51066L13.4648 13.1479C13.3901 13.2225 13.2934 13.2596 13.1953 13.2596C13.0972 13.2596 13.0004 13.2224 12.9259 13.148C12.7772 12.9992 12.7773 12.7582 12.926 12.6094L12.926 12.6094L17.0596 8.47574L17.9131 7.62219H16.706H1.65037C1.44011 7.62219 1.26953 7.4516 1.26953 7.24135C1.26953 7.03106 1.44008 6.86051 1.65037 6.86051H16.706Z" fill="white" stroke="white"/>
</svg>
