<svg width="31" height="32" viewBox="0 0 31 32" fill="none" xmlns="http://www.w3.org/2000/svg">
<path d="M21.625 24.1913V26.6387C21.625 29.3378 19.5318 31.5336 16.9588 31.5336H5.23503C2.66202 31.5336 0.568848 29.3378 0.568848 26.6387V5.10134C0.568848 2.40224 2.66202 0.206482 5.23503 0.206482H16.9588C19.5318 0.206482 21.625 2.40224 21.625 5.10134V7.54877C21.625 8.22468 21.1028 8.77248 20.4585 8.77248C19.8141 8.77248 19.2919 8.22468 19.2919 7.54877V5.10134C19.2919 3.75191 18.2452 2.65391 16.9588 2.65391H5.23503C3.94864 2.65391 2.90194 3.75191 2.90194 5.10134V26.6387C2.90194 27.9881 3.94864 29.0861 5.23503 29.0861H16.9588C18.2452 29.0861 19.2919 27.9881 19.2919 26.6387V24.1913C19.2919 23.5154 19.8141 22.9676 20.4585 22.9676C21.1028 22.9676 21.625 23.5154 21.625 24.1913ZM29.5782 13.768L26.9661 11.0278C26.5104 10.5497 25.7717 10.5497 25.3163 11.0278C24.8606 11.5055 24.8606 12.2804 25.3163 12.7582L27.1743 14.7075H13.1675C12.5232 14.7075 12.001 15.2553 12.001 15.9312C12.001 16.6071 12.5232 17.1549 13.1675 17.1549H27.1743L25.3163 19.1043C24.8606 19.582 24.8606 20.3569 25.3163 20.8347C25.5441 21.0737 25.8426 21.1932 26.141 21.1932C26.4397 21.1932 26.7382 21.0737 26.9661 20.8347L29.5782 18.0945C30.7154 16.9016 30.7154 14.9608 29.5782 13.768Z" fill="white"/>
</svg>
