<svg width="20" height="14" viewBox="0 0 20 14" fill="none" xmlns="http://www.w3.org/2000/svg">
<path d="M16.2912 6.52634H17.4983L16.6448 5.67279L12.5111 1.53911C12.3623 1.39035 12.3623 1.14925 12.5111 1.00049C12.6598 0.851805 12.901 0.851805 13.0497 1.00049L18.6871 6.63788C18.8358 6.78664 18.8358 7.02773 18.6871 7.17649L19.0406 7.53004L18.6871 7.1765L13.05 12.8137C12.9753 12.8883 12.8786 12.9254 12.7805 12.9254C12.6824 12.9254 12.5856 12.8883 12.5111 12.8138C12.3625 12.665 12.3625 12.424 12.5112 12.2753L12.5112 12.2753L16.6448 8.14157L17.4983 7.28802H16.2912H1.23558C1.02531 7.28802 0.854736 7.11743 0.854736 6.90718C0.854736 6.69689 1.02528 6.52634 1.23558 6.52634H16.2912Z" fill="#1E398F" stroke="#1E398F"/>
</svg>
