<svg width="692" height="288" viewBox="0 0 692 288" fill="none" xmlns="http://www.w3.org/2000/svg">
<path d="M691.22 280.94C691.612 280.551 691.613 279.917 691.223 279.526L684.872 273.149C684.483 272.758 683.849 272.757 683.458 273.146C683.067 273.536 683.065 274.169 683.455 274.56L689.1 280.229L683.432 285.874C683.041 286.264 683.039 286.897 683.429 287.288C683.819 287.68 684.452 287.681 684.843 287.291L691.22 280.94ZM7.01651 279.835L690.513 281.232L690.517 279.232L7.0206 277.835L7.01651 279.835Z" fill="#1E398F"/>
<g filter="url(#filter0_d_201_5)">
<path d="M7.51465 152.645L8.33675 147.54L9.15886 142.515L9.98096 137.65L10.8031 133.022L11.6252 128.703L12.4473 124.762L13.2694 121.26L14.0915 118.254L14.9136 115.789L15.7357 113.906L16.5578 112.634L17.3799 111.993H18.202L19.0241 112.634L19.8462 113.906L20.6683 115.789L21.4904 118.254L22.3125 121.26L23.1346 124.762L23.9568 128.703L24.7789 133.022L25.601 137.65L26.4231 142.515L27.2452 147.54L28.0673 152.645L28.8894 157.75L29.7115 162.775L30.5336 167.639L31.3557 172.268L32.1778 176.587L32.9999 180.528L33.822 184.03L34.6441 187.036L35.4662 189.501L36.2883 191.384L37.1104 192.656L37.9325 193.297H38.7546L39.5767 192.656L40.3989 191.384L41.221 189.501L42.0431 187.036L42.8652 184.03L43.6873 180.528L44.5094 176.587L45.3315 172.268L46.1536 167.639L46.9757 162.775L47.7978 157.75L48.6199 152.645L49.442 147.54L50.2641 142.515L51.0862 137.65L51.9083 133.022L52.7304 128.703L53.5525 124.762L54.3746 121.26L55.1967 118.254L56.0189 115.789L56.841 113.906L57.6631 112.634L58.4852 111.993L59.3073 111.993L60.1294 112.634L60.9515 113.906L61.7736 115.789L62.5957 118.254L63.4178 121.26L64.2399 124.762L65.062 128.703L65.8841 133.022L66.7062 137.65L67.5283 142.515L68.3504 147.54L69.1725 152.645L69.9946 157.75L70.8167 162.775L71.6388 167.639L72.461 172.268L73.2831 176.587L74.1052 180.528L74.9273 184.03L75.7494 187.036L76.5715 189.501L77.3936 191.384L78.2157 192.656L79.0378 193.297H79.8599L80.682 192.656L81.5041 191.384L82.3262 189.501L83.1483 187.036L83.9704 184.03L84.7925 180.528L85.6146 176.587L86.4367 172.268L87.2589 167.639L88.081 162.775L88.9031 157.75L89.7252 152.645" stroke="#1E398F" stroke-width="2"/>
<path d="M171.936 152.029L172.769 140.504L173.603 129.16L174.437 118.178L175.27 107.729L176.104 97.9785L176.938 89.0806L177.771 81.1755L178.605 74.3878L179.439 68.8245L180.272 64.5735L181.106 61.7016L181.94 60.2543H182.773L183.607 61.7016L184.441 64.5735L185.274 68.8245L186.108 74.3878L186.942 81.1755L187.776 89.0806L188.609 97.9785L189.443 107.729L190.277 118.178L191.11 129.16L191.944 140.504L192.778 152.029L193.611 163.554L194.445 174.898L195.279 185.88L196.112 196.329L196.946 206.079L197.78 214.977L198.613 222.882L199.447 229.67L200.281 235.233L201.114 239.484L201.948 242.356L202.782 243.804H203.616L204.449 242.356L205.283 239.484L206.117 235.233L206.95 229.67L207.784 222.882L208.618 214.977L209.451 206.079L210.285 196.329L211.119 185.88L211.952 174.898L212.786 163.554L213.62 152.029L214.453 140.504L215.287 129.16L216.121 118.178L216.954 107.729L217.788 97.9785L218.622 89.0806L219.456 81.1755L220.289 74.3878L221.123 68.8245L221.957 64.5735L222.79 61.7016L223.624 60.2543L224.458 60.2543L225.291 61.7016L226.125 64.5735L226.959 68.8245L227.792 74.3878L228.626 81.1755L229.46 89.0806L230.293 97.9785L231.127 107.729L231.961 118.178L232.794 129.16L233.628 140.504L234.462 152.029L235.296 163.554L236.129 174.898L236.963 185.88L237.797 196.329L238.63 206.079L239.464 214.977L240.298 222.882L241.131 229.67L241.965 235.233L242.799 239.484L243.632 242.356L244.466 243.804H245.3L246.133 242.356L246.967 239.484L247.801 235.233L248.634 229.67L249.468 222.882L250.302 214.977L251.136 206.079L251.969 196.329L252.803 185.88L253.637 174.898L254.47 163.554L255.304 152.029" stroke="#1E398F" stroke-width="2"/>
<path d="M255.304 152.029L256.126 140.504L256.948 129.16L257.771 118.178L258.593 107.729L259.415 97.9785L260.237 89.0806L261.059 81.1755L261.881 74.3878L262.703 68.8245L263.525 64.5735L264.347 61.7016L265.169 60.2543H265.992L266.814 61.7016L267.636 64.5735L268.458 68.8245L269.28 74.3878L270.102 81.1755L270.924 89.0806L271.746 97.9785L272.568 107.729L273.391 118.178L274.213 129.16L275.035 140.504L275.857 152.029L276.679 163.554L277.501 174.898L278.323 185.88L279.145 196.329L279.967 206.079L280.789 214.977L281.612 222.882L282.434 229.67L283.256 235.233L284.078 239.484L284.9 242.356L285.722 243.804H286.544L287.366 242.356L288.188 239.484L289.011 235.233L289.833 229.67L290.655 222.882L291.477 214.977L292.299 206.079L293.121 196.329L293.943 185.88L294.765 174.898L295.587 163.554L296.409 152.029L297.232 140.504L298.054 129.16L298.876 118.178L299.698 107.729L300.52 97.9785L301.342 89.0806L302.164 81.1755L302.986 74.3878L303.808 68.8245L304.631 64.5735L305.453 61.7016L306.275 60.2543L307.097 60.2543L307.919 61.7016L308.741 64.5735L309.563 68.8245L310.385 74.3878L311.207 81.1755L312.029 89.0806L312.852 97.9785L313.674 107.729L314.496 118.178L315.318 129.16L316.14 140.504L316.962 152.029L317.784 163.554L318.606 174.898L319.428 185.88L320.251 196.329L321.073 206.079L321.895 214.977L322.717 222.882L323.539 229.67L324.361 235.233L325.183 239.484L326.005 242.356L326.827 243.804H327.649L328.472 242.356L329.294 239.484L330.116 235.233L330.938 229.67L331.76 222.882L332.582 214.977L333.404 206.079L334.226 196.329L335.048 185.88L335.871 174.898L336.693 163.554L337.515 152.029" stroke="#1E398F" stroke-width="2"/>
<path d="M89.5488 154.868L90.5473 146.153L91.3694 140.976L92.1915 135.964L93.0136 131.195L93.8357 126.746L94.6578 122.685L95.4799 119.077L96.302 115.979L97.1241 113.441L97.9462 111.5L98.7683 110.19L99.5905 109.529H100.413L101.235 110.19L102.057 111.5L102.879 113.441L103.701 115.979L104.523 119.077L105.345 122.685L106.167 126.746L106.989 131.195L107.812 135.964L108.634 140.976L109.456 146.153L110.278 151.413L111.1 156.673L111.922 161.85L112.744 166.862L113.566 171.631L114.388 176.08L115.21 180.141L116.033 183.749L116.855 186.847L117.677 189.385L118.499 191.326L119.321 192.636L120.143 193.297H120.965L121.787 192.636L122.609 191.326L123.432 189.385L124.254 186.847L125.076 183.749L125.898 180.141L126.72 176.08L127.542 171.631L128.364 166.862L129.186 161.85L130.008 156.673L130.83 151.413L131.653 146.153L132.475 140.976L133.297 135.964L134.119 131.195L134.941 126.746L135.763 122.685L136.585 119.077L137.407 115.979L138.229 113.441L139.052 111.5L139.874 110.19L140.696 109.529L141.518 109.529L142.34 110.19L143.162 111.5L143.984 113.441L144.806 115.979L145.628 119.077L146.45 122.685L147.273 126.746L148.095 131.195L148.917 135.964L149.739 140.976L150.561 146.153L151.383 151.413L152.205 156.673L153.027 161.85L153.849 166.862L154.671 171.631L155.494 176.08L156.316 180.141L157.138 183.749L157.96 186.847L158.782 189.385L159.604 191.326L160.426 192.636L161.248 193.297H162.07L162.893 192.636L163.715 191.326L164.537 189.385L165.359 186.847L166.181 183.749L167.003 180.141L167.825 176.08L168.647 171.631L169.469 166.862L170.291 161.85L171.114 156.673L171.936 151.413" stroke="#1E398F" stroke-width="2"/>
<path d="M337.515 152.645L338.337 147.54L339.159 142.515L339.981 137.65L340.803 133.022L341.625 128.703L342.447 124.762L343.269 121.26L344.091 118.254L344.914 115.789L345.736 113.906L346.558 112.634L347.38 111.993H348.202L349.024 112.634L349.846 113.906L350.668 115.789L351.49 118.254L352.313 121.26L353.135 124.762L353.957 128.703L354.779 133.022L355.601 137.65L356.423 142.515L357.245 147.54L358.067 152.645L358.889 157.75L359.711 162.775L360.534 167.639L361.356 172.268L362.178 176.587L363 180.528L363.822 184.03L364.644 187.036L365.466 189.501L366.288 191.384L367.11 192.656L367.933 193.297H368.755L369.577 192.656L370.399 191.384L371.221 189.501L372.043 187.036L372.865 184.03L373.687 180.528L374.509 176.587L375.331 172.268L376.154 167.639L376.976 162.775L377.798 157.75L378.62 152.645L379.442 147.54L380.264 142.515L381.086 137.65L381.908 133.022L382.73 128.703L383.553 124.762L384.375 121.26L385.197 118.254L386.019 115.789L386.841 113.906L387.663 112.634L388.485 111.993L389.307 111.993L390.129 112.634L390.951 113.906L391.774 115.789L392.596 118.254L393.418 121.26L394.24 124.762L395.062 128.703L395.884 133.022L396.706 137.65L397.528 142.515L398.35 147.54L399.173 152.645L399.995 157.75L400.817 162.775L401.639 167.639L402.461 172.268L403.283 176.587L404.105 180.528L404.927 184.03L405.749 187.036L406.571 189.501L407.394 191.384L408.216 192.656L409.038 193.297H409.86L410.682 192.656L411.504 191.384L412.326 189.501L413.148 187.036L413.97 184.03L414.793 180.528L415.615 176.587L416.437 172.268L417.259 167.639L418.081 162.775L418.903 157.75L419.725 152.645" stroke="#1E398F" stroke-width="2"/>
<path d="M502.59 154.868L503.916 140.504L504.738 129.16L505.56 118.178L506.382 107.729L507.204 97.9785L508.026 89.0806L508.848 81.1755L509.67 74.3878L510.493 68.8245L511.315 64.5735L512.137 61.7016L512.959 60.2543H513.781L514.603 61.7016L515.425 64.5735L516.247 68.8245L517.069 74.3878L517.891 81.1755L518.714 89.0806L519.536 97.9785L520.358 107.729L521.18 118.178L522.002 129.16L522.824 140.504L523.646 152.029L524.468 163.554L525.29 174.898L526.113 185.88L526.935 196.329L527.757 206.079L528.579 214.977L529.401 222.882L530.223 229.67L531.045 235.233L531.867 239.484L532.689 242.356L533.511 243.804H534.334L535.156 242.356L535.978 239.484L536.8 235.233L537.622 229.67L538.444 222.882L539.266 214.977L540.088 206.079L540.91 196.329L541.733 185.88L542.555 174.898L543.377 163.554L544.199 152.029L545.021 140.504L545.843 129.16L546.665 118.178L547.487 107.729L548.309 97.9785L549.131 89.0806L549.954 81.1755L550.776 74.3878L551.598 68.8245L552.42 64.5735L553.242 61.7016L554.064 60.2543L554.886 60.2543L555.708 61.7016L556.53 64.5735L557.353 68.8245L558.175 74.3878L558.997 81.1755L559.819 89.0806L560.641 97.9785L561.463 107.729L562.285 118.178L563.107 129.16L563.929 140.504L564.751 152.029L565.574 163.554L566.396 174.898L567.218 185.88L568.04 196.329L568.862 206.079L569.684 214.977L570.506 222.882L571.328 229.67L572.15 235.233L572.973 239.484L573.795 242.356L574.617 243.804H575.439L576.261 242.356L577.083 239.484L577.905 235.233L578.727 229.67L579.549 222.882L580.371 214.977L581.194 206.079L582.016 196.329L582.838 185.88L583.66 174.898L584.482 163.554L585.304 152.029" stroke="#1E398F" stroke-width="2"/>
<path d="M585.304 152.029L586.126 140.504L586.948 129.16L587.77 118.178L588.592 107.729L589.414 97.9785L590.237 89.0806L591.059 81.1755L591.881 74.3878L592.703 68.8245L593.525 64.5735L594.347 61.7016L595.169 60.2543H595.991L596.813 61.7016L597.636 64.5735L598.458 68.8245L599.28 74.3878L600.102 81.1755L600.924 89.0806L601.746 97.9785L602.568 107.729L603.39 118.178L604.212 129.16L605.034 140.504L605.857 152.029L606.679 163.554L607.501 174.898L608.323 185.88L609.145 196.329L609.967 206.079L610.789 214.977L611.611 222.882L612.433 229.67L613.256 235.233L614.078 239.484L614.9 242.356L615.722 243.804H616.544L617.366 242.356L618.188 239.484L619.01 235.233L619.832 229.67L620.654 222.882L621.477 214.977L622.299 206.079L623.121 196.329L623.943 185.88L624.765 174.898L625.587 163.554L626.409 152.029L627.231 140.504L628.053 129.16L628.876 118.178L629.698 107.729L630.52 97.9785L631.342 89.0806L632.164 81.1755L632.986 74.3878L633.808 68.8245L634.63 64.5735L635.452 61.7016L636.274 60.2543L637.097 60.2543L637.919 61.7016L638.741 64.5735L639.563 68.8245L640.385 74.3878L641.207 81.1755L642.029 89.0806L642.851 97.9785L643.673 107.729L644.496 118.178L645.318 129.16L646.14 140.504L646.962 152.029L647.784 163.554L648.606 174.898L649.428 185.88L650.25 196.329L651.072 206.079L651.894 214.977L652.717 222.882L653.539 229.67L654.361 235.233L655.183 239.484L656.005 242.356L656.827 243.804H657.649L658.471 242.356L659.293 239.484L660.116 235.233L660.938 229.67L661.76 222.882L662.582 214.977L663.404 206.079L664.226 196.329L665.048 185.88L665.87 174.898L666.692 163.554L667.514 152.029" stroke="#1E398F" stroke-width="2"/>
<path d="M419.725 152.645L420.559 147.54L421.392 142.515L422.226 137.65L423.06 133.022L423.894 128.703L424.727 124.762L425.561 121.26L426.395 118.254L427.228 115.789L428.062 113.906L428.896 112.634L429.729 111.993H430.563L431.397 112.634L432.23 113.906L433.064 115.789L433.898 118.254L434.731 121.26L435.565 124.762L436.399 128.703L437.232 133.022L438.066 137.65L438.9 142.515L439.734 147.54L440.567 152.645L441.401 157.75L442.235 162.775L443.068 167.639L443.902 172.268L444.736 176.587L445.569 180.528L446.403 184.03L447.237 187.036L448.07 189.501L448.904 191.384L449.738 192.656L450.571 193.297H451.405L452.239 192.656L453.072 191.384L453.906 189.501L454.74 187.036L455.574 184.03L456.407 180.528L457.241 176.587L458.075 172.268L458.908 167.639L459.742 162.775L460.576 157.75L461.409 152.645L462.243 147.54L463.077 142.515L463.91 137.65L464.744 133.022L465.578 128.703L466.411 124.762L467.245 121.26L468.079 118.254L468.912 115.789L469.746 113.906L470.58 112.634L471.414 111.993L472.247 111.993L473.081 112.634L473.915 113.906L474.748 115.789L475.582 118.254L476.416 121.26L477.249 124.762L478.083 128.703L478.917 133.022L479.75 137.65L480.584 142.515L481.418 147.54L482.251 152.645L483.085 157.75L483.919 162.775L484.752 167.639L485.586 172.268L486.42 176.587L487.254 180.528L488.087 184.03L488.921 187.036L489.755 189.501L490.588 191.384L491.422 192.656L492.256 193.297H493.089L493.923 192.656L494.757 191.384L495.59 189.501L496.424 187.036L497.258 184.03L498.091 180.528L498.925 176.587L499.759 172.268L500.592 167.639L501.426 162.775L502.26 157.75L503.094 152.645" stroke="#1E398F" stroke-width="2"/>
</g>
<path d="M8.93367 0.559708C8.54315 0.169184 7.90998 0.169184 7.51946 0.559708L1.15549 6.92367C0.76497 7.31419 0.76497 7.94736 1.15549 8.33788C1.54602 8.72841 2.17918 8.72841 2.56971 8.33788L8.22656 2.68103L13.8834 8.33788C14.2739 8.72841 14.9071 8.72841 15.2976 8.33788C15.6882 7.94736 15.6882 7.31419 15.2976 6.92367L8.93367 0.559708ZM7.22656 1.26682L7.22655 280.047L9.22655 280.047L9.22656 1.26682L7.22656 1.26682Z" fill="#1E398F"/>
<defs>
<filter id="filter0_d_201_5" x="2.52734" y="59.2543" width="669.985" height="193.549" filterUnits="userSpaceOnUse" color-interpolation-filters="sRGB">
<feFlood flood-opacity="0" result="BackgroundImageFix"/>
<feColorMatrix in="SourceAlpha" type="matrix" values="0 0 0 0 0 0 0 0 0 0 0 0 0 0 0 0 0 0 127 0" result="hardAlpha"/>
<feOffset dy="4"/>
<feGaussianBlur stdDeviation="2"/>
<feComposite in2="hardAlpha" operator="out"/>
<feColorMatrix type="matrix" values="0 0 0 0 0 0 0 0 0 0 0 0 0 0 0 0 0 0 0.25 0"/>
<feBlend mode="normal" in2="BackgroundImageFix" result="effect1_dropShadow_201_5"/>
<feBlend mode="normal" in="SourceGraphic" in2="effect1_dropShadow_201_5" result="shape"/>
</filter>
</defs>
</svg>
