<svg width="157" height="115" viewBox="0 0 157 115" fill="none" xmlns="http://www.w3.org/2000/svg">
<path d="M0 54.2058H50.4925M50.4925 54.2058V25.7671H78.6743M50.4925 54.2058V80.4569M50.4925 54.2058L46.8493 51.5342M50.4925 54.2058L47.2397 56.6096M106.856 54.2058H152.26M106.856 54.2058V25.7671H78.6743M106.856 54.2058V80.4569M152.26 54.2058L147.575 51.1438M152.26 54.2058L147.575 57.7808M106.856 80.4569H78.6743M106.856 80.4569L78.6743 25.7671M50.4925 80.4569H78.6743M50.4925 80.4569L78.6743 25.7671M78.6743 80.4569V114M78.6743 80.4569L76.5205 83.9384M78.6743 80.4569L80.8151 83.5479" stroke="#1E398F"/>
<path d="M70.8901 3.78125H72.1011L77.355 16.3008L82.6187 3.78125H83.8198L77.814 18H76.896L70.8901 3.78125ZM70.519 3.78125H71.5835L71.7104 11.7891V18H70.519V3.78125ZM83.146 3.78125H84.2104V18H83.0093V11.7891L83.146 3.78125Z" fill="#1E398F"/>
<path d="M126.854 36.5039C126.854 36.1133 126.788 35.765 126.658 35.459C126.528 35.153 126.313 34.8796 126.014 34.6387C125.721 34.3913 125.324 34.1634 124.822 33.9551C124.327 33.7402 123.709 33.5286 122.967 33.3203C122.257 33.1185 121.616 32.8971 121.043 32.6562C120.47 32.4154 119.979 32.1387 119.568 31.8262C119.165 31.5137 118.855 31.1491 118.641 30.7324C118.426 30.3092 118.318 29.8177 118.318 29.2578C118.318 28.7109 118.436 28.2129 118.67 27.7637C118.904 27.3145 119.233 26.9271 119.656 26.6016C120.086 26.276 120.59 26.0254 121.17 25.8496C121.756 25.6738 122.397 25.5859 123.094 25.5859C124.09 25.5859 124.949 25.7747 125.672 26.1523C126.401 26.5299 126.964 27.041 127.361 27.6855C127.765 28.3236 127.967 29.0397 127.967 29.834H126.766C126.766 29.2155 126.619 28.6654 126.326 28.1836C126.04 27.6953 125.623 27.3145 125.076 27.041C124.536 26.7611 123.875 26.6211 123.094 26.6211C122.312 26.6211 121.655 26.7415 121.121 26.9824C120.594 27.2168 120.193 27.5326 119.92 27.9297C119.653 28.3203 119.52 28.7565 119.52 29.2383C119.52 29.5768 119.585 29.8893 119.715 30.1758C119.845 30.4557 120.057 30.7194 120.35 30.9668C120.649 31.2077 121.043 31.4355 121.531 31.6504C122.02 31.8587 122.622 32.0573 123.338 32.2461C124.093 32.4544 124.764 32.6855 125.35 32.9395C125.936 33.1934 126.43 33.4863 126.834 33.8184C127.238 34.1439 127.544 34.5247 127.752 34.9609C127.96 35.3971 128.064 35.9049 128.064 36.4844C128.064 37.0638 127.941 37.5846 127.693 38.0469C127.452 38.5026 127.111 38.89 126.668 39.209C126.232 39.528 125.714 39.7721 125.115 39.9414C124.523 40.1107 123.875 40.1953 123.172 40.1953C122.54 40.1953 121.912 40.1139 121.287 39.9512C120.662 39.7884 120.089 39.5378 119.568 39.1992C119.054 38.8542 118.641 38.4115 118.328 37.8711C118.022 37.3307 117.869 36.6862 117.869 35.9375H119.061C119.061 36.5365 119.181 37.041 119.422 37.4512C119.663 37.8613 119.982 38.1934 120.379 38.4473C120.783 38.7012 121.225 38.8867 121.707 39.0039C122.195 39.1146 122.684 39.1699 123.172 39.1699C123.921 39.1699 124.568 39.0592 125.115 38.8379C125.669 38.6165 126.095 38.3073 126.395 37.9102C126.701 37.5065 126.854 37.0378 126.854 36.5039ZM130.203 35.4688H131.299L134.094 42.4238L136.883 35.4688H137.984L134.516 44H133.66L130.203 35.4688ZM129.846 35.4688H130.812L130.971 40.6719V44H129.846V35.4688ZM137.369 35.4688H138.336V44H137.211V40.6719L137.369 35.4688ZM140.477 40.5898V40.5312C140.477 39.6797 140.573 38.9102 140.764 38.2227C140.956 37.5312 141.2 36.9258 141.497 36.4062C141.794 35.8867 142.106 35.457 142.434 35.1172C142.762 34.7734 143.065 34.5254 143.342 34.373L143.571 35.0879C143.34 35.2637 143.106 35.5059 142.868 35.8145C142.633 36.123 142.417 36.502 142.217 36.9512C142.022 37.4004 141.864 37.9219 141.743 38.5156C141.622 39.1094 141.561 39.7773 141.561 40.5195V40.6016C141.561 41.3438 141.622 42.0137 141.743 42.6113C141.864 43.2051 142.022 43.7285 142.217 44.1816C142.417 44.6348 142.633 45.0195 142.868 45.3359C143.106 45.6562 143.34 45.9102 143.571 46.0977L143.342 46.7539C143.065 46.6016 142.762 46.3535 142.434 46.0098C142.106 45.6699 141.794 45.2402 141.497 44.7207C141.2 44.2051 140.956 43.6016 140.764 42.9102C140.573 42.2188 140.477 41.4453 140.477 40.5898ZM147.646 37.6602V38.4922H144.218V37.6602H147.646ZM145.378 36.1191H146.462V42.4297C146.462 42.6445 146.495 42.8066 146.562 42.916C146.628 43.0254 146.714 43.0977 146.82 43.1328C146.925 43.168 147.038 43.1855 147.159 43.1855C147.249 43.1855 147.343 43.1777 147.441 43.1621C147.542 43.1426 147.618 43.127 147.669 43.1152L147.675 44C147.589 44.0273 147.476 44.0527 147.335 44.0762C147.199 44.1035 147.032 44.1172 146.837 44.1172C146.572 44.1172 146.327 44.0645 146.105 43.959C145.882 43.8535 145.704 43.6777 145.572 43.4316C145.443 43.1816 145.378 42.8457 145.378 42.4238V36.1191ZM151.773 40.5312V40.5898C151.773 41.4453 151.678 42.2188 151.486 42.9102C151.295 43.6016 151.051 44.2051 150.754 44.7207C150.457 45.2402 150.144 45.6699 149.816 46.0098C149.488 46.3535 149.185 46.6016 148.908 46.7539L148.68 46.0977C148.91 45.9219 149.142 45.6758 149.377 45.3594C149.611 45.0469 149.828 44.6602 150.027 44.1992C150.226 43.7422 150.387 43.2148 150.508 42.6172C150.629 42.0156 150.689 41.3438 150.689 40.6016V40.5195C150.689 39.7773 150.625 39.1074 150.496 38.5098C150.367 37.9082 150.199 37.3789 149.992 36.9219C149.789 36.4648 149.57 36.0801 149.336 35.7676C149.105 35.4512 148.887 35.207 148.68 35.0352L148.908 34.373C149.185 34.5254 149.488 34.7734 149.816 35.1172C150.144 35.457 150.457 35.8867 150.754 36.4062C151.051 36.9258 151.295 37.5312 151.486 38.2227C151.678 38.9102 151.773 39.6797 151.773 40.5312Z" fill="#1E398F"/>
<path d="M15.3008 37.5586V29.4336H16.4727V40H15.3496L15.3008 37.5586ZM15.5156 35.6055L16.1211 35.5859C16.1211 36.25 16.043 36.862 15.8867 37.4219C15.7305 37.9818 15.4863 38.4701 15.1543 38.8867C14.8223 39.3034 14.3926 39.6257 13.8652 39.8535C13.3379 40.0814 12.7031 40.1953 11.9609 40.1953C11.4466 40.1953 10.9746 40.1237 10.5449 39.9805C10.1217 39.8307 9.75716 39.5964 9.45117 39.2773C9.14518 38.9583 8.90755 38.5449 8.73828 38.0371C8.57552 37.5293 8.49414 36.9141 8.49414 36.1914V29.4336H9.65625V36.2109C9.65625 36.7773 9.7181 37.2493 9.8418 37.627C9.97201 38.0046 10.1478 38.3073 10.3691 38.5352C10.597 38.763 10.8574 38.9258 11.1504 39.0234C11.4434 39.1211 11.7591 39.1699 12.0977 39.1699C12.957 39.1699 13.6341 39.0039 14.1289 38.6719C14.6302 38.3398 14.985 37.9036 15.1934 37.3633C15.4082 36.8164 15.5156 36.2305 15.5156 35.6055ZM19.373 34.3945V34.248C19.373 32.9785 19.5065 31.7904 19.7734 30.6836C20.0404 29.5768 20.3887 28.5807 20.8184 27.6953C21.2546 26.8099 21.7298 26.0579 22.2441 25.4395C22.765 24.8145 23.276 24.3522 23.7773 24.0527L24.0605 24.8535C23.6309 25.1595 23.2044 25.6022 22.7812 26.1816C22.3646 26.7611 21.987 27.4577 21.6484 28.2715C21.3099 29.0853 21.0397 29.9935 20.8379 30.9961C20.6361 31.9987 20.5352 33.0729 20.5352 34.2188V34.4141C20.5352 35.5599 20.6361 36.6341 20.8379 37.6367C21.0397 38.6393 21.3099 39.5475 21.6484 40.3613C21.987 41.1816 22.3646 41.8848 22.7812 42.4707C23.2044 43.0632 23.6309 43.5189 24.0605 43.8379L23.7773 44.5898C23.276 44.2904 22.765 43.8346 22.2441 43.2227C21.7298 42.6172 21.2546 41.875 20.8184 40.9961C20.3887 40.1237 20.0404 39.1309 19.7734 38.0176C19.5065 36.9043 19.373 35.6966 19.373 34.3945ZM29.9102 29.4336V30.3906H24.6172V29.4336H29.9102ZM26.5605 26.7188H27.7227V37.4316C27.7227 37.9199 27.7878 38.2878 27.918 38.5352C28.0482 38.7826 28.2174 38.9486 28.4258 39.0332C28.6341 39.1178 28.8587 39.1602 29.0996 39.1602C29.2754 39.1602 29.4447 39.1504 29.6074 39.1309C29.7702 39.1048 29.9167 39.0788 30.0469 39.0527L30.0957 40.0391C29.9525 40.0846 29.7669 40.1204 29.5391 40.1465C29.3112 40.179 29.0833 40.1953 28.8555 40.1953C28.4062 40.1953 28.0091 40.1139 27.6641 39.9512C27.319 39.7819 27.0488 39.4954 26.8535 39.0918C26.6582 38.6816 26.5605 38.125 26.5605 37.4219V26.7188ZM35.8477 34.248V34.3945C35.8477 35.6966 35.7142 36.9043 35.4473 38.0176C35.1803 39.1309 34.8288 40.1237 34.3926 40.9961C33.9564 41.875 33.4811 42.6172 32.9668 43.2227C32.4525 43.8346 31.9414 44.2904 31.4336 44.5898L31.1504 43.8379C31.5866 43.5319 32.013 43.0859 32.4297 42.5C32.8464 41.9141 33.224 41.2077 33.5625 40.3809C33.9076 39.5605 34.181 38.6491 34.3828 37.6465C34.5846 36.6374 34.6855 35.5599 34.6855 34.4141V34.2188C34.6855 33.0729 34.5814 31.9987 34.373 30.9961C34.1647 29.987 33.888 29.0723 33.543 28.252C33.1979 27.4316 32.8171 26.7285 32.4004 26.1426C31.9837 25.5566 31.5671 25.1139 31.1504 24.8145L31.4336 24.0527C31.9414 24.3522 32.4525 24.8145 32.9668 25.4395C33.4811 26.0579 33.9564 26.8099 34.3926 27.6953C34.8288 28.5807 35.1803 29.5768 35.4473 30.6836C35.7142 31.7904 35.8477 32.9785 35.8477 34.248Z" fill="#1E398F"/>
<path d="M94.8535 106.504C94.8535 106.113 94.7884 105.765 94.6582 105.459C94.528 105.153 94.3132 104.88 94.0137 104.639C93.7207 104.391 93.3236 104.163 92.8223 103.955C92.3275 103.74 91.709 103.529 90.9668 103.32C90.2572 103.118 89.6159 102.897 89.043 102.656C88.4701 102.415 87.9785 102.139 87.5684 101.826C87.1647 101.514 86.8555 101.149 86.6406 100.732C86.4258 100.309 86.3184 99.8177 86.3184 99.2578C86.3184 98.7109 86.4355 98.2129 86.6699 97.7637C86.9043 97.3145 87.2331 96.9271 87.6562 96.6016C88.0859 96.276 88.5905 96.0254 89.1699 95.8496C89.7559 95.6738 90.3971 95.5859 91.0938 95.5859C92.0898 95.5859 92.9492 95.7747 93.6719 96.1523C94.401 96.5299 94.9642 97.041 95.3613 97.6855C95.765 98.3236 95.9668 99.0397 95.9668 99.834H94.7656C94.7656 99.2155 94.6191 98.6654 94.3262 98.1836C94.0397 97.6953 93.623 97.3145 93.0762 97.041C92.5358 96.7611 91.875 96.6211 91.0938 96.6211C90.3125 96.6211 89.6549 96.7415 89.1211 96.9824C88.5938 97.2168 88.1934 97.5326 87.9199 97.9297C87.653 98.3203 87.5195 98.7565 87.5195 99.2383C87.5195 99.5768 87.5846 99.8893 87.7148 100.176C87.8451 100.456 88.0566 100.719 88.3496 100.967C88.6491 101.208 89.043 101.436 89.5312 101.65C90.0195 101.859 90.6217 102.057 91.3379 102.246C92.0931 102.454 92.7637 102.686 93.3496 102.939C93.9355 103.193 94.4303 103.486 94.834 103.818C95.2376 104.144 95.5436 104.525 95.752 104.961C95.9603 105.397 96.0645 105.905 96.0645 106.484C96.0645 107.064 95.9408 107.585 95.6934 108.047C95.4525 108.503 95.1107 108.89 94.668 109.209C94.2318 109.528 93.7142 109.772 93.1152 109.941C92.5228 110.111 91.875 110.195 91.1719 110.195C90.5404 110.195 89.9121 110.114 89.2871 109.951C88.6621 109.788 88.0892 109.538 87.5684 109.199C87.054 108.854 86.6406 108.411 86.3281 107.871C86.0221 107.331 85.8691 106.686 85.8691 105.938H87.0605C87.0605 106.536 87.181 107.041 87.4219 107.451C87.6628 107.861 87.9818 108.193 88.3789 108.447C88.7826 108.701 89.2253 108.887 89.707 109.004C90.1953 109.115 90.6836 109.17 91.1719 109.17C91.9206 109.17 92.5684 109.059 93.1152 108.838C93.6686 108.617 94.0951 108.307 94.3945 107.91C94.7005 107.507 94.8535 107.038 94.8535 106.504ZM98.2324 104.395V104.248C98.2324 102.979 98.3659 101.79 98.6328 100.684C98.8997 99.5768 99.248 98.5807 99.6777 97.6953C100.114 96.8099 100.589 96.0579 101.104 95.4395C101.624 94.8145 102.135 94.3522 102.637 94.0527L102.92 94.8535C102.49 95.1595 102.064 95.6022 101.641 96.1816C101.224 96.7611 100.846 97.4577 100.508 98.2715C100.169 99.0853 99.8991 99.9935 99.6973 100.996C99.4954 101.999 99.3945 103.073 99.3945 104.219V104.414C99.3945 105.56 99.4954 106.634 99.6973 107.637C99.8991 108.639 100.169 109.548 100.508 110.361C100.846 111.182 101.224 111.885 101.641 112.471C102.064 113.063 102.49 113.519 102.92 113.838L102.637 114.59C102.135 114.29 101.624 113.835 101.104 113.223C100.589 112.617 100.114 111.875 99.6777 110.996C99.248 110.124 98.8997 109.131 98.6328 108.018C98.3659 106.904 98.2324 105.697 98.2324 104.395ZM108.77 99.4336V100.391H103.477V99.4336H108.77ZM105.42 96.7188H106.582V107.432C106.582 107.92 106.647 108.288 106.777 108.535C106.908 108.783 107.077 108.949 107.285 109.033C107.493 109.118 107.718 109.16 107.959 109.16C108.135 109.16 108.304 109.15 108.467 109.131C108.63 109.105 108.776 109.079 108.906 109.053L108.955 110.039C108.812 110.085 108.626 110.12 108.398 110.146C108.171 110.179 107.943 110.195 107.715 110.195C107.266 110.195 106.868 110.114 106.523 109.951C106.178 109.782 105.908 109.495 105.713 109.092C105.518 108.682 105.42 108.125 105.42 107.422V96.7188ZM114.707 104.248V104.395C114.707 105.697 114.574 106.904 114.307 108.018C114.04 109.131 113.688 110.124 113.252 110.996C112.816 111.875 112.34 112.617 111.826 113.223C111.312 113.835 110.801 114.29 110.293 114.59L110.01 113.838C110.446 113.532 110.872 113.086 111.289 112.5C111.706 111.914 112.083 111.208 112.422 110.381C112.767 109.561 113.04 108.649 113.242 107.646C113.444 106.637 113.545 105.56 113.545 104.414V104.219C113.545 103.073 113.441 101.999 113.232 100.996C113.024 99.987 112.747 99.0723 112.402 98.252C112.057 97.4316 111.676 96.7285 111.26 96.1426C110.843 95.5566 110.426 95.1139 110.01 94.8145L110.293 94.0527C110.801 94.3522 111.312 94.8145 111.826 95.4395C112.34 96.0579 112.816 96.8099 113.252 97.6953C113.688 98.5807 114.04 99.5768 114.307 100.684C114.574 101.79 114.707 102.979 114.707 104.248Z" fill="#1E398F"/>
</svg>
