<svg width="23" height="16" viewBox="0 0 23 16" fill="none" xmlns="http://www.w3.org/2000/svg">
<path d="M22.7071 8.70711C23.0976 8.31658 23.0976 7.68342 22.7071 7.29289L16.3431 0.928932C15.9526 0.538408 15.3195 0.538408 14.9289 0.928932C14.5384 1.31946 14.5384 1.95262 14.9289 2.34315L20.5858 8L14.9289 13.6569C14.5384 14.0474 14.5384 14.6805 14.9289 15.0711C15.3195 15.4616 15.9526 15.4616 16.3431 15.0711L22.7071 8.70711ZM0.5 9C0.526563 9 0.553098 9 0.579605 9C0.606113 9 0.632593 9 0.659046 9C0.685498 9 0.711924 9 0.738321 9C0.764719 9 0.79109 9 0.817433 9C0.843776 9 0.870091 9 0.89638 9C0.922668 9 0.948929 9 0.975162 9C1.0014 9 1.0276 9 1.05378 9C1.07996 9 1.10611 9 1.13224 9C1.15836 9 1.18446 9 1.21053 9C1.2366 9 1.26264 9 1.28865 9C1.31467 9 1.34065 9 1.36662 9C1.39258 9 1.41851 9 1.44441 9C1.47032 9 1.4962 9 1.52205 9C1.5479 9 1.57373 9 1.59952 9C1.62532 9 1.65109 9 1.67683 9C1.70257 9 1.72829 9 1.75398 9C1.77966 9 1.80533 9 1.83096 9C1.85659 9 1.8822 9 1.90778 9C1.93336 9 1.95891 9 1.98443 9C2.00996 9 2.03546 9 2.06093 9C2.0864 9 2.11184 9 2.13726 9C2.16268 9 2.18806 9 2.21343 9C2.23879 9 2.26412 9 2.28943 9C2.31474 9 2.34002 9 2.36528 9C2.39053 9 2.41576 9 2.44096 9C2.46616 9 2.49133 9 2.51648 9C2.54162 9 2.56674 9 2.59183 9C2.61692 9 2.64199 9 2.66703 9C2.69206 9 2.71708 9 2.74206 9C2.76704 9 2.792 9 2.81693 9C2.84186 9 2.86676 9 2.89164 9C2.91652 9 2.94136 9 2.96619 9C2.99101 9 3.0158 9 3.04057 9C3.06534 9 3.09008 9 3.1148 9C3.13951 9 3.1642 9 3.18886 9C3.21352 9 3.23816 9 3.26276 9C3.28737 9 3.31195 9 3.3365 9C3.36106 9 3.38558 9 3.41008 9C3.43458 9 3.45906 9 3.4835 9C3.50795 9 3.53237 9 3.55676 9C3.58115 9 3.60552 9 3.62986 9C3.6542 9 3.67851 9 3.7028 9C3.72708 9 3.75134 9 3.77557 9C3.7998 9 3.82401 9 3.84819 9C3.87237 9 3.89652 9 3.92064 9C3.94477 9 3.96887 9 3.99294 9C4.01701 9 4.04106 9 4.06508 9C4.08909 9 4.11309 9 4.13705 9C4.16102 9 4.18496 9 4.20887 9C4.23278 9 4.25666 9 4.28052 9C4.30438 9 4.32821 9 4.35202 9C4.37583 9 4.3996 9 4.42336 9C4.44711 9 4.47083 9 4.49453 9C4.51823 9 4.54191 9 4.56555 9C4.5892 9 4.61282 9 4.63641 9C4.66 9 4.68357 9 4.70711 9C4.73065 9 4.75416 9 4.77765 9C4.80114 9 4.8246 9 4.84803 9C4.87147 9 4.89488 9 4.91826 9C4.94164 9 4.96499 9 4.98832 9C5.01165 9 5.03495 9 5.05823 9C5.0815 9 5.10475 9 5.12797 9C5.1512 9 5.17439 9 5.19756 9C5.22073 9 5.24388 9 5.26699 9C5.29011 9 5.3132 9 5.33626 9C5.35933 9 5.38237 9 5.40538 9C5.42839 9 5.45138 9 5.47433 9C5.49729 9 5.52023 9 5.54313 9C5.56604 9 5.58892 9 5.61177 9C5.63463 9 5.65745 9 5.68026 9C5.70306 9 5.72583 9 5.74858 9C5.77133 9 5.79405 9 5.81675 9C5.83944 9 5.86211 9 5.88476 9C5.9074 9 5.93002 9 5.95261 9C5.9752 9 5.99777 9 6.02031 9C6.04285 9 6.06536 9 6.08784 9C6.11033 9 6.13279 9 6.15523 9C6.17766 9 6.20007 9 6.22245 9C6.24483 9 6.26719 9 6.28952 9C6.31185 9 6.33415 9 6.35643 9C6.37871 9 6.40096 9 6.42318 9C6.44541 9 6.46761 9 6.48978 9C6.51196 9 6.5341 9 6.55622 9C6.57835 9 6.60044 9 6.62251 9C6.64458 9 6.66662 9 6.68864 9C6.71066 9 6.73265 9 6.75461 9C6.77658 9 6.79852 9 6.82043 9C6.84234 9 6.86423 9 6.88609 9C6.90795 9 6.92979 9 6.9516 9C6.97341 9 6.99519 9 7.01695 9C7.03871 9 7.06044 9 7.08214 9C7.10385 9 7.12553 9 7.14718 9C7.16884 9 7.19046 9 7.21207 9C7.23367 9 7.25524 9 7.27679 9C7.29834 9 7.31987 9 7.34137 9C7.36287 9 7.38434 9 7.40579 9C7.42723 9 7.44865 9 7.47005 9C7.49145 9 7.51281 9 7.53416 9C7.5555 9 7.57682 9 7.59811 9C7.6194 9 7.64067 9 7.66191 9C7.68315 9 7.70437 9 7.72556 9C7.74675 9 7.76791 9 7.78905 9C7.81018 9 7.8313 9 7.85238 9C7.87347 9 7.89453 9 7.91557 9C7.9366 9 7.95761 9 7.97859 9C7.99958 9 8.02053 9 8.04147 9C8.0624 9 8.08331 9 8.10419 9C8.12507 9 8.14592 9 8.16675 9C8.18758 9 8.20839 9 8.22917 9C8.24994 9 8.2707 9 8.29142 9C8.31215 9 8.33285 9 8.35353 9C8.37421 9 8.39486 9 8.41548 9C8.43611 9 8.45671 9 8.47728 9C8.49785 9 8.5184 9 8.53893 9C8.55945 9 8.57995 9 8.60042 9C8.62089 9 8.64134 9 8.66176 9C8.68218 9 8.70257 9 8.72294 9C8.74331 9 8.76366 9 8.78398 9C8.8043 9 8.82459 9 8.84486 9C8.86513 9 8.88537 9 8.90559 9C8.92581 9 8.946 9 8.96616 9C8.98633 9 9.00647 9 9.02659 9C9.0467 9 9.06679 9 9.08686 9C9.10693 9 9.12696 9 9.14698 9C9.16699 9 9.18698 9 9.20695 9C9.22691 9 9.24685 9 9.26676 9C9.28668 9 9.30656 9 9.32643 9C9.34629 9 9.36613 9 9.38594 9C9.40575 9 9.42554 9 9.4453 9C9.46506 9 9.4848 9 9.50451 9C9.52422 9 9.5439 9 9.56356 9C9.58322 9 9.60286 9 9.62247 9C9.64208 9 9.66166 9 9.68122 9C9.70078 9 9.72032 9 9.73983 9C9.75934 9 9.77882 9 9.79828 9C9.81774 9 9.83717 9 9.85658 9C9.87599 9 9.89538 9 9.91473 9C9.93409 9 9.95343 9 9.97273 9C9.99204 9 10.0113 9 10.0306 9C10.0498 9 10.0691 9 10.0883 9C10.1075 9 10.1267 9 10.1458 9C10.165 9 10.1841 9 10.2032 9C10.2223 9 10.2414 9 10.2605 9C10.2795 9 10.2986 9 10.3176 9C10.3366 9 10.3556 9 10.3745 9C10.3935 9 10.4124 9 10.4313 9C10.4502 9 10.4691 9 10.488 9C10.5068 9 10.5257 9 10.5445 9C10.5633 9 10.5821 9 10.6008 9C10.6196 9 10.6383 9 10.657 9C10.6757 9 10.6944 9 10.7131 9C10.7317 9 10.7504 9 10.769 9C10.7876 9 10.8062 9 10.8247 9C10.8433 9 10.8618 9 10.8803 9C10.8988 9 10.9173 9 10.9358 9C10.9542 9 10.9727 9 10.9911 9C11.0095 9 11.0279 9 11.0462 9C11.0646 9 11.0829 9 11.1012 9C11.1196 9 11.1378 9 11.1561 9C11.1744 9 11.1926 9 11.2108 9C11.229 9 11.2472 9 11.2654 9C11.2835 9 11.3017 9 11.3198 9C11.3379 9 11.356 9 11.3741 9C11.3921 9 11.4102 9 11.4282 9C11.4462 9 11.4642 9 11.4821 9C11.5001 9 11.5181 9 11.536 9C11.5539 9 11.5718 9 11.5896 9C11.6075 9 11.6254 9 11.6432 9C11.661 9 11.6788 9 11.6965 9C11.7143 9 11.7321 9 11.7498 9C11.7675 9 11.7852 9 11.8029 9C11.8205 9 11.8382 9 11.8558 9C11.8734 9 11.891 9 11.9086 9C11.9262 9 11.9437 9 11.9612 9C11.9788 9 11.9963 9 12.0137 9C12.0312 9 12.0487 9 12.0661 9C12.0835 9 12.1009 9 12.1183 9C12.1357 9 12.153 9 12.1703 9C12.1877 9 12.205 9 12.2222 9C12.2395 9 12.2568 9 12.274 9C12.2912 9 12.3084 9 12.3256 9C12.3428 9 12.36 9 12.3771 9C12.3942 9 12.4113 9 12.4284 9C12.4455 9 12.4626 9 12.4796 9C12.4966 9 12.5136 9 12.5306 9C12.5476 9 12.5646 9 12.5815 9C12.5985 9 12.6154 9 12.6323 9C12.6492 9 12.666 9 12.6829 9C12.6997 9 12.7165 9 12.7333 9C12.7501 9 12.7669 9 12.7836 9C12.8004 9 12.8171 9 12.8338 9C12.8505 9 12.8671 9 12.8838 9C12.9004 9 12.9171 9 12.9337 9C12.9503 9 12.9668 9 12.9834 9C12.9999 9 13.0165 9 13.033 9C13.0495 9 13.0659 9 13.0824 9C13.0989 9 13.1153 9 13.1317 9C13.1481 9 13.1645 9 13.1808 9C13.1972 9 13.2135 9 13.2298 9C13.2461 9 13.2624 9 13.2787 9C13.295 9 13.3112 9 13.3274 9C13.3436 9 13.3598 9 13.376 9C13.3921 9 13.4083 9 13.4244 9C13.4405 9 13.4566 9 13.4727 9C13.4887 9 13.5048 9 13.5208 9C13.5368 9 13.5528 9 13.5688 9C13.5848 9 13.6007 9 13.6167 9C13.6326 9 13.6485 9 13.6644 9C13.6802 9 13.6961 9 13.7119 9C13.7278 9 13.7436 9 13.7593 9C13.7751 9 13.7909 9 13.8066 9C13.8224 9 13.8381 9 13.8538 9C13.8694 9 13.8851 9 13.9007 9C13.9164 9 13.932 9 13.9476 9C13.9632 9 13.9788 9 13.9943 9C14.0098 9 14.0254 9 14.0409 9C14.0564 9 14.0718 9 14.0873 9C14.1027 9 14.1182 9 14.1336 9C14.149 9 14.1643 9 14.1797 9C14.195 9 14.2104 9 14.2257 9C14.241 9 14.2563 9 14.2715 9C14.2868 9 14.302 9 14.3172 9C14.3324 9 14.3476 9 14.3628 9C14.378 9 14.3931 9 14.4082 9C14.4233 9 14.4384 9 14.4535 9C14.4686 9 14.4836 9 14.4987 9C14.5137 9 14.5287 9 14.5436 9C14.5586 9 14.5736 9 14.5885 9C14.6034 9 14.6183 9 14.6332 9C14.6481 9 14.663 9 14.6778 9C14.6926 9 14.7074 9 14.7222 9C14.737 9 14.7518 9 14.7665 9C14.7813 9 14.796 9 14.8107 9C14.8254 9 14.84 9 14.8547 9C14.8693 9 14.884 9 14.8986 9C14.9132 9 14.9277 9 14.9423 9C14.9568 9 14.9714 9 14.9859 9C15.0004 9 15.0149 9 15.0293 9C15.0438 9 15.0582 9 15.0726 9C15.087 9 15.1014 9 15.1158 9C15.1302 9 15.1445 9 15.1588 9C15.1731 9 15.1874 9 15.2017 9C15.216 9 15.2302 9 15.2445 9C15.2587 9 15.2729 9 15.2871 9C15.3013 9 15.3154 9 15.3295 9C15.3437 9 15.3578 9 15.3719 9C15.386 9 15.4 9 15.4141 9C15.4281 9 15.4421 9 15.4561 9C15.4701 9 15.4841 9 15.498 9C15.512 9 15.5259 9 15.5398 9C15.5537 9 15.5676 9 15.5814 9C15.5953 9 15.6091 9 15.6229 9C15.6367 9 15.6505 9 15.6643 9C15.678 9 15.6918 9 15.7055 9C15.7192 9 15.7329 9 15.7466 9C15.7602 9 15.7739 9 15.7875 9C15.8011 9 15.8147 9 15.8283 9C15.8419 9 15.8554 9 15.869 9C15.8825 9 15.896 9 15.9095 9C15.923 9 15.9364 9 15.9499 9C15.9633 9 15.9767 9 15.9901 9C16.0035 9 16.0169 9 16.0302 9C16.0436 9 16.0569 9 16.0702 9C16.0835 9 16.0968 9 16.11 9C16.1233 9 16.1365 9 16.1497 9C16.1629 9 16.1761 9 16.1893 9C16.2024 9 16.2156 9 16.2287 9C16.2418 9 16.2549 9 16.268 9C16.2811 9 16.2941 9 16.3071 9C16.3202 9 16.3332 9 16.3461 9C16.3591 9 16.3721 9 16.385 9C16.398 9 16.4109 9 16.4238 9C16.4366 9 16.4495 9 16.4623 9C16.4752 9 16.488 9 16.5008 9C16.5136 9 16.5264 9 16.5391 9C16.5519 9 16.5646 9 16.5773 9C16.59 9 16.6027 9 16.6154 9C16.628 9 16.6407 9 16.6533 9C16.6659 9 16.6785 9 16.6911 9C16.7036 9 16.7162 9 16.7287 9C16.7412 9 16.7537 9 16.7662 9C16.7787 9 16.7912 9 16.8036 9C16.816 9 16.8284 9 16.8408 9C16.8532 9 16.8656 9 16.8779 9C16.8903 9 16.9026 9 16.9149 9C16.9272 9 16.9395 9 16.9517 9C16.964 9 16.9762 9 16.9884 9C17.0006 9 17.0128 9 17.025 9C17.0371 9 17.0493 9 17.0614 9C17.0735 9 17.0856 9 17.0977 9C17.1098 9 17.1218 9 17.1338 9C17.1459 9 17.1579 9 17.1699 9C17.1818 9 17.1938 9 17.2057 9C17.2177 9 17.2296 9 17.2415 9C17.2534 9 17.2653 9 17.2771 9C17.289 9 17.3008 9 17.3126 9C17.3244 9 17.3362 9 17.3479 9C17.3597 9 17.3714 9 17.3831 9C17.3949 9 17.4065 9 17.4182 9C17.4299 9 17.4415 9 17.4532 9C17.4648 9 17.4764 9 17.488 9C17.4995 9 17.5111 9 17.5226 9C17.5342 9 17.5457 9 17.5572 9C17.5687 9 17.5801 9 17.5916 9C17.603 9 17.6145 9 17.6259 9C17.6373 9 17.6486 9 17.66 9C17.6714 9 17.6827 9 17.694 9C17.7053 9 17.7166 9 17.7279 9C17.7392 9 17.7504 9 17.7616 9C17.7729 9 17.7841 9 17.7952 9C17.8064 9 17.8176 9 17.8287 9C17.8398 9 17.851 9 17.8621 9C17.8731 9 17.8842 9 17.8953 9C17.9063 9 17.9173 9 17.9283 9C17.9393 9 17.9503 9 17.9613 9C17.9722 9 17.9832 9 17.9941 9C18.005 9 18.0159 9 18.0268 9C18.0376 9 18.0485 9 18.0593 9C18.0702 9 18.081 9 18.0917 9C18.1025 9 18.1133 9 18.124 9C18.1348 9 18.1455 9 18.1562 9C18.1669 9 18.1775 9 18.1882 9C18.1988 9 18.2095 9 18.2201 9C18.2307 9 18.2413 9 18.2518 9C18.2624 9 18.2729 9 18.2835 9C18.294 9 18.3045 9 18.315 9C18.3254 9 18.3359 9 18.3463 9C18.3568 9 18.3672 9 18.3776 9C18.3879 9 18.3983 9 18.4087 9C18.419 9 18.4293 9 18.4396 9C18.4499 9 18.4602 9 18.4705 9C18.4807 9 18.491 9 18.5012 9C18.5114 9 18.5216 9 18.5317 9C18.5419 9 18.5521 9 18.5622 9C18.5723 9 18.5824 9 18.5925 9C18.6026 9 18.6126 9 18.6227 9C18.6327 9 18.6427 9 18.6527 9C18.6627 9 18.6727 9 18.6827 9C18.6926 9 18.7026 9 18.7125 9C18.7224 9 18.7323 9 18.7421 9C18.752 9 18.7618 9 18.7717 9C18.7815 9 18.7913 9 18.8011 9C18.8109 9 18.8206 9 18.8303 9C18.8401 9 18.8498 9 18.8595 9C18.8692 9 18.8789 9 18.8885 9C18.8982 9 18.9078 9 18.9174 9C18.927 9 18.9366 9 18.9462 9C18.9557 9 18.9653 9 18.9748 9C18.9843 9 18.9938 9 19.0033 9C19.0128 9 19.0222 9 19.0317 9C19.0411 9 19.0505 9 19.0599 9C19.0693 9 19.0787 9 19.088 9C19.0974 9 19.1067 9 19.116 9C19.1253 9 19.1346 9 19.1439 9C19.1531 9 19.1624 9 19.1716 9C19.1808 9 19.19 9 19.1992 9C19.2084 9 19.2175 9 19.2267 9C19.2358 9 19.2449 9 19.254 9C19.2631 9 19.2722 9 19.2812 9C19.2903 9 19.2993 9 19.3083 9C19.3173 9 19.3263 9 19.3353 9C19.3442 9 19.3532 9 19.3621 9C19.371 9 19.3799 9 19.3888 9C19.3977 9 19.4065 9 19.4154 9C19.4242 9 19.433 9 19.4418 9C19.4506 9 19.4594 9 19.4681 9C19.4769 9 19.4856 9 19.4943 9C19.5031 9 19.5117 9 19.5204 9C19.5291 9 19.5377 9 19.5464 9C19.555 9 19.5636 9 19.5722 9C19.5808 9 19.5893 9 19.5979 9C19.6064 9 19.6149 9 19.6234 9C19.6319 9 19.6404 9 19.6489 9C19.6573 9 19.6657 9 19.6742 9C19.6826 9 19.691 9 19.6993 9C19.7077 9 19.7161 9 19.7244 9C19.7327 9 19.741 9 19.7493 9C19.7576 9 19.7659 9 19.7741 9C19.7824 9 19.7906 9 19.7988 9C19.807 9 19.8152 9 19.8234 9C19.8315 9 19.8397 9 19.8478 9C19.8559 9 19.864 9 19.8721 9C19.8802 9 19.8882 9 19.8963 9C19.9043 9 19.9123 9 19.9203 9C19.9283 9 19.9363 9 19.9442 9C19.9522 9 19.9601 9 19.968 9C19.9759 9 19.9838 9 19.9917 9C19.9996 9 20.0074 9 20.0153 9C20.0231 9 20.0309 9 20.0387 9C20.0465 9 20.0542 9 20.062 9C20.0697 9 20.0775 9 20.0852 9C20.0929 9 20.1005 9 20.1082 9C20.1159 9 20.1235 9 20.1311 9C20.1388 9 20.1464 9 20.1539 9C20.1615 9 20.1691 9 20.1766 9C20.1841 9 20.1917 9 20.1992 9C20.2067 9 20.2141 9 20.2216 9C20.229 9 20.2365 9 20.2439 9C20.2513 9 20.2587 9 20.2661 9C20.2734 9 20.2808 9 20.2881 9C20.2955 9 20.3028 9 20.3101 9C20.3174 9 20.3246 9 20.3319 9C20.3391 9 20.3464 9 20.3536 9C20.3608 9 20.368 9 20.3751 9C20.3823 9 20.3894 9 20.3966 9C20.4037 9 20.4108 9 20.4179 9C20.425 9 20.432 9 20.4391 9C20.4461 9 20.4531 9 20.4601 9C20.4671 9 20.4741 9 20.4811 9C20.4881 9 20.495 9 20.5019 9C20.5088 9 20.5157 9 20.5226 9C20.5295 9 20.5364 9 20.5432 9C20.55 9 20.5569 9 20.5637 9C20.5705 9 20.5772 9 20.584 9C20.5907 9 20.5975 9 20.6042 9C20.6109 9 20.6176 9 20.6243 9C20.631 9 20.6376 9 20.6443 9C20.6509 9 20.6575 9 20.6641 9C20.6707 9 20.6773 9 20.6838 9C20.6904 9 20.6969 9 20.7034 9C20.7099 9 20.7164 9 20.7229 9C20.7294 9 20.7358 9 20.7423 9C20.7487 9 20.7551 9 20.7615 9C20.7679 9 20.7743 9 20.7806 9C20.787 9 20.7933 9 20.7996 9C20.8059 9 20.8122 9 20.8185 9C20.8248 9 20.831 9 20.8373 9C20.8435 9 20.8497 9 20.8559 9C20.8621 9 20.8683 9 20.8744 9C20.8806 9 20.8867 9 20.8928 9C20.8989 9 20.905 9 20.9111 9C20.9171 9 20.9232 9 20.9292 9C20.9352 9 20.9413 9 20.9472 9C20.9532 9 20.9592 9 20.9652 9C20.9711 9 20.977 9 20.9829 9C20.9889 9 20.9947 9 21.0006 9C21.0065 9 21.0123 9 21.0182 9C21.024 9 21.0298 9 21.0356 9C21.0414 9 21.0472 9 21.0529 9C21.0587 9 21.0644 9 21.0701 9C21.0758 9 21.0815 9 21.0872 9C21.0928 9 21.0985 9 21.1041 9C21.1097 9 21.1154 9 21.1209 9C21.1265 9 21.1321 9 21.1377 9C21.1432 9 21.1487 9 21.1543 9C21.1598 9 21.1653 9 21.1707 9C21.1762 9 21.1817 9 21.1871 9C21.1925 9 21.1979 9 21.2033 9C21.2087 9 21.2141 9 21.2194 9C21.2248 9 21.2301 9 21.2354 9C21.2408 9 21.246 9 21.2513 9C21.2566 9 21.2618 9 21.2671 9C21.2723 9 21.2775 9 21.2827 9C21.2879 9 21.2931 9 21.2983 9C21.3034 9 21.3085 9 21.3137 9C21.3188 9 21.3239 9 21.3289 9C21.334 9 21.3391 9 21.3441 9C21.3492 9 21.3542 9 21.3592 9C21.3642 9 21.3692 9 21.3741 9C21.3791 9 21.384 9 21.3889 9C21.3939 9 21.3988 9 21.4036 9C21.4085 9 21.4134 9 21.4182 9C21.4231 9 21.4279 9 21.4327 9C21.4375 9 21.4423 9 21.447 9C21.4518 9 21.4565 9 21.4613 9C21.466 9 21.4707 9 21.4754 9C21.4801 9 21.4847 9 21.4894 9C21.494 9 21.4986 9 21.5033 9C21.5079 9 21.5125 9 21.517 9C21.5216 9 21.5261 9 21.5307 9C21.5352 9 21.5397 9 21.5442 9C21.5487 9 21.5532 9 21.5576 9C21.5621 9 21.5665 9 21.5709 9C21.5753 9 21.5797 9 21.5841 9C21.5885 9 21.5928 9 21.5972 9C21.6015 9 21.6058 9 21.6101 9C21.6144 9 21.6187 9 21.623 9C21.6272 9 21.6315 9 21.6357 9C21.6399 9 21.6441 9 21.6483 9C21.6525 9 21.6566 9 21.6608 9C21.6649 9 21.669 9 21.6731 9C21.6772 9 21.6813 9 21.6854 9C21.6895 9 21.6935 9 21.6975 9C21.7016 9 21.7056 9 21.7096 9C21.7136 9 21.7175 9 21.7215 9C21.7254 9 21.7294 9 21.7333 9C21.7372 9 21.7411 9 21.745 9C21.7488 9 21.7527 9 21.7565 9C21.7604 9 21.7642 9 21.768 9C21.7718 9 21.7756 9 21.7793 9C21.7831 9 21.7868 9 21.7905 9C21.7943 9 21.798 9 21.8017 9C21.8053 9 21.809 9 21.8126 9C21.8163 9 21.8199 9 21.8235 9C21.8271 9 21.8307 9 21.8343 9C21.8379 9 21.8414 9 21.8449 9C21.8485 9 21.852 9 21.8555 9C21.859 9 21.8625 9 21.8659 9C21.8694 9 21.8728 9 21.8762 9C21.8796 9 21.883 9 21.8864 9C21.8898 9 21.8932 9 21.8965 9C21.8999 9 21.9032 9 21.9065 9C21.9098 9 21.9131 9 21.9163 9C21.9196 9 21.9229 9 21.9261 9C21.9293 9 21.9325 9 21.9357 9C21.9389 9 21.9421 9 21.9452 9C21.9484 9 21.9515 9 21.9547 9C21.9578 9 21.9609 9 21.9639 9C21.967 9 21.9701 9 21.9731 9C21.9762 9 21.9792 9 21.9822 9C21.9852 9 21.9882 9 21.9912 9C21.9941 9 21.9971 9 22 9V7C21.9971 7 21.9941 7 21.9912 7C21.9882 7 21.9852 7 21.9822 7C21.9792 7 21.9762 7 21.9731 7C21.9701 7 21.967 7 21.9639 7C21.9609 7 21.9578 7 21.9547 7C21.9515 7 21.9484 7 21.9452 7C21.9421 7 21.9389 7 21.9357 7C21.9325 7 21.9293 7 21.9261 7C21.9229 7 21.9196 7 21.9163 7C21.9131 7 21.9098 7 21.9065 7C21.9032 7 21.8999 7 21.8965 7C21.8932 7 21.8898 7 21.8864 7C21.883 7 21.8796 7 21.8762 7C21.8728 7 21.8694 7 21.8659 7C21.8625 7 21.859 7 21.8555 7C21.852 7 21.8485 7 21.8449 7C21.8414 7 21.8379 7 21.8343 7C21.8307 7 21.8271 7 21.8235 7C21.8199 7 21.8163 7 21.8126 7C21.809 7 21.8053 7 21.8017 7C21.798 7 21.7943 7 21.7905 7C21.7868 7 21.7831 7 21.7793 7C21.7756 7 21.7718 7 21.768 7C21.7642 7 21.7604 7 21.7565 7C21.7527 7 21.7488 7 21.745 7C21.7411 7 21.7372 7 21.7333 7C21.7294 7 21.7254 7 21.7215 7C21.7175 7 21.7136 7 21.7096 7C21.7056 7 21.7016 7 21.6975 7C21.6935 7 21.6895 7 21.6854 7C21.6813 7 21.6772 7 21.6731 7C21.669 7 21.6649 7 21.6608 7C21.6566 7 21.6525 7 21.6483 7C21.6441 7 21.6399 7 21.6357 7C21.6315 7 21.6272 7 21.623 7C21.6187 7 21.6144 7 21.6101 7C21.6058 7 21.6015 7 21.5972 7C21.5928 7 21.5885 7 21.5841 7C21.5797 7 21.5753 7 21.5709 7C21.5665 7 21.5621 7 21.5576 7C21.5532 7 21.5487 7 21.5442 7C21.5397 7 21.5352 7 21.5307 7C21.5261 7 21.5216 7 21.517 7C21.5125 7 21.5079 7 21.5033 7C21.4986 7 21.494 7 21.4894 7C21.4847 7 21.4801 7 21.4754 7C21.4707 7 21.466 7 21.4613 7C21.4565 7 21.4518 7 21.447 7C21.4423 7 21.4375 7 21.4327 7C21.4279 7 21.4231 7 21.4182 7C21.4134 7 21.4085 7 21.4036 7C21.3988 7 21.3939 7 21.3889 7C21.384 7 21.3791 7 21.3741 7C21.3692 7 21.3642 7 21.3592 7C21.3542 7 21.3492 7 21.3441 7C21.3391 7 21.334 7 21.3289 7C21.3239 7 21.3188 7 21.3137 7C21.3085 7 21.3034 7 21.2983 7C21.2931 7 21.2879 7 21.2827 7C21.2775 7 21.2723 7 21.2671 7C21.2618 7 21.2566 7 21.2513 7C21.246 7 21.2408 7 21.2354 7C21.2301 7 21.2248 7 21.2194 7C21.2141 7 21.2087 7 21.2033 7C21.1979 7 21.1925 7 21.1871 7C21.1817 7 21.1762 7 21.1707 7C21.1653 7 21.1598 7 21.1543 7C21.1487 7 21.1432 7 21.1377 7C21.1321 7 21.1265 7 21.1209 7C21.1154 7 21.1097 7 21.1041 7C21.0985 7 21.0928 7 21.0872 7C21.0815 7 21.0758 7 21.0701 7C21.0644 7 21.0587 7 21.0529 7C21.0472 7 21.0414 7 21.0356 7C21.0298 7 21.024 7 21.0182 7C21.0123 7 21.0065 7 21.0006 7C20.9947 7 20.9889 7 20.9829 7C20.977 7 20.9711 7 20.9652 7C20.9592 7 20.9532 7 20.9472 7C20.9413 7 20.9352 7 20.9292 7C20.9232 7 20.9171 7 20.9111 7C20.905 7 20.8989 7 20.8928 7C20.8867 7 20.8806 7 20.8744 7C20.8683 7 20.8621 7 20.8559 7C20.8497 7 20.8435 7 20.8373 7C20.831 7 20.8248 7 20.8185 7C20.8122 7 20.8059 7 20.7996 7C20.7933 7 20.787 7 20.7806 7C20.7743 7 20.7679 7 20.7615 7C20.7551 7 20.7487 7 20.7423 7C20.7358 7 20.7294 7 20.7229 7C20.7164 7 20.7099 7 20.7034 7C20.6969 7 20.6904 7 20.6838 7C20.6773 7 20.6707 7 20.6641 7C20.6575 7 20.6509 7 20.6443 7C20.6376 7 20.631 7 20.6243 7C20.6176 7 20.6109 7 20.6042 7C20.5975 7 20.5907 7 20.584 7C20.5772 7 20.5705 7 20.5637 7C20.5569 7 20.55 7 20.5432 7C20.5364 7 20.5295 7 20.5226 7C20.5157 7 20.5088 7 20.5019 7C20.495 7 20.4881 7 20.4811 7C20.4741 7 20.4671 7 20.4601 7C20.4531 7 20.4461 7 20.4391 7C20.432 7 20.425 7 20.4179 7C20.4108 7 20.4037 7 20.3966 7C20.3894 7 20.3823 7 20.3751 7C20.368 7 20.3608 7 20.3536 7C20.3464 7 20.3391 7 20.3319 7C20.3246 7 20.3174 7 20.3101 7C20.3028 7 20.2955 7 20.2881 7C20.2808 7 20.2734 7 20.2661 7C20.2587 7 20.2513 7 20.2439 7C20.2365 7 20.229 7 20.2216 7C20.2141 7 20.2067 7 20.1992 7C20.1917 7 20.1841 7 20.1766 7C20.1691 7 20.1615 7 20.1539 7C20.1464 7 20.1388 7 20.1311 7C20.1235 7 20.1159 7 20.1082 7C20.1005 7 20.0929 7 20.0852 7C20.0775 7 20.0697 7 20.062 7C20.0542 7 20.0465 7 20.0387 7C20.0309 7 20.0231 7 20.0153 7C20.0074 7 19.9996 7 19.9917 7C19.9838 7 19.9759 7 19.968 7C19.9601 7 19.9522 7 19.9442 7C19.9363 7 19.9283 7 19.9203 7C19.9123 7 19.9043 7 19.8963 7C19.8882 7 19.8802 7 19.8721 7C19.864 7 19.8559 7 19.8478 7C19.8397 7 19.8315 7 19.8234 7C19.8152 7 19.807 7 19.7988 7C19.7906 7 19.7824 7 19.7741 7C19.7659 7 19.7576 7 19.7493 7C19.741 7 19.7327 7 19.7244 7C19.7161 7 19.7077 7 19.6993 7C19.691 7 19.6826 7 19.6742 7C19.6657 7 19.6573 7 19.6489 7C19.6404 7 19.6319 7 19.6234 7C19.6149 7 19.6064 7 19.5979 7C19.5893 7 19.5808 7 19.5722 7C19.5636 7 19.555 7 19.5464 7C19.5377 7 19.5291 7 19.5204 7C19.5117 7 19.5031 7 19.4943 7C19.4856 7 19.4769 7 19.4681 7C19.4594 7 19.4506 7 19.4418 7C19.433 7 19.4242 7 19.4154 7C19.4065 7 19.3977 7 19.3888 7C19.3799 7 19.371 7 19.3621 7C19.3532 7 19.3442 7 19.3353 7C19.3263 7 19.3173 7 19.3083 7C19.2993 7 19.2903 7 19.2812 7C19.2722 7 19.2631 7 19.254 7C19.2449 7 19.2358 7 19.2267 7C19.2175 7 19.2084 7 19.1992 7C19.19 7 19.1808 7 19.1716 7C19.1624 7 19.1531 7 19.1439 7C19.1346 7 19.1253 7 19.116 7C19.1067 7 19.0974 7 19.088 7C19.0787 7 19.0693 7 19.0599 7C19.0505 7 19.0411 7 19.0317 7C19.0222 7 19.0128 7 19.0033 7C18.9938 7 18.9843 7 18.9748 7C18.9653 7 18.9557 7 18.9462 7C18.9366 7 18.927 7 18.9174 7C18.9078 7 18.8982 7 18.8885 7C18.8789 7 18.8692 7 18.8595 7C18.8498 7 18.8401 7 18.8303 7C18.8206 7 18.8109 7 18.8011 7C18.7913 7 18.7815 7 18.7717 7C18.7618 7 18.752 7 18.7421 7C18.7323 7 18.7224 7 18.7125 7C18.7026 7 18.6926 7 18.6827 7C18.6727 7 18.6627 7 18.6527 7C18.6427 7 18.6327 7 18.6227 7C18.6126 7 18.6026 7 18.5925 7C18.5824 7 18.5723 7 18.5622 7C18.5521 7 18.5419 7 18.5317 7C18.5216 7 18.5114 7 18.5012 7C18.491 7 18.4807 7 18.4705 7C18.4602 7 18.4499 7 18.4396 7C18.4293 7 18.419 7 18.4087 7C18.3983 7 18.3879 7 18.3776 7C18.3672 7 18.3568 7 18.3463 7C18.3359 7 18.3254 7 18.315 7C18.3045 7 18.294 7 18.2835 7C18.2729 7 18.2624 7 18.2518 7C18.2413 7 18.2307 7 18.2201 7C18.2095 7 18.1988 7 18.1882 7C18.1775 7 18.1669 7 18.1562 7C18.1455 7 18.1348 7 18.124 7C18.1133 7 18.1025 7 18.0917 7C18.081 7 18.0702 7 18.0593 7C18.0485 7 18.0376 7 18.0268 7C18.0159 7 18.005 7 17.9941 7C17.9832 7 17.9722 7 17.9613 7C17.9503 7 17.9393 7 17.9283 7C17.9173 7 17.9063 7 17.8953 7C17.8842 7 17.8731 7 17.8621 7C17.851 7 17.8398 7 17.8287 7C17.8176 7 17.8064 7 17.7952 7C17.7841 7 17.7729 7 17.7616 7C17.7504 7 17.7392 7 17.7279 7C17.7166 7 17.7053 7 17.694 7C17.6827 7 17.6714 7 17.66 7C17.6486 7 17.6373 7 17.6259 7C17.6145 7 17.603 7 17.5916 7C17.5801 7 17.5687 7 17.5572 7C17.5457 7 17.5342 7 17.5226 7C17.5111 7 17.4995 7 17.488 7C17.4764 7 17.4648 7 17.4532 7C17.4415 7 17.4299 7 17.4182 7C17.4065 7 17.3949 7 17.3831 7C17.3714 7 17.3597 7 17.3479 7C17.3362 7 17.3244 7 17.3126 7C17.3008 7 17.289 7 17.2771 7C17.2653 7 17.2534 7 17.2415 7C17.2296 7 17.2177 7 17.2057 7C17.1938 7 17.1818 7 17.1699 7C17.1579 7 17.1459 7 17.1338 7C17.1218 7 17.1098 7 17.0977 7C17.0856 7 17.0735 7 17.0614 7C17.0493 7 17.0371 7 17.025 7C17.0128 7 17.0006 7 16.9884 7C16.9762 7 16.964 7 16.9517 7C16.9395 7 16.9272 7 16.9149 7C16.9026 7 16.8903 7 16.8779 7C16.8656 7 16.8532 7 16.8408 7C16.8284 7 16.816 7 16.8036 7C16.7912 7 16.7787 7 16.7662 7C16.7537 7 16.7412 7 16.7287 7C16.7162 7 16.7036 7 16.6911 7C16.6785 7 16.6659 7 16.6533 7C16.6407 7 16.628 7 16.6154 7C16.6027 7 16.59 7 16.5773 7C16.5646 7 16.5519 7 16.5391 7C16.5264 7 16.5136 7 16.5008 7C16.488 7 16.4752 7 16.4623 7C16.4495 7 16.4366 7 16.4238 7C16.4109 7 16.398 7 16.385 7C16.3721 7 16.3591 7 16.3461 7C16.3332 7 16.3202 7 16.3071 7C16.2941 7 16.2811 7 16.268 7C16.2549 7 16.2418 7 16.2287 7C16.2156 7 16.2024 7 16.1893 7C16.1761 7 16.1629 7 16.1497 7C16.1365 7 16.1233 7 16.11 7C16.0968 7 16.0835 7 16.0702 7C16.0569 7 16.0436 7 16.0302 7C16.0169 7 16.0035 7 15.9901 7C15.9767 7 15.9633 7 15.9499 7C15.9364 7 15.923 7 15.9095 7C15.896 7 15.8825 7 15.869 7C15.8554 7 15.8419 7 15.8283 7C15.8147 7 15.8011 7 15.7875 7C15.7739 7 15.7602 7 15.7466 7C15.7329 7 15.7192 7 15.7055 7C15.6918 7 15.678 7 15.6643 7C15.6505 7 15.6367 7 15.6229 7C15.6091 7 15.5953 7 15.5814 7C15.5676 7 15.5537 7 15.5398 7C15.5259 7 15.512 7 15.498 7C15.4841 7 15.4701 7 15.4561 7C15.4421 7 15.4281 7 15.4141 7C15.4 7 15.386 7 15.3719 7C15.3578 7 15.3437 7 15.3295 7C15.3154 7 15.3013 7 15.2871 7C15.2729 7 15.2587 7 15.2445 7C15.2302 7 15.216 7 15.2017 7C15.1874 7 15.1731 7 15.1588 7C15.1445 7 15.1302 7 15.1158 7C15.1014 7 15.087 7 15.0726 7C15.0582 7 15.0438 7 15.0293 7C15.0149 7 15.0004 7 14.9859 7C14.9714 7 14.9568 7 14.9423 7C14.9277 7 14.9132 7 14.8986 7C14.884 7 14.8693 7 14.8547 7C14.84 7 14.8254 7 14.8107 7C14.796 7 14.7813 7 14.7665 7C14.7518 7 14.737 7 14.7222 7C14.7074 7 14.6926 7 14.6778 7C14.663 7 14.6481 7 14.6332 7C14.6183 7 14.6034 7 14.5885 7C14.5736 7 14.5586 7 14.5436 7C14.5287 7 14.5137 7 14.4987 7C14.4836 7 14.4686 7 14.4535 7C14.4384 7 14.4233 7 14.4082 7C14.3931 7 14.378 7 14.3628 7C14.3476 7 14.3324 7 14.3172 7C14.302 7 14.2868 7 14.2715 7C14.2563 7 14.241 7 14.2257 7C14.2104 7 14.195 7 14.1797 7C14.1643 7 14.149 7 14.1336 7C14.1182 7 14.1027 7 14.0873 7C14.0718 7 14.0564 7 14.0409 7C14.0254 7 14.0098 7 13.9943 7C13.9788 7 13.9632 7 13.9476 7C13.932 7 13.9164 7 13.9007 7C13.8851 7 13.8694 7 13.8538 7C13.8381 7 13.8224 7 13.8066 7C13.7909 7 13.7751 7 13.7593 7C13.7436 7 13.7278 7 13.7119 7C13.6961 7 13.6802 7 13.6644 7C13.6485 7 13.6326 7 13.6167 7C13.6007 7 13.5848 7 13.5688 7C13.5528 7 13.5368 7 13.5208 7C13.5048 7 13.4887 7 13.4727 7C13.4566 7 13.4405 7 13.4244 7C13.4083 7 13.3921 7 13.376 7C13.3598 7 13.3436 7 13.3274 7C13.3112 7 13.295 7 13.2787 7C13.2624 7 13.2461 7 13.2298 7C13.2135 7 13.1972 7 13.1808 7C13.1645 7 13.1481 7 13.1317 7C13.1153 7 13.0989 7 13.0824 7C13.0659 7 13.0495 7 13.033 7C13.0165 7 12.9999 7 12.9834 7C12.9668 7 12.9503 7 12.9337 7C12.9171 7 12.9004 7 12.8838 7C12.8671 7 12.8505 7 12.8338 7C12.8171 7 12.8004 7 12.7836 7C12.7669 7 12.7501 7 12.7333 7C12.7165 7 12.6997 7 12.6829 7C12.666 7 12.6492 7 12.6323 7C12.6154 7 12.5985 7 12.5815 7C12.5646 7 12.5476 7 12.5306 7C12.5136 7 12.4966 7 12.4796 7C12.4626 7 12.4455 7 12.4284 7C12.4113 7 12.3942 7 12.3771 7C12.36 7 12.3428 7 12.3256 7C12.3084 7 12.2912 7 12.274 7C12.2568 7 12.2395 7 12.2222 7C12.205 7 12.1877 7 12.1703 7C12.153 7 12.1357 7 12.1183 7C12.1009 7 12.0835 7 12.0661 7C12.0487 7 12.0312 7 12.0137 7C11.9963 7 11.9788 7 11.9612 7C11.9437 7 11.9262 7 11.9086 7C11.891 7 11.8734 7 11.8558 7C11.8382 7 11.8205 7 11.8029 7C11.7852 7 11.7675 7 11.7498 7C11.7321 7 11.7143 7 11.6965 7C11.6788 7 11.661 7 11.6432 7C11.6254 7 11.6075 7 11.5896 7C11.5718 7 11.5539 7 11.536 7C11.5181 7 11.5001 7 11.4821 7C11.4642 7 11.4462 7 11.4282 7C11.4102 7 11.3921 7 11.3741 7C11.356 7 11.3379 7 11.3198 7C11.3017 7 11.2835 7 11.2654 7C11.2472 7 11.229 7 11.2108 7C11.1926 7 11.1744 7 11.1561 7C11.1378 7 11.1196 7 11.1012 7C11.0829 7 11.0646 7 11.0462 7C11.0279 7 11.0095 7 10.9911 7C10.9727 7 10.9542 7 10.9358 7C10.9173 7 10.8988 7 10.8803 7C10.8618 7 10.8433 7 10.8247 7C10.8062 7 10.7876 7 10.769 7C10.7504 7 10.7317 7 10.7131 7C10.6944 7 10.6757 7 10.657 7C10.6383 7 10.6196 7 10.6008 7C10.5821 7 10.5633 7 10.5445 7C10.5257 7 10.5068 7 10.488 7C10.4691 7 10.4502 7 10.4313 7C10.4124 7 10.3935 7 10.3745 7C10.3556 7 10.3366 7 10.3176 7C10.2986 7 10.2795 7 10.2605 7C10.2414 7 10.2223 7 10.2032 7C10.1841 7 10.165 7 10.1458 7C10.1267 7 10.1075 7 10.0883 7C10.0691 7 10.0498 7 10.0306 7C10.0113 7 9.99204 7 9.97273 7C9.95343 7 9.93409 7 9.91473 7C9.89538 7 9.87599 7 9.85658 7C9.83717 7 9.81774 7 9.79828 7C9.77882 7 9.75934 7 9.73983 7C9.72032 7 9.70078 7 9.68122 7C9.66166 7 9.64208 7 9.62247 7C9.60286 7 9.58322 7 9.56356 7C9.5439 7 9.52422 7 9.50451 7C9.4848 7 9.46506 7 9.4453 7C9.42554 7 9.40575 7 9.38594 7C9.36613 7 9.34629 7 9.32643 7C9.30656 7 9.28668 7 9.26676 7C9.24685 7 9.22691 7 9.20695 7C9.18698 7 9.16699 7 9.14698 7C9.12696 7 9.10693 7 9.08686 7C9.06679 7 9.0467 7 9.02659 7C9.00647 7 8.98633 7 8.96616 7C8.946 7 8.92581 7 8.90559 7C8.88537 7 8.86513 7 8.84486 7C8.82459 7 8.8043 7 8.78398 7C8.76366 7 8.74331 7 8.72294 7C8.70257 7 8.68218 7 8.66176 7C8.64134 7 8.62089 7 8.60042 7C8.57995 7 8.55945 7 8.53893 7C8.5184 7 8.49785 7 8.47728 7C8.45671 7 8.43611 7 8.41548 7C8.39486 7 8.37421 7 8.35353 7C8.33285 7 8.31215 7 8.29142 7C8.2707 7 8.24994 7 8.22917 7C8.20839 7 8.18758 7 8.16675 7C8.14592 7 8.12507 7 8.10419 7C8.08331 7 8.0624 7 8.04147 7C8.02053 7 7.99958 7 7.97859 7C7.95761 7 7.9366 7 7.91557 7C7.89453 7 7.87347 7 7.85238 7C7.8313 7 7.81018 7 7.78905 7C7.76791 7 7.74675 7 7.72556 7C7.70437 7 7.68315 7 7.66191 7C7.64067 7 7.6194 7 7.59811 7C7.57682 7 7.5555 7 7.53416 7C7.51281 7 7.49145 7 7.47005 7C7.44865 7 7.42723 7 7.40579 7C7.38434 7 7.36287 7 7.34137 7C7.31987 7 7.29834 7 7.27679 7C7.25524 7 7.23367 7 7.21207 7C7.19046 7 7.16884 7 7.14718 7C7.12553 7 7.10385 7 7.08214 7C7.06044 7 7.03871 7 7.01695 7C6.99519 7 6.97341 7 6.9516 7C6.92979 7 6.90795 7 6.88609 7C6.86423 7 6.84234 7 6.82043 7C6.79852 7 6.77658 7 6.75461 7C6.73265 7 6.71066 7 6.68864 7C6.66662 7 6.64458 7 6.62251 7C6.60044 7 6.57835 7 6.55622 7C6.5341 7 6.51196 7 6.48978 7C6.46761 7 6.44541 7 6.42318 7C6.40096 7 6.37871 7 6.35643 7C6.33415 7 6.31185 7 6.28952 7C6.26719 7 6.24483 7 6.22245 7C6.20007 7 6.17766 7 6.15523 7C6.13279 7 6.11033 7 6.08784 7C6.06536 7 6.04285 7 6.02031 7C5.99777 7 5.9752 7 5.95261 7C5.93002 7 5.9074 7 5.88476 7C5.86211 7 5.83944 7 5.81675 7C5.79405 7 5.77133 7 5.74858 7C5.72583 7 5.70306 7 5.68026 7C5.65745 7 5.63463 7 5.61177 7C5.58892 7 5.56604 7 5.54313 7C5.52023 7 5.49729 7 5.47433 7C5.45138 7 5.42839 7 5.40538 7C5.38237 7 5.35933 7 5.33626 7C5.3132 7 5.29011 7 5.26699 7C5.24388 7 5.22073 7 5.19756 7C5.17439 7 5.1512 7 5.12797 7C5.10475 7 5.0815 7 5.05823 7C5.03495 7 5.01165 7 4.98832 7C4.96499 7 4.94164 7 4.91826 7C4.89488 7 4.87147 7 4.84803 7C4.8246 7 4.80114 7 4.77765 7C4.75416 7 4.73065 7 4.70711 7C4.68357 7 4.66 7 4.63641 7C4.61282 7 4.5892 7 4.56555 7C4.54191 7 4.51823 7 4.49453 7C4.47083 7 4.44711 7 4.42336 7C4.3996 7 4.37583 7 4.35202 7C4.32821 7 4.30438 7 4.28052 7C4.25666 7 4.23278 7 4.20887 7C4.18496 7 4.16102 7 4.13705 7C4.11309 7 4.08909 7 4.06508 7C4.04106 7 4.01701 7 3.99294 7C3.96887 7 3.94477 7 3.92064 7C3.89652 7 3.87237 7 3.84819 7C3.82401 7 3.7998 7 3.77557 7C3.75134 7 3.72708 7 3.7028 7C3.67851 7 3.6542 7 3.62986 7C3.60552 7 3.58115 7 3.55676 7C3.53237 7 3.50795 7 3.4835 7C3.45906 7 3.43458 7 3.41008 7C3.38558 7 3.36106 7 3.3365 7C3.31195 7 3.28737 7 3.26276 7C3.23816 7 3.21352 7 3.18886 7C3.1642 7 3.13951 7 3.1148 7C3.09008 7 3.06534 7 3.04057 7C3.0158 7 2.99101 7 2.96619 7C2.94136 7 2.91652 7 2.89164 7C2.86676 7 2.84186 7 2.81693 7C2.792 7 2.76704 7 2.74206 7C2.71708 7 2.69206 7 2.66703 7C2.64199 7 2.61692 7 2.59183 7C2.56674 7 2.54162 7 2.51648 7C2.49133 7 2.46616 7 2.44096 7C2.41576 7 2.39053 7 2.36528 7C2.34002 7 2.31474 7 2.28943 7C2.26412 7 2.23879 7 2.21343 7C2.18806 7 2.16268 7 2.13726 7C2.11184 7 2.0864 7 2.06093 7C2.03546 7 2.00996 7 1.98443 7C1.95891 7 1.93336 7 1.90778 7C1.8822 7 1.85659 7 1.83096 7C1.80533 7 1.77966 7 1.75398 7C1.72829 7 1.70257 7 1.67683 7C1.65109 7 1.62532 7 1.59952 7C1.57373 7 1.5479 7 1.52205 7C1.4962 7 1.47032 7 1.44441 7C1.41851 7 1.39258 7 1.36662 7C1.34065 7 1.31467 7 1.28865 7C1.26264 7 1.2366 7 1.21053 7C1.18446 7 1.15836 7 1.13224 7C1.10611 7 1.07996 7 1.05378 7C1.0276 7 1.0014 7 0.975162 7C0.948929 7 0.922668 7 0.89638 7C0.870091 7 0.843776 7 0.817433 7C0.79109 7 0.764719 7 0.738321 7C0.711924 7 0.685498 7 0.659046 7C0.632593 7 0.606113 7 0.579605 7C0.553098 7 0.526563 7 0.5 7V9Z" fill="white"/>
</svg>
