<svg width="17" height="29" viewBox="0 0 17 29" fill="none" xmlns="http://www.w3.org/2000/svg">
<path d="M4.98055 17.88C6.98055 16.1466 8.50055 14.64 9.54055 13.36C10.5805 12.0533 11.2605 10.9333 11.5805 9.99997C11.9272 9.03997 12.1005 8.06664 12.1005 7.07997C12.1005 5.58663 11.7005 4.46663 10.9005 3.71997C10.1005 2.94663 9.03388 2.55997 7.70055 2.55997C6.66055 2.55997 5.83388 2.8533 5.22055 3.43997C4.60721 3.99997 4.30055 4.74663 4.30055 5.67997C4.30055 6.66664 4.43388 7.39997 4.70055 7.87997C4.96721 8.3333 5.10055 8.59997 5.10055 8.67997C5.10055 8.94664 4.88721 9.07997 4.46055 9.07997C3.42055 9.07997 2.56721 8.74664 1.90055 8.07997C1.23388 7.4133 0.900547 6.54664 0.900547 5.47997C0.900547 4.51997 1.22055 3.66663 1.86055 2.91997C2.52721 2.14664 3.43388 1.54663 4.58055 1.11997C5.75388 0.693302 7.07388 0.479969 8.54055 0.479969C10.7272 0.479969 12.5539 1.0533 14.0205 2.19997C15.5139 3.31997 16.2605 4.86663 16.2605 6.83997C16.2605 9.34663 14.5672 12.2533 11.1805 15.56C10.1939 16.4933 9.48721 17.2133 9.06055 17.72C8.63388 18.2266 8.32721 18.8133 8.14055 19.48L7.98055 20.2H7.26055L4.98055 17.88ZM7.50055 28.52C7.07388 28.52 6.59388 28.24 6.06055 27.68C5.55388 27.12 5.30055 26.6133 5.30055 26.16C5.30055 25.6533 5.55388 25.1333 6.06055 24.6C6.56721 24.04 7.04721 23.76 7.50055 23.76C7.95388 23.76 8.44721 24.04 8.98055 24.6C9.51388 25.16 9.78055 25.68 9.78055 26.16C9.78055 26.6133 9.51388 27.12 8.98055 27.68C8.44721 28.24 7.95388 28.52 7.50055 28.52Z" fill="white"/>
</svg>
