<svg width="20" height="14" viewBox="0 0 20 14" fill="none" xmlns="http://www.w3.org/2000/svg">
<path d="M3.36334 7.28872L2.15623 7.28872L3.00979 8.14227L7.14347 12.276C7.29223 12.4247 7.29223 12.6658 7.14347 12.8146C6.99478 12.9633 6.75355 12.9633 6.60486 12.8146L0.967474 7.17719C0.818714 7.02843 0.818714 6.78733 0.967474 6.63857L0.61392 6.28502L0.967478 6.63857L6.60457 1.00133C6.67921 0.926756 6.77594 0.889656 6.87402 0.889656C6.97217 0.889656 7.06891 0.926795 7.1434 1.00126C7.29209 1.15003 7.29207 1.39107 7.14333 1.5398L7.14333 1.53981L3.00978 5.67349L2.15627 6.52704L3.36334 6.52704L18.419 6.52704C18.6292 6.52704 18.7998 6.69763 18.7998 6.90788C18.7998 7.11817 18.6293 7.28872 18.419 7.28872L3.36334 7.28872Z" fill="#1E398F" stroke="#1E398F"/>
</svg>
