<svg width="52" height="53" viewBox="0 0 52 53" fill="none" xmlns="http://www.w3.org/2000/svg">
<path d="M1 28.4084L1.60036 23.1401L2.09468 20.0106L2.58899 16.9805L3.08331 14.0978L3.57763 11.4078L4.07195 8.95293L4.56626 6.77199L5.06058 4.89932L5.5549 3.36446L6.04921 2.19163L6.54353 1.39931L7.03785 1H7.53216L8.02648 1.39931L8.5208 2.19163L9.01511 3.36446L9.50943 4.89932L10.0037 6.77199L10.4981 8.95293L10.9924 11.4078L11.4867 14.0978L11.981 16.9805L12.4753 20.0106L12.9696 23.1401L13.464 26.3198L13.9583 29.4995L14.4526 32.629L14.9469 35.6591L15.4412 38.5418L15.9356 41.2318L16.4299 43.6867L16.9242 45.8676L17.4185 47.7403L17.9128 49.2751L18.4071 50.448L18.9015 51.2403L19.3958 51.6396H19.8901L20.3844 51.2403L20.8787 50.448L21.373 49.2751L21.8674 47.7403L22.3617 45.8676L22.856 43.6867L23.3503 41.2318L23.8446 38.5418L24.3389 35.6591L24.8333 32.629L25.3276 29.4995L25.8219 26.3198L26.3162 23.1401L26.8105 20.0106L27.3048 16.9805L27.7992 14.0978L28.2935 11.4078L28.7878 8.95293L29.2821 6.77199L29.7764 4.89932L30.2707 3.36446L30.7651 2.19163L31.2594 1.39931L31.7537 1L32.248 1L32.7423 1.39931L33.2366 2.19163L33.731 3.36446L34.2253 4.89932L34.7196 6.77199L35.2139 8.95293L35.7082 11.4078L36.2025 14.0978L36.6969 16.9805L37.1912 20.0106L37.6855 23.1401L38.1798 26.3198L38.6741 29.4995L39.1684 32.629L39.6628 35.6591L40.1571 38.5418L40.6514 41.2318L41.1457 43.6867L41.64 45.8676L42.1343 47.7403L42.6287 49.2751L43.123 50.448L43.6173 51.2403L44.1116 51.6396H44.6059L45.1002 51.2403L45.5946 50.448L46.0889 49.2751L46.5832 47.7403L47.0775 45.8676L47.5718 43.6867L48.0661 41.2318L48.5605 38.5418L49.0548 35.6591L49.5491 32.629L50.0434 29.4995L50.5377 26.3198" stroke="#1E398F" stroke-width="2"/>
</svg>
