<svg width="53" height="113" viewBox="0 0 53 113" fill="none" xmlns="http://www.w3.org/2000/svg">
<path d="M1 56.4802L1.50128 49.5129L2.00256 42.6555L2.50384 36.0162L3.00512 29.6995L3.50639 23.8053L4.00767 18.4263L4.50895 13.6474L5.01023 9.54409L5.51151 6.18096L6.01279 3.61107L6.51407 1.87496L7.01535 1H7.51663L8.01791 1.87496L8.51918 3.61107L9.02046 6.18096L9.52174 9.54409L10.023 13.6474L10.5243 18.4263L11.0256 23.8053L11.5269 29.6995L12.0281 36.0162L12.5294 42.6555L13.0307 49.5129L13.532 56.4802L14.0333 63.4474L14.5345 70.3048L15.0358 76.9441L15.5371 83.2608L16.0384 89.155L16.5396 94.534L17.0409 99.3129L17.5422 103.416L18.0435 106.779L18.5448 109.349L19.046 111.085L19.5473 111.96H20.0486L20.5499 111.085L21.0512 109.349L21.5524 106.779L22.0537 103.416L22.555 99.3129L23.0563 94.534L23.5576 89.155L24.0588 83.2608L24.5601 76.9441L25.0614 70.3048L25.5627 63.4474L26.0639 56.4802L26.5652 49.5129L27.0665 42.6555L27.5678 36.0162L28.0691 29.6995L28.5703 23.8053L29.0716 18.4263L29.5729 13.6474L30.0742 9.54409L30.5755 6.18096L31.0767 3.61107L31.578 1.87496L32.0793 1L32.5806 1L33.0819 1.87496L33.5831 3.61107L34.0844 6.18096L34.5857 9.54409L35.087 13.6474L35.5882 18.4263L36.0895 23.8053L36.5908 29.6995L37.0921 36.0162L37.5934 42.6555L38.0946 49.5129L38.5959 56.4802L39.0972 63.4474L39.5985 70.3048L40.0998 76.9441L40.601 83.2608L41.1023 89.155L41.6036 94.534L42.1049 99.3129L42.6062 103.416L43.1074 106.779L43.6087 109.349L44.11 111.085L44.6113 111.96H45.1125L45.6138 111.085L46.1151 109.349L46.6164 106.779L47.1177 103.416L47.6189 99.3129L48.1202 94.534L48.6215 89.155L49.1228 83.2608L49.6241 76.9441L50.1253 70.3048L50.6266 63.4474L51.1279 56.4802" stroke="#1E398F" stroke-width="2"/>
</svg>
