<svg width="526" height="403" viewBox="0 0 526 403" fill="none" xmlns="http://www.w3.org/2000/svg">
<path d="M48 29.2158L42.2216 39.2125L53.7686 39.2192L48 29.2158ZM46.9956 38.2152L46.8207 395.533L48.8207 395.534L48.9956 38.2164L46.9956 38.2152Z" fill="#1E398F"/>
<path d="M483.512 225.937L473.51 220.177L473.515 231.724L483.512 225.937ZM48.0005 227.524L474.513 226.949L474.512 224.949L47.9995 225.524L48.0005 227.524Z" fill="#1E398F"/>
<path d="M483.692 140.68L473.689 134.92L473.695 146.467L483.692 140.68ZM48.1801 142.266L474.693 141.692L474.692 139.692L48.1792 140.266L48.1801 142.266Z" fill="#1E398F"/>
<path d="M483.513 378.756L473.509 372.994L473.516 384.541L483.513 378.756ZM48.0005 380.257L474.513 379.767L474.512 377.767L47.9995 378.257L48.0005 380.257Z" fill="#1E398F"/>
<path d="M483.692 305.906L473.689 300.144L473.695 311.691L483.692 305.906ZM48.1802 307.407L474.693 306.916L474.692 304.916L48.1792 305.407L48.1802 307.407Z" fill="#1E398F"/>
<path d="M483.692 55.2651L473.689 49.5051L473.695 61.0521L483.692 55.2651ZM48.1801 56.8516L474.693 56.2773L474.692 54.2773L48.1792 54.8516L48.1801 56.8516Z" fill="#1E398F"/>
<path d="M491.641 373.455V374.564H487.07V373.455H491.641ZM488.617 371.4H490.062V379.814C490.062 380.101 490.107 380.317 490.195 380.463C490.284 380.609 490.398 380.705 490.539 380.752C490.68 380.799 490.831 380.822 490.992 380.822C491.112 380.822 491.237 380.812 491.367 380.791C491.503 380.765 491.604 380.744 491.672 380.729L491.68 381.908C491.565 381.945 491.414 381.979 491.227 382.01C491.044 382.046 490.823 382.064 490.562 382.064C490.208 382.064 489.883 381.994 489.586 381.854C489.289 381.713 489.052 381.479 488.875 381.15C488.703 380.817 488.617 380.369 488.617 379.807V371.4ZM494.648 380.189V381.354C494.648 381.827 494.529 382.327 494.289 382.854C494.049 383.385 493.714 383.827 493.281 384.182L492.461 383.611C492.628 383.382 492.768 383.148 492.883 382.908C492.997 382.674 493.083 382.429 493.141 382.174C493.203 381.924 493.234 381.658 493.234 381.377V380.189H494.648ZM503.844 380.877C504.188 380.877 504.505 380.807 504.797 380.666C505.089 380.525 505.328 380.333 505.516 380.088C505.703 379.838 505.81 379.554 505.836 379.236H507.211C507.185 379.736 507.016 380.202 506.703 380.635C506.396 381.062 505.992 381.408 505.492 381.674C504.992 381.934 504.443 382.064 503.844 382.064C503.208 382.064 502.654 381.952 502.18 381.729C501.711 381.505 501.32 381.197 501.008 380.807C500.701 380.416 500.469 379.968 500.312 379.463C500.161 378.952 500.086 378.413 500.086 377.846V377.518C500.086 376.95 500.161 376.413 500.312 375.908C500.469 375.398 500.701 374.947 501.008 374.557C501.32 374.166 501.711 373.859 502.18 373.635C502.654 373.411 503.208 373.299 503.844 373.299C504.505 373.299 505.083 373.434 505.578 373.705C506.073 373.971 506.461 374.335 506.742 374.799C507.029 375.257 507.185 375.778 507.211 376.361H505.836C505.81 376.012 505.711 375.697 505.539 375.416C505.372 375.135 505.143 374.911 504.852 374.744C504.565 374.572 504.229 374.486 503.844 374.486C503.401 374.486 503.029 374.575 502.727 374.752C502.43 374.924 502.193 375.158 502.016 375.455C501.844 375.747 501.719 376.072 501.641 376.432C501.568 376.786 501.531 377.148 501.531 377.518V377.846C501.531 378.215 501.568 378.58 501.641 378.939C501.714 379.299 501.836 379.624 502.008 379.916C502.185 380.208 502.422 380.442 502.719 380.619C503.021 380.791 503.396 380.877 503.844 380.877Z" fill="#1E398F"/>
<path d="M491.641 300.47V301.579H487.07V300.47H491.641ZM488.617 298.415H490.062V306.829C490.062 307.116 490.107 307.332 490.195 307.478C490.284 307.624 490.398 307.72 490.539 307.767C490.68 307.814 490.831 307.837 490.992 307.837C491.112 307.837 491.237 307.827 491.367 307.806C491.503 307.78 491.604 307.759 491.672 307.743L491.68 308.923C491.565 308.96 491.414 308.993 491.227 309.025C491.044 309.061 490.823 309.079 490.562 309.079C490.208 309.079 489.883 309.009 489.586 308.868C489.289 308.728 489.052 308.493 488.875 308.165C488.703 307.832 488.617 307.384 488.617 306.822V298.415ZM494.648 307.204V308.368C494.648 308.842 494.529 309.342 494.289 309.868C494.049 310.4 493.714 310.842 493.281 311.197L492.461 310.626C492.628 310.397 492.768 310.163 492.883 309.923C492.997 309.689 493.083 309.444 493.141 309.189C493.203 308.939 493.234 308.673 493.234 308.392V307.204H494.648ZM503.844 307.892C504.188 307.892 504.505 307.822 504.797 307.681C505.089 307.54 505.328 307.348 505.516 307.103C505.703 306.853 505.81 306.569 505.836 306.251H507.211C507.185 306.751 507.016 307.217 506.703 307.65C506.396 308.077 505.992 308.423 505.492 308.689C504.992 308.949 504.443 309.079 503.844 309.079C503.208 309.079 502.654 308.967 502.18 308.743C501.711 308.519 501.32 308.212 501.008 307.822C500.701 307.431 500.469 306.983 500.312 306.478C500.161 305.967 500.086 305.428 500.086 304.861V304.532C500.086 303.965 500.161 303.428 500.312 302.923C500.469 302.413 500.701 301.962 501.008 301.572C501.32 301.181 501.711 300.874 502.18 300.65C502.654 300.426 503.208 300.314 503.844 300.314C504.505 300.314 505.083 300.449 505.578 300.72C506.073 300.986 506.461 301.35 506.742 301.814C507.029 302.272 507.185 302.793 507.211 303.376H505.836C505.81 303.027 505.711 302.712 505.539 302.431C505.372 302.15 505.143 301.926 504.852 301.759C504.565 301.587 504.229 301.501 503.844 301.501C503.401 301.501 503.029 301.59 502.727 301.767C502.43 301.939 502.193 302.173 502.016 302.47C501.844 302.762 501.719 303.087 501.641 303.447C501.568 303.801 501.531 304.163 501.531 304.532V304.861C501.531 305.23 501.568 305.595 501.641 305.954C501.714 306.314 501.836 306.639 502.008 306.931C502.185 307.223 502.422 307.457 502.719 307.634C503.021 307.806 503.396 307.892 503.844 307.892Z" fill="#1E398F"/>
<path d="M491.641 227.485V228.594H487.07V227.485H491.641ZM488.617 225.43H490.062V233.844C490.062 234.131 490.107 234.347 490.195 234.493C490.284 234.639 490.398 234.735 490.539 234.782C490.68 234.829 490.831 234.852 490.992 234.852C491.112 234.852 491.237 234.842 491.367 234.821C491.503 234.795 491.604 234.774 491.672 234.758L491.68 235.938C491.565 235.974 491.414 236.008 491.227 236.04C491.044 236.076 490.823 236.094 490.562 236.094C490.208 236.094 489.883 236.024 489.586 235.883C489.289 235.743 489.052 235.508 488.875 235.18C488.703 234.847 488.617 234.399 488.617 233.836V225.43ZM494.648 234.219V235.383C494.648 235.857 494.529 236.357 494.289 236.883C494.049 237.415 493.714 237.857 493.281 238.211L492.461 237.641C492.628 237.412 492.768 237.178 492.883 236.938C492.997 236.704 493.083 236.459 493.141 236.204C493.203 235.954 493.234 235.688 493.234 235.407V234.219H494.648ZM503.844 234.907C504.188 234.907 504.505 234.836 504.797 234.696C505.089 234.555 505.328 234.362 505.516 234.118C505.703 233.868 505.81 233.584 505.836 233.266H507.211C507.185 233.766 507.016 234.232 506.703 234.665C506.396 235.092 505.992 235.438 505.492 235.704C504.992 235.964 504.443 236.094 503.844 236.094C503.208 236.094 502.654 235.982 502.18 235.758C501.711 235.534 501.32 235.227 501.008 234.836C500.701 234.446 500.469 233.998 500.312 233.493C500.161 232.982 500.086 232.443 500.086 231.875V231.547C500.086 230.98 500.161 230.443 500.312 229.938C500.469 229.428 500.701 228.977 501.008 228.586C501.32 228.196 501.711 227.889 502.18 227.665C502.654 227.441 503.208 227.329 503.844 227.329C504.505 227.329 505.083 227.464 505.578 227.735C506.073 228 506.461 228.365 506.742 228.829C507.029 229.287 507.185 229.808 507.211 230.391H505.836C505.81 230.042 505.711 229.727 505.539 229.446C505.372 229.165 505.143 228.941 504.852 228.774C504.565 228.602 504.229 228.516 503.844 228.516C503.401 228.516 503.029 228.605 502.727 228.782C502.43 228.954 502.193 229.188 502.016 229.485C501.844 229.777 501.719 230.102 501.641 230.461C501.568 230.816 501.531 231.178 501.531 231.547V231.875C501.531 232.245 501.568 232.61 501.641 232.969C501.714 233.329 501.836 233.654 502.008 233.946C502.185 234.237 502.422 234.472 502.719 234.649C503.021 234.821 503.396 234.907 503.844 234.907Z" fill="#1E398F"/>
<path d="M491.641 153.41V154.52H487.07V153.41H491.641ZM488.617 151.356H490.062V159.77C490.062 160.056 490.107 160.272 490.195 160.418C490.284 160.564 490.398 160.66 490.539 160.707C490.68 160.754 490.831 160.778 490.992 160.778C491.112 160.778 491.237 160.767 491.367 160.746C491.503 160.72 491.604 160.699 491.672 160.684L491.68 161.864C491.565 161.9 491.414 161.934 491.227 161.965C491.044 162.002 490.823 162.02 490.562 162.02C490.208 162.02 489.883 161.949 489.586 161.809C489.289 161.668 489.052 161.434 488.875 161.106C488.703 160.772 488.617 160.324 488.617 159.762V151.356ZM494.648 160.145V161.309C494.648 161.783 494.529 162.283 494.289 162.809C494.049 163.34 493.714 163.783 493.281 164.137L492.461 163.567C492.628 163.337 492.768 163.103 492.883 162.864C492.997 162.629 493.083 162.384 493.141 162.129C493.203 161.879 493.234 161.614 493.234 161.332V160.145H494.648ZM503.844 160.832C504.188 160.832 504.505 160.762 504.797 160.621C505.089 160.481 505.328 160.288 505.516 160.043C505.703 159.793 505.81 159.509 505.836 159.192H507.211C507.185 159.692 507.016 160.158 506.703 160.59C506.396 161.017 505.992 161.364 505.492 161.629C504.992 161.89 504.443 162.02 503.844 162.02C503.208 162.02 502.654 161.908 502.18 161.684C501.711 161.46 501.32 161.153 501.008 160.762C500.701 160.371 500.469 159.923 500.312 159.418C500.161 158.908 500.086 158.369 500.086 157.801V157.473C500.086 156.905 500.161 156.369 500.312 155.864C500.469 155.353 500.701 154.903 501.008 154.512C501.32 154.121 501.711 153.814 502.18 153.59C502.654 153.366 503.208 153.254 503.844 153.254C504.505 153.254 505.083 153.39 505.578 153.66C506.073 153.926 506.461 154.291 506.742 154.754C507.029 155.212 507.185 155.733 507.211 156.317H505.836C505.81 155.968 505.711 155.653 505.539 155.371C505.372 155.09 505.143 154.866 504.852 154.699C504.565 154.528 504.229 154.442 503.844 154.442C503.401 154.442 503.029 154.53 502.727 154.707C502.43 154.879 502.193 155.114 502.016 155.41C501.844 155.702 501.719 156.028 501.641 156.387C501.568 156.741 501.531 157.103 501.531 157.473V157.801C501.531 158.171 501.568 158.535 501.641 158.895C501.714 159.254 501.836 159.58 502.008 159.871C502.185 160.163 502.422 160.397 502.719 160.574C503.021 160.746 503.396 160.832 503.844 160.832Z" fill="#1E398F"/>
<path d="M491.641 80.4253V81.5347H487.07V80.4253H491.641ZM488.617 78.3706H490.062V86.7847C490.062 87.0711 490.107 87.2873 490.195 87.4331C490.284 87.5789 490.398 87.6753 490.539 87.7222C490.68 87.769 490.831 87.7925 490.992 87.7925C491.112 87.7925 491.237 87.7821 491.367 87.7612C491.503 87.7352 491.604 87.7144 491.672 87.6987L491.68 88.8784C491.565 88.9149 491.414 88.9487 491.227 88.98C491.044 89.0164 490.823 89.0347 490.562 89.0347C490.208 89.0347 489.883 88.9644 489.586 88.8237C489.289 88.6831 489.052 88.4487 488.875 88.1206C488.703 87.7873 488.617 87.3394 488.617 86.7769V78.3706ZM494.648 87.1597V88.3237C494.648 88.7977 494.529 89.2977 494.289 89.8237C494.049 90.355 493.714 90.7977 493.281 91.1519L492.461 90.5815C492.628 90.3524 492.768 90.118 492.883 89.8784C492.997 89.644 493.083 89.3993 493.141 89.144C493.203 88.894 493.234 88.6284 493.234 88.3472V87.1597H494.648ZM503.844 87.8472C504.188 87.8472 504.505 87.7769 504.797 87.6362C505.089 87.4956 505.328 87.3029 505.516 87.0581C505.703 86.8081 505.81 86.5243 505.836 86.2065H507.211C507.185 86.7065 507.016 87.1727 506.703 87.605C506.396 88.0321 505.992 88.3784 505.492 88.644C504.992 88.9045 504.443 89.0347 503.844 89.0347C503.208 89.0347 502.654 88.9227 502.18 88.6987C501.711 88.4748 501.32 88.1675 501.008 87.7769C500.701 87.3862 500.469 86.9383 500.312 86.4331C500.161 85.9227 500.086 85.3836 500.086 84.8159V84.4878C500.086 83.9201 500.161 83.3836 500.312 82.8784C500.469 82.368 500.701 81.9175 501.008 81.5269C501.32 81.1362 501.711 80.8289 502.18 80.605C502.654 80.381 503.208 80.269 503.844 80.269C504.505 80.269 505.083 80.4045 505.578 80.6753C506.073 80.9409 506.461 81.3055 506.742 81.769C507.029 82.2274 507.185 82.7482 507.211 83.3315H505.836C505.81 82.9826 505.711 82.6675 505.539 82.3862C505.372 82.105 505.143 81.881 504.852 81.7144C504.565 81.5425 504.229 81.4565 503.844 81.4565C503.401 81.4565 503.029 81.5451 502.727 81.7222C502.43 81.894 502.193 82.1284 502.016 82.4253C501.844 82.717 501.719 83.0425 501.641 83.4019C501.568 83.756 501.531 84.118 501.531 84.4878V84.8159C501.531 85.1857 501.568 85.5503 501.641 85.9097C501.714 86.269 501.836 86.5946 502.008 86.8862C502.185 87.1779 502.422 87.4123 502.719 87.5894C503.021 87.7612 503.396 87.8472 503.844 87.8472Z" fill="#1E398F"/>
<path d="M4.83984 4.82202L1.54492 13.8933H0.198242L3.99219 3.94019H4.86035L4.83984 4.82202ZM7.60156 13.8933L4.2998 4.82202L4.2793 3.94019H5.14746L8.95508 13.8933H7.60156ZM7.43066 10.2087V11.2888H1.83887V10.2087H7.43066ZM14.3486 12.2117L16.8643 6.49683H18.0811L14.7861 13.8933H13.9111L10.6299 6.49683H11.8467L14.3486 12.2117ZM11.4775 6.49683V13.8933H10.2129V6.49683H11.4775ZM17.1787 13.8933V6.49683H18.4502V13.8933H17.1787ZM25.416 6.49683V7.54272H21.6768V6.49683H25.416ZM21.8613 6.49683V13.8933H20.5967V6.49683H21.8613ZM26.5371 6.49683V13.8933H25.2656V6.49683H26.5371ZM33.5098 6.49683V7.54272H29.9346V6.49683H33.5098ZM34.624 6.49683V13.8933H33.3594V6.49683H34.624ZM29.627 6.49683H30.8984L30.707 10.0652C30.6751 10.6166 30.6227 11.1042 30.5498 11.5281C30.4814 11.9473 30.3857 12.3074 30.2627 12.6082C30.1442 12.9089 29.9938 13.155 29.8115 13.3464C29.6338 13.5333 29.4196 13.6723 29.1689 13.7634C28.9183 13.85 28.6289 13.8933 28.3008 13.8933H27.9043V12.7791L28.1777 12.7585C28.3737 12.7449 28.54 12.6993 28.6768 12.6218C28.818 12.5444 28.9365 12.4304 29.0322 12.28C29.1279 12.1251 29.2054 11.9268 29.2646 11.6853C29.3285 11.4438 29.3763 11.1567 29.4082 10.824C29.4447 10.4913 29.472 10.1039 29.4902 9.66187L29.627 6.49683ZM36.6816 13.2234C36.6816 13.0092 36.7477 12.8292 36.8799 12.6833C37.0166 12.533 37.2126 12.4578 37.4678 12.4578C37.723 12.4578 37.9167 12.533 38.0488 12.6833C38.1855 12.8292 38.2539 13.0092 38.2539 13.2234C38.2539 13.433 38.1855 13.6108 38.0488 13.7566C37.9167 13.9024 37.723 13.9753 37.4678 13.9753C37.2126 13.9753 37.0166 13.9024 36.8799 13.7566C36.7477 13.6108 36.6816 13.433 36.6816 13.2234ZM41.501 12.3894V13.408C41.501 13.8227 41.3962 14.2602 41.1865 14.7205C40.9769 15.1853 40.6829 15.5727 40.3047 15.8826L39.5869 15.3835C39.7327 15.183 39.8558 14.9779 39.9561 14.7683C40.0563 14.5632 40.1315 14.349 40.1816 14.1257C40.2363 13.907 40.2637 13.6746 40.2637 13.4285V12.3894H41.501ZM50.3262 9.23804H47.8037L47.79 8.17847H50.0801C50.4583 8.17847 50.7887 8.11466 51.0713 7.98706C51.3538 7.85946 51.5726 7.67716 51.7275 7.44019C51.887 7.19865 51.9668 6.91154 51.9668 6.57886C51.9668 6.21427 51.8962 5.91805 51.7549 5.69019C51.6182 5.45776 51.4062 5.28914 51.1191 5.18433C50.8366 5.07495 50.4766 5.02026 50.0391 5.02026H48.0977V13.8933H46.7783V3.94019H50.0391C50.5495 3.94019 51.0052 3.99259 51.4062 4.09741C51.8073 4.19767 52.1468 4.35718 52.4248 4.57593C52.7074 4.79012 52.9215 5.06356 53.0674 5.39624C53.2132 5.72892 53.2861 6.12769 53.2861 6.59253C53.2861 7.00269 53.1813 7.3741 52.9717 7.70679C52.762 8.03491 52.4704 8.30379 52.0967 8.51343C51.7275 8.72306 51.2946 8.8575 50.7979 8.91675L50.3262 9.23804ZM50.2646 13.8933H47.2842L48.0293 12.8201H50.2646C50.6839 12.8201 51.0394 12.7472 51.3311 12.6013C51.6273 12.4555 51.8529 12.2504 52.0078 11.9861C52.1628 11.7172 52.2402 11.4005 52.2402 11.0359C52.2402 10.6667 52.1742 10.3477 52.042 10.0789C51.9098 9.80998 51.7025 9.60262 51.4199 9.45679C51.1374 9.31095 50.7728 9.23804 50.3262 9.23804H48.4463L48.46 8.17847H51.0303L51.3105 8.56128C51.7891 8.60229 52.1947 8.73901 52.5273 8.97144C52.86 9.1993 53.113 9.49097 53.2861 9.84644C53.4639 10.2019 53.5527 10.5938 53.5527 11.0222C53.5527 11.642 53.416 12.1661 53.1426 12.5945C52.8737 13.0183 52.4932 13.3419 52.001 13.5652C51.5088 13.7839 50.93 13.8933 50.2646 13.8933Z" fill="#1E398F"/>
<path d="M48.1802 190.586L484.69 190" stroke="#1E398F" stroke-width="0.4"/>
<path d="M49.0024 192.321L485.513 191.735" stroke="#1E398F" stroke-width="0.4"/>
<path d="M49.0024 196.321L485.513 195.735" stroke="#1E398F" stroke-width="0.4"/>
<path d="M49.0024 201.321L485.513 200.735" stroke="#1E398F" stroke-width="0.4"/>
<path d="M48 208.321L484.51 207.735" stroke="#1E398F" stroke-width="0.4"/>
<path d="M49 217.321L484.512 216.735" stroke="#1E398F" stroke-width="0.4"/>
<path d="M36.5269 225.939V226.481C36.5269 226.773 36.5008 227.019 36.4487 227.219C36.3966 227.419 36.3218 227.58 36.2241 227.702C36.1265 227.824 36.0085 227.913 35.8701 227.968C35.7334 228.022 35.5788 228.049 35.4062 228.049C35.2695 228.049 35.1434 228.032 35.0278 227.998C34.9123 227.963 34.8081 227.909 34.7153 227.834C34.6242 227.757 34.5461 227.658 34.481 227.536C34.4159 227.414 34.3662 227.266 34.332 227.092C34.2979 226.918 34.2808 226.714 34.2808 226.481V225.939C34.2808 225.648 34.3068 225.404 34.3589 225.207C34.4126 225.01 34.4883 224.852 34.5859 224.733C34.6836 224.613 34.8008 224.527 34.9375 224.475C35.0758 224.423 35.2305 224.396 35.4014 224.396C35.5397 224.396 35.6667 224.414 35.7822 224.448C35.8994 224.48 36.0036 224.533 36.0947 224.606C36.1859 224.678 36.2632 224.774 36.3267 224.895C36.3918 225.013 36.4414 225.159 36.4756 225.332C36.5098 225.504 36.5269 225.707 36.5269 225.939ZM36.0728 226.555V225.864C36.0728 225.704 36.063 225.564 36.0435 225.444C36.0256 225.322 35.9987 225.218 35.9629 225.131C35.9271 225.045 35.8815 224.975 35.8262 224.921C35.7725 224.868 35.7098 224.829 35.6382 224.804C35.5682 224.778 35.4893 224.765 35.4014 224.765C35.2939 224.765 35.1987 224.785 35.1157 224.826C35.0327 224.865 34.9627 224.928 34.9058 225.014C34.8504 225.1 34.8081 225.214 34.7788 225.354C34.7495 225.493 34.7349 225.664 34.7349 225.864V226.555C34.7349 226.714 34.7438 226.855 34.7617 226.977C34.7812 227.099 34.8097 227.205 34.8472 227.294C34.8846 227.382 34.9302 227.455 34.9839 227.512C35.0376 227.569 35.0994 227.611 35.1694 227.639C35.241 227.665 35.32 227.678 35.4062 227.678C35.5169 227.678 35.6138 227.657 35.6968 227.614C35.7798 227.572 35.849 227.506 35.9043 227.417C35.9613 227.325 36.0036 227.209 36.0312 227.067C36.0589 226.924 36.0728 226.753 36.0728 226.555ZM39.3394 225.939V226.481C39.3394 226.773 39.3133 227.019 39.2612 227.219C39.2091 227.419 39.1343 227.58 39.0366 227.702C38.939 227.824 38.821 227.913 38.6826 227.968C38.5459 228.022 38.3913 228.049 38.2188 228.049C38.082 228.049 37.9559 228.032 37.8403 227.998C37.7248 227.963 37.6206 227.909 37.5278 227.834C37.4367 227.757 37.3586 227.658 37.2935 227.536C37.2284 227.414 37.1787 227.266 37.1445 227.092C37.1104 226.918 37.0933 226.714 37.0933 226.481V225.939C37.0933 225.648 37.1193 225.404 37.1714 225.207C37.2251 225.01 37.3008 224.852 37.3984 224.733C37.4961 224.613 37.6133 224.527 37.75 224.475C37.8883 224.423 38.043 224.396 38.2139 224.396C38.3522 224.396 38.4792 224.414 38.5947 224.448C38.7119 224.48 38.8161 224.533 38.9072 224.606C38.9984 224.678 39.0757 224.774 39.1392 224.895C39.2043 225.013 39.2539 225.159 39.2881 225.332C39.3223 225.504 39.3394 225.707 39.3394 225.939ZM38.8853 226.555V225.864C38.8853 225.704 38.8755 225.564 38.856 225.444C38.8381 225.322 38.8112 225.218 38.7754 225.131C38.7396 225.045 38.694 224.975 38.6387 224.921C38.585 224.868 38.5223 224.829 38.4507 224.804C38.3807 224.778 38.3018 224.765 38.2139 224.765C38.1064 224.765 38.0112 224.785 37.9282 224.826C37.8452 224.865 37.7752 224.928 37.7183 225.014C37.6629 225.1 37.6206 225.214 37.5913 225.354C37.562 225.493 37.5474 225.664 37.5474 225.864V226.555C37.5474 226.714 37.5563 226.855 37.5742 226.977C37.5938 227.099 37.6222 227.205 37.6597 227.294C37.6971 227.382 37.7427 227.455 37.7964 227.512C37.8501 227.569 37.9119 227.611 37.9819 227.639C38.0535 227.665 38.1325 227.678 38.2188 227.678C38.3294 227.678 38.4263 227.657 38.5093 227.614C38.5923 227.572 38.6615 227.506 38.7168 227.417C38.7738 227.325 38.8161 227.209 38.8438 227.067C38.8714 226.924 38.8853 226.753 38.8853 226.555ZM42.1519 225.939V226.481C42.1519 226.773 42.1258 227.019 42.0737 227.219C42.0216 227.419 41.9468 227.58 41.8491 227.702C41.7515 227.824 41.6335 227.913 41.4951 227.968C41.3584 228.022 41.2038 228.049 41.0312 228.049C40.8945 228.049 40.7684 228.032 40.6528 227.998C40.5373 227.963 40.4331 227.909 40.3403 227.834C40.2492 227.757 40.1711 227.658 40.106 227.536C40.0409 227.414 39.9912 227.266 39.957 227.092C39.9229 226.918 39.9058 226.714 39.9058 226.481V225.939C39.9058 225.648 39.9318 225.404 39.9839 225.207C40.0376 225.01 40.1133 224.852 40.2109 224.733C40.3086 224.613 40.4258 224.527 40.5625 224.475C40.7008 224.423 40.8555 224.396 41.0264 224.396C41.1647 224.396 41.2917 224.414 41.4072 224.448C41.5244 224.48 41.6286 224.533 41.7197 224.606C41.8109 224.678 41.8882 224.774 41.9517 224.895C42.0168 225.013 42.0664 225.159 42.1006 225.332C42.1348 225.504 42.1519 225.707 42.1519 225.939ZM41.6978 226.555V225.864C41.6978 225.704 41.688 225.564 41.6685 225.444C41.6506 225.322 41.6237 225.218 41.5879 225.131C41.5521 225.045 41.5065 224.975 41.4512 224.921C41.3975 224.868 41.3348 224.829 41.2632 224.804C41.1932 224.778 41.1143 224.765 41.0264 224.765C40.9189 224.765 40.8237 224.785 40.7407 224.826C40.6577 224.865 40.5877 224.928 40.5308 225.014C40.4754 225.1 40.4331 225.214 40.4038 225.354C40.3745 225.493 40.3599 225.664 40.3599 225.864V226.555C40.3599 226.714 40.3688 226.855 40.3867 226.977C40.4062 227.099 40.4347 227.205 40.4722 227.294C40.5096 227.382 40.5552 227.455 40.6089 227.512C40.6626 227.569 40.7244 227.611 40.7944 227.639C40.866 227.665 40.945 227.678 41.0312 227.678C41.1419 227.678 41.2388 227.657 41.3218 227.614C41.4048 227.572 41.474 227.506 41.5293 227.417C41.5863 227.325 41.6286 227.209 41.6562 227.067C41.6839 226.924 41.6978 226.753 41.6978 226.555ZM44.9644 225.939V226.481C44.9644 226.773 44.9383 227.019 44.8862 227.219C44.8341 227.419 44.7593 227.58 44.6616 227.702C44.564 227.824 44.446 227.913 44.3076 227.968C44.1709 228.022 44.0163 228.049 43.8438 228.049C43.707 228.049 43.5809 228.032 43.4653 227.998C43.3498 227.963 43.2456 227.909 43.1528 227.834C43.0617 227.757 42.9836 227.658 42.9185 227.536C42.8534 227.414 42.8037 227.266 42.7695 227.092C42.7354 226.918 42.7183 226.714 42.7183 226.481V225.939C42.7183 225.648 42.7443 225.404 42.7964 225.207C42.8501 225.01 42.9258 224.852 43.0234 224.733C43.1211 224.613 43.2383 224.527 43.375 224.475C43.5133 224.423 43.668 224.396 43.8389 224.396C43.9772 224.396 44.1042 224.414 44.2197 224.448C44.3369 224.48 44.4411 224.533 44.5322 224.606C44.6234 224.678 44.7007 224.774 44.7642 224.895C44.8293 225.013 44.8789 225.159 44.9131 225.332C44.9473 225.504 44.9644 225.707 44.9644 225.939ZM44.5103 226.555V225.864C44.5103 225.704 44.5005 225.564 44.481 225.444C44.4631 225.322 44.4362 225.218 44.4004 225.131C44.3646 225.045 44.319 224.975 44.2637 224.921C44.21 224.868 44.1473 224.829 44.0757 224.804C44.0057 224.778 43.9268 224.765 43.8389 224.765C43.7314 224.765 43.6362 224.785 43.5532 224.826C43.4702 224.865 43.4002 224.928 43.3433 225.014C43.2879 225.1 43.2456 225.214 43.2163 225.354C43.187 225.493 43.1724 225.664 43.1724 225.864V226.555C43.1724 226.714 43.1813 226.855 43.1992 226.977C43.2188 227.099 43.2472 227.205 43.2847 227.294C43.3221 227.382 43.3677 227.455 43.4214 227.512C43.4751 227.569 43.5369 227.611 43.6069 227.639C43.6785 227.665 43.7575 227.678 43.8438 227.678C43.9544 227.678 44.0513 227.657 44.1343 227.614C44.2173 227.572 44.2865 227.506 44.3418 227.417C44.3988 227.325 44.4411 227.209 44.4688 227.067C44.4964 226.924 44.5103 226.753 44.5103 226.555Z" fill="#1E398F"/>
<path d="M36.5269 217.939V218.481C36.5269 218.773 36.5008 219.019 36.4487 219.219C36.3966 219.419 36.3218 219.58 36.2241 219.702C36.1265 219.824 36.0085 219.913 35.8701 219.968C35.7334 220.022 35.5788 220.049 35.4062 220.049C35.2695 220.049 35.1434 220.032 35.0278 219.998C34.9123 219.963 34.8081 219.909 34.7153 219.834C34.6242 219.757 34.5461 219.658 34.481 219.536C34.4159 219.414 34.3662 219.266 34.332 219.092C34.2979 218.918 34.2808 218.714 34.2808 218.481V217.939C34.2808 217.648 34.3068 217.404 34.3589 217.207C34.4126 217.01 34.4883 216.852 34.5859 216.733C34.6836 216.613 34.8008 216.527 34.9375 216.475C35.0758 216.423 35.2305 216.396 35.4014 216.396C35.5397 216.396 35.6667 216.414 35.7822 216.448C35.8994 216.48 36.0036 216.533 36.0947 216.606C36.1859 216.678 36.2632 216.774 36.3267 216.895C36.3918 217.013 36.4414 217.159 36.4756 217.332C36.5098 217.504 36.5269 217.707 36.5269 217.939ZM36.0728 218.555V217.864C36.0728 217.704 36.063 217.564 36.0435 217.444C36.0256 217.322 35.9987 217.218 35.9629 217.131C35.9271 217.045 35.8815 216.975 35.8262 216.921C35.7725 216.868 35.7098 216.829 35.6382 216.804C35.5682 216.778 35.4893 216.765 35.4014 216.765C35.2939 216.765 35.1987 216.785 35.1157 216.826C35.0327 216.865 34.9627 216.928 34.9058 217.014C34.8504 217.1 34.8081 217.214 34.7788 217.354C34.7495 217.493 34.7349 217.664 34.7349 217.864V218.555C34.7349 218.714 34.7438 218.855 34.7617 218.977C34.7812 219.099 34.8097 219.205 34.8472 219.294C34.8846 219.382 34.9302 219.455 34.9839 219.512C35.0376 219.569 35.0994 219.611 35.1694 219.639C35.241 219.665 35.32 219.678 35.4062 219.678C35.5169 219.678 35.6138 219.657 35.6968 219.614C35.7798 219.572 35.849 219.506 35.9043 219.417C35.9613 219.325 36.0036 219.209 36.0312 219.067C36.0589 218.924 36.0728 218.753 36.0728 218.555ZM39.3394 217.939V218.481C39.3394 218.773 39.3133 219.019 39.2612 219.219C39.2091 219.419 39.1343 219.58 39.0366 219.702C38.939 219.824 38.821 219.913 38.6826 219.968C38.5459 220.022 38.3913 220.049 38.2188 220.049C38.082 220.049 37.9559 220.032 37.8403 219.998C37.7248 219.963 37.6206 219.909 37.5278 219.834C37.4367 219.757 37.3586 219.658 37.2935 219.536C37.2284 219.414 37.1787 219.266 37.1445 219.092C37.1104 218.918 37.0933 218.714 37.0933 218.481V217.939C37.0933 217.648 37.1193 217.404 37.1714 217.207C37.2251 217.01 37.3008 216.852 37.3984 216.733C37.4961 216.613 37.6133 216.527 37.75 216.475C37.8883 216.423 38.043 216.396 38.2139 216.396C38.3522 216.396 38.4792 216.414 38.5947 216.448C38.7119 216.48 38.8161 216.533 38.9072 216.606C38.9984 216.678 39.0757 216.774 39.1392 216.895C39.2043 217.013 39.2539 217.159 39.2881 217.332C39.3223 217.504 39.3394 217.707 39.3394 217.939ZM38.8853 218.555V217.864C38.8853 217.704 38.8755 217.564 38.856 217.444C38.8381 217.322 38.8112 217.218 38.7754 217.131C38.7396 217.045 38.694 216.975 38.6387 216.921C38.585 216.868 38.5223 216.829 38.4507 216.804C38.3807 216.778 38.3018 216.765 38.2139 216.765C38.1064 216.765 38.0112 216.785 37.9282 216.826C37.8452 216.865 37.7752 216.928 37.7183 217.014C37.6629 217.1 37.6206 217.214 37.5913 217.354C37.562 217.493 37.5474 217.664 37.5474 217.864V218.555C37.5474 218.714 37.5563 218.855 37.5742 218.977C37.5938 219.099 37.6222 219.205 37.6597 219.294C37.6971 219.382 37.7427 219.455 37.7964 219.512C37.8501 219.569 37.9119 219.611 37.9819 219.639C38.0535 219.665 38.1325 219.678 38.2188 219.678C38.3294 219.678 38.4263 219.657 38.5093 219.614C38.5923 219.572 38.6615 219.506 38.7168 219.417C38.7738 219.325 38.8161 219.209 38.8438 219.067C38.8714 218.924 38.8853 218.753 38.8853 218.555ZM42.1519 217.939V218.481C42.1519 218.773 42.1258 219.019 42.0737 219.219C42.0216 219.419 41.9468 219.58 41.8491 219.702C41.7515 219.824 41.6335 219.913 41.4951 219.968C41.3584 220.022 41.2038 220.049 41.0312 220.049C40.8945 220.049 40.7684 220.032 40.6528 219.998C40.5373 219.963 40.4331 219.909 40.3403 219.834C40.2492 219.757 40.1711 219.658 40.106 219.536C40.0409 219.414 39.9912 219.266 39.957 219.092C39.9229 218.918 39.9058 218.714 39.9058 218.481V217.939C39.9058 217.648 39.9318 217.404 39.9839 217.207C40.0376 217.01 40.1133 216.852 40.2109 216.733C40.3086 216.613 40.4258 216.527 40.5625 216.475C40.7008 216.423 40.8555 216.396 41.0264 216.396C41.1647 216.396 41.2917 216.414 41.4072 216.448C41.5244 216.48 41.6286 216.533 41.7197 216.606C41.8109 216.678 41.8882 216.774 41.9517 216.895C42.0168 217.013 42.0664 217.159 42.1006 217.332C42.1348 217.504 42.1519 217.707 42.1519 217.939ZM41.6978 218.555V217.864C41.6978 217.704 41.688 217.564 41.6685 217.444C41.6506 217.322 41.6237 217.218 41.5879 217.131C41.5521 217.045 41.5065 216.975 41.4512 216.921C41.3975 216.868 41.3348 216.829 41.2632 216.804C41.1932 216.778 41.1143 216.765 41.0264 216.765C40.9189 216.765 40.8237 216.785 40.7407 216.826C40.6577 216.865 40.5877 216.928 40.5308 217.014C40.4754 217.1 40.4331 217.214 40.4038 217.354C40.3745 217.493 40.3599 217.664 40.3599 217.864V218.555C40.3599 218.714 40.3688 218.855 40.3867 218.977C40.4062 219.099 40.4347 219.205 40.4722 219.294C40.5096 219.382 40.5552 219.455 40.6089 219.512C40.6626 219.569 40.7244 219.611 40.7944 219.639C40.866 219.665 40.945 219.678 41.0312 219.678C41.1419 219.678 41.2388 219.657 41.3218 219.614C41.4048 219.572 41.474 219.506 41.5293 219.417C41.5863 219.325 41.6286 219.209 41.6562 219.067C41.6839 218.924 41.6978 218.753 41.6978 218.555ZM44.2173 216.426V220H43.7656V216.99L42.855 217.322V216.914L44.1465 216.426H44.2173Z" fill="#1E398F"/>
<path d="M35.7798 255.426V259H35.3281V255.99L34.4175 256.322V255.914L35.709 255.426H35.7798ZM38.5923 255.426V259H38.1406V255.99L37.23 256.322V255.914L38.5215 255.426H38.5923ZM42.1519 256.939V257.481C42.1519 257.773 42.1258 258.019 42.0737 258.219C42.0216 258.419 41.9468 258.58 41.8491 258.702C41.7515 258.824 41.6335 258.913 41.4951 258.968C41.3584 259.022 41.2038 259.049 41.0312 259.049C40.8945 259.049 40.7684 259.032 40.6528 258.998C40.5373 258.963 40.4331 258.909 40.3403 258.834C40.2492 258.757 40.1711 258.658 40.106 258.536C40.0409 258.414 39.9912 258.266 39.957 258.092C39.9229 257.918 39.9058 257.714 39.9058 257.481V256.939C39.9058 256.648 39.9318 256.404 39.9839 256.207C40.0376 256.01 40.1133 255.852 40.2109 255.733C40.3086 255.613 40.4258 255.527 40.5625 255.475C40.7008 255.423 40.8555 255.396 41.0264 255.396C41.1647 255.396 41.2917 255.414 41.4072 255.448C41.5244 255.48 41.6286 255.533 41.7197 255.606C41.8109 255.678 41.8882 255.774 41.9517 255.895C42.0168 256.013 42.0664 256.159 42.1006 256.332C42.1348 256.504 42.1519 256.707 42.1519 256.939ZM41.6978 257.555V256.864C41.6978 256.704 41.688 256.564 41.6685 256.444C41.6506 256.322 41.6237 256.218 41.5879 256.131C41.5521 256.045 41.5065 255.975 41.4512 255.921C41.3975 255.868 41.3348 255.829 41.2632 255.804C41.1932 255.778 41.1143 255.765 41.0264 255.765C40.9189 255.765 40.8237 255.785 40.7407 255.826C40.6577 255.865 40.5877 255.928 40.5308 256.014C40.4754 256.1 40.4331 256.214 40.4038 256.354C40.3745 256.493 40.3599 256.664 40.3599 256.864V257.555C40.3599 257.714 40.3688 257.855 40.3867 257.977C40.4062 258.099 40.4347 258.205 40.4722 258.294C40.5096 258.382 40.5552 258.455 40.6089 258.512C40.6626 258.569 40.7244 258.611 40.7944 258.639C40.866 258.665 40.945 258.678 41.0312 258.678C41.1419 258.678 41.2388 258.657 41.3218 258.614C41.4048 258.572 41.474 258.506 41.5293 258.417C41.5863 258.325 41.6286 258.209 41.6562 258.067C41.6839 257.924 41.6978 257.753 41.6978 257.555ZM44.9644 256.939V257.481C44.9644 257.773 44.9383 258.019 44.8862 258.219C44.8341 258.419 44.7593 258.58 44.6616 258.702C44.564 258.824 44.446 258.913 44.3076 258.968C44.1709 259.022 44.0163 259.049 43.8438 259.049C43.707 259.049 43.5809 259.032 43.4653 258.998C43.3498 258.963 43.2456 258.909 43.1528 258.834C43.0617 258.757 42.9836 258.658 42.9185 258.536C42.8534 258.414 42.8037 258.266 42.7695 258.092C42.7354 257.918 42.7183 257.714 42.7183 257.481V256.939C42.7183 256.648 42.7443 256.404 42.7964 256.207C42.8501 256.01 42.9258 255.852 43.0234 255.733C43.1211 255.613 43.2383 255.527 43.375 255.475C43.5133 255.423 43.668 255.396 43.8389 255.396C43.9772 255.396 44.1042 255.414 44.2197 255.448C44.3369 255.48 44.4411 255.533 44.5322 255.606C44.6234 255.678 44.7007 255.774 44.7642 255.895C44.8293 256.013 44.8789 256.159 44.9131 256.332C44.9473 256.504 44.9644 256.707 44.9644 256.939ZM44.5103 257.555V256.864C44.5103 256.704 44.5005 256.564 44.481 256.444C44.4631 256.322 44.4362 256.218 44.4004 256.131C44.3646 256.045 44.319 255.975 44.2637 255.921C44.21 255.868 44.1473 255.829 44.0757 255.804C44.0057 255.778 43.9268 255.765 43.8389 255.765C43.7314 255.765 43.6362 255.785 43.5532 255.826C43.4702 255.865 43.4002 255.928 43.3433 256.014C43.2879 256.1 43.2456 256.214 43.2163 256.354C43.187 256.493 43.1724 256.664 43.1724 256.864V257.555C43.1724 257.714 43.1813 257.855 43.1992 257.977C43.2188 258.099 43.2472 258.205 43.2847 258.294C43.3221 258.382 43.3677 258.455 43.4214 258.512C43.4751 258.569 43.5369 258.611 43.6069 258.639C43.6785 258.665 43.7575 258.678 43.8438 258.678C43.9544 258.678 44.0513 258.657 44.1343 258.614C44.2173 258.572 44.2865 258.506 44.3418 258.417C44.3988 258.325 44.4411 258.209 44.4688 258.067C44.4964 257.924 44.5103 257.753 44.5103 257.555Z" fill="#1E398F"/>
<path d="M35.7798 260.426V264H35.3281V260.99L34.4175 261.322V260.914L35.709 260.426H35.7798ZM38.5923 260.426V264H38.1406V260.99L37.23 261.322V260.914L38.5215 260.426H38.5923ZM42.1519 261.939V262.481C42.1519 262.773 42.1258 263.019 42.0737 263.219C42.0216 263.419 41.9468 263.58 41.8491 263.702C41.7515 263.824 41.6335 263.913 41.4951 263.968C41.3584 264.022 41.2038 264.049 41.0312 264.049C40.8945 264.049 40.7684 264.032 40.6528 263.998C40.5373 263.963 40.4331 263.909 40.3403 263.834C40.2492 263.757 40.1711 263.658 40.106 263.536C40.0409 263.414 39.9912 263.266 39.957 263.092C39.9229 262.918 39.9058 262.714 39.9058 262.481V261.939C39.9058 261.648 39.9318 261.404 39.9839 261.207C40.0376 261.01 40.1133 260.852 40.2109 260.733C40.3086 260.613 40.4258 260.527 40.5625 260.475C40.7008 260.423 40.8555 260.396 41.0264 260.396C41.1647 260.396 41.2917 260.414 41.4072 260.448C41.5244 260.48 41.6286 260.533 41.7197 260.606C41.8109 260.678 41.8882 260.774 41.9517 260.895C42.0168 261.013 42.0664 261.159 42.1006 261.332C42.1348 261.504 42.1519 261.707 42.1519 261.939ZM41.6978 262.555V261.864C41.6978 261.704 41.688 261.564 41.6685 261.444C41.6506 261.322 41.6237 261.218 41.5879 261.131C41.5521 261.045 41.5065 260.975 41.4512 260.921C41.3975 260.868 41.3348 260.829 41.2632 260.804C41.1932 260.778 41.1143 260.765 41.0264 260.765C40.9189 260.765 40.8237 260.785 40.7407 260.826C40.6577 260.865 40.5877 260.928 40.5308 261.014C40.4754 261.1 40.4331 261.214 40.4038 261.354C40.3745 261.493 40.3599 261.664 40.3599 261.864V262.555C40.3599 262.714 40.3688 262.855 40.3867 262.977C40.4062 263.099 40.4347 263.205 40.4722 263.294C40.5096 263.382 40.5552 263.455 40.6089 263.512C40.6626 263.569 40.7244 263.611 40.7944 263.639C40.866 263.665 40.945 263.678 41.0312 263.678C41.1419 263.678 41.2388 263.657 41.3218 263.614C41.4048 263.572 41.474 263.506 41.5293 263.417C41.5863 263.325 41.6286 263.209 41.6562 263.067C41.6839 262.924 41.6978 262.753 41.6978 262.555ZM44.2173 260.426V264H43.7656V260.99L42.855 261.322V260.914L44.1465 260.426H44.2173Z" fill="#1E398F"/>
<path d="M35.7798 233.426V237H35.3281V233.99L34.4175 234.322V233.914L35.709 233.426H35.7798ZM39.3394 234.939V235.481C39.3394 235.773 39.3133 236.019 39.2612 236.219C39.2091 236.419 39.1343 236.58 39.0366 236.702C38.939 236.824 38.821 236.913 38.6826 236.968C38.5459 237.022 38.3913 237.049 38.2188 237.049C38.082 237.049 37.9559 237.032 37.8403 236.998C37.7248 236.963 37.6206 236.909 37.5278 236.834C37.4367 236.757 37.3586 236.658 37.2935 236.536C37.2284 236.414 37.1787 236.266 37.1445 236.092C37.1104 235.918 37.0933 235.714 37.0933 235.481V234.939C37.0933 234.648 37.1193 234.404 37.1714 234.207C37.2251 234.01 37.3008 233.852 37.3984 233.733C37.4961 233.613 37.6133 233.527 37.75 233.475C37.8883 233.423 38.043 233.396 38.2139 233.396C38.3522 233.396 38.4792 233.414 38.5947 233.448C38.7119 233.48 38.8161 233.533 38.9072 233.606C38.9984 233.678 39.0757 233.774 39.1392 233.895C39.2043 234.013 39.2539 234.159 39.2881 234.332C39.3223 234.504 39.3394 234.707 39.3394 234.939ZM38.8853 235.555V234.864C38.8853 234.704 38.8755 234.564 38.856 234.444C38.8381 234.322 38.8112 234.218 38.7754 234.131C38.7396 234.045 38.694 233.975 38.6387 233.921C38.585 233.868 38.5223 233.829 38.4507 233.804C38.3807 233.778 38.3018 233.765 38.2139 233.765C38.1064 233.765 38.0112 233.785 37.9282 233.826C37.8452 233.865 37.7752 233.928 37.7183 234.014C37.6629 234.1 37.6206 234.214 37.5913 234.354C37.562 234.493 37.5474 234.664 37.5474 234.864V235.555C37.5474 235.714 37.5563 235.855 37.5742 235.977C37.5938 236.099 37.6222 236.205 37.6597 236.294C37.6971 236.382 37.7427 236.455 37.7964 236.512C37.8501 236.569 37.9119 236.611 37.9819 236.639C38.0535 236.665 38.1325 236.678 38.2188 236.678C38.3294 236.678 38.4263 236.657 38.5093 236.614C38.5923 236.572 38.6615 236.506 38.7168 236.417C38.7738 236.325 38.8161 236.209 38.8438 236.067C38.8714 235.924 38.8853 235.753 38.8853 235.555ZM42.1519 234.939V235.481C42.1519 235.773 42.1258 236.019 42.0737 236.219C42.0216 236.419 41.9468 236.58 41.8491 236.702C41.7515 236.824 41.6335 236.913 41.4951 236.968C41.3584 237.022 41.2038 237.049 41.0312 237.049C40.8945 237.049 40.7684 237.032 40.6528 236.998C40.5373 236.963 40.4331 236.909 40.3403 236.834C40.2492 236.757 40.1711 236.658 40.106 236.536C40.0409 236.414 39.9912 236.266 39.957 236.092C39.9229 235.918 39.9058 235.714 39.9058 235.481V234.939C39.9058 234.648 39.9318 234.404 39.9839 234.207C40.0376 234.01 40.1133 233.852 40.2109 233.733C40.3086 233.613 40.4258 233.527 40.5625 233.475C40.7008 233.423 40.8555 233.396 41.0264 233.396C41.1647 233.396 41.2917 233.414 41.4072 233.448C41.5244 233.48 41.6286 233.533 41.7197 233.606C41.8109 233.678 41.8882 233.774 41.9517 233.895C42.0168 234.013 42.0664 234.159 42.1006 234.332C42.1348 234.504 42.1519 234.707 42.1519 234.939ZM41.6978 235.555V234.864C41.6978 234.704 41.688 234.564 41.6685 234.444C41.6506 234.322 41.6237 234.218 41.5879 234.131C41.5521 234.045 41.5065 233.975 41.4512 233.921C41.3975 233.868 41.3348 233.829 41.2632 233.804C41.1932 233.778 41.1143 233.765 41.0264 233.765C40.9189 233.765 40.8237 233.785 40.7407 233.826C40.6577 233.865 40.5877 233.928 40.5308 234.014C40.4754 234.1 40.4331 234.214 40.4038 234.354C40.3745 234.493 40.3599 234.664 40.3599 234.864V235.555C40.3599 235.714 40.3688 235.855 40.3867 235.977C40.4062 236.099 40.4347 236.205 40.4722 236.294C40.5096 236.382 40.5552 236.455 40.6089 236.512C40.6626 236.569 40.7244 236.611 40.7944 236.639C40.866 236.665 40.945 236.678 41.0312 236.678C41.1419 236.678 41.2388 236.657 41.3218 236.614C41.4048 236.572 41.474 236.506 41.5293 236.417C41.5863 236.325 41.6286 236.209 41.6562 236.067C41.6839 235.924 41.6978 235.753 41.6978 235.555ZM44.2173 233.426V237H43.7656V233.99L42.855 234.322V233.914L44.1465 233.426H44.2173Z" fill="#1E398F"/>
<path d="M36.5269 208.939V209.481C36.5269 209.773 36.5008 210.019 36.4487 210.219C36.3966 210.419 36.3218 210.58 36.2241 210.702C36.1265 210.824 36.0085 210.913 35.8701 210.968C35.7334 211.022 35.5788 211.049 35.4062 211.049C35.2695 211.049 35.1434 211.032 35.0278 210.998C34.9123 210.963 34.8081 210.909 34.7153 210.834C34.6242 210.757 34.5461 210.658 34.481 210.536C34.4159 210.414 34.3662 210.266 34.332 210.092C34.2979 209.918 34.2808 209.714 34.2808 209.481V208.939C34.2808 208.648 34.3068 208.404 34.3589 208.207C34.4126 208.01 34.4883 207.852 34.5859 207.733C34.6836 207.613 34.8008 207.527 34.9375 207.475C35.0758 207.423 35.2305 207.396 35.4014 207.396C35.5397 207.396 35.6667 207.414 35.7822 207.448C35.8994 207.48 36.0036 207.533 36.0947 207.606C36.1859 207.678 36.2632 207.774 36.3267 207.895C36.3918 208.013 36.4414 208.159 36.4756 208.332C36.5098 208.504 36.5269 208.707 36.5269 208.939ZM36.0728 209.555V208.864C36.0728 208.704 36.063 208.564 36.0435 208.444C36.0256 208.322 35.9987 208.218 35.9629 208.131C35.9271 208.045 35.8815 207.975 35.8262 207.921C35.7725 207.868 35.7098 207.829 35.6382 207.804C35.5682 207.778 35.4893 207.765 35.4014 207.765C35.2939 207.765 35.1987 207.785 35.1157 207.826C35.0327 207.865 34.9627 207.928 34.9058 208.014C34.8504 208.1 34.8081 208.214 34.7788 208.354C34.7495 208.493 34.7349 208.664 34.7349 208.864V209.555C34.7349 209.714 34.7438 209.855 34.7617 209.977C34.7812 210.099 34.8097 210.205 34.8472 210.294C34.8846 210.382 34.9302 210.455 34.9839 210.512C35.0376 210.569 35.0994 210.611 35.1694 210.639C35.241 210.665 35.32 210.678 35.4062 210.678C35.5169 210.678 35.6138 210.657 35.6968 210.614C35.7798 210.572 35.849 210.506 35.9043 210.417C35.9613 210.325 36.0036 210.209 36.0312 210.067C36.0589 209.924 36.0728 209.753 36.0728 209.555ZM39.3394 208.939V209.481C39.3394 209.773 39.3133 210.019 39.2612 210.219C39.2091 210.419 39.1343 210.58 39.0366 210.702C38.939 210.824 38.821 210.913 38.6826 210.968C38.5459 211.022 38.3913 211.049 38.2188 211.049C38.082 211.049 37.9559 211.032 37.8403 210.998C37.7248 210.963 37.6206 210.909 37.5278 210.834C37.4367 210.757 37.3586 210.658 37.2935 210.536C37.2284 210.414 37.1787 210.266 37.1445 210.092C37.1104 209.918 37.0933 209.714 37.0933 209.481V208.939C37.0933 208.648 37.1193 208.404 37.1714 208.207C37.2251 208.01 37.3008 207.852 37.3984 207.733C37.4961 207.613 37.6133 207.527 37.75 207.475C37.8883 207.423 38.043 207.396 38.2139 207.396C38.3522 207.396 38.4792 207.414 38.5947 207.448C38.7119 207.48 38.8161 207.533 38.9072 207.606C38.9984 207.678 39.0757 207.774 39.1392 207.895C39.2043 208.013 39.2539 208.159 39.2881 208.332C39.3223 208.504 39.3394 208.707 39.3394 208.939ZM38.8853 209.555V208.864C38.8853 208.704 38.8755 208.564 38.856 208.444C38.8381 208.322 38.8112 208.218 38.7754 208.131C38.7396 208.045 38.694 207.975 38.6387 207.921C38.585 207.868 38.5223 207.829 38.4507 207.804C38.3807 207.778 38.3018 207.765 38.2139 207.765C38.1064 207.765 38.0112 207.785 37.9282 207.826C37.8452 207.865 37.7752 207.928 37.7183 208.014C37.6629 208.1 37.6206 208.214 37.5913 208.354C37.562 208.493 37.5474 208.664 37.5474 208.864V209.555C37.5474 209.714 37.5563 209.855 37.5742 209.977C37.5938 210.099 37.6222 210.205 37.6597 210.294C37.6971 210.382 37.7427 210.455 37.7964 210.512C37.8501 210.569 37.9119 210.611 37.9819 210.639C38.0535 210.665 38.1325 210.678 38.2188 210.678C38.3294 210.678 38.4263 210.657 38.5093 210.614C38.5923 210.572 38.6615 210.506 38.7168 210.417C38.7738 210.325 38.8161 210.209 38.8438 210.067C38.8714 209.924 38.8853 209.753 38.8853 209.555ZM41.4048 207.426V211H40.9531V207.99L40.0425 208.322V207.914L41.334 207.426H41.4048ZM44.9644 208.939V209.481C44.9644 209.773 44.9383 210.019 44.8862 210.219C44.8341 210.419 44.7593 210.58 44.6616 210.702C44.564 210.824 44.446 210.913 44.3076 210.968C44.1709 211.022 44.0163 211.049 43.8438 211.049C43.707 211.049 43.5809 211.032 43.4653 210.998C43.3498 210.963 43.2456 210.909 43.1528 210.834C43.0617 210.757 42.9836 210.658 42.9185 210.536C42.8534 210.414 42.8037 210.266 42.7695 210.092C42.7354 209.918 42.7183 209.714 42.7183 209.481V208.939C42.7183 208.648 42.7443 208.404 42.7964 208.207C42.8501 208.01 42.9258 207.852 43.0234 207.733C43.1211 207.613 43.2383 207.527 43.375 207.475C43.5133 207.423 43.668 207.396 43.8389 207.396C43.9772 207.396 44.1042 207.414 44.2197 207.448C44.3369 207.48 44.4411 207.533 44.5322 207.606C44.6234 207.678 44.7007 207.774 44.7642 207.895C44.8293 208.013 44.8789 208.159 44.9131 208.332C44.9473 208.504 44.9644 208.707 44.9644 208.939ZM44.5103 209.555V208.864C44.5103 208.704 44.5005 208.564 44.481 208.444C44.4631 208.322 44.4362 208.218 44.4004 208.131C44.3646 208.045 44.319 207.975 44.2637 207.921C44.21 207.868 44.1473 207.829 44.0757 207.804C44.0057 207.778 43.9268 207.765 43.8389 207.765C43.7314 207.765 43.6362 207.785 43.5532 207.826C43.4702 207.865 43.4002 207.928 43.3433 208.014C43.2879 208.1 43.2456 208.214 43.2163 208.354C43.187 208.493 43.1724 208.664 43.1724 208.864V209.555C43.1724 209.714 43.1813 209.855 43.1992 209.977C43.2188 210.099 43.2472 210.205 43.2847 210.294C43.3221 210.382 43.3677 210.455 43.4214 210.512C43.4751 210.569 43.5369 210.611 43.6069 210.639C43.6785 210.665 43.7575 210.678 43.8438 210.678C43.9544 210.678 44.0513 210.657 44.1343 210.614C44.2173 210.572 44.2865 210.506 44.3418 210.417C44.3988 210.325 44.4411 210.209 44.4688 210.067C44.4964 209.924 44.5103 209.753 44.5103 209.555Z" fill="#1E398F"/>
<path d="M35.7798 243.426V247H35.3281V243.99L34.4175 244.322V243.914L35.709 243.426H35.7798ZM39.3394 244.939V245.481C39.3394 245.773 39.3133 246.019 39.2612 246.219C39.2091 246.419 39.1343 246.58 39.0366 246.702C38.939 246.824 38.821 246.913 38.6826 246.968C38.5459 247.022 38.3913 247.049 38.2188 247.049C38.082 247.049 37.9559 247.032 37.8403 246.998C37.7248 246.963 37.6206 246.909 37.5278 246.834C37.4367 246.757 37.3586 246.658 37.2935 246.536C37.2284 246.414 37.1787 246.266 37.1445 246.092C37.1104 245.918 37.0933 245.714 37.0933 245.481V244.939C37.0933 244.648 37.1193 244.404 37.1714 244.207C37.2251 244.01 37.3008 243.852 37.3984 243.733C37.4961 243.613 37.6133 243.527 37.75 243.475C37.8883 243.423 38.043 243.396 38.2139 243.396C38.3522 243.396 38.4792 243.414 38.5947 243.448C38.7119 243.48 38.8161 243.533 38.9072 243.606C38.9984 243.678 39.0757 243.774 39.1392 243.895C39.2043 244.013 39.2539 244.159 39.2881 244.332C39.3223 244.504 39.3394 244.707 39.3394 244.939ZM38.8853 245.555V244.864C38.8853 244.704 38.8755 244.564 38.856 244.444C38.8381 244.322 38.8112 244.218 38.7754 244.131C38.7396 244.045 38.694 243.975 38.6387 243.921C38.585 243.868 38.5223 243.829 38.4507 243.804C38.3807 243.778 38.3018 243.765 38.2139 243.765C38.1064 243.765 38.0112 243.785 37.9282 243.826C37.8452 243.865 37.7752 243.928 37.7183 244.014C37.6629 244.1 37.6206 244.214 37.5913 244.354C37.562 244.493 37.5474 244.664 37.5474 244.864V245.555C37.5474 245.714 37.5563 245.855 37.5742 245.977C37.5938 246.099 37.6222 246.205 37.6597 246.294C37.6971 246.382 37.7427 246.455 37.7964 246.512C37.8501 246.569 37.9119 246.611 37.9819 246.639C38.0535 246.665 38.1325 246.678 38.2188 246.678C38.3294 246.678 38.4263 246.657 38.5093 246.614C38.5923 246.572 38.6615 246.506 38.7168 246.417C38.7738 246.325 38.8161 246.209 38.8438 246.067C38.8714 245.924 38.8853 245.753 38.8853 245.555ZM41.4048 243.426V247H40.9531V243.99L40.0425 244.322V243.914L41.334 243.426H41.4048ZM44.9644 244.939V245.481C44.9644 245.773 44.9383 246.019 44.8862 246.219C44.8341 246.419 44.7593 246.58 44.6616 246.702C44.564 246.824 44.446 246.913 44.3076 246.968C44.1709 247.022 44.0163 247.049 43.8438 247.049C43.707 247.049 43.5809 247.032 43.4653 246.998C43.3498 246.963 43.2456 246.909 43.1528 246.834C43.0617 246.757 42.9836 246.658 42.9185 246.536C42.8534 246.414 42.8037 246.266 42.7695 246.092C42.7354 245.918 42.7183 245.714 42.7183 245.481V244.939C42.7183 244.648 42.7443 244.404 42.7964 244.207C42.8501 244.01 42.9258 243.852 43.0234 243.733C43.1211 243.613 43.2383 243.527 43.375 243.475C43.5133 243.423 43.668 243.396 43.8389 243.396C43.9772 243.396 44.1042 243.414 44.2197 243.448C44.3369 243.48 44.4411 243.533 44.5322 243.606C44.6234 243.678 44.7007 243.774 44.7642 243.895C44.8293 244.013 44.8789 244.159 44.9131 244.332C44.9473 244.504 44.9644 244.707 44.9644 244.939ZM44.5103 245.555V244.864C44.5103 244.704 44.5005 244.564 44.481 244.444C44.4631 244.322 44.4362 244.218 44.4004 244.131C44.3646 244.045 44.319 243.975 44.2637 243.921C44.21 243.868 44.1473 243.829 44.0757 243.804C44.0057 243.778 43.9268 243.765 43.8389 243.765C43.7314 243.765 43.6362 243.785 43.5532 243.826C43.4702 243.865 43.4002 243.928 43.3433 244.014C43.2879 244.1 43.2456 244.214 43.2163 244.354C43.187 244.493 43.1724 244.664 43.1724 244.864V245.555C43.1724 245.714 43.1813 245.855 43.1992 245.977C43.2188 246.099 43.2472 246.205 43.2847 246.294C43.3221 246.382 43.3677 246.455 43.4214 246.512C43.4751 246.569 43.5369 246.611 43.6069 246.639C43.6785 246.665 43.7575 246.678 43.8438 246.678C43.9544 246.678 44.0513 246.657 44.1343 246.614C44.2173 246.572 44.2865 246.506 44.3418 246.417C44.3988 246.325 44.4411 246.209 44.4688 246.067C44.4964 245.924 44.5103 245.753 44.5103 245.555Z" fill="#1E398F"/>
<path d="M36.5269 200.939V201.481C36.5269 201.773 36.5008 202.019 36.4487 202.219C36.3966 202.419 36.3218 202.58 36.2241 202.702C36.1265 202.824 36.0085 202.913 35.8701 202.968C35.7334 203.022 35.5788 203.049 35.4062 203.049C35.2695 203.049 35.1434 203.032 35.0278 202.998C34.9123 202.963 34.8081 202.909 34.7153 202.834C34.6242 202.757 34.5461 202.658 34.481 202.536C34.4159 202.414 34.3662 202.266 34.332 202.092C34.2979 201.918 34.2808 201.714 34.2808 201.481V200.939C34.2808 200.648 34.3068 200.404 34.3589 200.207C34.4126 200.01 34.4883 199.852 34.5859 199.733C34.6836 199.613 34.8008 199.527 34.9375 199.475C35.0758 199.423 35.2305 199.396 35.4014 199.396C35.5397 199.396 35.6667 199.414 35.7822 199.448C35.8994 199.48 36.0036 199.533 36.0947 199.606C36.1859 199.678 36.2632 199.774 36.3267 199.895C36.3918 200.013 36.4414 200.159 36.4756 200.332C36.5098 200.504 36.5269 200.707 36.5269 200.939ZM36.0728 201.555V200.864C36.0728 200.704 36.063 200.564 36.0435 200.444C36.0256 200.322 35.9987 200.218 35.9629 200.131C35.9271 200.045 35.8815 199.975 35.8262 199.921C35.7725 199.868 35.7098 199.829 35.6382 199.804C35.5682 199.778 35.4893 199.765 35.4014 199.765C35.2939 199.765 35.1987 199.785 35.1157 199.826C35.0327 199.865 34.9627 199.928 34.9058 200.014C34.8504 200.1 34.8081 200.214 34.7788 200.354C34.7495 200.493 34.7349 200.664 34.7349 200.864V201.555C34.7349 201.714 34.7438 201.855 34.7617 201.977C34.7812 202.099 34.8097 202.205 34.8472 202.294C34.8846 202.382 34.9302 202.455 34.9839 202.512C35.0376 202.569 35.0994 202.611 35.1694 202.639C35.241 202.665 35.32 202.678 35.4062 202.678C35.5169 202.678 35.6138 202.657 35.6968 202.614C35.7798 202.572 35.849 202.506 35.9043 202.417C35.9613 202.325 36.0036 202.209 36.0312 202.067C36.0589 201.924 36.0728 201.753 36.0728 201.555ZM39.3394 200.939V201.481C39.3394 201.773 39.3133 202.019 39.2612 202.219C39.2091 202.419 39.1343 202.58 39.0366 202.702C38.939 202.824 38.821 202.913 38.6826 202.968C38.5459 203.022 38.3913 203.049 38.2188 203.049C38.082 203.049 37.9559 203.032 37.8403 202.998C37.7248 202.963 37.6206 202.909 37.5278 202.834C37.4367 202.757 37.3586 202.658 37.2935 202.536C37.2284 202.414 37.1787 202.266 37.1445 202.092C37.1104 201.918 37.0933 201.714 37.0933 201.481V200.939C37.0933 200.648 37.1193 200.404 37.1714 200.207C37.2251 200.01 37.3008 199.852 37.3984 199.733C37.4961 199.613 37.6133 199.527 37.75 199.475C37.8883 199.423 38.043 199.396 38.2139 199.396C38.3522 199.396 38.4792 199.414 38.5947 199.448C38.7119 199.48 38.8161 199.533 38.9072 199.606C38.9984 199.678 39.0757 199.774 39.1392 199.895C39.2043 200.013 39.2539 200.159 39.2881 200.332C39.3223 200.504 39.3394 200.707 39.3394 200.939ZM38.8853 201.555V200.864C38.8853 200.704 38.8755 200.564 38.856 200.444C38.8381 200.322 38.8112 200.218 38.7754 200.131C38.7396 200.045 38.694 199.975 38.6387 199.921C38.585 199.868 38.5223 199.829 38.4507 199.804C38.3807 199.778 38.3018 199.765 38.2139 199.765C38.1064 199.765 38.0112 199.785 37.9282 199.826C37.8452 199.865 37.7752 199.928 37.7183 200.014C37.6629 200.1 37.6206 200.214 37.5913 200.354C37.562 200.493 37.5474 200.664 37.5474 200.864V201.555C37.5474 201.714 37.5563 201.855 37.5742 201.977C37.5938 202.099 37.6222 202.205 37.6597 202.294C37.6971 202.382 37.7427 202.455 37.7964 202.512C37.8501 202.569 37.9119 202.611 37.9819 202.639C38.0535 202.665 38.1325 202.678 38.2188 202.678C38.3294 202.678 38.4263 202.657 38.5093 202.614C38.5923 202.572 38.6615 202.506 38.7168 202.417C38.7738 202.325 38.8161 202.209 38.8438 202.067C38.8714 201.924 38.8853 201.753 38.8853 201.555ZM41.4048 199.426V203H40.9531V199.99L40.0425 200.322V199.914L41.334 199.426H41.4048ZM44.2173 199.426V203H43.7656V199.99L42.855 200.322V199.914L44.1465 199.426H44.2173Z" fill="#1E398F"/>
<path d="M35.7798 250.426V254H35.3281V250.99L34.4175 251.322V250.914L35.709 250.426H35.7798ZM39.3394 251.939V252.481C39.3394 252.773 39.3133 253.019 39.2612 253.219C39.2091 253.419 39.1343 253.58 39.0366 253.702C38.939 253.824 38.821 253.913 38.6826 253.968C38.5459 254.022 38.3913 254.049 38.2188 254.049C38.082 254.049 37.9559 254.032 37.8403 253.998C37.7248 253.963 37.6206 253.909 37.5278 253.834C37.4367 253.757 37.3586 253.658 37.2935 253.536C37.2284 253.414 37.1787 253.266 37.1445 253.092C37.1104 252.918 37.0933 252.714 37.0933 252.481V251.939C37.0933 251.648 37.1193 251.404 37.1714 251.207C37.2251 251.01 37.3008 250.852 37.3984 250.733C37.4961 250.613 37.6133 250.527 37.75 250.475C37.8883 250.423 38.043 250.396 38.2139 250.396C38.3522 250.396 38.4792 250.414 38.5947 250.448C38.7119 250.48 38.8161 250.533 38.9072 250.606C38.9984 250.678 39.0757 250.774 39.1392 250.895C39.2043 251.013 39.2539 251.159 39.2881 251.332C39.3223 251.504 39.3394 251.707 39.3394 251.939ZM38.8853 252.555V251.864C38.8853 251.704 38.8755 251.564 38.856 251.444C38.8381 251.322 38.8112 251.218 38.7754 251.131C38.7396 251.045 38.694 250.975 38.6387 250.921C38.585 250.868 38.5223 250.829 38.4507 250.804C38.3807 250.778 38.3018 250.765 38.2139 250.765C38.1064 250.765 38.0112 250.785 37.9282 250.826C37.8452 250.865 37.7752 250.928 37.7183 251.014C37.6629 251.1 37.6206 251.214 37.5913 251.354C37.562 251.493 37.5474 251.664 37.5474 251.864V252.555C37.5474 252.714 37.5563 252.855 37.5742 252.977C37.5938 253.099 37.6222 253.205 37.6597 253.294C37.6971 253.382 37.7427 253.455 37.7964 253.512C37.8501 253.569 37.9119 253.611 37.9819 253.639C38.0535 253.665 38.1325 253.678 38.2188 253.678C38.3294 253.678 38.4263 253.657 38.5093 253.614C38.5923 253.572 38.6615 253.506 38.7168 253.417C38.7738 253.325 38.8161 253.209 38.8438 253.067C38.8714 252.924 38.8853 252.753 38.8853 252.555ZM41.4048 250.426V254H40.9531V250.99L40.0425 251.322V250.914L41.334 250.426H41.4048ZM44.2173 250.426V254H43.7656V250.99L42.855 251.322V250.914L44.1465 250.426H44.2173Z" fill="#1E398F"/>
<path d="M36.5269 195.939V196.481C36.5269 196.773 36.5008 197.019 36.4487 197.219C36.3966 197.419 36.3218 197.58 36.2241 197.702C36.1265 197.824 36.0085 197.913 35.8701 197.968C35.7334 198.022 35.5788 198.049 35.4062 198.049C35.2695 198.049 35.1434 198.032 35.0278 197.998C34.9123 197.963 34.8081 197.909 34.7153 197.834C34.6242 197.757 34.5461 197.658 34.481 197.536C34.4159 197.414 34.3662 197.266 34.332 197.092C34.2979 196.918 34.2808 196.714 34.2808 196.481V195.939C34.2808 195.648 34.3068 195.404 34.3589 195.207C34.4126 195.01 34.4883 194.852 34.5859 194.733C34.6836 194.613 34.8008 194.527 34.9375 194.475C35.0758 194.423 35.2305 194.396 35.4014 194.396C35.5397 194.396 35.6667 194.414 35.7822 194.448C35.8994 194.48 36.0036 194.533 36.0947 194.606C36.1859 194.678 36.2632 194.774 36.3267 194.895C36.3918 195.013 36.4414 195.159 36.4756 195.332C36.5098 195.504 36.5269 195.707 36.5269 195.939ZM36.0728 196.555V195.864C36.0728 195.704 36.063 195.564 36.0435 195.444C36.0256 195.322 35.9987 195.218 35.9629 195.131C35.9271 195.045 35.8815 194.975 35.8262 194.921C35.7725 194.868 35.7098 194.829 35.6382 194.804C35.5682 194.778 35.4893 194.765 35.4014 194.765C35.2939 194.765 35.1987 194.785 35.1157 194.826C35.0327 194.865 34.9627 194.928 34.9058 195.014C34.8504 195.1 34.8081 195.214 34.7788 195.354C34.7495 195.493 34.7349 195.664 34.7349 195.864V196.555C34.7349 196.714 34.7438 196.855 34.7617 196.977C34.7812 197.099 34.8097 197.205 34.8472 197.294C34.8846 197.382 34.9302 197.455 34.9839 197.512C35.0376 197.569 35.0994 197.611 35.1694 197.639C35.241 197.665 35.32 197.678 35.4062 197.678C35.5169 197.678 35.6138 197.657 35.6968 197.614C35.7798 197.572 35.849 197.506 35.9043 197.417C35.9613 197.325 36.0036 197.209 36.0312 197.067C36.0589 196.924 36.0728 196.753 36.0728 196.555ZM38.5923 194.426V198H38.1406V194.99L37.23 195.322V194.914L38.5215 194.426H38.5923ZM42.1519 195.939V196.481C42.1519 196.773 42.1258 197.019 42.0737 197.219C42.0216 197.419 41.9468 197.58 41.8491 197.702C41.7515 197.824 41.6335 197.913 41.4951 197.968C41.3584 198.022 41.2038 198.049 41.0312 198.049C40.8945 198.049 40.7684 198.032 40.6528 197.998C40.5373 197.963 40.4331 197.909 40.3403 197.834C40.2492 197.757 40.1711 197.658 40.106 197.536C40.0409 197.414 39.9912 197.266 39.957 197.092C39.9229 196.918 39.9058 196.714 39.9058 196.481V195.939C39.9058 195.648 39.9318 195.404 39.9839 195.207C40.0376 195.01 40.1133 194.852 40.2109 194.733C40.3086 194.613 40.4258 194.527 40.5625 194.475C40.7008 194.423 40.8555 194.396 41.0264 194.396C41.1647 194.396 41.2917 194.414 41.4072 194.448C41.5244 194.48 41.6286 194.533 41.7197 194.606C41.8109 194.678 41.8882 194.774 41.9517 194.895C42.0168 195.013 42.0664 195.159 42.1006 195.332C42.1348 195.504 42.1519 195.707 42.1519 195.939ZM41.6978 196.555V195.864C41.6978 195.704 41.688 195.564 41.6685 195.444C41.6506 195.322 41.6237 195.218 41.5879 195.131C41.5521 195.045 41.5065 194.975 41.4512 194.921C41.3975 194.868 41.3348 194.829 41.2632 194.804C41.1932 194.778 41.1143 194.765 41.0264 194.765C40.9189 194.765 40.8237 194.785 40.7407 194.826C40.6577 194.865 40.5877 194.928 40.5308 195.014C40.4754 195.1 40.4331 195.214 40.4038 195.354C40.3745 195.493 40.3599 195.664 40.3599 195.864V196.555C40.3599 196.714 40.3688 196.855 40.3867 196.977C40.4062 197.099 40.4347 197.205 40.4722 197.294C40.5096 197.382 40.5552 197.455 40.6089 197.512C40.6626 197.569 40.7244 197.611 40.7944 197.639C40.866 197.665 40.945 197.678 41.0312 197.678C41.1419 197.678 41.2388 197.657 41.3218 197.614C41.4048 197.572 41.474 197.506 41.5293 197.417C41.5863 197.325 41.6286 197.209 41.6562 197.067C41.6839 196.924 41.6978 196.753 41.6978 196.555ZM44.9644 195.939V196.481C44.9644 196.773 44.9383 197.019 44.8862 197.219C44.8341 197.419 44.7593 197.58 44.6616 197.702C44.564 197.824 44.446 197.913 44.3076 197.968C44.1709 198.022 44.0163 198.049 43.8438 198.049C43.707 198.049 43.5809 198.032 43.4653 197.998C43.3498 197.963 43.2456 197.909 43.1528 197.834C43.0617 197.757 42.9836 197.658 42.9185 197.536C42.8534 197.414 42.8037 197.266 42.7695 197.092C42.7354 196.918 42.7183 196.714 42.7183 196.481V195.939C42.7183 195.648 42.7443 195.404 42.7964 195.207C42.8501 195.01 42.9258 194.852 43.0234 194.733C43.1211 194.613 43.2383 194.527 43.375 194.475C43.5133 194.423 43.668 194.396 43.8389 194.396C43.9772 194.396 44.1042 194.414 44.2197 194.448C44.3369 194.48 44.4411 194.533 44.5322 194.606C44.6234 194.678 44.7007 194.774 44.7642 194.895C44.8293 195.013 44.8789 195.159 44.9131 195.332C44.9473 195.504 44.9644 195.707 44.9644 195.939ZM44.5103 196.555V195.864C44.5103 195.704 44.5005 195.564 44.481 195.444C44.4631 195.322 44.4362 195.218 44.4004 195.131C44.3646 195.045 44.319 194.975 44.2637 194.921C44.21 194.868 44.1473 194.829 44.0757 194.804C44.0057 194.778 43.9268 194.765 43.8389 194.765C43.7314 194.765 43.6362 194.785 43.5532 194.826C43.4702 194.865 43.4002 194.928 43.3433 195.014C43.2879 195.1 43.2456 195.214 43.2163 195.354C43.187 195.493 43.1724 195.664 43.1724 195.864V196.555C43.1724 196.714 43.1813 196.855 43.1992 196.977C43.2188 197.099 43.2472 197.205 43.2847 197.294C43.3221 197.382 43.3677 197.455 43.4214 197.512C43.4751 197.569 43.5369 197.611 43.6069 197.639C43.6785 197.665 43.7575 197.678 43.8438 197.678C43.9544 197.678 44.0513 197.657 44.1343 197.614C44.2173 197.572 44.2865 197.506 44.3418 197.417C44.3988 197.325 44.4411 197.209 44.4688 197.067C44.4964 196.924 44.5103 196.753 44.5103 196.555Z" fill="#1E398F"/>
<path d="M36.5269 191.939V192.481C36.5269 192.773 36.5008 193.019 36.4487 193.219C36.3966 193.419 36.3218 193.58 36.2241 193.702C36.1265 193.824 36.0085 193.913 35.8701 193.968C35.7334 194.022 35.5788 194.049 35.4062 194.049C35.2695 194.049 35.1434 194.032 35.0278 193.998C34.9123 193.963 34.8081 193.909 34.7153 193.834C34.6242 193.757 34.5461 193.658 34.481 193.536C34.4159 193.414 34.3662 193.266 34.332 193.092C34.2979 192.918 34.2808 192.714 34.2808 192.481V191.939C34.2808 191.648 34.3068 191.404 34.3589 191.207C34.4126 191.01 34.4883 190.852 34.5859 190.733C34.6836 190.613 34.8008 190.527 34.9375 190.475C35.0758 190.423 35.2305 190.396 35.4014 190.396C35.5397 190.396 35.6667 190.414 35.7822 190.448C35.8994 190.48 36.0036 190.533 36.0947 190.606C36.1859 190.678 36.2632 190.774 36.3267 190.895C36.3918 191.013 36.4414 191.159 36.4756 191.332C36.5098 191.504 36.5269 191.707 36.5269 191.939ZM36.0728 192.555V191.864C36.0728 191.704 36.063 191.564 36.0435 191.444C36.0256 191.322 35.9987 191.218 35.9629 191.131C35.9271 191.045 35.8815 190.975 35.8262 190.921C35.7725 190.868 35.7098 190.829 35.6382 190.804C35.5682 190.778 35.4893 190.765 35.4014 190.765C35.2939 190.765 35.1987 190.785 35.1157 190.826C35.0327 190.865 34.9627 190.928 34.9058 191.014C34.8504 191.1 34.8081 191.214 34.7788 191.354C34.7495 191.493 34.7349 191.664 34.7349 191.864V192.555C34.7349 192.714 34.7438 192.855 34.7617 192.977C34.7812 193.099 34.8097 193.205 34.8472 193.294C34.8846 193.382 34.9302 193.455 34.9839 193.512C35.0376 193.569 35.0994 193.611 35.1694 193.639C35.241 193.665 35.32 193.678 35.4062 193.678C35.5169 193.678 35.6138 193.657 35.6968 193.614C35.7798 193.572 35.849 193.506 35.9043 193.417C35.9613 193.325 36.0036 193.209 36.0312 193.067C36.0589 192.924 36.0728 192.753 36.0728 192.555ZM38.5923 190.426V194H38.1406V190.99L37.23 191.322V190.914L38.5215 190.426H38.5923ZM42.1519 191.939V192.481C42.1519 192.773 42.1258 193.019 42.0737 193.219C42.0216 193.419 41.9468 193.58 41.8491 193.702C41.7515 193.824 41.6335 193.913 41.4951 193.968C41.3584 194.022 41.2038 194.049 41.0312 194.049C40.8945 194.049 40.7684 194.032 40.6528 193.998C40.5373 193.963 40.4331 193.909 40.3403 193.834C40.2492 193.757 40.1711 193.658 40.106 193.536C40.0409 193.414 39.9912 193.266 39.957 193.092C39.9229 192.918 39.9058 192.714 39.9058 192.481V191.939C39.9058 191.648 39.9318 191.404 39.9839 191.207C40.0376 191.01 40.1133 190.852 40.2109 190.733C40.3086 190.613 40.4258 190.527 40.5625 190.475C40.7008 190.423 40.8555 190.396 41.0264 190.396C41.1647 190.396 41.2917 190.414 41.4072 190.448C41.5244 190.48 41.6286 190.533 41.7197 190.606C41.8109 190.678 41.8882 190.774 41.9517 190.895C42.0168 191.013 42.0664 191.159 42.1006 191.332C42.1348 191.504 42.1519 191.707 42.1519 191.939ZM41.6978 192.555V191.864C41.6978 191.704 41.688 191.564 41.6685 191.444C41.6506 191.322 41.6237 191.218 41.5879 191.131C41.5521 191.045 41.5065 190.975 41.4512 190.921C41.3975 190.868 41.3348 190.829 41.2632 190.804C41.1932 190.778 41.1143 190.765 41.0264 190.765C40.9189 190.765 40.8237 190.785 40.7407 190.826C40.6577 190.865 40.5877 190.928 40.5308 191.014C40.4754 191.1 40.4331 191.214 40.4038 191.354C40.3745 191.493 40.3599 191.664 40.3599 191.864V192.555C40.3599 192.714 40.3688 192.855 40.3867 192.977C40.4062 193.099 40.4347 193.205 40.4722 193.294C40.5096 193.382 40.5552 193.455 40.6089 193.512C40.6626 193.569 40.7244 193.611 40.7944 193.639C40.866 193.665 40.945 193.678 41.0312 193.678C41.1419 193.678 41.2388 193.657 41.3218 193.614C41.4048 193.572 41.474 193.506 41.5293 193.417C41.5863 193.325 41.6286 193.209 41.6562 193.067C41.6839 192.924 41.6978 192.753 41.6978 192.555ZM44.2173 190.426V194H43.7656V190.99L42.855 191.322V190.914L44.1465 190.426H44.2173Z" fill="#1E398F"/>
</svg>
