<svg width="102" height="25" viewBox="0 0 102 25" fill="none" xmlns="http://www.w3.org/2000/svg">
<path d="M5.04297 3.78125L7.50391 9.2207L11.6641 3.78125H13.9199L8.38281 10.9102L11.6934 18H9.64258L7.11328 12.4531L2.8457 18H0.570312L6.23438 10.7344L3.01172 3.78125H5.04297ZM21.4883 3.70312L19.0664 18H17.2988L19.3887 6.00781L15.6094 7.32617L15.9219 5.61719L21.1758 3.70312H21.4883ZM24.584 17.0723C24.584 16.7533 24.6849 16.4863 24.8867 16.2715C25.0951 16.0566 25.3587 15.946 25.6777 15.9395C25.9967 15.9329 26.2572 16.0306 26.459 16.2324C26.6673 16.4342 26.7682 16.6947 26.7617 17.0137C26.7617 17.3327 26.6576 17.5964 26.4492 17.8047C26.2474 18.013 25.987 18.1204 25.668 18.127C25.3555 18.1335 25.0951 18.0391 24.8867 17.8438C24.6784 17.6484 24.5775 17.3913 24.584 17.0723ZM29.7012 17.0723C29.7012 16.7533 29.8021 16.4863 30.0039 16.2715C30.2122 16.0566 30.4759 15.946 30.7949 15.9395C31.1139 15.9329 31.3743 16.0306 31.5762 16.2324C31.7845 16.4342 31.8854 16.6947 31.8789 17.0137C31.8789 17.3327 31.7747 17.5964 31.5664 17.8047C31.3646 18.013 31.1042 18.1204 30.7852 18.127C30.4727 18.1335 30.2122 18.0391 30.0039 17.8438C29.7956 17.6484 29.6947 17.3913 29.7012 17.0723ZM34.8184 17.0723C34.8184 16.7533 34.9193 16.4863 35.1211 16.2715C35.3294 16.0566 35.5931 15.946 35.9121 15.9395C36.2311 15.9329 36.4915 16.0306 36.6934 16.2324C36.9017 16.4342 37.0026 16.6947 36.9961 17.0137C36.9961 17.3327 36.8919 17.5964 36.6836 17.8047C36.4818 18.013 36.2214 18.1204 35.9023 18.127C35.5898 18.1335 35.3294 18.0391 35.1211 17.8438C34.9128 17.6484 34.8118 17.3913 34.8184 17.0723ZM43.4609 3.78125L45.9219 9.2207L50.082 3.78125H52.3379L46.8008 10.9102L50.1113 18H48.0605L45.5312 12.4531L41.2637 18H38.9883L44.6523 10.7344L41.4297 3.78125H43.4609ZM61.0977 16.5156L60.8633 18H51.8203L52.0352 16.623L57.2891 11.5059C57.6471 11.1478 58.028 10.7637 58.4316 10.3535C58.8353 9.94336 59.1901 9.50391 59.4961 9.03516C59.8021 8.56641 59.9909 8.06185 60.0625 7.52148C60.1146 7.07878 60.0723 6.67513 59.9355 6.31055C59.7988 5.93945 59.5742 5.64323 59.2617 5.42188C58.9492 5.19401 58.5586 5.07357 58.0898 5.06055C57.4844 5.04102 56.9603 5.15495 56.5176 5.40234C56.0749 5.64974 55.7168 5.99479 55.4434 6.4375C55.1764 6.88021 55.0007 7.38477 54.916 7.95117L53.1777 7.96094C53.2624 7.07552 53.5293 6.30078 53.9785 5.63672C54.4342 4.97266 55.0234 4.46159 55.7461 4.10352C56.4688 3.73893 57.2728 3.56641 58.1582 3.58594C58.8939 3.59896 59.5547 3.75521 60.1406 4.05469C60.7266 4.34766 61.1758 4.77083 61.4883 5.32422C61.8073 5.8776 61.931 6.54167 61.8594 7.31641C61.8203 7.82422 61.6934 8.3125 61.4785 8.78125C61.2637 9.24349 60.9967 9.68945 60.6777 10.1191C60.3652 10.5423 60.0267 10.9427 59.6621 11.3203C59.2975 11.6979 58.9395 12.0527 58.5879 12.3848L54.2422 16.5156H61.0977ZM72.4746 8.47852L72.1914 10.0508H64.2812L64.5547 8.47852H72.4746ZM71.7715 12.5312L71.4883 14.1035H63.5781L63.8516 12.5312H71.7715ZM77.1719 3.78125L79.6328 9.2207L83.793 3.78125H86.0488L80.5117 10.9102L83.8223 18H81.7715L79.2422 12.4531L74.9746 18H72.6992L78.3633 10.7344L75.1406 3.78125H77.1719ZM88.3828 16.7988L92.8359 7.43359H94.7891L88.5879 19.6406C88.4251 19.9857 88.2331 20.3177 88.0117 20.6367C87.7969 20.9557 87.5495 21.2422 87.2695 21.4961C86.9961 21.75 86.6868 21.9486 86.3418 22.0918C85.9967 22.235 85.6159 22.3066 85.1992 22.3066C85.0234 22.3001 84.8477 22.2806 84.6719 22.248C84.4896 22.2155 84.3138 22.1797 84.1445 22.1406L84.252 20.6562C84.3301 20.6693 84.4082 20.679 84.4863 20.6855C84.5645 20.6986 84.6393 20.7083 84.7109 20.7148C85.1471 20.7279 85.5215 20.666 85.834 20.5293C86.153 20.3926 86.4264 20.1908 86.6543 19.9238C86.8887 19.6569 87.097 19.3379 87.2793 18.9668L88.3828 16.7988ZM87.8945 7.43359L89.1543 15.7344L89.2715 17.5996L87.9531 18.2441L86.0391 7.43359H87.8945Z" fill="#1E398F"/>
<rect x="1.5" y="0.5" width="97" height="24" stroke="#1E398F"/>
</svg>
