<svg width="51" height="26" viewBox="0 0 51 26" fill="none" xmlns="http://www.w3.org/2000/svg">
<path d="M15.6719 5.78125L13.2012 20H11.4141L6.33594 8.95508L4.42188 20H2.57617L5.04688 5.78125H6.82422L11.9219 16.8555L13.8457 5.78125H15.6719ZM25.8379 10.4785L25.5547 12.0508H17.6445L17.918 10.4785H25.8379ZM25.1348 14.5312L24.8516 16.1035H16.9414L17.2148 14.5312H25.1348ZM36.0039 18.5156L35.7695 20H26.7266L26.9414 18.623L32.1953 13.5059C32.5534 13.1478 32.9342 12.7637 33.3379 12.3535C33.7415 11.9434 34.0964 11.5039 34.4023 11.0352C34.7083 10.5664 34.8971 10.0618 34.9688 9.52148C35.0208 9.07878 34.9785 8.67513 34.8418 8.31055C34.7051 7.93945 34.4805 7.64323 34.168 7.42188C33.8555 7.19401 33.4648 7.07357 32.9961 7.06055C32.3906 7.04102 31.8665 7.15495 31.4238 7.40234C30.9811 7.64974 30.623 7.99479 30.3496 8.4375C30.0827 8.88021 29.9069 9.38477 29.8223 9.95117L28.084 9.96094C28.1686 9.07552 28.4355 8.30078 28.8848 7.63672C29.3405 6.97266 29.9297 6.46159 30.6523 6.10352C31.375 5.73893 32.179 5.56641 33.0645 5.58594C33.8001 5.59896 34.4609 5.75521 35.0469 6.05469C35.6328 6.34766 36.082 6.77083 36.3945 7.32422C36.7135 7.8776 36.8372 8.54167 36.7656 9.31641C36.7266 9.82422 36.5996 10.3125 36.3848 10.7812C36.1699 11.2435 35.903 11.6895 35.584 12.1191C35.2715 12.5423 34.9329 12.9427 34.5684 13.3203C34.2038 13.6979 33.8457 14.0527 33.4941 14.3848L29.1484 18.5156H36.0039ZM40.8965 11.7969L39.4707 20H37.7031L39.5391 9.43359H41.209L40.8965 11.7969ZM40.0762 14.3164L39.3535 14.2969C39.4447 13.6654 39.6107 13.0469 39.8516 12.4414C40.099 11.8294 40.4212 11.2793 40.8184 10.791C41.222 10.3027 41.7005 9.91862 42.2539 9.63867C42.8138 9.35221 43.4518 9.21875 44.168 9.23828C44.7344 9.2513 45.2064 9.36198 45.584 9.57031C45.9681 9.77214 46.2676 10.0488 46.4824 10.4004C46.6973 10.752 46.8405 11.1589 46.9121 11.6211C46.9837 12.0768 46.9902 12.5618 46.9316 13.0762L45.7793 20H44.002L45.1738 13.0469C45.2194 12.6237 45.2031 12.2428 45.125 11.9043C45.0534 11.5592 44.8906 11.2858 44.6367 11.084C44.3893 10.8757 44.0312 10.765 43.5625 10.752C43.0677 10.7389 42.6217 10.8333 42.2246 11.0352C41.8275 11.237 41.4792 11.5137 41.1797 11.8652C40.8867 12.2103 40.6458 12.5977 40.457 13.0273C40.2747 13.4505 40.1478 13.8802 40.0762 14.3164Z" fill="#1E398F"/>
<rect x="0.5" y="0.5" width="50" height="25" stroke="#1E398F"/>
</svg>
