<svg width="497" height="217" viewBox="0 0 497 217" fill="none" xmlns="http://www.w3.org/2000/svg">
<path d="M29.4336 28.0132L23.6276 37.9965L35.1746 38.0297L29.4336 28.0132ZM28.4043 37.0103L27.8207 216.574L29.8207 216.58L30.4043 37.016L28.4043 37.0103Z" fill="#1E398F"/>
<path d="M464.333 153.415L454.328 147.649L454.338 159.196L464.333 153.415ZM28.8212 154.723L455.334 154.421L455.332 152.421L28.8194 152.723L28.8212 154.723Z" fill="#1E398F"/>
<path d="M462.307 167.147V168.256H457.737V167.147H462.307ZM459.284 165.092H460.729V173.506C460.729 173.793 460.774 174.009 460.862 174.155C460.951 174.301 461.065 174.397 461.206 174.444C461.346 174.491 461.497 174.514 461.659 174.514C461.779 174.514 461.904 174.504 462.034 174.483C462.169 174.457 462.271 174.436 462.339 174.42L462.346 175.6C462.232 175.637 462.081 175.67 461.893 175.702C461.711 175.738 461.49 175.756 461.229 175.756C460.875 175.756 460.55 175.686 460.253 175.545C459.956 175.405 459.719 175.17 459.542 174.842C459.37 174.509 459.284 174.061 459.284 173.499V165.092ZM465.315 173.881V175.045C465.315 175.519 465.195 176.019 464.956 176.545C464.716 177.077 464.38 177.519 463.948 177.874L463.128 177.303C463.294 177.074 463.435 176.84 463.55 176.6C463.664 176.366 463.75 176.121 463.807 175.866C463.87 175.616 463.901 175.35 463.901 175.069V173.881H465.315ZM474.51 174.569C474.854 174.569 475.172 174.499 475.464 174.358C475.755 174.217 475.995 174.025 476.182 173.78C476.37 173.53 476.477 173.246 476.503 172.928H477.878C477.852 173.428 477.682 173.894 477.37 174.327C477.063 174.754 476.659 175.1 476.159 175.366C475.659 175.626 475.109 175.756 474.51 175.756C473.875 175.756 473.32 175.644 472.846 175.42C472.378 175.196 471.987 174.889 471.675 174.499C471.367 174.108 471.135 173.66 470.979 173.155C470.828 172.644 470.753 172.105 470.753 171.538V171.209C470.753 170.642 470.828 170.105 470.979 169.6C471.135 169.09 471.367 168.639 471.675 168.249C471.987 167.858 472.378 167.551 472.846 167.327C473.32 167.103 473.875 166.991 474.51 166.991C475.172 166.991 475.75 167.126 476.245 167.397C476.74 167.663 477.128 168.027 477.409 168.491C477.695 168.949 477.852 169.47 477.878 170.053H476.503C476.477 169.704 476.378 169.389 476.206 169.108C476.039 168.827 475.81 168.603 475.518 168.436C475.232 168.264 474.896 168.178 474.51 168.178C474.068 168.178 473.695 168.267 473.393 168.444C473.096 168.616 472.859 168.85 472.682 169.147C472.51 169.439 472.385 169.764 472.307 170.124C472.234 170.478 472.198 170.84 472.198 171.209V171.538C472.198 171.907 472.234 172.272 472.307 172.631C472.38 172.991 472.503 173.316 472.675 173.608C472.852 173.9 473.089 174.134 473.385 174.311C473.688 174.483 474.063 174.569 474.51 174.569Z" fill="#1E398F"/>
<path d="M5.46875 4.2627L2.17383 13.334H0.827148L4.62109 3.38086H5.48926L5.46875 4.2627ZM8.23047 13.334L4.92871 4.2627L4.9082 3.38086H5.77637L9.58398 13.334H8.23047ZM8.05957 9.64941V10.7295H2.46777V9.64941H8.05957ZM14.9775 11.6523L17.4932 5.9375H18.71L15.415 13.334H14.54L11.2588 5.9375H12.4756L14.9775 11.6523ZM12.1064 5.9375V13.334H10.8418V5.9375H12.1064ZM17.8076 13.334V5.9375H19.0791V13.334H17.8076ZM26.0449 5.9375V6.9834H22.3057V5.9375H26.0449ZM22.4902 5.9375V13.334H21.2256V5.9375H22.4902ZM27.166 5.9375V13.334H25.8945V5.9375H27.166ZM34.1387 5.9375V6.9834H30.5635V5.9375H34.1387ZM35.2529 5.9375V13.334H33.9883V5.9375H35.2529ZM30.2559 5.9375H31.5273L31.3359 9.50586C31.304 10.0573 31.2516 10.5449 31.1787 10.9688C31.1104 11.388 31.0146 11.748 30.8916 12.0488C30.7731 12.3496 30.6227 12.5957 30.4404 12.7871C30.2627 12.974 30.0485 13.113 29.7979 13.2041C29.5472 13.2907 29.2578 13.334 28.9297 13.334H28.5332V12.2197L28.8066 12.1992C29.0026 12.1855 29.1689 12.14 29.3057 12.0625C29.4469 11.985 29.5654 11.8711 29.6611 11.7207C29.7568 11.5658 29.8343 11.3675 29.8936 11.126C29.9574 10.8844 30.0052 10.5973 30.0371 10.2646C30.0736 9.93197 30.1009 9.5446 30.1191 9.10254L30.2559 5.9375ZM37.3105 12.6641C37.3105 12.4499 37.3766 12.2699 37.5088 12.124C37.6455 11.9736 37.8415 11.8984 38.0967 11.8984C38.3519 11.8984 38.5456 11.9736 38.6777 12.124C38.8145 12.2699 38.8828 12.4499 38.8828 12.6641C38.8828 12.8737 38.8145 13.0514 38.6777 13.1973C38.5456 13.3431 38.3519 13.416 38.0967 13.416C37.8415 13.416 37.6455 13.3431 37.5088 13.1973C37.3766 13.0514 37.3105 12.8737 37.3105 12.6641ZM42.1299 11.8301V12.8486C42.1299 13.2633 42.0251 13.7008 41.8154 14.1611C41.6058 14.626 41.3118 15.0133 40.9336 15.3232L40.2158 14.8242C40.3617 14.6237 40.4847 14.4186 40.585 14.209C40.6852 14.0039 40.7604 13.7897 40.8105 13.5664C40.8652 13.3477 40.8926 13.1152 40.8926 12.8691V11.8301H42.1299ZM50.9551 8.67871H48.4326L48.4189 7.61914H50.709C51.0872 7.61914 51.4176 7.55534 51.7002 7.42773C51.9827 7.30013 52.2015 7.11784 52.3564 6.88086C52.516 6.63932 52.5957 6.35221 52.5957 6.01953C52.5957 5.65495 52.5251 5.35872 52.3838 5.13086C52.2471 4.89844 52.0352 4.72982 51.748 4.625C51.4655 4.51562 51.1055 4.46094 50.668 4.46094H48.7266V13.334H47.4072V3.38086H50.668C51.1784 3.38086 51.6341 3.43327 52.0352 3.53809C52.4362 3.63835 52.7757 3.79785 53.0537 4.0166C53.3363 4.23079 53.5505 4.50423 53.6963 4.83691C53.8421 5.1696 53.915 5.56836 53.915 6.0332C53.915 6.44336 53.8102 6.81478 53.6006 7.14746C53.391 7.47559 53.0993 7.74447 52.7256 7.9541C52.3564 8.16374 51.9235 8.29818 51.4268 8.35742L50.9551 8.67871ZM50.8936 13.334H47.9131L48.6582 12.2607H50.8936C51.3128 12.2607 51.6683 12.1878 51.96 12.042C52.2562 11.8962 52.4818 11.6911 52.6367 11.4268C52.7917 11.1579 52.8691 10.8411 52.8691 10.4766C52.8691 10.1074 52.8031 9.78841 52.6709 9.51953C52.5387 9.25065 52.3314 9.04329 52.0488 8.89746C51.7663 8.75163 51.4017 8.67871 50.9551 8.67871H49.0752L49.0889 7.61914H51.6592L51.9395 8.00195C52.418 8.04297 52.8236 8.17969 53.1562 8.41211C53.4889 8.63997 53.7419 8.93164 53.915 9.28711C54.0928 9.64258 54.1816 10.0345 54.1816 10.4629C54.1816 11.0827 54.0449 11.6068 53.7715 12.0352C53.5026 12.459 53.1221 12.7826 52.6299 13.0059C52.1377 13.2246 51.5589 13.334 50.8936 13.334Z" fill="#1E398F"/>
</svg>
