<svg width="496" height="217" viewBox="0 0 496 217" fill="none" xmlns="http://www.w3.org/2000/svg">
<path d="M29.1001 28.4131L23.2941 38.3964L34.8411 38.4296L29.1001 28.4131ZM28.0709 37.4102L27.4872 216.974L29.4872 216.98L30.0708 37.4159L28.0709 37.4102Z" fill="#1E398F"/>
<path d="M464 153.815L453.995 148.049L454.005 159.596L464 153.815ZM28.4882 155.123L455.001 154.822L454.999 152.822L28.4864 153.123L28.4882 155.123Z" fill="#1E398F"/>
<path d="M461.974 167.547V168.656H457.403V167.547H461.974ZM458.95 165.492H460.396V173.906C460.396 174.193 460.44 174.409 460.528 174.555C460.617 174.701 460.731 174.797 460.872 174.844C461.013 174.891 461.164 174.914 461.325 174.914C461.445 174.914 461.57 174.904 461.7 174.883C461.836 174.857 461.937 174.836 462.005 174.82L462.013 176C461.898 176.036 461.747 176.07 461.56 176.102C461.377 176.138 461.156 176.156 460.896 176.156C460.541 176.156 460.216 176.086 459.919 175.945C459.622 175.805 459.385 175.57 459.208 175.242C459.036 174.909 458.95 174.461 458.95 173.898V165.492ZM464.981 174.281V175.445C464.981 175.919 464.862 176.419 464.622 176.945C464.382 177.477 464.047 177.919 463.614 178.273L462.794 177.703C462.961 177.474 463.101 177.24 463.216 177C463.33 176.766 463.416 176.521 463.474 176.266C463.536 176.016 463.567 175.75 463.567 175.469V174.281H464.981ZM474.177 174.969C474.521 174.969 474.838 174.898 475.13 174.758C475.422 174.617 475.661 174.424 475.849 174.18C476.036 173.93 476.143 173.646 476.169 173.328H477.544C477.518 173.828 477.349 174.294 477.036 174.727C476.729 175.154 476.325 175.5 475.825 175.766C475.325 176.026 474.776 176.156 474.177 176.156C473.541 176.156 472.987 176.044 472.513 175.82C472.044 175.596 471.653 175.289 471.341 174.898C471.034 174.508 470.802 174.06 470.646 173.555C470.494 173.044 470.419 172.505 470.419 171.938V171.609C470.419 171.042 470.494 170.505 470.646 170C470.802 169.49 471.034 169.039 471.341 168.648C471.653 168.258 472.044 167.951 472.513 167.727C472.987 167.503 473.541 167.391 474.177 167.391C474.838 167.391 475.416 167.526 475.911 167.797C476.406 168.062 476.794 168.427 477.075 168.891C477.362 169.349 477.518 169.87 477.544 170.453H476.169C476.143 170.104 476.044 169.789 475.872 169.508C475.705 169.227 475.476 169.003 475.185 168.836C474.898 168.664 474.562 168.578 474.177 168.578C473.734 168.578 473.362 168.667 473.06 168.844C472.763 169.016 472.526 169.25 472.349 169.547C472.177 169.839 472.052 170.164 471.974 170.523C471.901 170.878 471.864 171.24 471.864 171.609V171.938C471.864 172.307 471.901 172.672 471.974 173.031C472.047 173.391 472.169 173.716 472.341 174.008C472.518 174.299 472.755 174.534 473.052 174.711C473.354 174.883 473.729 174.969 474.177 174.969Z" fill="#1E398F"/>
<path d="M5.13525 4.6626L1.84033 13.7339H0.493652L4.2876 3.78076H5.15576L5.13525 4.6626ZM7.89697 13.7339L4.59521 4.6626L4.57471 3.78076H5.44287L9.25049 13.7339H7.89697ZM7.72607 10.0493V11.1294H2.13428V10.0493H7.72607ZM14.644 12.0522L17.1597 6.3374H18.3765L15.0815 13.7339H14.2065L10.9253 6.3374H12.1421L14.644 12.0522ZM11.7729 6.3374V13.7339H10.5083V6.3374H11.7729ZM17.4741 13.7339V6.3374H18.7456V13.7339H17.4741ZM25.7114 6.3374V7.3833H21.9722V6.3374H25.7114ZM22.1567 6.3374V13.7339H20.8921V6.3374H22.1567ZM26.8325 6.3374V13.7339H25.561V6.3374H26.8325ZM33.8052 6.3374V7.3833H30.23V6.3374H33.8052ZM34.9194 6.3374V13.7339H33.6548V6.3374H34.9194ZM29.9224 6.3374H31.1938L31.0024 9.90576C30.9705 10.4572 30.9181 10.9448 30.8452 11.3687C30.7769 11.7879 30.6812 12.1479 30.5581 12.4487C30.4396 12.7495 30.2892 12.9956 30.1069 13.187C29.9292 13.3739 29.715 13.5129 29.4644 13.604C29.2137 13.6906 28.9243 13.7339 28.5962 13.7339H28.1997V12.6196L28.4731 12.5991C28.6691 12.5854 28.8354 12.5399 28.9722 12.4624C29.1134 12.3849 29.2319 12.271 29.3276 12.1206C29.4233 11.9657 29.5008 11.7674 29.5601 11.5259C29.6239 11.2843 29.6717 10.9972 29.7036 10.6646C29.7401 10.3319 29.7674 9.9445 29.7856 9.50244L29.9224 6.3374ZM36.9771 13.064C36.9771 12.8498 37.0431 12.6698 37.1753 12.5239C37.312 12.3735 37.508 12.2983 37.7632 12.2983C38.0184 12.2983 38.2121 12.3735 38.3442 12.5239C38.481 12.6698 38.5493 12.8498 38.5493 13.064C38.5493 13.2736 38.481 13.4513 38.3442 13.5972C38.2121 13.743 38.0184 13.8159 37.7632 13.8159C37.508 13.8159 37.312 13.743 37.1753 13.5972C37.0431 13.4513 36.9771 13.2736 36.9771 13.064ZM41.7964 12.23V13.2485C41.7964 13.6632 41.6916 14.1007 41.4819 14.561C41.2723 15.0259 40.9784 15.4132 40.6001 15.7231L39.8823 15.2241C40.0282 15.0236 40.1512 14.8185 40.2515 14.6089C40.3517 14.4038 40.4269 14.1896 40.4771 13.9663C40.5317 13.7476 40.5591 13.5151 40.5591 13.269V12.23H41.7964ZM50.6216 9.07861H48.0991L48.0854 8.01904H50.3755C50.7537 8.01904 51.0841 7.95524 51.3667 7.82764C51.6493 7.70003 51.868 7.51774 52.0229 7.28076C52.1825 7.03923 52.2622 6.75212 52.2622 6.41943C52.2622 6.05485 52.1916 5.75863 52.0503 5.53076C51.9136 5.29834 51.7017 5.12972 51.4146 5.0249C51.132 4.91553 50.772 4.86084 50.3345 4.86084H48.3931V13.7339H47.0737V3.78076H50.3345C50.8449 3.78076 51.3006 3.83317 51.7017 3.93799C52.1027 4.03825 52.4422 4.19775 52.7202 4.4165C53.0028 4.6307 53.217 4.90413 53.3628 5.23682C53.5086 5.5695 53.5815 5.96826 53.5815 6.43311C53.5815 6.84326 53.4767 7.21468 53.2671 7.54736C53.0575 7.87549 52.7658 8.14437 52.3921 8.354C52.0229 8.56364 51.59 8.69808 51.0933 8.75732L50.6216 9.07861ZM50.5601 13.7339H47.5796L48.3247 12.6606H50.5601C50.9793 12.6606 51.3348 12.5877 51.6265 12.4419C51.9227 12.2961 52.1483 12.091 52.3032 11.8267C52.4582 11.5578 52.5356 11.241 52.5356 10.8765C52.5356 10.5073 52.4696 10.1883 52.3374 9.91943C52.2052 9.65055 51.9979 9.4432 51.7153 9.29736C51.4328 9.15153 51.0682 9.07861 50.6216 9.07861H48.7417L48.7554 8.01904H51.3257L51.606 8.40186C52.0845 8.44287 52.4901 8.57959 52.8228 8.81201C53.1554 9.03988 53.4084 9.33154 53.5815 9.68701C53.7593 10.0425 53.8481 10.4344 53.8481 10.8628C53.8481 11.4826 53.7114 12.0067 53.438 12.4351C53.1691 12.8589 52.7886 13.1825 52.2964 13.4058C51.8042 13.6245 51.2254 13.7339 50.5601 13.7339Z" fill="#1E398F"/>
<path d="M28.4873 154.617L28.9816 151.531L29.4759 148.493L29.9703 145.552L30.4646 142.754L30.9589 140.144L31.4532 137.761L31.9475 135.644L32.4418 133.827L32.9362 132.337L33.4305 131.198L33.9248 130.429L34.4191 130.042H34.9134L35.4077 130.429L35.9021 131.198L36.3964 132.337L36.8907 133.827L37.385 135.644L37.8793 137.761L38.3736 140.144L38.868 142.754L39.3623 145.552L39.8566 148.493L40.3509 151.531L40.8452 154.617L41.3395 157.703L41.8339 160.741L42.3282 163.682L42.8225 166.48L43.3168 169.09L43.8111 171.473L44.3054 173.59L44.7998 175.407L45.2941 176.897L45.7884 178.035L46.2827 178.805L46.777 179.192H47.2713L47.7657 178.805L48.26 178.035L48.7543 176.897L49.2486 175.407L49.7429 173.59L50.2372 171.473L50.7316 169.09L51.2259 166.48L51.7202 163.682L52.2145 160.741L52.7088 157.703L53.2031 154.617L53.6975 151.531L54.1918 148.493L54.6861 145.552L55.1804 142.754L55.6747 140.144L56.169 137.761L56.6634 135.644L57.1577 133.827L57.652 132.337L58.1463 131.198L58.6406 130.429L59.135 130.042L59.6293 130.042L60.1236 130.429L60.6179 131.198L61.1122 132.337L61.6065 133.827L62.1009 135.644L62.5952 137.761L63.0895 140.144L63.5838 142.754L64.0781 145.552L64.5724 148.493L65.0668 151.531L65.5611 154.617L66.0554 157.703L66.5497 160.741L67.044 163.682L67.5383 166.48L68.0327 169.09L68.527 171.473L69.0213 173.59L69.5156 175.407L70.0099 176.897L70.5042 178.035L70.9986 178.805L71.4929 179.192H71.9872L72.4815 178.805L72.9758 178.035L73.4701 176.897L73.9645 175.407L74.4588 173.59L74.9531 171.473L75.4474 169.09L75.9417 166.48L76.436 163.682L76.9304 160.741L77.4247 157.703L77.919 154.617" stroke="#1E398F" stroke-width="2"/>
<path d="M127.351 154.245L127.852 147.277L128.353 140.42L128.854 133.781L129.356 127.464L129.857 121.57L130.358 116.191L130.86 111.412L131.361 107.308L131.862 103.945L132.363 101.375L132.865 99.6394L133.366 98.7644H133.867L134.368 99.6394L134.87 101.375L135.371 103.945L135.872 107.308L136.374 111.412L136.875 116.191L137.376 121.57L137.877 127.464L138.379 133.781L138.88 140.42L139.381 147.277L139.883 154.245L140.384 161.212L140.885 168.069L141.386 174.709L141.888 181.025L142.389 186.919L142.89 192.298L143.392 197.077L143.893 201.181L144.394 204.544L144.895 207.114L145.397 208.85L145.898 209.725H146.399L146.9 208.85L147.402 207.114L147.903 204.544L148.404 201.181L148.906 197.077L149.407 192.298L149.908 186.919L150.409 181.025L150.911 174.709L151.412 168.069L151.913 161.212L152.415 154.245L152.916 147.277L153.417 140.42L153.918 133.781L154.42 127.464L154.921 121.57L155.422 116.191L155.923 111.412L156.425 107.308L156.926 103.945L157.427 101.375L157.929 99.6394L158.43 98.7644L158.931 98.7644L159.432 99.6394L159.934 101.375L160.435 103.945L160.936 107.308L161.438 111.412L161.939 116.191L162.44 121.57L162.941 127.464L163.443 133.781L163.944 140.42L164.445 147.277L164.947 154.245L165.448 161.212L165.949 168.069L166.45 174.709L166.952 181.025L167.453 186.919L167.954 192.298L168.455 197.077L168.957 201.181L169.458 204.544L169.959 207.114L170.461 208.85L170.962 209.725H171.463L171.964 208.85L172.466 207.114L172.967 204.544L173.468 201.181L173.97 197.077L174.471 192.298L174.972 186.919L175.473 181.025L175.975 174.709L176.476 168.069L176.977 161.212L177.478 154.245" stroke="#1E398F" stroke-width="2"/>
<path d="M177.479 154.245L177.973 147.277L178.467 140.42L178.961 133.781L179.456 127.464L179.95 121.57L180.444 116.191L180.939 111.412L181.433 107.308L181.927 103.945L182.422 101.375L182.916 99.6394L183.41 98.7644H183.905L184.399 99.6394L184.893 101.375L185.388 103.945L185.882 107.308L186.376 111.412L186.871 116.191L187.365 121.57L187.859 127.464L188.353 133.781L188.848 140.42L189.342 147.277L189.836 154.245L190.331 161.212L190.825 168.069L191.319 174.709L191.814 181.025L192.308 186.919L192.802 192.298L193.297 197.077L193.791 201.181L194.285 204.544L194.78 207.114L195.274 208.85L195.768 209.725H196.263L196.757 208.85L197.251 207.114L197.746 204.544L198.24 201.181L198.734 197.077L199.228 192.298L199.723 186.919L200.217 181.025L200.711 174.709L201.206 168.069L201.7 161.212L202.194 154.245L202.689 147.277L203.183 140.42L203.677 133.781L204.172 127.464L204.666 121.57L205.16 116.191L205.655 111.412L206.149 107.308L206.643 103.945L207.138 101.375L207.632 99.6394L208.126 98.7644L208.62 98.7644L209.115 99.6394L209.609 101.375L210.103 103.945L210.598 107.308L211.092 111.412L211.586 116.191L212.081 121.57L212.575 127.464L213.069 133.781L213.564 140.42L214.058 147.277L214.552 154.245L215.047 161.212L215.541 168.069L216.035 174.709L216.53 181.025L217.024 186.919L217.518 192.298L218.012 197.077L218.507 201.181L219.001 204.544L219.495 207.114L219.99 208.85L220.484 209.725H220.978L221.473 208.85L221.967 207.114L222.461 204.544L222.956 201.181L223.45 197.077L223.944 192.298L224.439 186.919L224.933 181.025L225.427 174.709L225.922 168.069L226.416 161.212L226.91 154.245" stroke="#1E398F" stroke-width="2"/>
<path d="M77.813 155.961L78.4133 150.692L78.9077 147.563L79.402 144.533L79.8963 141.65L80.3906 138.96L80.8849 136.505L81.3793 134.324L81.8736 132.452L82.3679 130.917L82.8622 129.744L83.3565 128.952L83.8508 128.552H84.3452L84.8395 128.952L85.3338 129.744L85.8281 130.917L86.3224 132.452L86.8167 134.324L87.3111 136.505L87.8054 138.96L88.2997 141.65L88.794 144.533L89.2883 147.563L89.7826 150.692L90.277 153.872L90.7713 157.052L91.2656 160.181L91.7599 163.211L92.2542 166.094L92.7485 168.784L93.2429 171.239L93.7372 173.42L94.2315 175.293L94.7258 176.827L95.2201 178L95.7144 178.793L96.2088 179.192H96.7031L97.1974 178.793L97.6917 178L98.186 176.827L98.6803 175.293L99.1747 173.42L99.669 171.239L100.163 168.784L100.658 166.094L101.152 163.211L101.646 160.181L102.141 157.052L102.635 153.872L103.129 150.692L103.624 147.563L104.118 144.533L104.612 141.65L105.106 138.96L105.601 136.505L106.095 134.324L106.589 132.452L107.084 130.917L107.578 129.744L108.072 128.952L108.567 128.552L109.061 128.552L109.555 128.952L110.05 129.744L110.544 130.917L111.038 132.452L111.533 134.324L112.027 136.505L112.521 138.96L113.016 141.65L113.51 144.533L114.004 147.563L114.498 150.692L114.993 153.872L115.487 157.052L115.981 160.181L116.476 163.211L116.97 166.094L117.464 168.784L117.959 171.239L118.453 173.42L118.947 175.293L119.442 176.827L119.936 178L120.43 178.793L120.925 179.192H121.419L121.913 178.793L122.408 178L122.902 176.827L123.396 175.293L123.89 173.42L124.385 171.239L124.879 168.784L125.373 166.094L125.868 163.211L126.362 160.181L126.856 157.052L127.351 153.872" stroke="#1E398F" stroke-width="2"/>
<path d="M226.91 154.617L227.404 151.531L227.899 148.493L228.393 145.552L228.887 142.754L229.382 140.143L229.876 137.761L230.37 135.644L230.865 133.826L231.359 132.337L231.853 131.198L232.348 130.429L232.842 130.042H233.336L233.831 130.429L234.325 131.198L234.819 132.337L235.314 133.826L235.808 135.644L236.302 137.761L236.796 140.143L237.291 142.754L237.785 145.552L238.279 148.493L238.774 151.531L239.268 154.617L239.762 157.703L240.257 160.741L240.751 163.681L241.245 166.479L241.74 169.09L242.234 171.473L242.728 173.59L243.223 175.407L243.717 176.897L244.211 178.035L244.706 178.804L245.2 179.192H245.694L246.189 178.804L246.683 178.035L247.177 176.897L247.671 175.407L248.166 173.59L248.66 171.473L249.154 169.09L249.649 166.479L250.143 163.681L250.637 160.741L251.132 157.703L251.626 154.617L252.12 151.531L252.615 148.493L253.109 145.552L253.603 142.754L254.098 140.143L254.592 137.761L255.086 135.644L255.581 133.826L256.075 132.337L256.569 131.198L257.063 130.429L257.558 130.042L258.052 130.042L258.546 130.429L259.041 131.198L259.535 132.337L260.029 133.826L260.524 135.644L261.018 137.761L261.512 140.143L262.007 142.754L262.501 145.552L262.995 148.493L263.49 151.531L263.984 154.617L264.478 157.703L264.973 160.741L265.467 163.681L265.961 166.479L266.456 169.09L266.95 171.473L267.444 173.59L267.938 175.407L268.433 176.897L268.927 178.035L269.421 178.804L269.916 179.192H270.41L270.904 178.804L271.399 178.035L271.893 176.897L272.387 175.407L272.882 173.59L273.376 171.473L273.87 169.09L274.365 166.479L274.859 163.681L275.353 160.741L275.848 157.703L276.342 154.617" stroke="#1E398F" stroke-width="2"/>
<path d="M326.167 155.961L326.964 147.277L327.458 140.42L327.953 133.781L328.447 127.464L328.941 121.57L329.436 116.191L329.93 111.412L330.424 107.308L330.919 103.945L331.413 101.375L331.907 99.6394L332.402 98.7644H332.896L333.39 99.6394L333.884 101.375L334.379 103.945L334.873 107.308L335.367 111.412L335.862 116.191L336.356 121.57L336.85 127.464L337.345 133.781L337.839 140.42L338.333 147.277L338.828 154.245L339.322 161.212L339.816 168.069L340.311 174.709L340.805 181.025L341.299 186.919L341.794 192.298L342.288 197.077L342.782 201.181L343.277 204.544L343.771 207.114L344.265 208.85L344.759 209.725H345.254L345.748 208.85L346.242 207.114L346.737 204.544L347.231 201.181L347.725 197.077L348.22 192.298L348.714 186.919L349.208 181.025L349.703 174.709L350.197 168.069L350.691 161.212L351.186 154.245L351.68 147.277L352.174 140.42L352.669 133.781L353.163 127.464L353.657 121.57L354.151 116.191L354.646 111.412L355.14 107.308L355.634 103.945L356.129 101.375L356.623 99.6394L357.117 98.7644L357.612 98.7644L358.106 99.6394L358.6 101.375L359.095 103.945L359.589 107.308L360.083 111.412L360.578 116.191L361.072 121.57L361.566 127.464L362.061 133.781L362.555 140.42L363.049 147.277L363.544 154.245L364.038 161.212L364.532 168.069L365.026 174.709L365.521 181.025L366.015 186.919L366.509 192.298L367.004 197.077L367.498 201.181L367.992 204.544L368.487 207.114L368.981 208.85L369.475 209.725H369.97L370.464 208.85L370.958 207.114L371.453 204.544L371.947 201.181L372.441 197.077L372.936 192.298L373.43 186.919L373.924 181.025L374.418 174.709L374.913 168.069L375.407 161.212L375.901 154.245" stroke="#1E398F" stroke-width="2"/>
<path d="M375.902 154.245L376.396 147.277L376.89 140.42L377.385 133.781L377.879 127.464L378.373 121.57L378.868 116.191L379.362 111.412L379.856 107.308L380.351 103.945L380.845 101.375L381.339 99.6394L381.834 98.7644H382.328L382.822 99.6394L383.317 101.375L383.811 103.945L384.305 107.308L384.8 111.412L385.294 116.191L385.788 121.57L386.283 127.464L386.777 133.781L387.271 140.42L387.765 147.277L388.26 154.245L388.754 161.212L389.248 168.069L389.743 174.709L390.237 181.025L390.731 186.919L391.226 192.298L391.72 197.077L392.214 201.181L392.709 204.544L393.203 207.114L393.697 208.85L394.192 209.725H394.686L395.18 208.85L395.675 207.114L396.169 204.544L396.663 201.181L397.157 197.077L397.652 192.298L398.146 186.919L398.64 181.025L399.135 174.709L399.629 168.069L400.123 161.212L400.618 154.245L401.112 147.277L401.606 140.42L402.101 133.781L402.595 127.464L403.089 121.57L403.584 116.191L404.078 111.412L404.572 107.308L405.067 103.945L405.561 101.375L406.055 99.6394L406.55 98.7644L407.044 98.7644L407.538 99.6394L408.032 101.375L408.527 103.945L409.021 107.308L409.515 111.412L410.01 116.191L410.504 121.57L410.998 127.464L411.493 133.781L411.987 140.42L412.481 147.277L412.976 154.245L413.47 161.212L413.964 168.069L414.459 174.709L414.953 181.025L415.447 186.919L415.942 192.298L416.436 197.077L416.93 201.181L417.424 204.544L417.919 207.114L418.413 208.85L418.907 209.725H419.402L419.896 208.85L420.39 207.114L420.885 204.544L421.379 201.181L421.873 197.077L422.368 192.298L422.862 186.919L423.356 181.025L423.851 174.709L424.345 168.069L424.839 161.212L425.334 154.245" stroke="#1E398F" stroke-width="2"/>
<path d="M276.342 154.617L276.843 151.531L277.344 148.493L277.846 145.552L278.347 142.754L278.848 140.143L279.349 137.761L279.851 135.644L280.352 133.826L280.853 132.337L281.355 131.198L281.856 130.429L282.357 130.042H282.858L283.36 130.429L283.861 131.198L284.362 132.337L284.864 133.826L285.365 135.644L285.866 137.761L286.367 140.143L286.869 142.754L287.37 145.552L287.871 148.493L288.372 151.531L288.874 154.617L289.375 157.703L289.876 160.741L290.378 163.681L290.879 166.479L291.38 169.09L291.881 171.473L292.383 173.59L292.884 175.407L293.385 176.897L293.887 178.035L294.388 178.804L294.889 179.192H295.39L295.892 178.804L296.393 178.035L296.894 176.897L297.396 175.407L297.897 173.59L298.398 171.473L298.899 169.09L299.401 166.479L299.902 163.681L300.403 160.741L300.904 157.703L301.406 154.617L301.907 151.531L302.408 148.493L302.91 145.552L303.411 142.754L303.912 140.143L304.413 137.761L304.915 135.644L305.416 133.826L305.917 132.337L306.419 131.198L306.92 130.429L307.421 130.042L307.922 130.042L308.424 130.429L308.925 131.198L309.426 132.337L309.927 133.826L310.429 135.644L310.93 137.761L311.431 140.143L311.933 142.754L312.434 145.552L312.935 148.493L313.436 151.531L313.938 154.617L314.439 157.703L314.94 160.741L315.442 163.681L315.943 166.479L316.444 169.09L316.945 171.473L317.447 173.59L317.948 175.407L318.449 176.897L318.951 178.035L319.452 178.804L319.953 179.192H320.454L320.956 178.804L321.457 178.035L321.958 176.897L322.459 175.407L322.961 173.59L323.462 171.473L323.963 169.09L324.465 166.479L324.966 163.681L325.467 160.741L325.968 157.703L326.47 154.617" stroke="#1E398F" stroke-width="2"/>
<path d="M28.4873 75.6985H132.618V39.9462H259.739V75.6985H375.364V39.9462H428.667" stroke="#1E398F" stroke-width="2"/>
</svg>
