<svg width="177" height="174" viewBox="0 0 177 174" fill="none" xmlns="http://www.w3.org/2000/svg">
<path d="M7.34277 22.3594H85.1522V80.8465" stroke="#1E398F"/>
<path d="M7.34277 170.202L85.1522 170.202L85.1522 111.715" stroke="#1E398F"/>
<path d="M85.1523 112.121H169.9" stroke="#1E398F"/>
<path d="M170.4 112.226C170.4 111.088 171.597 109.989 173.317 109.989C175.036 109.989 176.233 111.088 176.233 112.226C176.233 113.364 175.036 114.464 173.317 114.464C171.597 114.464 170.4 113.364 170.4 112.226Z" fill="white" stroke="#1E398F"/>
<path d="M88.0161 112.015C88.0161 113.153 86.8194 114.253 85.0996 114.253C83.3798 114.253 82.1831 113.153 82.1831 112.015C82.1831 110.877 83.3798 109.778 85.0996 109.778C86.8194 109.778 88.0161 110.877 88.0161 112.015Z" fill="white" stroke="#1E398F"/>
<path d="M88.0161 80.3346C88.0161 81.4725 86.8194 82.572 85.0996 82.572C83.3798 82.572 82.1831 81.4725 82.1831 80.3346C82.1831 79.1966 83.3798 78.0972 85.0996 78.0972C86.8194 78.0972 88.0161 79.1966 88.0161 80.3346Z" fill="white" stroke="#1E398F"/>
<path d="M6.73775 170.503C6.73775 171.641 5.54109 172.74 3.82127 172.74C2.10144 172.74 0.904785 171.641 0.904785 170.503C0.904785 169.365 2.10144 168.265 3.82127 168.265C5.54109 168.265 6.73775 169.365 6.73775 170.503Z" fill="white" stroke="#1E398F"/>
<path d="M6.73775 22.6598C6.73775 23.7977 5.54109 24.8972 3.82127 24.8972C2.10144 24.8972 0.904785 23.7977 0.904785 22.6598C0.904785 21.5218 2.10144 20.4224 3.82127 20.4224C5.54109 20.4224 6.73775 21.5218 6.73775 22.6598Z" fill="white" stroke="#1E398F"/>
<path d="M88.0161 112.015C88.0161 113.153 86.8194 114.253 85.0996 114.253C83.3798 114.253 82.1831 113.153 82.1831 112.015C82.1831 110.877 83.3798 109.778 85.0996 109.778C86.8194 109.778 88.0161 110.877 88.0161 112.015Z" fill="white" stroke="#1E398F"/>
<path d="M38.1387 15.2754C38.2168 14.8066 38.1354 14.429 37.8945 14.1426C37.6536 13.8496 37.3379 13.625 36.9473 13.4688C36.5566 13.306 36.1758 13.179 35.8047 13.0879C35.4141 12.9902 35.0202 12.873 34.623 12.7363C34.2324 12.5931 33.8776 12.4141 33.5586 12.1992C33.2396 11.9779 32.9922 11.7012 32.8164 11.3691C32.6406 11.0371 32.5755 10.6302 32.6211 10.1484C32.6667 9.66016 32.8132 9.23372 33.0605 8.86914C33.3145 8.50456 33.6302 8.20182 34.0078 7.96094C34.3919 7.71354 34.8053 7.53125 35.248 7.41406C35.6973 7.29688 36.1432 7.23828 36.5859 7.23828C37.2305 7.24479 37.8164 7.36849 38.3438 7.60938C38.8776 7.85026 39.2943 8.20508 39.5938 8.67383C39.8997 9.13607 40.0299 9.71224 39.9844 10.4023L38.8516 10.3926C38.8906 9.93034 38.806 9.54297 38.5977 9.23047C38.3958 8.91146 38.1126 8.67057 37.748 8.50781C37.39 8.33854 36.9928 8.25065 36.5566 8.24414C36.153 8.24414 35.7493 8.30924 35.3457 8.43945C34.9486 8.56966 34.6035 8.77148 34.3105 9.04492C34.0176 9.31836 33.8353 9.67318 33.7637 10.1094C33.7051 10.4544 33.7409 10.7441 33.8711 10.9785C34.0078 11.2064 34.1999 11.3919 34.4473 11.5352C34.7012 11.6784 34.9746 11.7956 35.2676 11.8867C35.5605 11.9779 35.8372 12.0592 36.0977 12.1309C36.6315 12.2741 37.1556 12.4596 37.6699 12.6875C38.1842 12.9154 38.5944 13.2311 38.9004 13.6348C39.2129 14.0319 39.3366 14.556 39.2715 15.207C39.2259 15.7279 39.0729 16.1771 38.8125 16.5547C38.5521 16.9323 38.2233 17.2448 37.8262 17.4922C37.429 17.7331 36.9961 17.9089 36.5273 18.0195C36.0586 18.1367 35.5931 18.1953 35.1309 18.1953C34.4928 18.1888 33.8874 18.0684 33.3145 17.834C32.748 17.5996 32.2923 17.248 31.9473 16.7793C31.6022 16.3105 31.4525 15.7246 31.498 15.0215L32.6406 15.0312C32.6276 15.526 32.735 15.9329 32.9629 16.252C33.1908 16.571 33.4967 16.8053 33.8809 16.9551C34.2715 17.1048 34.6947 17.1829 35.1504 17.1895C35.5605 17.1895 35.9805 17.1243 36.4102 16.9941C36.8398 16.8639 37.2142 16.6589 37.5332 16.3789C37.8587 16.099 38.0605 15.7311 38.1387 15.2754ZM44.8232 10.8613L43.6074 18H43.0361L44.1445 11.6182L42.1475 12.3213L42.2451 11.7549L44.7158 10.8613H44.8232ZM47.5039 12.4238L47.5234 12.2676C47.6667 11.3496 47.8848 10.3926 48.1777 9.39648C48.4772 8.40039 48.8646 7.43034 49.3398 6.48633C49.8151 5.54232 50.3848 4.6862 51.0488 3.91797C51.7129 3.14323 52.4811 2.52148 53.3535 2.05273L53.5488 2.87305C52.8197 3.38086 52.1784 3.99284 51.625 4.70898C51.0781 5.42513 50.6094 6.20312 50.2188 7.04297C49.8281 7.88281 49.5059 8.7487 49.252 9.64062C49.0046 10.526 48.8125 11.3887 48.6758 12.2285L48.6465 12.4238C48.5423 13.1335 48.4707 13.9245 48.4316 14.7969C48.3926 15.6628 48.4251 16.5384 48.5293 17.4238C48.64 18.3092 48.8548 19.1393 49.1738 19.9141C49.4993 20.6888 49.9714 21.3333 50.5898 21.8477L50.248 22.5801C49.5059 22.0462 48.9199 21.3724 48.4902 20.5586C48.0671 19.7448 47.7643 18.8659 47.582 17.9219C47.3997 16.9714 47.3086 16.0208 47.3086 15.0703C47.3151 14.1198 47.3802 13.2376 47.5039 12.4238ZM58.5781 7.43359L58.4219 8.39062H53.2656L53.4316 7.43359H58.5781ZM55.7852 4.71875H56.9277L55.0918 15.4414C55.0527 15.7214 55.043 15.9915 55.0625 16.252C55.0885 16.5124 55.1764 16.7272 55.3262 16.8965C55.4759 17.0592 55.7201 17.1439 56.0586 17.1504C56.2214 17.1504 56.3809 17.1406 56.5371 17.1211C56.6999 17.0951 56.8594 17.0723 57.0156 17.0527L56.9668 18.0488C56.7715 18.1009 56.5762 18.1367 56.3809 18.1562C56.1855 18.1823 55.987 18.1921 55.7852 18.1855C55.2383 18.179 54.8249 18.0456 54.5449 17.7852C54.265 17.5247 54.0827 17.1862 53.998 16.7695C53.9134 16.3464 53.9036 15.8971 53.9688 15.4219L55.7852 4.71875ZM63.5 12.2285L63.4805 12.375C63.3372 13.2995 63.1159 14.263 62.8164 15.2656C62.5234 16.2617 62.1393 17.2285 61.6641 18.166C61.1953 19.1035 60.6289 19.9564 59.9648 20.7246C59.3008 21.4993 58.5293 22.1211 57.6504 22.5898L57.4453 21.8184C58.1745 21.304 58.8125 20.6855 59.3594 19.9629C59.9128 19.2402 60.3848 18.459 60.7754 17.6191C61.1725 16.7728 61.4948 15.9069 61.7422 15.0215C61.9961 14.1296 62.1914 13.2604 62.3281 12.4141L62.3672 12.209C62.4648 11.5059 62.5299 10.7214 62.5625 9.85547C62.6016 8.98307 62.5658 8.10417 62.4551 7.21875C62.3444 6.32682 62.1296 5.49674 61.8105 4.72852C61.4915 3.95378 61.0228 3.3125 60.4043 2.80469L60.7559 2.0625C61.4915 2.59635 62.071 3.27018 62.4941 4.08398C62.9173 4.89779 63.2201 5.77995 63.4023 6.73047C63.5846 7.68099 63.6758 8.63151 63.6758 9.58203C63.6758 10.5326 63.6172 11.4147 63.5 12.2285Z" fill="#1E398F"/>
<path d="M38.1387 163.275C38.2168 162.807 38.1354 162.429 37.8945 162.143C37.6536 161.85 37.3379 161.625 36.9473 161.469C36.5566 161.306 36.1758 161.179 35.8047 161.088C35.4141 160.99 35.0202 160.873 34.623 160.736C34.2324 160.593 33.8776 160.414 33.5586 160.199C33.2396 159.978 32.9922 159.701 32.8164 159.369C32.6406 159.037 32.5755 158.63 32.6211 158.148C32.6667 157.66 32.8132 157.234 33.0605 156.869C33.3145 156.505 33.6302 156.202 34.0078 155.961C34.3919 155.714 34.8053 155.531 35.248 155.414C35.6973 155.297 36.1432 155.238 36.5859 155.238C37.2305 155.245 37.8164 155.368 38.3438 155.609C38.8776 155.85 39.2943 156.205 39.5938 156.674C39.8997 157.136 40.0299 157.712 39.9844 158.402L38.8516 158.393C38.8906 157.93 38.806 157.543 38.5977 157.23C38.3958 156.911 38.1126 156.671 37.748 156.508C37.39 156.339 36.9928 156.251 36.5566 156.244C36.153 156.244 35.7493 156.309 35.3457 156.439C34.9486 156.57 34.6035 156.771 34.3105 157.045C34.0176 157.318 33.8353 157.673 33.7637 158.109C33.7051 158.454 33.7409 158.744 33.8711 158.979C34.0078 159.206 34.1999 159.392 34.4473 159.535C34.7012 159.678 34.9746 159.796 35.2676 159.887C35.5605 159.978 35.8372 160.059 36.0977 160.131C36.6315 160.274 37.1556 160.46 37.6699 160.688C38.1842 160.915 38.5944 161.231 38.9004 161.635C39.2129 162.032 39.3366 162.556 39.2715 163.207C39.2259 163.728 39.0729 164.177 38.8125 164.555C38.5521 164.932 38.2233 165.245 37.8262 165.492C37.429 165.733 36.9961 165.909 36.5273 166.02C36.0586 166.137 35.5931 166.195 35.1309 166.195C34.4928 166.189 33.8874 166.068 33.3145 165.834C32.748 165.6 32.2923 165.248 31.9473 164.779C31.6022 164.311 31.4525 163.725 31.498 163.021L32.6406 163.031C32.6276 163.526 32.735 163.933 32.9629 164.252C33.1908 164.571 33.4967 164.805 33.8809 164.955C34.2715 165.105 34.6947 165.183 35.1504 165.189C35.5605 165.189 35.9805 165.124 36.4102 164.994C36.8398 164.864 37.2142 164.659 37.5332 164.379C37.8587 164.099 38.0605 163.731 38.1387 163.275ZM45.8438 161.835L45.6484 163.031C45.5898 163.393 45.5003 163.756 45.3799 164.12C45.2627 164.481 45.1032 164.813 44.9014 165.116C44.7028 165.416 44.4505 165.657 44.1445 165.839C43.8385 166.018 43.4723 166.104 43.0459 166.098C42.7074 166.094 42.4274 166.029 42.2061 165.902C41.9847 165.775 41.8105 165.606 41.6836 165.395C41.5566 165.18 41.4671 164.94 41.415 164.677C41.363 164.41 41.3385 164.135 41.3418 163.852C41.3451 163.568 41.3662 163.295 41.4053 163.031L41.6006 161.835C41.6559 161.474 41.7438 161.112 41.8643 160.751C41.9847 160.39 42.1458 160.061 42.3477 159.765C42.5495 159.468 42.8018 159.231 43.1045 159.052C43.4105 158.873 43.7751 158.785 44.1982 158.788C44.5368 158.791 44.8167 158.856 45.0381 158.983C45.2627 159.107 45.4385 159.275 45.5654 159.486C45.6924 159.698 45.7819 159.936 45.834 160.199C45.8861 160.46 45.9105 160.731 45.9072 161.015C45.904 161.295 45.8828 161.568 45.8438 161.835ZM45.0674 163.1L45.2871 161.757C45.3132 161.565 45.3327 161.36 45.3457 161.142C45.3587 160.92 45.3538 160.702 45.3311 160.487C45.3083 160.272 45.2546 160.076 45.1699 159.896C45.0885 159.714 44.9681 159.569 44.8086 159.462C44.6491 159.351 44.4408 159.293 44.1836 159.286C43.8483 159.28 43.5635 159.353 43.3291 159.506C43.098 159.659 42.9059 159.859 42.7529 160.106C42.5999 160.354 42.4779 160.624 42.3867 160.917C42.2956 161.207 42.2272 161.488 42.1816 161.762L41.9668 163.1C41.9408 163.285 41.9212 163.489 41.9082 163.71C41.8952 163.931 41.9001 164.153 41.9229 164.374C41.9489 164.592 42.0026 164.794 42.084 164.979C42.1654 165.162 42.2842 165.31 42.4404 165.424C42.5999 165.535 42.8083 165.593 43.0654 165.6C43.4007 165.606 43.6855 165.531 43.9199 165.375C44.1543 165.219 44.348 165.015 44.501 164.765C44.654 164.511 44.7744 164.237 44.8623 163.944C44.9535 163.651 45.0218 163.37 45.0674 163.1ZM47.5039 160.424L47.5234 160.268C47.6667 159.35 47.8848 158.393 48.1777 157.396C48.4772 156.4 48.8646 155.43 49.3398 154.486C49.8151 153.542 50.3848 152.686 51.0488 151.918C51.7129 151.143 52.4811 150.521 53.3535 150.053L53.5488 150.873C52.8197 151.381 52.1784 151.993 51.625 152.709C51.0781 153.425 50.6094 154.203 50.2188 155.043C49.8281 155.883 49.5059 156.749 49.252 157.641C49.0046 158.526 48.8125 159.389 48.6758 160.229L48.6465 160.424C48.5423 161.133 48.4707 161.924 48.4316 162.797C48.3926 163.663 48.4251 164.538 48.5293 165.424C48.64 166.309 48.8548 167.139 49.1738 167.914C49.4993 168.689 49.9714 169.333 50.5898 169.848L50.248 170.58C49.5059 170.046 48.9199 169.372 48.4902 168.559C48.0671 167.745 47.7643 166.866 47.582 165.922C47.3997 164.971 47.3086 164.021 47.3086 163.07C47.3151 162.12 47.3802 161.238 47.5039 160.424ZM58.5781 155.434L58.4219 156.391H53.2656L53.4316 155.434H58.5781ZM55.7852 152.719H56.9277L55.0918 163.441C55.0527 163.721 55.043 163.992 55.0625 164.252C55.0885 164.512 55.1764 164.727 55.3262 164.896C55.4759 165.059 55.7201 165.144 56.0586 165.15C56.2214 165.15 56.3809 165.141 56.5371 165.121C56.6999 165.095 56.8594 165.072 57.0156 165.053L56.9668 166.049C56.7715 166.101 56.5762 166.137 56.3809 166.156C56.1855 166.182 55.987 166.192 55.7852 166.186C55.2383 166.179 54.8249 166.046 54.5449 165.785C54.265 165.525 54.0827 165.186 53.998 164.77C53.9134 164.346 53.9036 163.897 53.9688 163.422L55.7852 152.719ZM63.5 160.229L63.4805 160.375C63.3372 161.299 63.1159 162.263 62.8164 163.266C62.5234 164.262 62.1393 165.229 61.6641 166.166C61.1953 167.104 60.6289 167.956 59.9648 168.725C59.3008 169.499 58.5293 170.121 57.6504 170.59L57.4453 169.818C58.1745 169.304 58.8125 168.686 59.3594 167.963C59.9128 167.24 60.3848 166.459 60.7754 165.619C61.1725 164.773 61.4948 163.907 61.7422 163.021C61.9961 162.13 62.1914 161.26 62.3281 160.414L62.3672 160.209C62.4648 159.506 62.5299 158.721 62.5625 157.855C62.6016 156.983 62.5658 156.104 62.4551 155.219C62.3444 154.327 62.1296 153.497 61.8105 152.729C61.4915 151.954 61.0228 151.312 60.4043 150.805L60.7559 150.062C61.4915 150.596 62.071 151.27 62.4941 152.084C62.9173 152.898 63.2201 153.78 63.4023 154.73C63.5846 155.681 63.6758 156.632 63.6758 157.582C63.6758 158.533 63.6172 159.415 63.5 160.229Z" fill="#1E398F"/>
<path d="M134.139 102.275C134.217 101.807 134.135 101.429 133.895 101.143C133.654 100.85 133.338 100.625 132.947 100.469C132.557 100.306 132.176 100.179 131.805 100.088C131.414 99.9902 131.02 99.873 130.623 99.7363C130.232 99.5931 129.878 99.4141 129.559 99.1992C129.24 98.9779 128.992 98.7012 128.816 98.3691C128.641 98.0371 128.576 97.6302 128.621 97.1484C128.667 96.6602 128.813 96.2337 129.061 95.8691C129.314 95.5046 129.63 95.2018 130.008 94.9609C130.392 94.7135 130.805 94.5312 131.248 94.4141C131.697 94.2969 132.143 94.2383 132.586 94.2383C133.23 94.2448 133.816 94.3685 134.344 94.6094C134.878 94.8503 135.294 95.2051 135.594 95.6738C135.9 96.1361 136.03 96.7122 135.984 97.4023L134.852 97.3926C134.891 96.9303 134.806 96.543 134.598 96.2305C134.396 95.9115 134.113 95.6706 133.748 95.5078C133.39 95.3385 132.993 95.2507 132.557 95.2441C132.153 95.2441 131.749 95.3092 131.346 95.4395C130.949 95.5697 130.604 95.7715 130.311 96.0449C130.018 96.3184 129.835 96.6732 129.764 97.1094C129.705 97.4544 129.741 97.7441 129.871 97.9785C130.008 98.2064 130.2 98.3919 130.447 98.5352C130.701 98.6784 130.975 98.7956 131.268 98.8867C131.561 98.9779 131.837 99.0592 132.098 99.1309C132.632 99.2741 133.156 99.4596 133.67 99.6875C134.184 99.9154 134.594 100.231 134.9 100.635C135.213 101.032 135.337 101.556 135.271 102.207C135.226 102.728 135.073 103.177 134.812 103.555C134.552 103.932 134.223 104.245 133.826 104.492C133.429 104.733 132.996 104.909 132.527 105.02C132.059 105.137 131.593 105.195 131.131 105.195C130.493 105.189 129.887 105.068 129.314 104.834C128.748 104.6 128.292 104.248 127.947 103.779C127.602 103.311 127.452 102.725 127.498 102.021L128.641 102.031C128.628 102.526 128.735 102.933 128.963 103.252C129.191 103.571 129.497 103.805 129.881 103.955C130.271 104.105 130.695 104.183 131.15 104.189C131.561 104.189 131.98 104.124 132.41 103.994C132.84 103.864 133.214 103.659 133.533 103.379C133.859 103.099 134.061 102.731 134.139 102.275ZM138.123 99.4238L138.143 99.2676C138.286 98.3496 138.504 97.3926 138.797 96.3965C139.096 95.4004 139.484 94.4303 139.959 93.4863C140.434 92.5423 141.004 91.6862 141.668 90.918C142.332 90.1432 143.1 89.5215 143.973 89.0527L144.168 89.873C143.439 90.3809 142.798 90.9928 142.244 91.709C141.697 92.4251 141.229 93.2031 140.838 94.043C140.447 94.8828 140.125 95.7487 139.871 96.6406C139.624 97.526 139.432 98.3887 139.295 99.2285L139.266 99.4238C139.161 100.133 139.09 100.924 139.051 101.797C139.012 102.663 139.044 103.538 139.148 104.424C139.259 105.309 139.474 106.139 139.793 106.914C140.118 107.689 140.59 108.333 141.209 108.848L140.867 109.58C140.125 109.046 139.539 108.372 139.109 107.559C138.686 106.745 138.383 105.866 138.201 104.922C138.019 103.971 137.928 103.021 137.928 102.07C137.934 101.12 137.999 100.238 138.123 99.4238ZM149.197 94.4336L149.041 95.3906H143.885L144.051 94.4336H149.197ZM146.404 91.7188H147.547L145.711 102.441C145.672 102.721 145.662 102.992 145.682 103.252C145.708 103.512 145.796 103.727 145.945 103.896C146.095 104.059 146.339 104.144 146.678 104.15C146.84 104.15 147 104.141 147.156 104.121C147.319 104.095 147.479 104.072 147.635 104.053L147.586 105.049C147.391 105.101 147.195 105.137 147 105.156C146.805 105.182 146.606 105.192 146.404 105.186C145.857 105.179 145.444 105.046 145.164 104.785C144.884 104.525 144.702 104.186 144.617 103.77C144.533 103.346 144.523 102.897 144.588 102.422L146.404 91.7188ZM154.119 99.2285L154.1 99.375C153.956 100.299 153.735 101.263 153.436 102.266C153.143 103.262 152.758 104.229 152.283 105.166C151.814 106.104 151.248 106.956 150.584 107.725C149.92 108.499 149.148 109.121 148.27 109.59L148.064 108.818C148.794 108.304 149.432 107.686 149.979 106.963C150.532 106.24 151.004 105.459 151.395 104.619C151.792 103.773 152.114 102.907 152.361 102.021C152.615 101.13 152.811 100.26 152.947 99.4141L152.986 99.209C153.084 98.5059 153.149 97.7214 153.182 96.8555C153.221 95.9831 153.185 95.1042 153.074 94.2188C152.964 93.3268 152.749 92.4967 152.43 91.7285C152.111 90.9538 151.642 90.3125 151.023 89.8047L151.375 89.0625C152.111 89.5964 152.69 90.2702 153.113 91.084C153.536 91.8978 153.839 92.7799 154.021 93.7305C154.204 94.681 154.295 95.6315 154.295 96.582C154.295 97.5326 154.236 98.4147 154.119 99.2285Z" fill="#1E398F"/>
</svg>
