<svg width="179" height="196" viewBox="0 0 179 196" fill="none" xmlns="http://www.w3.org/2000/svg">
<path d="M85.3333 128.488H178.065" stroke="#1E398F"/>
<path d="M0.193848 25.5156H85.3331V92.611" stroke="#1E398F"/>
<path d="M0.193848 195.118L85.3331 195.118L85.3331 128.022" stroke="#1E398F"/>
<path d="M85.3333 91.679L108.652 122.431" stroke="#1E398F" stroke-width="2"/>
<path d="M33.1387 15.2754C33.2168 14.8066 33.1354 14.429 32.8945 14.1426C32.6536 13.8496 32.3379 13.625 31.9473 13.4688C31.5566 13.306 31.1758 13.179 30.8047 13.0879C30.4141 12.9902 30.0202 12.873 29.623 12.7363C29.2324 12.5931 28.8776 12.4141 28.5586 12.1992C28.2396 11.9779 27.9922 11.7012 27.8164 11.3691C27.6406 11.0371 27.5755 10.6302 27.6211 10.1484C27.6667 9.66016 27.8132 9.23372 28.0605 8.86914C28.3145 8.50456 28.6302 8.20182 29.0078 7.96094C29.3919 7.71354 29.8053 7.53125 30.248 7.41406C30.6973 7.29688 31.1432 7.23828 31.5859 7.23828C32.2305 7.24479 32.8164 7.36849 33.3438 7.60938C33.8776 7.85026 34.2943 8.20508 34.5938 8.67383C34.8997 9.13607 35.0299 9.71224 34.9844 10.4023L33.8516 10.3926C33.8906 9.93034 33.806 9.54297 33.5977 9.23047C33.3958 8.91146 33.1126 8.67057 32.748 8.50781C32.39 8.33854 31.9928 8.25065 31.5566 8.24414C31.153 8.24414 30.7493 8.30924 30.3457 8.43945C29.9486 8.56966 29.6035 8.77148 29.3105 9.04492C29.0176 9.31836 28.8353 9.67318 28.7637 10.1094C28.7051 10.4544 28.7409 10.7441 28.8711 10.9785C29.0078 11.2064 29.1999 11.3919 29.4473 11.5352C29.7012 11.6784 29.9746 11.7956 30.2676 11.8867C30.5605 11.9779 30.8372 12.0592 31.0977 12.1309C31.6315 12.2741 32.1556 12.4596 32.6699 12.6875C33.1842 12.9154 33.5944 13.2311 33.9004 13.6348C34.2129 14.0319 34.3366 14.556 34.2715 15.207C34.2259 15.7279 34.0729 16.1771 33.8125 16.5547C33.5521 16.9323 33.2233 17.2448 32.8262 17.4922C32.429 17.7331 31.9961 17.9089 31.5273 18.0195C31.0586 18.1367 30.5931 18.1953 30.1309 18.1953C29.4928 18.1888 28.8874 18.0684 28.3145 17.834C27.748 17.5996 27.2923 17.248 26.9473 16.7793C26.6022 16.3105 26.4525 15.7246 26.498 15.0215L27.6406 15.0312C27.6276 15.526 27.735 15.9329 27.9629 16.252C28.1908 16.571 28.4967 16.8053 28.8809 16.9551C29.2715 17.1048 29.6947 17.1829 30.1504 17.1895C30.5605 17.1895 30.9805 17.1243 31.4102 16.9941C31.8398 16.8639 32.2142 16.6589 32.5332 16.3789C32.8587 16.099 33.0605 15.7311 33.1387 15.2754ZM39.8232 10.8613L38.6074 18H38.0361L39.1445 11.6182L37.1475 12.3213L37.2451 11.7549L39.7158 10.8613H39.8232ZM42.5039 12.4238L42.5234 12.2676C42.6667 11.3496 42.8848 10.3926 43.1777 9.39648C43.4772 8.40039 43.8646 7.43034 44.3398 6.48633C44.8151 5.54232 45.3848 4.6862 46.0488 3.91797C46.7129 3.14323 47.4811 2.52148 48.3535 2.05273L48.5488 2.87305C47.8197 3.38086 47.1784 3.99284 46.625 4.70898C46.0781 5.42513 45.6094 6.20312 45.2188 7.04297C44.8281 7.88281 44.5059 8.7487 44.252 9.64062C44.0046 10.526 43.8125 11.3887 43.6758 12.2285L43.6465 12.4238C43.5423 13.1335 43.4707 13.9245 43.4316 14.7969C43.3926 15.6628 43.4251 16.5384 43.5293 17.4238C43.64 18.3092 43.8548 19.1393 44.1738 19.9141C44.4993 20.6888 44.9714 21.3333 45.5898 21.8477L45.248 22.5801C44.5059 22.0462 43.9199 21.3724 43.4902 20.5586C43.0671 19.7448 42.7643 18.8659 42.582 17.9219C42.3997 16.9714 42.3086 16.0208 42.3086 15.0703C42.3151 14.1198 42.3802 13.2376 42.5039 12.4238ZM53.5781 7.43359L53.4219 8.39062H48.2656L48.4316 7.43359H53.5781ZM50.7852 4.71875H51.9277L50.0918 15.4414C50.0527 15.7214 50.043 15.9915 50.0625 16.252C50.0885 16.5124 50.1764 16.7272 50.3262 16.8965C50.4759 17.0592 50.7201 17.1439 51.0586 17.1504C51.2214 17.1504 51.3809 17.1406 51.5371 17.1211C51.6999 17.0951 51.8594 17.0723 52.0156 17.0527L51.9668 18.0488C51.7715 18.1009 51.5762 18.1367 51.3809 18.1562C51.1855 18.1823 50.987 18.1921 50.7852 18.1855C50.2383 18.179 49.8249 18.0456 49.5449 17.7852C49.265 17.5247 49.0827 17.1862 48.998 16.7695C48.9134 16.3464 48.9036 15.8971 48.9688 15.4219L50.7852 4.71875ZM58.5 12.2285L58.4805 12.375C58.3372 13.2995 58.1159 14.263 57.8164 15.2656C57.5234 16.2617 57.1393 17.2285 56.6641 18.166C56.1953 19.1035 55.6289 19.9564 54.9648 20.7246C54.3008 21.4993 53.5293 22.1211 52.6504 22.5898L52.4453 21.8184C53.1745 21.304 53.8125 20.6855 54.3594 19.9629C54.9128 19.2402 55.3848 18.459 55.7754 17.6191C56.1725 16.7728 56.4948 15.9069 56.7422 15.0215C56.9961 14.1296 57.1914 13.2604 57.3281 12.4141L57.3672 12.209C57.4648 11.5059 57.5299 10.7214 57.5625 9.85547C57.6016 8.98307 57.5658 8.10417 57.4551 7.21875C57.3444 6.32682 57.1296 5.49674 56.8105 4.72852C56.4915 3.95378 56.0228 3.3125 55.4043 2.80469L55.7559 2.0625C56.4915 2.59635 57.071 3.27018 57.4941 4.08398C57.9173 4.89779 58.2201 5.77995 58.4023 6.73047C58.5846 7.68099 58.6758 8.63151 58.6758 9.58203C58.6758 10.5326 58.6172 11.4147 58.5 12.2285Z" fill="#1E398F"/>
<path d="M33.1387 185.275C33.2168 184.807 33.1354 184.429 32.8945 184.143C32.6536 183.85 32.3379 183.625 31.9473 183.469C31.5566 183.306 31.1758 183.179 30.8047 183.088C30.4141 182.99 30.0202 182.873 29.623 182.736C29.2324 182.593 28.8776 182.414 28.5586 182.199C28.2396 181.978 27.9922 181.701 27.8164 181.369C27.6406 181.037 27.5755 180.63 27.6211 180.148C27.6667 179.66 27.8132 179.234 28.0605 178.869C28.3145 178.505 28.6302 178.202 29.0078 177.961C29.3919 177.714 29.8053 177.531 30.248 177.414C30.6973 177.297 31.1432 177.238 31.5859 177.238C32.2305 177.245 32.8164 177.368 33.3438 177.609C33.8776 177.85 34.2943 178.205 34.5938 178.674C34.8997 179.136 35.0299 179.712 34.9844 180.402L33.8516 180.393C33.8906 179.93 33.806 179.543 33.5977 179.23C33.3958 178.911 33.1126 178.671 32.748 178.508C32.39 178.339 31.9928 178.251 31.5566 178.244C31.153 178.244 30.7493 178.309 30.3457 178.439C29.9486 178.57 29.6035 178.771 29.3105 179.045C29.0176 179.318 28.8353 179.673 28.7637 180.109C28.7051 180.454 28.7409 180.744 28.8711 180.979C29.0078 181.206 29.1999 181.392 29.4473 181.535C29.7012 181.678 29.9746 181.796 30.2676 181.887C30.5605 181.978 30.8372 182.059 31.0977 182.131C31.6315 182.274 32.1556 182.46 32.6699 182.688C33.1842 182.915 33.5944 183.231 33.9004 183.635C34.2129 184.032 34.3366 184.556 34.2715 185.207C34.2259 185.728 34.0729 186.177 33.8125 186.555C33.5521 186.932 33.2233 187.245 32.8262 187.492C32.429 187.733 31.9961 187.909 31.5273 188.02C31.0586 188.137 30.5931 188.195 30.1309 188.195C29.4928 188.189 28.8874 188.068 28.3145 187.834C27.748 187.6 27.2923 187.248 26.9473 186.779C26.6022 186.311 26.4525 185.725 26.498 185.021L27.6406 185.031C27.6276 185.526 27.735 185.933 27.9629 186.252C28.1908 186.571 28.4967 186.805 28.8809 186.955C29.2715 187.105 29.6947 187.183 30.1504 187.189C30.5605 187.189 30.9805 187.124 31.4102 186.994C31.8398 186.864 32.2142 186.659 32.5332 186.379C32.8587 186.099 33.0605 185.731 33.1387 185.275ZM40.8438 183.835L40.6484 185.031C40.5898 185.393 40.5003 185.756 40.3799 186.12C40.2627 186.481 40.1032 186.813 39.9014 187.116C39.7028 187.416 39.4505 187.657 39.1445 187.839C38.8385 188.018 38.4723 188.104 38.0459 188.098C37.7074 188.094 37.4274 188.029 37.2061 187.902C36.9847 187.775 36.8105 187.606 36.6836 187.395C36.5566 187.18 36.4671 186.94 36.415 186.677C36.363 186.41 36.3385 186.135 36.3418 185.852C36.3451 185.568 36.3662 185.295 36.4053 185.031L36.6006 183.835C36.6559 183.474 36.7438 183.112 36.8643 182.751C36.9847 182.39 37.1458 182.061 37.3477 181.765C37.5495 181.468 37.8018 181.231 38.1045 181.052C38.4105 180.873 38.7751 180.785 39.1982 180.788C39.5368 180.791 39.8167 180.856 40.0381 180.983C40.2627 181.107 40.4385 181.275 40.5654 181.486C40.6924 181.698 40.7819 181.936 40.834 182.199C40.8861 182.46 40.9105 182.731 40.9072 183.015C40.904 183.295 40.8828 183.568 40.8438 183.835ZM40.0674 185.1L40.2871 183.757C40.3132 183.565 40.3327 183.36 40.3457 183.142C40.3587 182.92 40.3538 182.702 40.3311 182.487C40.3083 182.272 40.2546 182.076 40.1699 181.896C40.0885 181.714 39.9681 181.569 39.8086 181.462C39.6491 181.351 39.4408 181.293 39.1836 181.286C38.8483 181.28 38.5635 181.353 38.3291 181.506C38.098 181.659 37.9059 181.859 37.7529 182.106C37.5999 182.354 37.4779 182.624 37.3867 182.917C37.2956 183.207 37.2272 183.488 37.1816 183.762L36.9668 185.1C36.9408 185.285 36.9212 185.489 36.9082 185.71C36.8952 185.931 36.9001 186.153 36.9229 186.374C36.9489 186.592 37.0026 186.794 37.084 186.979C37.1654 187.162 37.2842 187.31 37.4404 187.424C37.5999 187.535 37.8083 187.593 38.0654 187.6C38.4007 187.606 38.6855 187.531 38.9199 187.375C39.1543 187.219 39.348 187.015 39.501 186.765C39.654 186.511 39.7744 186.237 39.8623 185.944C39.9535 185.651 40.0218 185.37 40.0674 185.1ZM42.5039 182.424L42.5234 182.268C42.6667 181.35 42.8848 180.393 43.1777 179.396C43.4772 178.4 43.8646 177.43 44.3398 176.486C44.8151 175.542 45.3848 174.686 46.0488 173.918C46.7129 173.143 47.4811 172.521 48.3535 172.053L48.5488 172.873C47.8197 173.381 47.1784 173.993 46.625 174.709C46.0781 175.425 45.6094 176.203 45.2188 177.043C44.8281 177.883 44.5059 178.749 44.252 179.641C44.0046 180.526 43.8125 181.389 43.6758 182.229L43.6465 182.424C43.5423 183.133 43.4707 183.924 43.4316 184.797C43.3926 185.663 43.4251 186.538 43.5293 187.424C43.64 188.309 43.8548 189.139 44.1738 189.914C44.4993 190.689 44.9714 191.333 45.5898 191.848L45.248 192.58C44.5059 192.046 43.9199 191.372 43.4902 190.559C43.0671 189.745 42.7643 188.866 42.582 187.922C42.3997 186.971 42.3086 186.021 42.3086 185.07C42.3151 184.12 42.3802 183.238 42.5039 182.424ZM53.5781 177.434L53.4219 178.391H48.2656L48.4316 177.434H53.5781ZM50.7852 174.719H51.9277L50.0918 185.441C50.0527 185.721 50.043 185.992 50.0625 186.252C50.0885 186.512 50.1764 186.727 50.3262 186.896C50.4759 187.059 50.7201 187.144 51.0586 187.15C51.2214 187.15 51.3809 187.141 51.5371 187.121C51.6999 187.095 51.8594 187.072 52.0156 187.053L51.9668 188.049C51.7715 188.101 51.5762 188.137 51.3809 188.156C51.1855 188.182 50.987 188.192 50.7852 188.186C50.2383 188.179 49.8249 188.046 49.5449 187.785C49.265 187.525 49.0827 187.186 48.998 186.77C48.9134 186.346 48.9036 185.897 48.9688 185.422L50.7852 174.719ZM58.5 182.229L58.4805 182.375C58.3372 183.299 58.1159 184.263 57.8164 185.266C57.5234 186.262 57.1393 187.229 56.6641 188.166C56.1953 189.104 55.6289 189.956 54.9648 190.725C54.3008 191.499 53.5293 192.121 52.6504 192.59L52.4453 191.818C53.1745 191.304 53.8125 190.686 54.3594 189.963C54.9128 189.24 55.3848 188.459 55.7754 187.619C56.1725 186.773 56.4948 185.907 56.7422 185.021C56.9961 184.13 57.1914 183.26 57.3281 182.414L57.3672 182.209C57.4648 181.506 57.5299 180.721 57.5625 179.855C57.6016 178.983 57.5658 178.104 57.4551 177.219C57.3444 176.327 57.1296 175.497 56.8105 174.729C56.4915 173.954 56.0228 173.312 55.4043 172.805L55.7559 172.062C56.4915 172.596 57.071 173.27 57.4941 174.084C57.9173 174.898 58.2201 175.78 58.4023 176.73C58.5846 177.681 58.6758 178.632 58.6758 179.582C58.6758 180.533 58.6172 181.415 58.5 182.229Z" fill="#1E398F"/>
<path d="M138.472 114.875C138.55 114.407 138.469 114.029 138.228 113.743C137.987 113.45 137.671 113.225 137.281 113.069C136.89 112.906 136.509 112.779 136.138 112.688C135.747 112.59 135.353 112.473 134.956 112.336C134.566 112.193 134.211 112.014 133.892 111.799C133.573 111.578 133.325 111.301 133.15 110.969C132.974 110.637 132.909 110.23 132.954 109.749C133 109.26 133.146 108.834 133.394 108.469C133.648 108.105 133.963 107.802 134.341 107.561C134.725 107.314 135.139 107.131 135.581 107.014C136.031 106.897 136.476 106.838 136.919 106.838C137.564 106.845 138.15 106.969 138.677 107.209C139.211 107.45 139.628 107.805 139.927 108.274C140.233 108.736 140.363 109.312 140.318 110.002L139.185 109.993C139.224 109.53 139.139 109.143 138.931 108.831C138.729 108.512 138.446 108.271 138.081 108.108C137.723 107.939 137.326 107.851 136.89 107.844C136.486 107.844 136.083 107.909 135.679 108.04C135.282 108.17 134.937 108.372 134.644 108.645C134.351 108.918 134.169 109.273 134.097 109.709C134.038 110.055 134.074 110.344 134.204 110.579C134.341 110.806 134.533 110.992 134.781 111.135C135.034 111.278 135.308 111.396 135.601 111.487C135.894 111.578 136.17 111.659 136.431 111.731C136.965 111.874 137.489 112.06 138.003 112.288C138.517 112.515 138.928 112.831 139.234 113.235C139.546 113.632 139.67 114.156 139.605 114.807C139.559 115.328 139.406 115.777 139.146 116.155C138.885 116.532 138.557 116.845 138.159 117.092C137.762 117.333 137.329 117.509 136.861 117.62C136.392 117.737 135.926 117.795 135.464 117.795C134.826 117.789 134.221 117.668 133.648 117.434C133.081 117.2 132.626 116.848 132.281 116.379C131.935 115.911 131.786 115.325 131.831 114.622L132.974 114.631C132.961 115.126 133.068 115.533 133.296 115.852C133.524 116.171 133.83 116.405 134.214 116.555C134.605 116.705 135.028 116.783 135.484 116.79C135.894 116.79 136.314 116.724 136.743 116.594C137.173 116.464 137.547 116.259 137.866 115.979C138.192 115.699 138.394 115.331 138.472 114.875ZM142.456 112.024L142.476 111.868C142.619 110.95 142.837 109.993 143.13 108.997C143.43 108 143.817 107.03 144.292 106.086C144.767 105.142 145.337 104.286 146.001 103.518C146.665 102.743 147.434 102.122 148.306 101.653L148.501 102.473C147.772 102.981 147.131 103.593 146.577 104.309C146.031 105.025 145.562 105.803 145.171 106.643C144.781 107.483 144.458 108.349 144.204 109.241C143.957 110.126 143.765 110.989 143.628 111.829L143.599 112.024C143.495 112.734 143.423 113.525 143.384 114.397C143.345 115.263 143.378 116.139 143.482 117.024C143.592 117.909 143.807 118.739 144.126 119.514C144.452 120.289 144.924 120.933 145.542 121.448L145.2 122.18C144.458 121.646 143.872 120.972 143.443 120.159C143.019 119.345 142.717 118.466 142.534 117.522C142.352 116.571 142.261 115.621 142.261 114.67C142.267 113.72 142.333 112.838 142.456 112.024ZM153.531 107.034L153.374 107.991H148.218L148.384 107.034H153.531ZM150.738 104.319H151.88L150.044 115.042C150.005 115.321 149.995 115.592 150.015 115.852C150.041 116.112 150.129 116.327 150.279 116.497C150.428 116.659 150.672 116.744 151.011 116.75C151.174 116.75 151.333 116.741 151.49 116.721C151.652 116.695 151.812 116.672 151.968 116.653L151.919 117.649C151.724 117.701 151.529 117.737 151.333 117.756C151.138 117.782 150.939 117.792 150.738 117.786C150.191 117.779 149.777 117.646 149.497 117.385C149.217 117.125 149.035 116.786 148.95 116.37C148.866 115.946 148.856 115.497 148.921 115.022L150.738 104.319ZM158.452 111.829L158.433 111.975C158.29 112.9 158.068 113.863 157.769 114.866C157.476 115.862 157.092 116.829 156.616 117.766C156.148 118.704 155.581 119.556 154.917 120.325C154.253 121.099 153.482 121.721 152.603 122.19L152.398 121.418C153.127 120.904 153.765 120.286 154.312 119.563C154.865 118.84 155.337 118.059 155.728 117.219C156.125 116.373 156.447 115.507 156.695 114.622C156.948 113.73 157.144 112.861 157.281 112.014L157.32 111.809C157.417 111.106 157.482 110.321 157.515 109.456C157.554 108.583 157.518 107.704 157.407 106.819C157.297 105.927 157.082 105.097 156.763 104.329C156.444 103.554 155.975 102.913 155.357 102.405L155.708 101.663C156.444 102.196 157.023 102.87 157.447 103.684C157.87 104.498 158.172 105.38 158.355 106.331C158.537 107.281 158.628 108.232 158.628 109.182C158.628 110.133 158.57 111.015 158.452 111.829Z" fill="#1E398F"/>
</svg>
