<svg width="163" height="171" viewBox="0 0 163 171" fill="none" xmlns="http://www.w3.org/2000/svg">
<path d="M78.1523 112.121H162.9" stroke="#1E398F"/>
<path d="M0.342773 22.3594H78.1522V80.8465" stroke="#1E398F"/>
<path d="M0.342773 170.202L78.1522 170.202L78.1522 111.715" stroke="#1E398F"/>
<path d="M78.0762 80.0339L78.0762 112" stroke="#1E398F" stroke-width="2"/>
<path d="M31.1387 15.2754C31.2168 14.8066 31.1354 14.429 30.8945 14.1426C30.6536 13.8496 30.3379 13.625 29.9473 13.4688C29.5566 13.306 29.1758 13.179 28.8047 13.0879C28.4141 12.9902 28.0202 12.873 27.623 12.7363C27.2324 12.5931 26.8776 12.4141 26.5586 12.1992C26.2396 11.9779 25.9922 11.7012 25.8164 11.3691C25.6406 11.0371 25.5755 10.6302 25.6211 10.1484C25.6667 9.66016 25.8132 9.23372 26.0605 8.86914C26.3145 8.50456 26.6302 8.20182 27.0078 7.96094C27.3919 7.71354 27.8053 7.53125 28.248 7.41406C28.6973 7.29688 29.1432 7.23828 29.5859 7.23828C30.2305 7.24479 30.8164 7.36849 31.3438 7.60938C31.8776 7.85026 32.2943 8.20508 32.5938 8.67383C32.8997 9.13607 33.0299 9.71224 32.9844 10.4023L31.8516 10.3926C31.8906 9.93034 31.806 9.54297 31.5977 9.23047C31.3958 8.91146 31.1126 8.67057 30.748 8.50781C30.39 8.33854 29.9928 8.25065 29.5566 8.24414C29.153 8.24414 28.7493 8.30924 28.3457 8.43945C27.9486 8.56966 27.6035 8.77148 27.3105 9.04492C27.0176 9.31836 26.8353 9.67318 26.7637 10.1094C26.7051 10.4544 26.7409 10.7441 26.8711 10.9785C27.0078 11.2064 27.1999 11.3919 27.4473 11.5352C27.7012 11.6784 27.9746 11.7956 28.2676 11.8867C28.5605 11.9779 28.8372 12.0592 29.0977 12.1309C29.6315 12.2741 30.1556 12.4596 30.6699 12.6875C31.1842 12.9154 31.5944 13.2311 31.9004 13.6348C32.2129 14.0319 32.3366 14.556 32.2715 15.207C32.2259 15.7279 32.0729 16.1771 31.8125 16.5547C31.5521 16.9323 31.2233 17.2448 30.8262 17.4922C30.429 17.7331 29.9961 17.9089 29.5273 18.0195C29.0586 18.1367 28.5931 18.1953 28.1309 18.1953C27.4928 18.1888 26.8874 18.0684 26.3145 17.834C25.748 17.5996 25.2923 17.248 24.9473 16.7793C24.6022 16.3105 24.4525 15.7246 24.498 15.0215L25.6406 15.0312C25.6276 15.526 25.735 15.9329 25.9629 16.252C26.1908 16.571 26.4967 16.8053 26.8809 16.9551C27.2715 17.1048 27.6947 17.1829 28.1504 17.1895C28.5605 17.1895 28.9805 17.1243 29.4102 16.9941C29.8398 16.8639 30.2142 16.6589 30.5332 16.3789C30.8587 16.099 31.0605 15.7311 31.1387 15.2754ZM37.8232 10.8613L36.6074 18H36.0361L37.1445 11.6182L35.1475 12.3213L35.2451 11.7549L37.7158 10.8613H37.8232ZM40.5039 12.4238L40.5234 12.2676C40.6667 11.3496 40.8848 10.3926 41.1777 9.39648C41.4772 8.40039 41.8646 7.43034 42.3398 6.48633C42.8151 5.54232 43.3848 4.6862 44.0488 3.91797C44.7129 3.14323 45.4811 2.52148 46.3535 2.05273L46.5488 2.87305C45.8197 3.38086 45.1784 3.99284 44.625 4.70898C44.0781 5.42513 43.6094 6.20312 43.2188 7.04297C42.8281 7.88281 42.5059 8.7487 42.252 9.64062C42.0046 10.526 41.8125 11.3887 41.6758 12.2285L41.6465 12.4238C41.5423 13.1335 41.4707 13.9245 41.4316 14.7969C41.3926 15.6628 41.4251 16.5384 41.5293 17.4238C41.64 18.3092 41.8548 19.1393 42.1738 19.9141C42.4993 20.6888 42.9714 21.3333 43.5898 21.8477L43.248 22.5801C42.5059 22.0462 41.9199 21.3724 41.4902 20.5586C41.0671 19.7448 40.7643 18.8659 40.582 17.9219C40.3997 16.9714 40.3086 16.0208 40.3086 15.0703C40.3151 14.1198 40.3802 13.2376 40.5039 12.4238ZM51.5781 7.43359L51.4219 8.39062H46.2656L46.4316 7.43359H51.5781ZM48.7852 4.71875H49.9277L48.0918 15.4414C48.0527 15.7214 48.043 15.9915 48.0625 16.252C48.0885 16.5124 48.1764 16.7272 48.3262 16.8965C48.4759 17.0592 48.7201 17.1439 49.0586 17.1504C49.2214 17.1504 49.3809 17.1406 49.5371 17.1211C49.6999 17.0951 49.8594 17.0723 50.0156 17.0527L49.9668 18.0488C49.7715 18.1009 49.5762 18.1367 49.3809 18.1562C49.1855 18.1823 48.987 18.1921 48.7852 18.1855C48.2383 18.179 47.8249 18.0456 47.5449 17.7852C47.265 17.5247 47.0827 17.1862 46.998 16.7695C46.9134 16.3464 46.9036 15.8971 46.9688 15.4219L48.7852 4.71875ZM56.5 12.2285L56.4805 12.375C56.3372 13.2995 56.1159 14.263 55.8164 15.2656C55.5234 16.2617 55.1393 17.2285 54.6641 18.166C54.1953 19.1035 53.6289 19.9564 52.9648 20.7246C52.3008 21.4993 51.5293 22.1211 50.6504 22.5898L50.4453 21.8184C51.1745 21.304 51.8125 20.6855 52.3594 19.9629C52.9128 19.2402 53.3848 18.459 53.7754 17.6191C54.1725 16.7728 54.4948 15.9069 54.7422 15.0215C54.9961 14.1296 55.1914 13.2604 55.3281 12.4141L55.3672 12.209C55.4648 11.5059 55.5299 10.7214 55.5625 9.85547C55.6016 8.98307 55.5658 8.10417 55.4551 7.21875C55.3444 6.32682 55.1296 5.49674 54.8105 4.72852C54.4915 3.95378 54.0228 3.3125 53.4043 2.80469L53.7559 2.0625C54.4915 2.59635 55.071 3.27018 55.4941 4.08398C55.9173 4.89779 56.2201 5.77995 56.4023 6.73047C56.5846 7.68099 56.6758 8.63151 56.6758 9.58203C56.6758 10.5326 56.6172 11.4147 56.5 12.2285Z" fill="#1E398F"/>
<path d="M31.1387 163.275C31.2168 162.807 31.1354 162.429 30.8945 162.143C30.6536 161.85 30.3379 161.625 29.9473 161.469C29.5566 161.306 29.1758 161.179 28.8047 161.088C28.4141 160.99 28.0202 160.873 27.623 160.736C27.2324 160.593 26.8776 160.414 26.5586 160.199C26.2396 159.978 25.9922 159.701 25.8164 159.369C25.6406 159.037 25.5755 158.63 25.6211 158.148C25.6667 157.66 25.8132 157.234 26.0605 156.869C26.3145 156.505 26.6302 156.202 27.0078 155.961C27.3919 155.714 27.8053 155.531 28.248 155.414C28.6973 155.297 29.1432 155.238 29.5859 155.238C30.2305 155.245 30.8164 155.368 31.3438 155.609C31.8776 155.85 32.2943 156.205 32.5938 156.674C32.8997 157.136 33.0299 157.712 32.9844 158.402L31.8516 158.393C31.8906 157.93 31.806 157.543 31.5977 157.23C31.3958 156.911 31.1126 156.671 30.748 156.508C30.39 156.339 29.9928 156.251 29.5566 156.244C29.153 156.244 28.7493 156.309 28.3457 156.439C27.9486 156.57 27.6035 156.771 27.3105 157.045C27.0176 157.318 26.8353 157.673 26.7637 158.109C26.7051 158.454 26.7409 158.744 26.8711 158.979C27.0078 159.206 27.1999 159.392 27.4473 159.535C27.7012 159.678 27.9746 159.796 28.2676 159.887C28.5605 159.978 28.8372 160.059 29.0977 160.131C29.6315 160.274 30.1556 160.46 30.6699 160.688C31.1842 160.915 31.5944 161.231 31.9004 161.635C32.2129 162.032 32.3366 162.556 32.2715 163.207C32.2259 163.728 32.0729 164.177 31.8125 164.555C31.5521 164.932 31.2233 165.245 30.8262 165.492C30.429 165.733 29.9961 165.909 29.5273 166.02C29.0586 166.137 28.5931 166.195 28.1309 166.195C27.4928 166.189 26.8874 166.068 26.3145 165.834C25.748 165.6 25.2923 165.248 24.9473 164.779C24.6022 164.311 24.4525 163.725 24.498 163.021L25.6406 163.031C25.6276 163.526 25.735 163.933 25.9629 164.252C26.1908 164.571 26.4967 164.805 26.8809 164.955C27.2715 165.105 27.6947 165.183 28.1504 165.189C28.5605 165.189 28.9805 165.124 29.4102 164.994C29.8398 164.864 30.2142 164.659 30.5332 164.379C30.8587 164.099 31.0605 163.731 31.1387 163.275ZM38.8438 161.835L38.6484 163.031C38.5898 163.393 38.5003 163.756 38.3799 164.12C38.2627 164.481 38.1032 164.813 37.9014 165.116C37.7028 165.416 37.4505 165.657 37.1445 165.839C36.8385 166.018 36.4723 166.104 36.0459 166.098C35.7074 166.094 35.4274 166.029 35.2061 165.902C34.9847 165.775 34.8105 165.606 34.6836 165.395C34.5566 165.18 34.4671 164.94 34.415 164.677C34.363 164.41 34.3385 164.135 34.3418 163.852C34.3451 163.568 34.3662 163.295 34.4053 163.031L34.6006 161.835C34.6559 161.474 34.7438 161.112 34.8643 160.751C34.9847 160.39 35.1458 160.061 35.3477 159.765C35.5495 159.468 35.8018 159.231 36.1045 159.052C36.4105 158.873 36.7751 158.785 37.1982 158.788C37.5368 158.791 37.8167 158.856 38.0381 158.983C38.2627 159.107 38.4385 159.275 38.5654 159.486C38.6924 159.698 38.7819 159.936 38.834 160.199C38.8861 160.46 38.9105 160.731 38.9072 161.015C38.904 161.295 38.8828 161.568 38.8438 161.835ZM38.0674 163.1L38.2871 161.757C38.3132 161.565 38.3327 161.36 38.3457 161.142C38.3587 160.92 38.3538 160.702 38.3311 160.487C38.3083 160.272 38.2546 160.076 38.1699 159.896C38.0885 159.714 37.9681 159.569 37.8086 159.462C37.6491 159.351 37.4408 159.293 37.1836 159.286C36.8483 159.28 36.5635 159.353 36.3291 159.506C36.098 159.659 35.9059 159.859 35.7529 160.106C35.5999 160.354 35.4779 160.624 35.3867 160.917C35.2956 161.207 35.2272 161.488 35.1816 161.762L34.9668 163.1C34.9408 163.285 34.9212 163.489 34.9082 163.71C34.8952 163.931 34.9001 164.153 34.9229 164.374C34.9489 164.592 35.0026 164.794 35.084 164.979C35.1654 165.162 35.2842 165.31 35.4404 165.424C35.5999 165.535 35.8083 165.593 36.0654 165.6C36.4007 165.606 36.6855 165.531 36.9199 165.375C37.1543 165.219 37.348 165.015 37.501 164.765C37.654 164.511 37.7744 164.237 37.8623 163.944C37.9535 163.651 38.0218 163.37 38.0674 163.1ZM40.5039 160.424L40.5234 160.268C40.6667 159.35 40.8848 158.393 41.1777 157.396C41.4772 156.4 41.8646 155.43 42.3398 154.486C42.8151 153.542 43.3848 152.686 44.0488 151.918C44.7129 151.143 45.4811 150.521 46.3535 150.053L46.5488 150.873C45.8197 151.381 45.1784 151.993 44.625 152.709C44.0781 153.425 43.6094 154.203 43.2188 155.043C42.8281 155.883 42.5059 156.749 42.252 157.641C42.0046 158.526 41.8125 159.389 41.6758 160.229L41.6465 160.424C41.5423 161.133 41.4707 161.924 41.4316 162.797C41.3926 163.663 41.4251 164.538 41.5293 165.424C41.64 166.309 41.8548 167.139 42.1738 167.914C42.4993 168.689 42.9714 169.333 43.5898 169.848L43.248 170.58C42.5059 170.046 41.9199 169.372 41.4902 168.559C41.0671 167.745 40.7643 166.866 40.582 165.922C40.3997 164.971 40.3086 164.021 40.3086 163.07C40.3151 162.12 40.3802 161.238 40.5039 160.424ZM51.5781 155.434L51.4219 156.391H46.2656L46.4316 155.434H51.5781ZM48.7852 152.719H49.9277L48.0918 163.441C48.0527 163.721 48.043 163.992 48.0625 164.252C48.0885 164.512 48.1764 164.727 48.3262 164.896C48.4759 165.059 48.7201 165.144 49.0586 165.15C49.2214 165.15 49.3809 165.141 49.5371 165.121C49.6999 165.095 49.8594 165.072 50.0156 165.053L49.9668 166.049C49.7715 166.101 49.5762 166.137 49.3809 166.156C49.1855 166.182 48.987 166.192 48.7852 166.186C48.2383 166.179 47.8249 166.046 47.5449 165.785C47.265 165.525 47.0827 165.186 46.998 164.77C46.9134 164.346 46.9036 163.897 46.9688 163.422L48.7852 152.719ZM56.5 160.229L56.4805 160.375C56.3372 161.299 56.1159 162.263 55.8164 163.266C55.5234 164.262 55.1393 165.229 54.6641 166.166C54.1953 167.104 53.6289 167.956 52.9648 168.725C52.3008 169.499 51.5293 170.121 50.6504 170.59L50.4453 169.818C51.1745 169.304 51.8125 168.686 52.3594 167.963C52.9128 167.24 53.3848 166.459 53.7754 165.619C54.1725 164.773 54.4948 163.907 54.7422 163.021C54.9961 162.13 55.1914 161.26 55.3281 160.414L55.3672 160.209C55.4648 159.506 55.5299 158.721 55.5625 157.855C55.6016 156.983 55.5658 156.104 55.4551 155.219C55.3444 154.327 55.1296 153.497 54.8105 152.729C54.4915 151.954 54.0228 151.312 53.4043 150.805L53.7559 150.062C54.4915 150.596 55.071 151.27 55.4941 152.084C55.9173 152.898 56.2201 153.78 56.4023 154.73C56.5846 155.681 56.6758 156.632 56.6758 157.582C56.6758 158.533 56.6172 159.415 56.5 160.229Z" fill="#1E398F"/>
<path d="M127.139 102.275C127.217 101.807 127.135 101.429 126.895 101.143C126.654 100.85 126.338 100.625 125.947 100.469C125.557 100.306 125.176 100.179 124.805 100.088C124.414 99.9902 124.02 99.873 123.623 99.7363C123.232 99.5931 122.878 99.4141 122.559 99.1992C122.24 98.9779 121.992 98.7012 121.816 98.3691C121.641 98.0371 121.576 97.6302 121.621 97.1484C121.667 96.6602 121.813 96.2337 122.061 95.8691C122.314 95.5046 122.63 95.2018 123.008 94.9609C123.392 94.7135 123.805 94.5312 124.248 94.4141C124.697 94.2969 125.143 94.2383 125.586 94.2383C126.23 94.2448 126.816 94.3685 127.344 94.6094C127.878 94.8503 128.294 95.2051 128.594 95.6738C128.9 96.1361 129.03 96.7122 128.984 97.4023L127.852 97.3926C127.891 96.9303 127.806 96.543 127.598 96.2305C127.396 95.9115 127.113 95.6706 126.748 95.5078C126.39 95.3385 125.993 95.2507 125.557 95.2441C125.153 95.2441 124.749 95.3092 124.346 95.4395C123.949 95.5697 123.604 95.7715 123.311 96.0449C123.018 96.3184 122.835 96.6732 122.764 97.1094C122.705 97.4544 122.741 97.7441 122.871 97.9785C123.008 98.2064 123.2 98.3919 123.447 98.5352C123.701 98.6784 123.975 98.7956 124.268 98.8867C124.561 98.9779 124.837 99.0592 125.098 99.1309C125.632 99.2741 126.156 99.4596 126.67 99.6875C127.184 99.9154 127.594 100.231 127.9 100.635C128.213 101.032 128.337 101.556 128.271 102.207C128.226 102.728 128.073 103.177 127.812 103.555C127.552 103.932 127.223 104.245 126.826 104.492C126.429 104.733 125.996 104.909 125.527 105.02C125.059 105.137 124.593 105.195 124.131 105.195C123.493 105.189 122.887 105.068 122.314 104.834C121.748 104.6 121.292 104.248 120.947 103.779C120.602 103.311 120.452 102.725 120.498 102.021L121.641 102.031C121.628 102.526 121.735 102.933 121.963 103.252C122.191 103.571 122.497 103.805 122.881 103.955C123.271 104.105 123.695 104.183 124.15 104.189C124.561 104.189 124.98 104.124 125.41 103.994C125.84 103.864 126.214 103.659 126.533 103.379C126.859 103.099 127.061 102.731 127.139 102.275ZM131.123 99.4238L131.143 99.2676C131.286 98.3496 131.504 97.3926 131.797 96.3965C132.096 95.4004 132.484 94.4303 132.959 93.4863C133.434 92.5423 134.004 91.6862 134.668 90.918C135.332 90.1432 136.1 89.5215 136.973 89.0527L137.168 89.873C136.439 90.3809 135.798 90.9928 135.244 91.709C134.697 92.4251 134.229 93.2031 133.838 94.043C133.447 94.8828 133.125 95.7487 132.871 96.6406C132.624 97.526 132.432 98.3887 132.295 99.2285L132.266 99.4238C132.161 100.133 132.09 100.924 132.051 101.797C132.012 102.663 132.044 103.538 132.148 104.424C132.259 105.309 132.474 106.139 132.793 106.914C133.118 107.689 133.59 108.333 134.209 108.848L133.867 109.58C133.125 109.046 132.539 108.372 132.109 107.559C131.686 106.745 131.383 105.866 131.201 104.922C131.019 103.971 130.928 103.021 130.928 102.07C130.934 101.12 130.999 100.238 131.123 99.4238ZM142.197 94.4336L142.041 95.3906H136.885L137.051 94.4336H142.197ZM139.404 91.7188H140.547L138.711 102.441C138.672 102.721 138.662 102.992 138.682 103.252C138.708 103.512 138.796 103.727 138.945 103.896C139.095 104.059 139.339 104.144 139.678 104.15C139.84 104.15 140 104.141 140.156 104.121C140.319 104.095 140.479 104.072 140.635 104.053L140.586 105.049C140.391 105.101 140.195 105.137 140 105.156C139.805 105.182 139.606 105.192 139.404 105.186C138.857 105.179 138.444 105.046 138.164 104.785C137.884 104.525 137.702 104.186 137.617 103.77C137.533 103.346 137.523 102.897 137.588 102.422L139.404 91.7188ZM147.119 99.2285L147.1 99.375C146.956 100.299 146.735 101.263 146.436 102.266C146.143 103.262 145.758 104.229 145.283 105.166C144.814 106.104 144.248 106.956 143.584 107.725C142.92 108.499 142.148 109.121 141.27 109.59L141.064 108.818C141.794 108.304 142.432 107.686 142.979 106.963C143.532 106.24 144.004 105.459 144.395 104.619C144.792 103.773 145.114 102.907 145.361 102.021C145.615 101.13 145.811 100.26 145.947 99.4141L145.986 99.209C146.084 98.5059 146.149 97.7214 146.182 96.8555C146.221 95.9831 146.185 95.1042 146.074 94.2188C145.964 93.3268 145.749 92.4967 145.43 91.7285C145.111 90.9538 144.642 90.3125 144.023 89.8047L144.375 89.0625C145.111 89.5964 145.69 90.2702 146.113 91.084C146.536 91.8978 146.839 92.7799 147.021 93.7305C147.204 94.681 147.295 95.6315 147.295 96.582C147.295 97.5326 147.236 98.4147 147.119 99.2285Z" fill="#1E398F"/>
</svg>
