<svg width="843" height="128" viewBox="0 0 843 128" fill="none" xmlns="http://www.w3.org/2000/svg">
<path d="M35.5 61V1H201.402H276.16V64H309.771V1H430.607V64H476.639V1H610.949V64H649.262V62.4634V1H767.631V64V127H649.262V64H610.949V127H476.639V64H430.607V127H309.771V64H276.16V127H35.5V61Z" fill="#D3E5FF"/>
<path d="M35.5 61V1H201.402H276.16V64M35.5 61V127H276.16V64M35.5 61H0.5M35.5 61L25.5 54.7805M35.5 61L25.5 67M276.16 64H309.771M309.771 64V1H430.607V64M309.771 64V127H430.607V64M309.771 64L302.738 54.7805M309.771 64L302.738 73.9878M430.607 64H476.639M476.639 64V1H610.949V64M476.639 64V127H610.949V64M476.639 64L468.328 54.7805M476.639 64L468.328 73.9878M610.949 64H649.262M649.262 64V127H767.631V64M649.262 64V62.4634M649.262 64L640.312 73.9878M767.631 64V1H649.262V62.4634M767.631 64H827M827 64L818.049 54.7805M827 64L818.049 73.9878M640.312 54.7805L649.262 62.4634" stroke="#1E398F"/>
<path d="M5.04688 35.4531V35.375C5.04688 34.2396 5.17448 33.2135 5.42969 32.2969C5.6849 31.375 6.01042 30.5677 6.40625 29.875C6.80208 29.1823 7.21875 28.6094 7.65625 28.1562C8.09375 27.6979 8.4974 27.3672 8.86719 27.1641L9.17188 28.1172C8.86458 28.3516 8.55208 28.6745 8.23438 29.0859C7.92188 29.4974 7.63281 30.0026 7.36719 30.6016C7.10677 31.2005 6.89583 31.8958 6.73438 32.6875C6.57292 33.4792 6.49219 34.3698 6.49219 35.3594V35.4688C6.49219 36.4583 6.57292 37.3516 6.73438 38.1484C6.89583 38.9401 7.10677 39.638 7.36719 40.2422C7.63281 40.8464 7.92188 41.3594 8.23438 41.7812C8.55208 42.2083 8.86458 42.5469 9.17188 42.7969L8.86719 43.6719C8.4974 43.4688 8.09375 43.138 7.65625 42.6797C7.21875 42.2266 6.80208 41.6536 6.40625 40.9609C6.01042 40.2734 5.6849 39.4688 5.42969 38.5469C5.17448 37.625 5.04688 36.5938 5.04688 35.4531ZM15.1797 28.5625V40H13.7344V30.3672L10.8203 31.4297V30.125L14.9531 28.5625H15.1797ZM22.9141 35.375V35.4531C22.9141 36.5938 22.7865 37.625 22.5312 38.5469C22.276 39.4688 21.9505 40.2734 21.5547 40.9609C21.1589 41.6536 20.7422 42.2266 20.3047 42.6797C19.8672 43.138 19.4635 43.4688 19.0938 43.6719L18.7891 42.7969C19.0964 42.5625 19.4062 42.2344 19.7188 41.8125C20.0312 41.3958 20.3203 40.8802 20.5859 40.2656C20.8516 39.6562 21.0651 38.9531 21.2266 38.1562C21.388 37.3542 21.4688 36.4583 21.4688 35.4688V35.3594C21.4688 34.3698 21.3828 33.4766 21.2109 32.6797C21.0391 31.8776 20.8151 31.1719 20.5391 30.5625C20.2682 29.9531 19.9766 29.4401 19.6641 29.0234C19.3568 28.6016 19.0651 28.276 18.7891 28.0469L19.0938 27.1641C19.4635 27.3672 19.8672 27.6979 20.3047 28.1562C20.7422 28.6094 21.1589 29.1823 21.5547 29.875C21.9505 30.5677 22.276 31.375 22.5312 32.2969C22.7865 33.2135 22.9141 34.2396 22.9141 35.375Z" fill="#1E398F"/>
<path d="M219.914 15.041L215.207 28H213.283L218.703 13.7812H219.943L219.914 15.041ZM223.859 28L219.143 15.041L219.113 13.7812H220.354L225.793 28H223.859ZM223.615 22.7363V24.2793H215.627V22.7363H223.615ZM240.031 26.418L239.855 31.4277H238.166V28H236.77V26.418H240.031ZM227.756 28V13.7812H229.65V26.4668H236.652V13.7812H238.537V28H227.756ZM253.186 13.7812V28H251.311V15.3242H244.299V28H242.414V13.7812H253.186Z" fill="#676767"/>
<path d="M62.7656 42.7734V44H54.1562V42.7734H62.7656ZM54.3984 42.7734V46.7969H52.9062L52.8984 42.7734H54.3984ZM64.0781 42.7734L64.0625 46.7891H62.5703V42.7734H64.0781ZM61.2891 32.625V33.8594H56.3047V32.625H61.2891ZM62.5859 32.625V44H61.0859V32.625H62.5859ZM55.7891 32.625H57.2969L57.0625 37.2031C57.0312 37.8906 56.9661 38.526 56.8672 39.1094C56.7682 39.6875 56.6458 40.2161 56.5 40.6953C56.3542 41.1745 56.1875 41.6042 56 41.9844C55.8125 42.3594 55.612 42.6849 55.3984 42.9609C55.1849 43.2318 54.9609 43.4557 54.7266 43.6328C54.4974 43.8047 54.2656 43.9271 54.0312 44H53.3438V42.7734H53.8281C53.9635 42.6276 54.1172 42.4167 54.2891 42.1406C54.4661 41.8646 54.6406 41.5078 54.8125 41.0703C54.9896 40.6276 55.1432 40.0885 55.2734 39.4531C55.4089 38.8177 55.5 38.0677 55.5469 37.2031L55.7891 32.625ZM67.1953 41.7109L71.0938 35.5469H72.5469V44H71.0938V37.8359L67.1953 44H65.7578V35.5469H67.1953V41.7109ZM78.25 42.9688C78.5938 42.9688 78.9115 42.8984 79.2031 42.7578C79.4948 42.6172 79.7344 42.4245 79.9219 42.1797C80.1094 41.9297 80.2161 41.6458 80.2422 41.3281H81.6172C81.5911 41.8281 81.4219 42.2943 81.1094 42.7266C80.8021 43.1536 80.3984 43.5 79.8984 43.7656C79.3984 44.026 78.849 44.1562 78.25 44.1562C77.6146 44.1562 77.0599 44.0443 76.5859 43.8203C76.1172 43.5964 75.7266 43.2891 75.4141 42.8984C75.1068 42.5078 74.875 42.0599 74.7188 41.5547C74.5677 41.0443 74.4922 40.5052 74.4922 39.9375V39.6094C74.4922 39.0417 74.5677 38.5052 74.7188 38C74.875 37.4896 75.1068 37.0391 75.4141 36.6484C75.7266 36.2578 76.1172 35.9505 76.5859 35.7266C77.0599 35.5026 77.6146 35.3906 78.25 35.3906C78.9115 35.3906 79.4896 35.526 79.9844 35.7969C80.4792 36.0625 80.8672 36.4271 81.1484 36.8906C81.4349 37.349 81.5911 37.8698 81.6172 38.4531H80.2422C80.2161 38.1042 80.1172 37.7891 79.9453 37.5078C79.7786 37.2266 79.5495 37.0026 79.2578 36.8359C78.9714 36.6641 78.6354 36.5781 78.25 36.5781C77.8073 36.5781 77.4349 36.6667 77.1328 36.8438C76.8359 37.0156 76.599 37.25 76.4219 37.5469C76.25 37.8385 76.125 38.1641 76.0469 38.5234C75.974 38.8776 75.9375 39.2396 75.9375 39.6094V39.9375C75.9375 40.3073 75.974 40.6719 76.0469 41.0312C76.1198 41.3906 76.2422 41.7161 76.4141 42.0078C76.5911 42.2995 76.8281 42.5339 77.125 42.7109C77.4271 42.8828 77.8021 42.9688 78.25 42.9688ZM84.8125 35.5469V44H83.3672V35.5469H84.8125ZM90.3594 35.5469L86.3516 40.3906H84.3281L84.1094 39.125H85.7656L88.6016 35.5469H90.3594ZM88.8047 44L85.6953 40.1719L86.625 39.125L90.6406 44H88.8047ZM93.3438 37.1719V47.25H91.8906V35.5469H93.2188L93.3438 37.1719ZM99.0391 39.7031V39.8672C99.0391 40.4818 98.9661 41.0521 98.8203 41.5781C98.6745 42.099 98.4609 42.5521 98.1797 42.9375C97.9036 43.3229 97.5625 43.6224 97.1562 43.8359C96.75 44.0495 96.2839 44.1562 95.7578 44.1562C95.2214 44.1562 94.7474 44.0677 94.3359 43.8906C93.9245 43.7135 93.5755 43.4557 93.2891 43.1172C93.0026 42.7786 92.7734 42.3724 92.6016 41.8984C92.4349 41.4245 92.3203 40.8906 92.2578 40.2969V39.4219C92.3203 38.7969 92.4375 38.237 92.6094 37.7422C92.7812 37.2474 93.0078 36.8255 93.2891 36.4766C93.5755 36.1224 93.9219 35.8542 94.3281 35.6719C94.7344 35.4844 95.2031 35.3906 95.7344 35.3906C96.2656 35.3906 96.737 35.4948 97.1484 35.7031C97.5599 35.9062 97.9062 36.1979 98.1875 36.5781C98.4688 36.9583 98.6797 37.4141 98.8203 37.9453C98.9661 38.4714 99.0391 39.0573 99.0391 39.7031ZM97.5859 39.8672V39.7031C97.5859 39.2812 97.5417 38.8854 97.4531 38.5156C97.3646 38.1406 97.2266 37.8125 97.0391 37.5312C96.8568 37.2448 96.6224 37.0208 96.3359 36.8594C96.0495 36.6927 95.7083 36.6094 95.3125 36.6094C94.9479 36.6094 94.6302 36.6719 94.3594 36.7969C94.0938 36.9219 93.8672 37.0911 93.6797 37.3047C93.4922 37.513 93.3385 37.7526 93.2188 38.0234C93.1042 38.2891 93.0182 38.5651 92.9609 38.8516V40.875C93.0651 41.2396 93.2109 41.5833 93.3984 41.9062C93.5859 42.224 93.8359 42.4818 94.1484 42.6797C94.4609 42.8724 94.8542 42.9688 95.3281 42.9688C95.7188 42.9688 96.0547 42.888 96.3359 42.7266C96.6224 42.5599 96.8568 42.3333 97.0391 42.0469C97.2266 41.7604 97.3646 41.4323 97.4531 41.0625C97.5417 40.6875 97.5859 40.2891 97.5859 39.8672ZM104.391 44.1562C103.802 44.1562 103.268 44.0573 102.789 43.8594C102.315 43.6562 101.906 43.3724 101.562 43.0078C101.224 42.6432 100.964 42.2109 100.781 41.7109C100.599 41.2109 100.508 40.6641 100.508 40.0703V39.7422C100.508 39.0547 100.609 38.4427 100.812 37.9062C101.016 37.3646 101.292 36.9062 101.641 36.5312C101.99 36.1562 102.385 35.8724 102.828 35.6797C103.271 35.487 103.729 35.3906 104.203 35.3906C104.807 35.3906 105.328 35.4948 105.766 35.7031C106.208 35.9115 106.57 36.2031 106.852 36.5781C107.133 36.9479 107.341 37.3854 107.477 37.8906C107.612 38.3906 107.68 38.9375 107.68 39.5312V40.1797H101.367V39H106.234V38.8906C106.214 38.5156 106.135 38.151 106 37.7969C105.87 37.4427 105.661 37.151 105.375 36.9219C105.089 36.6927 104.698 36.5781 104.203 36.5781C103.875 36.5781 103.573 36.6484 103.297 36.7891C103.021 36.9245 102.784 37.1276 102.586 37.3984C102.388 37.6693 102.234 38 102.125 38.3906C102.016 38.7812 101.961 39.2318 101.961 39.7422V40.0703C101.961 40.4714 102.016 40.849 102.125 41.2031C102.24 41.5521 102.404 41.8594 102.617 42.125C102.836 42.3906 103.099 42.599 103.406 42.75C103.719 42.901 104.073 42.9766 104.469 42.9766C104.979 42.9766 105.411 42.8724 105.766 42.6641C106.12 42.4557 106.43 42.1771 106.695 41.8281L107.57 42.5234C107.388 42.7995 107.156 43.0625 106.875 43.3125C106.594 43.5625 106.247 43.7656 105.836 43.9219C105.43 44.0781 104.948 44.1562 104.391 44.1562ZM112.719 35.5469V44H111.266V35.5469H112.719ZM115.555 35.5469V36.7188H108.484V35.5469H115.555ZM118.539 41.7109L122.438 35.5469H123.891V44H122.438V37.8359L118.539 44H117.102V35.5469H118.539V41.7109ZM129.367 39.9609H127.812V39.0703H129.25C129.651 39.0703 129.969 39.0208 130.203 38.9219C130.438 38.8177 130.604 38.6745 130.703 38.4922C130.802 38.3099 130.852 38.0964 130.852 37.8516C130.852 37.6328 130.794 37.4271 130.68 37.2344C130.57 37.0365 130.393 36.8776 130.148 36.7578C129.904 36.6328 129.576 36.5703 129.164 36.5703C128.831 36.5703 128.529 36.6302 128.258 36.75C127.987 36.8646 127.771 37.0234 127.609 37.2266C127.453 37.4245 127.375 37.6484 127.375 37.8984H125.93C125.93 37.3828 126.076 36.9401 126.367 36.5703C126.664 36.1953 127.057 35.9062 127.547 35.7031C128.042 35.5 128.581 35.3984 129.164 35.3984C129.654 35.3984 130.091 35.4531 130.477 35.5625C130.867 35.6667 131.198 35.8229 131.469 36.0312C131.74 36.2344 131.945 36.4896 132.086 36.7969C132.232 37.099 132.305 37.4505 132.305 37.8516C132.305 38.138 132.237 38.4089 132.102 38.6641C131.966 38.9193 131.771 39.1458 131.516 39.3438C131.26 39.5365 130.951 39.6875 130.586 39.7969C130.227 39.9062 129.82 39.9609 129.367 39.9609ZM127.812 39.4141H129.367C129.872 39.4141 130.318 39.4635 130.703 39.5625C131.089 39.6562 131.411 39.7969 131.672 39.9844C131.932 40.1719 132.128 40.4036 132.258 40.6797C132.393 40.9505 132.461 41.263 132.461 41.6172C132.461 42.013 132.38 42.3698 132.219 42.6875C132.062 43 131.839 43.2656 131.547 43.4844C131.255 43.7031 130.906 43.8698 130.5 43.9844C130.099 44.099 129.654 44.1562 129.164 44.1562C128.617 44.1562 128.086 44.0625 127.57 43.875C127.055 43.6875 126.63 43.3984 126.297 43.0078C125.964 42.612 125.797 42.1094 125.797 41.5H127.242C127.242 41.7552 127.323 41.9974 127.484 42.2266C127.646 42.4557 127.87 42.6406 128.156 42.7812C128.448 42.9219 128.784 42.9922 129.164 42.9922C129.57 42.9922 129.909 42.9297 130.18 42.8047C130.451 42.6797 130.654 42.513 130.789 42.3047C130.93 42.0964 131 41.8698 131 41.625C131 41.3073 130.938 41.0521 130.812 40.8594C130.688 40.6667 130.495 40.526 130.234 40.4375C129.979 40.3438 129.651 40.2969 129.25 40.2969H127.812V39.4141ZM139.32 42.5547V38.2031C139.32 37.8698 139.253 37.5807 139.117 37.3359C138.987 37.0859 138.789 36.8932 138.523 36.7578C138.258 36.6224 137.93 36.5547 137.539 36.5547C137.174 36.5547 136.854 36.6172 136.578 36.7422C136.307 36.8672 136.094 37.0312 135.938 37.2344C135.786 37.4375 135.711 37.6562 135.711 37.8906H134.266C134.266 37.5885 134.344 37.2891 134.5 36.9922C134.656 36.6953 134.88 36.4271 135.172 36.1875C135.469 35.9427 135.823 35.75 136.234 35.6094C136.651 35.4635 137.115 35.3906 137.625 35.3906C138.24 35.3906 138.781 35.4948 139.25 35.7031C139.724 35.9115 140.094 36.2266 140.359 36.6484C140.63 37.0651 140.766 37.5885 140.766 38.2188V42.1562C140.766 42.4375 140.789 42.737 140.836 43.0547C140.888 43.3724 140.964 43.6458 141.062 43.875V44H139.555C139.482 43.8333 139.424 43.612 139.383 43.3359C139.341 43.0547 139.32 42.7943 139.32 42.5547ZM139.57 38.875L139.586 39.8906H138.125C137.714 39.8906 137.346 39.9245 137.023 39.9922C136.701 40.0547 136.43 40.151 136.211 40.2812C135.992 40.4115 135.826 40.5755 135.711 40.7734C135.596 40.9661 135.539 41.1927 135.539 41.4531C135.539 41.7188 135.599 41.9609 135.719 42.1797C135.839 42.3984 136.018 42.5729 136.258 42.7031C136.503 42.8281 136.802 42.8906 137.156 42.8906C137.599 42.8906 137.99 42.7969 138.328 42.6094C138.667 42.4219 138.935 42.1927 139.133 41.9219C139.336 41.651 139.445 41.388 139.461 41.1328L140.078 41.8281C140.042 42.0469 139.943 42.2891 139.781 42.5547C139.62 42.8203 139.404 43.0755 139.133 43.3203C138.867 43.5599 138.549 43.7604 138.18 43.9219C137.815 44.0781 137.404 44.1562 136.945 44.1562C136.372 44.1562 135.87 44.0443 135.438 43.8203C135.01 43.5964 134.677 43.2969 134.438 42.9219C134.203 42.5417 134.086 42.1172 134.086 41.6484C134.086 41.1953 134.174 40.7969 134.352 40.4531C134.529 40.1042 134.784 39.8151 135.117 39.5859C135.451 39.3516 135.852 39.1745 136.32 39.0547C136.789 38.9349 137.312 38.875 137.891 38.875H139.57ZM146.359 35.5469V44H144.906V35.5469H146.359ZM149.195 35.5469V36.7188H142.125V35.5469H149.195ZM149.906 39.8672V39.6875C149.906 39.0781 149.995 38.513 150.172 37.9922C150.349 37.4661 150.604 37.0104 150.938 36.625C151.271 36.2344 151.674 35.9323 152.148 35.7188C152.622 35.5 153.154 35.3906 153.742 35.3906C154.336 35.3906 154.87 35.5 155.344 35.7188C155.823 35.9323 156.229 36.2344 156.562 36.625C156.901 37.0104 157.159 37.4661 157.336 37.9922C157.513 38.513 157.602 39.0781 157.602 39.6875V39.8672C157.602 40.4766 157.513 41.0417 157.336 41.5625C157.159 42.0833 156.901 42.5391 156.562 42.9297C156.229 43.3151 155.826 43.6172 155.352 43.8359C154.883 44.0495 154.352 44.1562 153.758 44.1562C153.164 44.1562 152.63 44.0495 152.156 43.8359C151.682 43.6172 151.276 43.3151 150.938 42.9297C150.604 42.5391 150.349 42.0833 150.172 41.5625C149.995 41.0417 149.906 40.4766 149.906 39.8672ZM151.352 39.6875V39.8672C151.352 40.2891 151.401 40.6875 151.5 41.0625C151.599 41.4323 151.747 41.7604 151.945 42.0469C152.148 42.3333 152.401 42.5599 152.703 42.7266C153.005 42.888 153.357 42.9688 153.758 42.9688C154.154 42.9688 154.5 42.888 154.797 42.7266C155.099 42.5599 155.349 42.3333 155.547 42.0469C155.745 41.7604 155.893 41.4323 155.992 41.0625C156.096 40.6875 156.148 40.2891 156.148 39.8672V39.6875C156.148 39.2708 156.096 38.8776 155.992 38.5078C155.893 38.1328 155.742 37.8021 155.539 37.5156C155.341 37.224 155.091 36.9948 154.789 36.8281C154.492 36.6615 154.143 36.5781 153.742 36.5781C153.346 36.5781 152.997 36.6615 152.695 36.8281C152.398 36.9948 152.148 37.224 151.945 37.5156C151.747 37.8021 151.599 38.1328 151.5 38.5078C151.401 38.8776 151.352 39.2708 151.352 39.6875ZM160.859 37.1719V47.25H159.406V35.5469H160.734L160.859 37.1719ZM166.555 39.7031V39.8672C166.555 40.4818 166.482 41.0521 166.336 41.5781C166.19 42.099 165.977 42.5521 165.695 42.9375C165.419 43.3229 165.078 43.6224 164.672 43.8359C164.266 44.0495 163.799 44.1562 163.273 44.1562C162.737 44.1562 162.263 44.0677 161.852 43.8906C161.44 43.7135 161.091 43.4557 160.805 43.1172C160.518 42.7786 160.289 42.3724 160.117 41.8984C159.951 41.4245 159.836 40.8906 159.773 40.2969V39.4219C159.836 38.7969 159.953 38.237 160.125 37.7422C160.297 37.2474 160.523 36.8255 160.805 36.4766C161.091 36.1224 161.438 35.8542 161.844 35.6719C162.25 35.4844 162.719 35.3906 163.25 35.3906C163.781 35.3906 164.253 35.4948 164.664 35.7031C165.076 35.9062 165.422 36.1979 165.703 36.5781C165.984 36.9583 166.195 37.4141 166.336 37.9453C166.482 38.4714 166.555 39.0573 166.555 39.7031ZM165.102 39.8672V39.7031C165.102 39.2812 165.057 38.8854 164.969 38.5156C164.88 38.1406 164.742 37.8125 164.555 37.5312C164.372 37.2448 164.138 37.0208 163.852 36.8594C163.565 36.6927 163.224 36.6094 162.828 36.6094C162.464 36.6094 162.146 36.6719 161.875 36.7969C161.609 36.9219 161.383 37.0911 161.195 37.3047C161.008 37.513 160.854 37.7526 160.734 38.0234C160.62 38.2891 160.534 38.5651 160.477 38.8516V40.875C160.581 41.2396 160.727 41.5833 160.914 41.9062C161.102 42.224 161.352 42.4818 161.664 42.6797C161.977 42.8724 162.37 42.9688 162.844 42.9688C163.234 42.9688 163.57 42.888 163.852 42.7266C164.138 42.5599 164.372 42.3333 164.555 42.0469C164.742 41.7604 164.88 41.4323 164.969 41.0625C165.057 40.6875 165.102 40.2891 165.102 39.8672Z" fill="#828AA4"/>
<path d="M55.3984 91.625V103H53.8906V91.625H55.3984ZM62.4062 91.625L57.4688 97.8828H54.7969L54.5625 96.6328H56.5703L60.5391 91.625H62.4062ZM60.8906 103L56.6172 97.6875L57.4609 96.3672L62.7344 103H60.8906ZM63.2812 98.8672V98.6875C63.2812 98.0781 63.3698 97.513 63.5469 96.9922C63.724 96.4661 63.9792 96.0104 64.3125 95.625C64.6458 95.2344 65.0495 94.9323 65.5234 94.7188C65.9974 94.5 66.5286 94.3906 67.1172 94.3906C67.7109 94.3906 68.2448 94.5 68.7188 94.7188C69.1979 94.9323 69.6042 95.2344 69.9375 95.625C70.276 96.0104 70.5339 96.4661 70.7109 96.9922C70.888 97.513 70.9766 98.0781 70.9766 98.6875V98.8672C70.9766 99.4766 70.888 100.042 70.7109 100.562C70.5339 101.083 70.276 101.539 69.9375 101.93C69.6042 102.315 69.2005 102.617 68.7266 102.836C68.2578 103.049 67.7266 103.156 67.1328 103.156C66.5391 103.156 66.0052 103.049 65.5312 102.836C65.0573 102.617 64.651 102.315 64.3125 101.93C63.9792 101.539 63.724 101.083 63.5469 100.562C63.3698 100.042 63.2812 99.4766 63.2812 98.8672ZM64.7266 98.6875V98.8672C64.7266 99.2891 64.776 99.6875 64.875 100.062C64.974 100.432 65.1224 100.76 65.3203 101.047C65.5234 101.333 65.776 101.56 66.0781 101.727C66.3802 101.888 66.7318 101.969 67.1328 101.969C67.5286 101.969 67.875 101.888 68.1719 101.727C68.474 101.56 68.724 101.333 68.9219 101.047C69.1198 100.76 69.2682 100.432 69.3672 100.062C69.4714 99.6875 69.5234 99.2891 69.5234 98.8672V98.6875C69.5234 98.2708 69.4714 97.8776 69.3672 97.5078C69.2682 97.1328 69.1172 96.8021 68.9141 96.5156C68.7161 96.224 68.4661 95.9948 68.1641 95.8281C67.8672 95.6615 67.5182 95.5781 67.1172 95.5781C66.7214 95.5781 66.3724 95.6615 66.0703 95.8281C65.7734 95.9948 65.5234 96.224 65.3203 96.5156C65.1224 96.8021 64.974 97.1328 64.875 97.5078C64.776 97.8776 64.7266 98.2708 64.7266 98.6875ZM77.6484 101.078L80.5234 94.5469H81.9141L78.1484 103H77.1484L73.3984 94.5469H74.7891L77.6484 101.078ZM74.3672 94.5469V103H72.9219V94.5469H74.3672ZM80.8828 103V94.5469H82.3359V103H80.8828ZM90.2969 94.5469V95.7422H86.0234V94.5469H90.2969ZM86.2344 94.5469V103H84.7891V94.5469H86.2344ZM91.5781 94.5469V103H90.125V94.5469H91.5781ZM95.3438 96.1719V106.25H93.8906V94.5469H95.2188L95.3438 96.1719ZM101.039 98.7031V98.8672C101.039 99.4818 100.966 100.052 100.82 100.578C100.674 101.099 100.461 101.552 100.18 101.938C99.9036 102.323 99.5625 102.622 99.1562 102.836C98.75 103.049 98.2839 103.156 97.7578 103.156C97.2214 103.156 96.7474 103.068 96.3359 102.891C95.9245 102.714 95.5755 102.456 95.2891 102.117C95.0026 101.779 94.7734 101.372 94.6016 100.898C94.4349 100.424 94.3203 99.8906 94.2578 99.2969V98.4219C94.3203 97.7969 94.4375 97.237 94.6094 96.7422C94.7812 96.2474 95.0078 95.8255 95.2891 95.4766C95.5755 95.1224 95.9219 94.8542 96.3281 94.6719C96.7344 94.4844 97.2031 94.3906 97.7344 94.3906C98.2656 94.3906 98.737 94.4948 99.1484 94.7031C99.5599 94.9062 99.9062 95.1979 100.188 95.5781C100.469 95.9583 100.68 96.4141 100.82 96.9453C100.966 97.4714 101.039 98.0573 101.039 98.7031ZM99.5859 98.8672V98.7031C99.5859 98.2812 99.5417 97.8854 99.4531 97.5156C99.3646 97.1406 99.2266 96.8125 99.0391 96.5312C98.8568 96.2448 98.6224 96.0208 98.3359 95.8594C98.0495 95.6927 97.7083 95.6094 97.3125 95.6094C96.9479 95.6094 96.6302 95.6719 96.3594 95.7969C96.0938 95.9219 95.8672 96.0911 95.6797 96.3047C95.4922 96.513 95.3385 96.7526 95.2188 97.0234C95.1042 97.2891 95.0182 97.5651 94.9609 97.8516V99.875C95.0651 100.24 95.2109 100.583 95.3984 100.906C95.5859 101.224 95.8359 101.482 96.1484 101.68C96.4609 101.872 96.8542 101.969 97.3281 101.969C97.7188 101.969 98.0547 101.888 98.3359 101.727C98.6224 101.56 98.8568 101.333 99.0391 101.047C99.2266 100.76 99.3646 100.432 99.4531 100.062C99.5417 99.6875 99.5859 99.2891 99.5859 98.8672ZM106.391 103.156C105.802 103.156 105.268 103.057 104.789 102.859C104.315 102.656 103.906 102.372 103.562 102.008C103.224 101.643 102.964 101.211 102.781 100.711C102.599 100.211 102.508 99.6641 102.508 99.0703V98.7422C102.508 98.0547 102.609 97.4427 102.812 96.9062C103.016 96.3646 103.292 95.9062 103.641 95.5312C103.99 95.1562 104.385 94.8724 104.828 94.6797C105.271 94.487 105.729 94.3906 106.203 94.3906C106.807 94.3906 107.328 94.4948 107.766 94.7031C108.208 94.9115 108.57 95.2031 108.852 95.5781C109.133 95.9479 109.341 96.3854 109.477 96.8906C109.612 97.3906 109.68 97.9375 109.68 98.5312V99.1797H103.367V98H108.234V97.8906C108.214 97.5156 108.135 97.151 108 96.7969C107.87 96.4427 107.661 96.151 107.375 95.9219C107.089 95.6927 106.698 95.5781 106.203 95.5781C105.875 95.5781 105.573 95.6484 105.297 95.7891C105.021 95.9245 104.784 96.1276 104.586 96.3984C104.388 96.6693 104.234 97 104.125 97.3906C104.016 97.7812 103.961 98.2318 103.961 98.7422V99.0703C103.961 99.4714 104.016 99.849 104.125 100.203C104.24 100.552 104.404 100.859 104.617 101.125C104.836 101.391 105.099 101.599 105.406 101.75C105.719 101.901 106.073 101.977 106.469 101.977C106.979 101.977 107.411 101.872 107.766 101.664C108.12 101.456 108.43 101.177 108.695 100.828L109.57 101.523C109.388 101.799 109.156 102.062 108.875 102.312C108.594 102.562 108.247 102.766 107.836 102.922C107.43 103.078 106.948 103.156 106.391 103.156ZM114.75 101.969C115.094 101.969 115.411 101.898 115.703 101.758C115.995 101.617 116.234 101.424 116.422 101.18C116.609 100.93 116.716 100.646 116.742 100.328H118.117C118.091 100.828 117.922 101.294 117.609 101.727C117.302 102.154 116.898 102.5 116.398 102.766C115.898 103.026 115.349 103.156 114.75 103.156C114.115 103.156 113.56 103.044 113.086 102.82C112.617 102.596 112.227 102.289 111.914 101.898C111.607 101.508 111.375 101.06 111.219 100.555C111.068 100.044 110.992 99.5052 110.992 98.9375V98.6094C110.992 98.0417 111.068 97.5052 111.219 97C111.375 96.4896 111.607 96.0391 111.914 95.6484C112.227 95.2578 112.617 94.9505 113.086 94.7266C113.56 94.5026 114.115 94.3906 114.75 94.3906C115.411 94.3906 115.99 94.526 116.484 94.7969C116.979 95.0625 117.367 95.4271 117.648 95.8906C117.935 96.349 118.091 96.8698 118.117 97.4531H116.742C116.716 97.1042 116.617 96.7891 116.445 96.5078C116.279 96.2266 116.049 96.0026 115.758 95.8359C115.471 95.6641 115.135 95.5781 114.75 95.5781C114.307 95.5781 113.935 95.6667 113.633 95.8438C113.336 96.0156 113.099 96.25 112.922 96.5469C112.75 96.8385 112.625 97.1641 112.547 97.5234C112.474 97.8776 112.438 98.2396 112.438 98.6094V98.9375C112.438 99.3073 112.474 99.6719 112.547 100.031C112.62 100.391 112.742 100.716 112.914 101.008C113.091 101.299 113.328 101.534 113.625 101.711C113.927 101.883 114.302 101.969 114.75 101.969ZM123.125 101.969C123.469 101.969 123.786 101.898 124.078 101.758C124.37 101.617 124.609 101.424 124.797 101.18C124.984 100.93 125.091 100.646 125.117 100.328H126.492C126.466 100.828 126.297 101.294 125.984 101.727C125.677 102.154 125.273 102.5 124.773 102.766C124.273 103.026 123.724 103.156 123.125 103.156C122.49 103.156 121.935 103.044 121.461 102.82C120.992 102.596 120.602 102.289 120.289 101.898C119.982 101.508 119.75 101.06 119.594 100.555C119.443 100.044 119.367 99.5052 119.367 98.9375V98.6094C119.367 98.0417 119.443 97.5052 119.594 97C119.75 96.4896 119.982 96.0391 120.289 95.6484C120.602 95.2578 120.992 94.9505 121.461 94.7266C121.935 94.5026 122.49 94.3906 123.125 94.3906C123.786 94.3906 124.365 94.526 124.859 94.7969C125.354 95.0625 125.742 95.4271 126.023 95.8906C126.31 96.349 126.466 96.8698 126.492 97.4531H125.117C125.091 97.1042 124.992 96.7891 124.82 96.5078C124.654 96.2266 124.424 96.0026 124.133 95.8359C123.846 95.6641 123.51 95.5781 123.125 95.5781C122.682 95.5781 122.31 95.6667 122.008 95.8438C121.711 96.0156 121.474 96.25 121.297 96.5469C121.125 96.8385 121 97.1641 120.922 97.5234C120.849 97.8776 120.812 98.2396 120.812 98.6094V98.9375C120.812 99.3073 120.849 99.6719 120.922 100.031C120.995 100.391 121.117 100.716 121.289 101.008C121.466 101.299 121.703 101.534 122 101.711C122.302 101.883 122.677 101.969 123.125 101.969ZM127.734 98.8672V98.6875C127.734 98.0781 127.823 97.513 128 96.9922C128.177 96.4661 128.432 96.0104 128.766 95.625C129.099 95.2344 129.503 94.9323 129.977 94.7188C130.451 94.5 130.982 94.3906 131.57 94.3906C132.164 94.3906 132.698 94.5 133.172 94.7188C133.651 94.9323 134.057 95.2344 134.391 95.625C134.729 96.0104 134.987 96.4661 135.164 96.9922C135.341 97.513 135.43 98.0781 135.43 98.6875V98.8672C135.43 99.4766 135.341 100.042 135.164 100.562C134.987 101.083 134.729 101.539 134.391 101.93C134.057 102.315 133.654 102.617 133.18 102.836C132.711 103.049 132.18 103.156 131.586 103.156C130.992 103.156 130.458 103.049 129.984 102.836C129.51 102.617 129.104 102.315 128.766 101.93C128.432 101.539 128.177 101.083 128 100.562C127.823 100.042 127.734 99.4766 127.734 98.8672ZM129.18 98.6875V98.8672C129.18 99.2891 129.229 99.6875 129.328 100.062C129.427 100.432 129.576 100.76 129.773 101.047C129.977 101.333 130.229 101.56 130.531 101.727C130.833 101.888 131.185 101.969 131.586 101.969C131.982 101.969 132.328 101.888 132.625 101.727C132.927 101.56 133.177 101.333 133.375 101.047C133.573 100.76 133.721 100.432 133.82 100.062C133.924 99.6875 133.977 99.2891 133.977 98.8672V98.6875C133.977 98.2708 133.924 97.8776 133.82 97.5078C133.721 97.1328 133.57 96.8021 133.367 96.5156C133.169 96.224 132.919 95.9948 132.617 95.8281C132.32 95.6615 131.971 95.5781 131.57 95.5781C131.174 95.5781 130.826 95.6615 130.523 95.8281C130.227 95.9948 129.977 96.224 129.773 96.5156C129.576 96.8021 129.427 97.1328 129.328 97.5078C129.229 97.8776 129.18 98.2708 129.18 98.6875ZM138.688 96.1719V106.25H137.234V94.5469H138.562L138.688 96.1719ZM144.383 98.7031V98.8672C144.383 99.4818 144.31 100.052 144.164 100.578C144.018 101.099 143.805 101.552 143.523 101.938C143.247 102.323 142.906 102.622 142.5 102.836C142.094 103.049 141.628 103.156 141.102 103.156C140.565 103.156 140.091 103.068 139.68 102.891C139.268 102.714 138.919 102.456 138.633 102.117C138.346 101.779 138.117 101.372 137.945 100.898C137.779 100.424 137.664 99.8906 137.602 99.2969V98.4219C137.664 97.7969 137.781 97.237 137.953 96.7422C138.125 96.2474 138.352 95.8255 138.633 95.4766C138.919 95.1224 139.266 94.8542 139.672 94.6719C140.078 94.4844 140.547 94.3906 141.078 94.3906C141.609 94.3906 142.081 94.4948 142.492 94.7031C142.904 94.9062 143.25 95.1979 143.531 95.5781C143.812 95.9583 144.023 96.4141 144.164 96.9453C144.31 97.4714 144.383 98.0573 144.383 98.7031ZM142.93 98.8672V98.7031C142.93 98.2812 142.885 97.8854 142.797 97.5156C142.708 97.1406 142.57 96.8125 142.383 96.5312C142.201 96.2448 141.966 96.0208 141.68 95.8594C141.393 95.6927 141.052 95.6094 140.656 95.6094C140.292 95.6094 139.974 95.6719 139.703 95.7969C139.438 95.9219 139.211 96.0911 139.023 96.3047C138.836 96.513 138.682 96.7526 138.562 97.0234C138.448 97.2891 138.362 97.5651 138.305 97.8516V99.875C138.409 100.24 138.555 100.583 138.742 100.906C138.93 101.224 139.18 101.482 139.492 101.68C139.805 101.872 140.198 101.969 140.672 101.969C141.062 101.969 141.398 101.888 141.68 101.727C141.966 101.56 142.201 101.333 142.383 101.047C142.57 100.76 142.708 100.432 142.797 100.062C142.885 99.6875 142.93 99.2891 142.93 98.8672Z" fill="#828AA4"/>
<path d="M200.398 57.625V69H198.891V57.625H200.398ZM207.406 57.625L202.469 63.8828H199.797L199.562 62.6328H201.57L205.539 57.625H207.406ZM205.891 69L201.617 63.6875L202.461 62.3672L207.734 69H205.891ZM208.281 64.8672V64.6875C208.281 64.0781 208.37 63.513 208.547 62.9922C208.724 62.4661 208.979 62.0104 209.312 61.625C209.646 61.2344 210.049 60.9323 210.523 60.7188C210.997 60.5 211.529 60.3906 212.117 60.3906C212.711 60.3906 213.245 60.5 213.719 60.7188C214.198 60.9323 214.604 61.2344 214.938 61.625C215.276 62.0104 215.534 62.4661 215.711 62.9922C215.888 63.513 215.977 64.0781 215.977 64.6875V64.8672C215.977 65.4766 215.888 66.0417 215.711 66.5625C215.534 67.0833 215.276 67.5391 214.938 67.9297C214.604 68.3151 214.201 68.6172 213.727 68.8359C213.258 69.0495 212.727 69.1562 212.133 69.1562C211.539 69.1562 211.005 69.0495 210.531 68.8359C210.057 68.6172 209.651 68.3151 209.312 67.9297C208.979 67.5391 208.724 67.0833 208.547 66.5625C208.37 66.0417 208.281 65.4766 208.281 64.8672ZM209.727 64.6875V64.8672C209.727 65.2891 209.776 65.6875 209.875 66.0625C209.974 66.4323 210.122 66.7604 210.32 67.0469C210.523 67.3333 210.776 67.5599 211.078 67.7266C211.38 67.888 211.732 67.9688 212.133 67.9688C212.529 67.9688 212.875 67.888 213.172 67.7266C213.474 67.5599 213.724 67.3333 213.922 67.0469C214.12 66.7604 214.268 66.4323 214.367 66.0625C214.471 65.6875 214.523 65.2891 214.523 64.8672V64.6875C214.523 64.2708 214.471 63.8776 214.367 63.5078C214.268 63.1328 214.117 62.8021 213.914 62.5156C213.716 62.224 213.466 61.9948 213.164 61.8281C212.867 61.6615 212.518 61.5781 212.117 61.5781C211.721 61.5781 211.372 61.6615 211.07 61.8281C210.773 61.9948 210.523 62.224 210.32 62.5156C210.122 62.8021 209.974 63.1328 209.875 63.5078C209.776 63.8776 209.727 64.2708 209.727 64.6875ZM218.75 60.5469H220.195L220.07 63.7109C220.039 64.513 219.948 65.2057 219.797 65.7891C219.646 66.3724 219.453 66.8698 219.219 67.2812C218.984 67.6875 218.721 68.0286 218.43 68.3047C218.143 68.5807 217.846 68.8125 217.539 69H216.82L216.859 67.8203L217.156 67.8125C217.328 67.6094 217.495 67.401 217.656 67.1875C217.818 66.9688 217.966 66.7109 218.102 66.4141C218.237 66.112 218.349 65.7448 218.438 65.3125C218.531 64.875 218.591 64.3411 218.617 63.7109L218.75 60.5469ZM219.109 60.5469H224.195V69H222.75V61.8828H219.109V60.5469ZM216.492 67.8125H225.281V71.4922H223.836V69H217.938V71.4922H216.484L216.492 67.8125ZM230.391 69.1562C229.802 69.1562 229.268 69.0573 228.789 68.8594C228.315 68.6562 227.906 68.3724 227.562 68.0078C227.224 67.6432 226.964 67.2109 226.781 66.7109C226.599 66.2109 226.508 65.6641 226.508 65.0703V64.7422C226.508 64.0547 226.609 63.4427 226.812 62.9062C227.016 62.3646 227.292 61.9062 227.641 61.5312C227.99 61.1562 228.385 60.8724 228.828 60.6797C229.271 60.487 229.729 60.3906 230.203 60.3906C230.807 60.3906 231.328 60.4948 231.766 60.7031C232.208 60.9115 232.57 61.2031 232.852 61.5781C233.133 61.9479 233.341 62.3854 233.477 62.8906C233.612 63.3906 233.68 63.9375 233.68 64.5312V65.1797H227.367V64H232.234V63.8906C232.214 63.5156 232.135 63.151 232 62.7969C231.87 62.4427 231.661 62.151 231.375 61.9219C231.089 61.6927 230.698 61.5781 230.203 61.5781C229.875 61.5781 229.573 61.6484 229.297 61.7891C229.021 61.9245 228.784 62.1276 228.586 62.3984C228.388 62.6693 228.234 63 228.125 63.3906C228.016 63.7812 227.961 64.2318 227.961 64.7422V65.0703C227.961 65.4714 228.016 65.849 228.125 66.2031C228.24 66.5521 228.404 66.8594 228.617 67.125C228.836 67.3906 229.099 67.599 229.406 67.75C229.719 67.901 230.073 67.9766 230.469 67.9766C230.979 67.9766 231.411 67.8724 231.766 67.6641C232.12 67.4557 232.43 67.1771 232.695 66.8281L233.57 67.5234C233.388 67.7995 233.156 68.0625 232.875 68.3125C232.594 68.5625 232.247 68.7656 231.836 68.9219C231.43 69.0781 230.948 69.1562 230.391 69.1562ZM236.812 62.1719V72.25H235.359V60.5469H236.688L236.812 62.1719ZM242.508 64.7031V64.8672C242.508 65.4818 242.435 66.0521 242.289 66.5781C242.143 67.099 241.93 67.5521 241.648 67.9375C241.372 68.3229 241.031 68.6224 240.625 68.8359C240.219 69.0495 239.753 69.1562 239.227 69.1562C238.69 69.1562 238.216 69.0677 237.805 68.8906C237.393 68.7135 237.044 68.4557 236.758 68.1172C236.471 67.7786 236.242 67.3724 236.07 66.8984C235.904 66.4245 235.789 65.8906 235.727 65.2969V64.4219C235.789 63.7969 235.906 63.237 236.078 62.7422C236.25 62.2474 236.477 61.8255 236.758 61.4766C237.044 61.1224 237.391 60.8542 237.797 60.6719C238.203 60.4844 238.672 60.3906 239.203 60.3906C239.734 60.3906 240.206 60.4948 240.617 60.7031C241.029 60.9062 241.375 61.1979 241.656 61.5781C241.938 61.9583 242.148 62.4141 242.289 62.9453C242.435 63.4714 242.508 64.0573 242.508 64.7031ZM241.055 64.8672V64.7031C241.055 64.2812 241.01 63.8854 240.922 63.5156C240.833 63.1406 240.695 62.8125 240.508 62.5312C240.326 62.2448 240.091 62.0208 239.805 61.8594C239.518 61.6927 239.177 61.6094 238.781 61.6094C238.417 61.6094 238.099 61.6719 237.828 61.7969C237.562 61.9219 237.336 62.0911 237.148 62.3047C236.961 62.513 236.807 62.7526 236.688 63.0234C236.573 63.2891 236.487 63.5651 236.43 63.8516V65.875C236.534 66.2396 236.68 66.5833 236.867 66.9062C237.055 67.224 237.305 67.4818 237.617 67.6797C237.93 67.8724 238.323 67.9688 238.797 67.9688C239.188 67.9688 239.523 67.888 239.805 67.7266C240.091 67.5599 240.326 67.3333 240.508 67.0469C240.695 66.7604 240.833 66.4323 240.922 66.0625C241.01 65.6875 241.055 65.2891 241.055 64.8672Z" fill="#828AA4"/>
<path d="M108.5 61.5H44V22H173V61.5H108.5ZM108.5 61.5V80M108.5 80L104.5 74M108.5 80L112.5 74M108.5 80H44V111H173V95.5M108.5 80H173V95.5M173 95.5H221.5V80L218 86.5L221.5 78M221.5 78L225 86.5M221.5 78H183V49.5H259.5V63.75M221.5 78H259.5V63.75M259.5 63.75H274M274 63.75L269 59.5M274 63.75L269 68.5" stroke="#1E398F"/>
<path d="M780.375 82.6797H777.492L777.477 81.4688H780.094C780.526 81.4688 780.904 81.3958 781.227 81.25C781.549 81.1042 781.799 80.8958 781.977 80.625C782.159 80.349 782.25 80.0208 782.25 79.6406C782.25 79.224 782.169 78.8854 782.008 78.625C781.852 78.3594 781.609 78.1667 781.281 78.0469C780.958 77.9219 780.547 77.8594 780.047 77.8594H777.828V88H776.32V76.625H780.047C780.63 76.625 781.151 76.6849 781.609 76.8047C782.068 76.9193 782.456 77.1016 782.773 77.3516C783.096 77.5964 783.341 77.9089 783.508 78.2891C783.674 78.6693 783.758 79.125 783.758 79.6562C783.758 80.125 783.638 80.5495 783.398 80.9297C783.159 81.3047 782.826 81.612 782.398 81.8516C781.977 82.0911 781.482 82.2448 780.914 82.3125L780.375 82.6797ZM780.305 88H776.898L777.75 86.7734H780.305C780.784 86.7734 781.19 86.6901 781.523 86.5234C781.862 86.3568 782.12 86.1224 782.297 85.8203C782.474 85.513 782.562 85.151 782.562 84.7344C782.562 84.3125 782.487 83.9479 782.336 83.6406C782.185 83.3333 781.948 83.0964 781.625 82.9297C781.302 82.763 780.885 82.6797 780.375 82.6797H778.227L778.242 81.4688H781.18L781.5 81.9062C782.047 81.9531 782.51 82.1094 782.891 82.375C783.271 82.6354 783.56 82.9688 783.758 83.375C783.961 83.7812 784.062 84.2292 784.062 84.7188C784.062 85.4271 783.906 86.026 783.594 86.5156C783.286 87 782.852 87.3698 782.289 87.625C781.727 87.875 781.065 88 780.305 88ZM787.258 82.4531H789.797C790.479 82.4531 791.055 82.5729 791.523 82.8125C791.992 83.0469 792.346 83.3724 792.586 83.7891C792.831 84.2005 792.953 84.6693 792.953 85.1953C792.953 85.5859 792.885 85.9531 792.75 86.2969C792.615 86.6354 792.411 86.9323 792.141 87.1875C791.875 87.4427 791.544 87.6432 791.148 87.7891C790.758 87.9297 790.307 88 789.797 88H786.203V79.5469H787.648V86.8125H789.797C790.214 86.8125 790.547 86.737 790.797 86.5859C791.047 86.4349 791.227 86.2396 791.336 86C791.445 85.7604 791.5 85.5104 791.5 85.25C791.5 84.9948 791.445 84.7448 791.336 84.5C791.227 84.2552 791.047 84.0521 790.797 83.8906C790.547 83.724 790.214 83.6406 789.797 83.6406H787.258V82.4531ZM795.961 79.5469V88H794.516V79.5469H795.961ZM799.469 79.5469L801.32 82.625L803.195 79.5469H804.891L802.125 83.7188L804.977 88H803.305L801.352 84.8281L799.398 88H797.719L800.562 83.7188L797.805 79.5469H799.469ZM805.891 83.8672V83.6875C805.891 83.0781 805.979 82.513 806.156 81.9922C806.333 81.4661 806.589 81.0104 806.922 80.625C807.255 80.2344 807.659 79.9323 808.133 79.7188C808.607 79.5 809.138 79.3906 809.727 79.3906C810.32 79.3906 810.854 79.5 811.328 79.7188C811.807 79.9323 812.214 80.2344 812.547 80.625C812.885 81.0104 813.143 81.4661 813.32 81.9922C813.497 82.513 813.586 83.0781 813.586 83.6875V83.8672C813.586 84.4766 813.497 85.0417 813.32 85.5625C813.143 86.0833 812.885 86.5391 812.547 86.9297C812.214 87.3151 811.81 87.6172 811.336 87.8359C810.867 88.0495 810.336 88.1562 809.742 88.1562C809.148 88.1562 808.615 88.0495 808.141 87.8359C807.667 87.6172 807.26 87.3151 806.922 86.9297C806.589 86.5391 806.333 86.0833 806.156 85.5625C805.979 85.0417 805.891 84.4766 805.891 83.8672ZM807.336 83.6875V83.8672C807.336 84.2891 807.385 84.6875 807.484 85.0625C807.583 85.4323 807.732 85.7604 807.93 86.0469C808.133 86.3333 808.385 86.5599 808.688 86.7266C808.99 86.888 809.341 86.9688 809.742 86.9688C810.138 86.9688 810.484 86.888 810.781 86.7266C811.083 86.5599 811.333 86.3333 811.531 86.0469C811.729 85.7604 811.878 85.4323 811.977 85.0625C812.081 84.6875 812.133 84.2891 812.133 83.8672V83.6875C812.133 83.2708 812.081 82.8776 811.977 82.5078C811.878 82.1328 811.727 81.8021 811.523 81.5156C811.326 81.224 811.076 80.9948 810.773 80.8281C810.477 80.6615 810.128 80.5781 809.727 80.5781C809.331 80.5781 808.982 80.6615 808.68 80.8281C808.383 80.9948 808.133 81.224 807.93 81.5156C807.732 81.8021 807.583 82.1328 807.484 82.5078C807.385 82.8776 807.336 83.2708 807.336 83.6875ZM816.359 79.5469H817.805L817.68 82.7109C817.648 83.513 817.557 84.2057 817.406 84.7891C817.255 85.3724 817.062 85.8698 816.828 86.2812C816.594 86.6875 816.331 87.0286 816.039 87.3047C815.753 87.5807 815.456 87.8125 815.148 88H814.43L814.469 86.8203L814.766 86.8125C814.938 86.6094 815.104 86.401 815.266 86.1875C815.427 85.9688 815.576 85.7109 815.711 85.4141C815.846 85.112 815.958 84.7448 816.047 84.3125C816.141 83.875 816.201 83.3411 816.227 82.7109L816.359 79.5469ZM816.719 79.5469H821.805V88H820.359V80.8828H816.719V79.5469ZM814.102 86.8125H822.891V90.4922H821.445V88H815.547V90.4922H814.094L814.102 86.8125Z" fill="#1E398F"/>
<path d="M321.246 44.7812H323.072L327.73 56.373L332.379 44.7812H334.215L328.434 59H327.008L321.246 44.7812ZM320.65 44.7812H322.262L322.525 53.4531V59H320.65V44.7812ZM333.189 44.7812H334.801V59H332.926V53.4531L333.189 44.7812ZM339.791 56.1387L344.664 48.4336H346.48V59H344.664V51.2949L339.791 59H337.994V48.4336H339.791V56.1387ZM351.344 48.4336V59H349.537V48.4336H351.344ZM358.277 48.4336L353.268 54.4883H350.738L350.465 52.9062H352.535L356.08 48.4336H358.277ZM356.334 59L352.447 54.2148L353.609 52.9062L358.629 59H356.334ZM362.008 50.4648V63.0625H360.191V48.4336H361.852L362.008 50.4648ZM369.127 53.6289V53.834C369.127 54.6022 369.036 55.3151 368.854 55.9727C368.671 56.6237 368.404 57.1901 368.053 57.6719C367.708 58.1536 367.281 58.528 366.773 58.7949C366.266 59.0618 365.683 59.1953 365.025 59.1953C364.355 59.1953 363.762 59.0846 363.248 58.8633C362.734 58.6419 362.298 58.3197 361.939 57.8965C361.581 57.4733 361.295 56.9655 361.08 56.373C360.872 55.7806 360.729 55.1133 360.65 54.3711V53.2773C360.729 52.4961 360.875 51.7962 361.09 51.1777C361.305 50.5592 361.588 50.0319 361.939 49.5957C362.298 49.153 362.73 48.8177 363.238 48.5898C363.746 48.3555 364.332 48.2383 364.996 48.2383C365.66 48.2383 366.249 48.3685 366.764 48.6289C367.278 48.8828 367.711 49.2474 368.062 49.7227C368.414 50.1979 368.678 50.7676 368.854 51.4316C369.036 52.0892 369.127 52.8216 369.127 53.6289ZM367.311 53.834V53.6289C367.311 53.1016 367.255 52.6068 367.145 52.1445C367.034 51.6758 366.861 51.2656 366.627 50.9141C366.399 50.556 366.106 50.276 365.748 50.0742C365.39 49.8659 364.964 49.7617 364.469 49.7617C364.013 49.7617 363.616 49.8398 363.277 49.9961C362.945 50.1523 362.662 50.3639 362.428 50.6309C362.193 50.8913 362.001 51.1908 361.852 51.5293C361.708 51.8613 361.601 52.2064 361.529 52.5645V55.0938C361.66 55.5495 361.842 55.9792 362.076 56.3828C362.311 56.7799 362.623 57.1022 363.014 57.3496C363.404 57.5905 363.896 57.7109 364.488 57.7109C364.977 57.7109 365.396 57.61 365.748 57.4082C366.106 57.1999 366.399 56.9167 366.627 56.5586C366.861 56.2005 367.034 55.7904 367.145 55.3281C367.255 54.8594 367.311 54.3613 367.311 53.834ZM370.953 53.834V53.6094C370.953 52.8477 371.064 52.1413 371.285 51.4902C371.507 50.8327 371.826 50.263 372.242 49.7812C372.659 49.293 373.163 48.9154 373.756 48.6484C374.348 48.375 375.012 48.2383 375.748 48.2383C376.49 48.2383 377.158 48.375 377.75 48.6484C378.349 48.9154 378.857 49.293 379.273 49.7812C379.697 50.263 380.019 50.8327 380.24 51.4902C380.462 52.1413 380.572 52.8477 380.572 53.6094V53.834C380.572 54.5957 380.462 55.3021 380.24 55.9531C380.019 56.6042 379.697 57.1738 379.273 57.6621C378.857 58.1439 378.352 58.5215 377.76 58.7949C377.174 59.0618 376.51 59.1953 375.768 59.1953C375.025 59.1953 374.358 59.0618 373.766 58.7949C373.173 58.5215 372.665 58.1439 372.242 57.6621C371.826 57.1738 371.507 56.6042 371.285 55.9531C371.064 55.3021 370.953 54.5957 370.953 53.834ZM372.76 53.6094V53.834C372.76 54.3613 372.822 54.8594 372.945 55.3281C373.069 55.7904 373.255 56.2005 373.502 56.5586C373.756 56.9167 374.072 57.1999 374.449 57.4082C374.827 57.61 375.266 57.7109 375.768 57.7109C376.262 57.7109 376.695 57.61 377.066 57.4082C377.444 57.1999 377.757 56.9167 378.004 56.5586C378.251 56.2005 378.437 55.7904 378.561 55.3281C378.691 54.8594 378.756 54.3613 378.756 53.834V53.6094C378.756 53.0885 378.691 52.597 378.561 52.1348C378.437 51.666 378.248 51.2526 377.994 50.8945C377.747 50.5299 377.434 50.2435 377.057 50.0352C376.686 49.8268 376.249 49.7227 375.748 49.7227C375.253 49.7227 374.817 49.8268 374.439 50.0352C374.068 50.2435 373.756 50.5299 373.502 50.8945C373.255 51.2526 373.069 51.666 372.945 52.1348C372.822 52.597 372.76 53.0885 372.76 53.6094ZM386.598 52.2129V53.6973H381.832V52.2129H386.598ZM327.418 71.4336V72.9277H322.076V71.4336H327.418ZM322.34 71.4336V82H320.533V71.4336H322.34ZM329.02 71.4336V82H327.203V71.4336H329.02ZM333.727 73.4648V86.0625H331.91V71.4336H333.57L333.727 73.4648ZM340.846 76.6289V76.834C340.846 77.6022 340.755 78.3151 340.572 78.9727C340.39 79.6237 340.123 80.1901 339.771 80.6719C339.426 81.1536 339 81.528 338.492 81.7949C337.984 82.0618 337.402 82.1953 336.744 82.1953C336.074 82.1953 335.481 82.0846 334.967 81.8633C334.452 81.6419 334.016 81.3197 333.658 80.8965C333.3 80.4733 333.014 79.9655 332.799 79.373C332.59 78.7806 332.447 78.1133 332.369 77.3711V76.2773C332.447 75.4961 332.594 74.7962 332.809 74.1777C333.023 73.5592 333.307 73.0319 333.658 72.5957C334.016 72.153 334.449 71.8177 334.957 71.5898C335.465 71.3555 336.051 71.2383 336.715 71.2383C337.379 71.2383 337.968 71.3685 338.482 71.6289C338.997 71.8828 339.43 72.2474 339.781 72.7227C340.133 73.1979 340.396 73.7676 340.572 74.4316C340.755 75.0892 340.846 75.8216 340.846 76.6289ZM339.029 76.834V76.6289C339.029 76.1016 338.974 75.6068 338.863 75.1445C338.753 74.6758 338.58 74.2656 338.346 73.9141C338.118 73.556 337.825 73.276 337.467 73.0742C337.109 72.8659 336.682 72.7617 336.188 72.7617C335.732 72.7617 335.335 72.8398 334.996 72.9961C334.664 73.1523 334.381 73.3639 334.146 73.6309C333.912 73.8913 333.72 74.1908 333.57 74.5293C333.427 74.8613 333.32 75.2064 333.248 75.5645V78.0938C333.378 78.5495 333.561 78.9792 333.795 79.3828C334.029 79.7799 334.342 80.1022 334.732 80.3496C335.123 80.5905 335.615 80.7109 336.207 80.7109C336.695 80.7109 337.115 80.61 337.467 80.4082C337.825 80.1999 338.118 79.9167 338.346 79.5586C338.58 79.2005 338.753 78.7904 338.863 78.3281C338.974 77.8594 339.029 77.3613 339.029 76.834ZM342.672 76.834V76.6094C342.672 75.8477 342.783 75.1413 343.004 74.4902C343.225 73.8327 343.544 73.263 343.961 72.7812C344.378 72.293 344.882 71.9154 345.475 71.6484C346.067 71.375 346.731 71.2383 347.467 71.2383C348.209 71.2383 348.876 71.375 349.469 71.6484C350.068 71.9154 350.576 72.293 350.992 72.7812C351.415 73.263 351.738 73.8327 351.959 74.4902C352.18 75.1413 352.291 75.8477 352.291 76.6094V76.834C352.291 77.5957 352.18 78.3021 351.959 78.9531C351.738 79.6042 351.415 80.1738 350.992 80.6621C350.576 81.1439 350.071 81.5215 349.479 81.7949C348.893 82.0618 348.229 82.1953 347.486 82.1953C346.744 82.1953 346.077 82.0618 345.484 81.7949C344.892 81.5215 344.384 81.1439 343.961 80.6621C343.544 80.1738 343.225 79.6042 343.004 78.9531C342.783 78.3021 342.672 77.5957 342.672 76.834ZM344.479 76.6094V76.834C344.479 77.3613 344.54 77.8594 344.664 78.3281C344.788 78.7904 344.973 79.2005 345.221 79.5586C345.475 79.9167 345.79 80.1999 346.168 80.4082C346.546 80.61 346.985 80.7109 347.486 80.7109C347.981 80.7109 348.414 80.61 348.785 80.4082C349.163 80.1999 349.475 79.9167 349.723 79.5586C349.97 79.2005 350.156 78.7904 350.279 78.3281C350.41 77.8594 350.475 77.3613 350.475 76.834V76.6094C350.475 76.0885 350.41 75.597 350.279 75.1348C350.156 74.666 349.967 74.2526 349.713 73.8945C349.465 73.5299 349.153 73.2435 348.775 73.0352C348.404 72.8268 347.968 72.7227 347.467 72.7227C346.972 72.7227 346.536 72.8268 346.158 73.0352C345.787 73.2435 345.475 73.5299 345.221 73.8945C344.973 74.2526 344.788 74.666 344.664 75.1348C344.54 75.597 344.479 76.0885 344.479 76.6094ZM354.713 82V71.4336H356.52V80.5156H361.383V71.4336H363.199V82H354.713ZM364.449 80.5156L364.273 85.1348H362.662V82H361.285V80.5156H364.449ZM370.797 82.1953C370.061 82.1953 369.394 82.0716 368.795 81.8242C368.202 81.5703 367.691 81.2155 367.262 80.7598C366.839 80.304 366.513 79.7637 366.285 79.1387C366.057 78.5137 365.943 77.8301 365.943 77.0879V76.6777C365.943 75.8184 366.07 75.0534 366.324 74.3828C366.578 73.7057 366.923 73.1328 367.359 72.6641C367.796 72.1953 368.29 71.8405 368.844 71.5996C369.397 71.3587 369.97 71.2383 370.562 71.2383C371.318 71.2383 371.969 71.3685 372.516 71.6289C373.069 71.8893 373.521 72.2539 373.873 72.7227C374.225 73.1849 374.485 73.7318 374.654 74.3633C374.824 74.9883 374.908 75.6719 374.908 76.4141V77.2246H367.018V75.75H373.102V75.6133C373.076 75.1445 372.978 74.6888 372.809 74.2461C372.646 73.8034 372.385 73.4388 372.027 73.1523C371.669 72.8659 371.181 72.7227 370.562 72.7227C370.152 72.7227 369.775 72.8105 369.43 72.9863C369.085 73.1556 368.788 73.4095 368.541 73.748C368.294 74.0866 368.102 74.5 367.965 74.9883C367.828 75.4766 367.76 76.0397 367.76 76.6777V77.0879C367.76 77.5892 367.828 78.0612 367.965 78.5039C368.108 78.9401 368.313 79.3242 368.58 79.6562C368.854 79.9883 369.182 80.2487 369.566 80.4375C369.957 80.6263 370.4 80.7207 370.895 80.7207C371.533 80.7207 372.073 80.5905 372.516 80.3301C372.958 80.0697 373.346 79.7214 373.678 79.2852L374.771 80.1543C374.544 80.4993 374.254 80.8281 373.902 81.1406C373.551 81.4531 373.118 81.707 372.604 81.9023C372.096 82.0977 371.493 82.1953 370.797 82.1953ZM381.246 80.7109C381.676 80.7109 382.073 80.623 382.438 80.4473C382.802 80.2715 383.102 80.0306 383.336 79.7246C383.57 79.4121 383.704 79.0573 383.736 78.6602H385.455C385.423 79.2852 385.211 79.8678 384.82 80.4082C384.436 80.9421 383.932 81.375 383.307 81.707C382.682 82.0326 381.995 82.1953 381.246 82.1953C380.452 82.1953 379.758 82.0553 379.166 81.7754C378.58 81.4954 378.092 81.1113 377.701 80.623C377.317 80.1348 377.027 79.5749 376.832 78.9434C376.643 78.3053 376.549 77.6315 376.549 76.9219V76.5117C376.549 75.8021 376.643 75.1315 376.832 74.5C377.027 73.862 377.317 73.2988 377.701 72.8105C378.092 72.3223 378.58 71.9382 379.166 71.6582C379.758 71.3783 380.452 71.2383 381.246 71.2383C382.073 71.2383 382.796 71.4076 383.414 71.7461C384.033 72.0781 384.518 72.5339 384.869 73.1133C385.227 73.6862 385.423 74.3372 385.455 75.0664H383.736C383.704 74.6302 383.58 74.2363 383.365 73.8848C383.157 73.5332 382.87 73.2533 382.506 73.0449C382.148 72.8301 381.728 72.7227 381.246 72.7227C380.693 72.7227 380.227 72.8333 379.85 73.0547C379.479 73.2695 379.182 73.5625 378.961 73.9336C378.746 74.2982 378.59 74.7051 378.492 75.1543C378.401 75.597 378.355 76.0495 378.355 76.5117V76.9219C378.355 77.3841 378.401 77.8398 378.492 78.2891C378.583 78.7383 378.736 79.1452 378.951 79.5098C379.173 79.8743 379.469 80.1673 379.84 80.3887C380.217 80.6035 380.686 80.7109 381.246 80.7109ZM391.715 80.7109C392.145 80.7109 392.542 80.623 392.906 80.4473C393.271 80.2715 393.57 80.0306 393.805 79.7246C394.039 79.4121 394.173 79.0573 394.205 78.6602H395.924C395.891 79.2852 395.68 79.8678 395.289 80.4082C394.905 80.9421 394.4 81.375 393.775 81.707C393.15 82.0326 392.464 82.1953 391.715 82.1953C390.921 82.1953 390.227 82.0553 389.635 81.7754C389.049 81.4954 388.561 81.1113 388.17 80.623C387.786 80.1348 387.496 79.5749 387.301 78.9434C387.112 78.3053 387.018 77.6315 387.018 76.9219V76.5117C387.018 75.8021 387.112 75.1315 387.301 74.5C387.496 73.862 387.786 73.2988 388.17 72.8105C388.561 72.3223 389.049 71.9382 389.635 71.6582C390.227 71.3783 390.921 71.2383 391.715 71.2383C392.542 71.2383 393.264 71.4076 393.883 71.7461C394.501 72.0781 394.986 72.5339 395.338 73.1133C395.696 73.6862 395.891 74.3372 395.924 75.0664H394.205C394.173 74.6302 394.049 74.2363 393.834 73.8848C393.626 73.5332 393.339 73.2533 392.975 73.0449C392.617 72.8301 392.197 72.7227 391.715 72.7227C391.161 72.7227 390.696 72.8333 390.318 73.0547C389.947 73.2695 389.651 73.5625 389.43 73.9336C389.215 74.2982 389.059 74.7051 388.961 75.1543C388.87 75.597 388.824 76.0495 388.824 76.5117V76.9219C388.824 77.3841 388.87 77.8398 388.961 78.2891C389.052 78.7383 389.205 79.1452 389.42 79.5098C389.641 79.8743 389.938 80.1673 390.309 80.3887C390.686 80.6035 391.155 80.7109 391.715 80.7109ZM397.477 76.834V76.6094C397.477 75.8477 397.587 75.1413 397.809 74.4902C398.03 73.8327 398.349 73.263 398.766 72.7812C399.182 72.293 399.687 71.9154 400.279 71.6484C400.872 71.375 401.536 71.2383 402.271 71.2383C403.014 71.2383 403.681 71.375 404.273 71.6484C404.872 71.9154 405.38 72.293 405.797 72.7812C406.22 73.263 406.542 73.8327 406.764 74.4902C406.985 75.1413 407.096 75.8477 407.096 76.6094V76.834C407.096 77.5957 406.985 78.3021 406.764 78.9531C406.542 79.6042 406.22 80.1738 405.797 80.6621C405.38 81.1439 404.876 81.5215 404.283 81.7949C403.697 82.0618 403.033 82.1953 402.291 82.1953C401.549 82.1953 400.882 82.0618 400.289 81.7949C399.697 81.5215 399.189 81.1439 398.766 80.6621C398.349 80.1738 398.03 79.6042 397.809 78.9531C397.587 78.3021 397.477 77.5957 397.477 76.834ZM399.283 76.6094V76.834C399.283 77.3613 399.345 77.8594 399.469 78.3281C399.592 78.7904 399.778 79.2005 400.025 79.5586C400.279 79.9167 400.595 80.1999 400.973 80.4082C401.35 80.61 401.79 80.7109 402.291 80.7109C402.786 80.7109 403.219 80.61 403.59 80.4082C403.967 80.1999 404.28 79.9167 404.527 79.5586C404.775 79.2005 404.96 78.7904 405.084 78.3281C405.214 77.8594 405.279 77.3613 405.279 76.834V76.6094C405.279 76.0885 405.214 75.597 405.084 75.1348C404.96 74.666 404.771 74.2526 404.518 73.8945C404.27 73.5299 403.958 73.2435 403.58 73.0352C403.209 72.8268 402.773 72.7227 402.271 72.7227C401.777 72.7227 401.34 72.8268 400.963 73.0352C400.592 73.2435 400.279 73.5299 400.025 73.8945C399.778 74.2526 399.592 74.666 399.469 75.1348C399.345 75.597 399.283 76.0885 399.283 76.6094ZM411.168 73.4648V86.0625H409.352V71.4336H411.012L411.168 73.4648ZM418.287 76.6289V76.834C418.287 77.6022 418.196 78.3151 418.014 78.9727C417.831 79.6237 417.564 80.1901 417.213 80.6719C416.868 81.1536 416.441 81.528 415.934 81.7949C415.426 82.0618 414.843 82.1953 414.186 82.1953C413.515 82.1953 412.923 82.0846 412.408 81.8633C411.894 81.6419 411.458 81.3197 411.1 80.8965C410.742 80.4733 410.455 79.9655 410.24 79.373C410.032 78.7806 409.889 78.1133 409.811 77.3711V76.2773C409.889 75.4961 410.035 74.7962 410.25 74.1777C410.465 73.5592 410.748 73.0319 411.1 72.5957C411.458 72.153 411.891 71.8177 412.398 71.5898C412.906 71.3555 413.492 71.2383 414.156 71.2383C414.82 71.2383 415.41 71.3685 415.924 71.6289C416.438 71.8828 416.871 72.2474 417.223 72.7227C417.574 73.1979 417.838 73.7676 418.014 74.4316C418.196 75.0892 418.287 75.8216 418.287 76.6289ZM416.471 76.834V76.6289C416.471 76.1016 416.415 75.6068 416.305 75.1445C416.194 74.6758 416.021 74.2656 415.787 73.9141C415.559 73.556 415.266 73.276 414.908 73.0742C414.55 72.8659 414.124 72.7617 413.629 72.7617C413.173 72.7617 412.776 72.8398 412.438 72.9961C412.105 73.1523 411.822 73.3639 411.588 73.6309C411.354 73.8913 411.161 74.1908 411.012 74.5293C410.868 74.8613 410.761 75.2064 410.689 75.5645V78.0938C410.82 78.5495 411.002 78.9792 411.236 79.3828C411.471 79.7799 411.783 80.1022 412.174 80.3496C412.564 80.5905 413.056 80.7109 413.648 80.7109C414.137 80.7109 414.557 80.61 414.908 80.4082C415.266 80.1999 415.559 79.9167 415.787 79.5586C416.021 79.2005 416.194 78.7904 416.305 78.3281C416.415 77.8594 416.471 77.3613 416.471 76.834Z" fill="#676767"/>
<path d="M536.984 65.418L536.809 70.4277H535.119V67H533.723V65.418H536.984ZM524.709 67V52.7812H526.604V65.4668H533.605V52.7812H535.49V67H524.709ZM544.719 54.041L540.012 67H538.088L543.508 52.7812H544.748L544.719 54.041ZM548.664 67L543.947 54.041L543.918 52.7812H545.158L550.598 67H548.664ZM548.42 61.7363V63.2793H540.432V61.7363H548.42ZM563.361 52.7812V67H561.486V54.3242H554.475V67H552.59V52.7812H563.361Z" fill="#676767"/>
<path d="M664.582 56.1973H666.936C667.756 56.1973 668.514 56.3372 669.211 56.6172C669.914 56.8906 670.526 57.2812 671.047 57.7891C671.574 58.2969 671.984 58.9023 672.277 59.6055C672.57 60.3021 672.717 61.0736 672.717 61.9199C672.717 62.7663 672.57 63.541 672.277 64.2441C671.984 64.9473 671.574 65.556 671.047 66.0703C670.526 66.5781 669.914 66.972 669.211 67.252C668.514 67.5254 667.756 67.6621 666.936 67.6621H664.582C663.762 67.6621 663.003 67.5254 662.307 67.252C661.61 66.972 660.998 66.5781 660.471 66.0703C659.95 65.5625 659.543 64.9603 659.25 64.2637C658.964 63.5605 658.82 62.7858 658.82 61.9395C658.82 61.0931 658.964 60.3216 659.25 59.625C659.543 58.9219 659.95 58.3164 660.471 57.8086C660.998 57.2943 661.61 56.8971 662.307 56.6172C663.003 56.3372 663.762 56.1973 664.582 56.1973ZM664.582 57.6816C663.729 57.6816 663.007 57.8607 662.414 58.2188C661.822 58.5703 661.372 59.0651 661.066 59.7031C660.76 60.3411 660.607 61.0866 660.607 61.9395C660.607 62.584 660.692 63.1667 660.861 63.6875C661.037 64.2083 661.294 64.6543 661.633 65.0254C661.971 65.3965 662.388 65.6829 662.883 65.8848C663.378 66.0866 663.944 66.1875 664.582 66.1875H666.955C667.801 66.1875 668.518 66.0117 669.104 65.6602C669.696 65.3021 670.145 64.804 670.451 64.166C670.764 63.5215 670.92 62.7728 670.92 61.9199C670.92 61.2819 670.832 60.7025 670.656 60.1816C670.48 59.6608 670.223 59.2148 669.885 58.8438C669.553 58.4727 669.139 58.1862 668.645 57.9844C668.156 57.7826 667.593 57.6816 666.955 57.6816H664.582ZM666.672 54.1953V69.5859H664.865V54.1953H666.672ZM676.779 66.1387L681.652 58.4336H683.469V69H681.652V61.2949L676.779 69H674.982V58.4336H676.779V66.1387ZM693.43 58.4336V59.9277H688.322V58.4336H693.43ZM695.021 58.4336V69H693.215V58.4336H695.021ZM687.883 58.4336H689.699L689.426 63.5312C689.38 64.319 689.305 65.0156 689.201 65.6211C689.104 66.2201 688.967 66.7344 688.791 67.1641C688.622 67.5938 688.407 67.9453 688.146 68.2188C687.893 68.4857 687.587 68.6842 687.229 68.8145C686.87 68.9382 686.457 69 685.988 69H685.422V67.4082L685.812 67.3789C686.092 67.3594 686.33 67.2943 686.525 67.1836C686.727 67.0729 686.896 66.9102 687.033 66.6953C687.17 66.474 687.281 66.1908 687.365 65.8457C687.456 65.5007 687.525 65.0905 687.57 64.6152C687.622 64.14 687.661 63.5866 687.688 62.9551L687.883 58.4336ZM699.416 62.0664H702.59C703.443 62.0664 704.162 62.2161 704.748 62.5156C705.334 62.8086 705.777 63.2155 706.076 63.7363C706.382 64.2507 706.535 64.8366 706.535 65.4941C706.535 65.9824 706.451 66.4414 706.281 66.8711C706.112 67.2943 705.858 67.6654 705.52 67.9844C705.188 68.3034 704.774 68.554 704.279 68.7363C703.791 68.9121 703.228 69 702.59 69H698.098V58.4336H699.904V67.5156H702.59C703.111 67.5156 703.527 67.4212 703.84 67.2324C704.152 67.0436 704.377 66.7995 704.514 66.5C704.65 66.2005 704.719 65.888 704.719 65.5625C704.719 65.2435 704.65 64.931 704.514 64.625C704.377 64.319 704.152 64.0651 703.84 63.8633C703.527 63.6549 703.111 63.5508 702.59 63.5508H699.416V62.0664ZM712.414 58.4336V69H710.598V58.4336H712.414ZM715.959 58.4336V59.8984H707.121V58.4336H715.959ZM719.543 60.4648V73.0625H717.727V58.4336H719.387L719.543 60.4648ZM726.662 63.6289V63.834C726.662 64.6022 726.571 65.3151 726.389 65.9727C726.206 66.6237 725.939 67.1901 725.588 67.6719C725.243 68.1536 724.816 68.528 724.309 68.7949C723.801 69.0618 723.218 69.1953 722.561 69.1953C721.89 69.1953 721.298 69.0846 720.783 68.8633C720.269 68.6419 719.833 68.3197 719.475 67.8965C719.117 67.4733 718.83 66.9655 718.615 66.373C718.407 65.7806 718.264 65.1133 718.186 64.3711V63.2773C718.264 62.4961 718.41 61.7962 718.625 61.1777C718.84 60.5592 719.123 60.0319 719.475 59.5957C719.833 59.153 720.266 58.8177 720.773 58.5898C721.281 58.3555 721.867 58.2383 722.531 58.2383C723.195 58.2383 723.785 58.3685 724.299 58.6289C724.813 58.8828 725.246 59.2474 725.598 59.7227C725.949 60.1979 726.213 60.7676 726.389 61.4316C726.571 62.0892 726.662 62.8216 726.662 63.6289ZM724.846 63.834V63.6289C724.846 63.1016 724.79 62.6068 724.68 62.1445C724.569 61.6758 724.396 61.2656 724.162 60.9141C723.934 60.556 723.641 60.276 723.283 60.0742C722.925 59.8659 722.499 59.7617 722.004 59.7617C721.548 59.7617 721.151 59.8398 720.812 59.9961C720.48 60.1523 720.197 60.3639 719.963 60.6309C719.729 60.8913 719.536 61.1908 719.387 61.5293C719.243 61.8613 719.136 62.2064 719.064 62.5645V65.0938C719.195 65.5495 719.377 65.9792 719.611 66.3828C719.846 66.7799 720.158 67.1022 720.549 67.3496C720.939 67.5905 721.431 67.7109 722.023 67.7109C722.512 67.7109 722.932 67.61 723.283 67.4082C723.641 67.1999 723.934 66.9167 724.162 66.5586C724.396 66.2005 724.569 65.7904 724.68 65.3281C724.79 64.8594 724.846 64.3613 724.846 63.834ZM743.488 60.8945V62.4277H735.793V60.8945H743.488ZM736.086 54.7812V69H734.201V54.7812H736.086ZM745.129 54.7812V69H743.254V54.7812H745.129ZM748.029 54.7812H749.914V59.2246C749.914 59.9603 750.021 60.5365 750.236 60.9531C750.451 61.3698 750.777 61.6628 751.213 61.832C751.649 62.0013 752.193 62.0859 752.844 62.0859C753.234 62.0859 753.612 62.0697 753.977 62.0371C754.348 62.0046 754.709 61.959 755.061 61.9004C755.412 61.8418 755.757 61.7702 756.096 61.6855C756.441 61.6009 756.779 61.5098 757.111 61.4121V62.9551C756.792 63.0527 756.473 63.1439 756.154 63.2285C755.842 63.3132 755.516 63.3848 755.178 63.4434C754.846 63.502 754.488 63.5475 754.104 63.5801C753.726 63.6126 753.306 63.6289 752.844 63.6289C751.841 63.6289 750.979 63.4857 750.256 63.1992C749.54 62.9062 748.99 62.4375 748.605 61.793C748.221 61.1484 748.029 60.2923 748.029 59.2246V54.7812ZM756.633 54.7812H758.518V69H756.633V54.7812Z" fill="#676767"/>
<path d="M785.047 45.4531V45.375C785.047 44.2396 785.174 43.2135 785.43 42.2969C785.685 41.375 786.01 40.5677 786.406 39.875C786.802 39.1823 787.219 38.6094 787.656 38.1562C788.094 37.6979 788.497 37.3672 788.867 37.1641L789.172 38.1172C788.865 38.3516 788.552 38.6745 788.234 39.0859C787.922 39.4974 787.633 40.0026 787.367 40.6016C787.107 41.2005 786.896 41.8958 786.734 42.6875C786.573 43.4792 786.492 44.3698 786.492 45.3594V45.4688C786.492 46.4583 786.573 47.3516 786.734 48.1484C786.896 48.9401 787.107 49.638 787.367 50.2422C787.633 50.8464 787.922 51.3594 788.234 51.7812C788.552 52.2083 788.865 52.5469 789.172 52.7969L788.867 53.6719C788.497 53.4688 788.094 53.138 787.656 52.6797C787.219 52.2266 786.802 51.6536 786.406 50.9609C786.01 50.2734 785.685 49.4688 785.43 48.5469C785.174 47.625 785.047 46.5938 785.047 45.4531ZM792.258 44.5859L791.102 44.2891L791.672 38.625H797.508V39.9609H792.898L792.555 43.0547C792.763 42.9349 793.026 42.8229 793.344 42.7188C793.667 42.6146 794.036 42.5625 794.453 42.5625C794.979 42.5625 795.451 42.6536 795.867 42.8359C796.284 43.013 796.638 43.2682 796.93 43.6016C797.227 43.9349 797.453 44.3359 797.609 44.8047C797.766 45.2734 797.844 45.7969 797.844 46.375C797.844 46.9219 797.768 47.4245 797.617 47.8828C797.471 48.3411 797.25 48.7422 796.953 49.0859C796.656 49.4245 796.281 49.6875 795.828 49.875C795.38 50.0625 794.852 50.1562 794.242 50.1562C793.784 50.1562 793.349 50.0938 792.938 49.9688C792.531 49.8385 792.167 49.6432 791.844 49.3828C791.526 49.1172 791.266 48.7891 791.062 48.3984C790.865 48.0026 790.74 47.5391 790.688 47.0078H792.062C792.125 47.4349 792.25 47.7943 792.438 48.0859C792.625 48.3776 792.87 48.599 793.172 48.75C793.479 48.8958 793.836 48.9688 794.242 48.9688C794.586 48.9688 794.891 48.9089 795.156 48.7891C795.422 48.6693 795.646 48.4974 795.828 48.2734C796.01 48.0495 796.148 47.7786 796.242 47.4609C796.341 47.1432 796.391 46.7865 796.391 46.3906C796.391 46.0312 796.341 45.6979 796.242 45.3906C796.143 45.0833 795.995 44.8151 795.797 44.5859C795.604 44.3568 795.367 44.1797 795.086 44.0547C794.805 43.9245 794.482 43.8594 794.117 43.8594C793.633 43.8594 793.266 43.9245 793.016 44.0547C792.771 44.1849 792.518 44.362 792.258 44.5859ZM802.914 45.375V45.4531C802.914 46.5938 802.786 47.625 802.531 48.5469C802.276 49.4688 801.951 50.2734 801.555 50.9609C801.159 51.6536 800.742 52.2266 800.305 52.6797C799.867 53.138 799.464 53.4688 799.094 53.6719L798.789 52.7969C799.096 52.5625 799.406 52.2344 799.719 51.8125C800.031 51.3958 800.32 50.8802 800.586 50.2656C800.852 49.6562 801.065 48.9531 801.227 48.1562C801.388 47.3542 801.469 46.4583 801.469 45.4688V45.3594C801.469 44.3698 801.383 43.4766 801.211 42.6797C801.039 41.8776 800.815 41.1719 800.539 40.5625C800.268 39.9531 799.977 39.4401 799.664 39.0234C799.357 38.6016 799.065 38.276 798.789 38.0469L799.094 37.1641C799.464 37.3672 799.867 37.6979 800.305 38.1562C800.742 38.6094 801.159 39.1823 801.555 39.875C801.951 40.5677 802.276 41.375 802.531 42.2969C802.786 43.2135 802.914 44.2396 802.914 45.375Z" fill="#1E398F"/>
<path d="M283.047 43.4531V43.375C283.047 42.2396 283.174 41.2135 283.43 40.2969C283.685 39.375 284.01 38.5677 284.406 37.875C284.802 37.1823 285.219 36.6094 285.656 36.1562C286.094 35.6979 286.497 35.3672 286.867 35.1641L287.172 36.1172C286.865 36.3516 286.552 36.6745 286.234 37.0859C285.922 37.4974 285.633 38.0026 285.367 38.6016C285.107 39.2005 284.896 39.8958 284.734 40.6875C284.573 41.4792 284.492 42.3698 284.492 43.3594V43.4688C284.492 44.4583 284.573 45.3516 284.734 46.1484C284.896 46.9401 285.107 47.638 285.367 48.2422C285.633 48.8464 285.922 49.3594 286.234 49.7812C286.552 50.2083 286.865 50.5469 287.172 50.7969L286.867 51.6719C286.497 51.4688 286.094 51.138 285.656 50.6797C285.219 50.2266 284.802 49.6536 284.406 48.9609C284.01 48.2734 283.685 47.4688 283.43 46.5469C283.174 45.625 283.047 44.5938 283.047 43.4531ZM296.117 44.1719V45.3594H287.898V44.5078L292.992 36.625H294.172L292.906 38.9062L289.539 44.1719H296.117ZM294.531 36.625V48H293.086V36.625H294.531ZM300.914 43.375V43.4531C300.914 44.5938 300.786 45.625 300.531 46.5469C300.276 47.4688 299.951 48.2734 299.555 48.9609C299.159 49.6536 298.742 50.2266 298.305 50.6797C297.867 51.138 297.464 51.4688 297.094 51.6719L296.789 50.7969C297.096 50.5625 297.406 50.2344 297.719 49.8125C298.031 49.3958 298.32 48.8802 298.586 48.2656C298.852 47.6562 299.065 46.9531 299.227 46.1562C299.388 45.3542 299.469 44.4583 299.469 43.4688V43.3594C299.469 42.3698 299.383 41.4766 299.211 40.6797C299.039 39.8776 298.815 39.1719 298.539 38.5625C298.268 37.9531 297.977 37.4401 297.664 37.0234C297.357 36.6016 297.065 36.276 296.789 36.0469L297.094 35.1641C297.464 35.3672 297.867 35.6979 298.305 36.1562C298.742 36.6094 299.159 37.1823 299.555 37.875C299.951 38.5677 300.276 39.375 300.531 40.2969C300.786 41.2135 300.914 42.2396 300.914 43.375Z" fill="#1E398F"/>
<path d="M78.0469 69.4531V69.375C78.0469 68.2396 78.1745 67.2135 78.4297 66.2969C78.6849 65.375 79.0104 64.5677 79.4062 63.875C79.8021 63.1823 80.2188 62.6094 80.6562 62.1562C81.0938 61.6979 81.4974 61.3672 81.8672 61.1641L82.1719 62.1172C81.8646 62.3516 81.5521 62.6745 81.2344 63.0859C80.9219 63.4974 80.6328 64.0026 80.3672 64.6016C80.1068 65.2005 79.8958 65.8958 79.7344 66.6875C79.5729 67.4792 79.4922 68.3698 79.4922 69.3594V69.4688C79.4922 70.4583 79.5729 71.3516 79.7344 72.1484C79.8958 72.9401 80.1068 73.638 80.3672 74.2422C80.6328 74.8464 80.9219 75.3594 81.2344 75.7812C81.5521 76.2083 81.8646 76.5469 82.1719 76.7969L81.8672 77.6719C81.4974 77.4688 81.0938 77.138 80.6562 76.6797C80.2188 76.2266 79.8021 75.6536 79.4062 74.9609C79.0104 74.2734 78.6849 73.4688 78.4297 72.5469C78.1745 71.625 78.0469 70.5938 78.0469 69.4531ZM90.8828 72.8125V74H83.4375V72.9609L87.1641 68.8125C87.6224 68.3021 87.9766 67.8698 88.2266 67.5156C88.4818 67.1562 88.6589 66.8359 88.7578 66.5547C88.862 66.2682 88.9141 65.9766 88.9141 65.6797C88.9141 65.3047 88.8359 64.9661 88.6797 64.6641C88.5286 64.3568 88.3047 64.112 88.0078 63.9297C87.7109 63.7474 87.3516 63.6562 86.9297 63.6562C86.4245 63.6562 86.0026 63.7552 85.6641 63.9531C85.3307 64.1458 85.0807 64.4167 84.9141 64.7656C84.7474 65.1146 84.6641 65.5156 84.6641 65.9688H83.2188C83.2188 65.3281 83.3594 64.7422 83.6406 64.2109C83.9219 63.6797 84.3385 63.2578 84.8906 62.9453C85.4427 62.6276 86.1224 62.4688 86.9297 62.4688C87.6484 62.4688 88.263 62.5964 88.7734 62.8516C89.2839 63.1016 89.6745 63.4557 89.9453 63.9141C90.2214 64.3672 90.3594 64.8984 90.3594 65.5078C90.3594 65.8411 90.3021 66.1797 90.1875 66.5234C90.0781 66.862 89.9245 67.2005 89.7266 67.5391C89.5339 67.8776 89.3073 68.2109 89.0469 68.5391C88.7917 68.8672 88.5182 69.1901 88.2266 69.5078L85.1797 72.8125H90.8828ZM95.9141 69.375V69.4531C95.9141 70.5938 95.7865 71.625 95.5312 72.5469C95.276 73.4688 94.9505 74.2734 94.5547 74.9609C94.1589 75.6536 93.7422 76.2266 93.3047 76.6797C92.8672 77.138 92.4635 77.4688 92.0938 77.6719L91.7891 76.7969C92.0964 76.5625 92.4062 76.2344 92.7188 75.8125C93.0312 75.3958 93.3203 74.8802 93.5859 74.2656C93.8516 73.6562 94.0651 72.9531 94.2266 72.1562C94.388 71.3542 94.4688 70.4583 94.4688 69.4688V69.3594C94.4688 68.3698 94.3828 67.4766 94.2109 66.6797C94.0391 65.8776 93.8151 65.1719 93.5391 64.5625C93.2682 63.9531 92.9766 63.4401 92.6641 63.0234C92.3568 62.6016 92.0651 62.276 91.7891 62.0469L92.0938 61.1641C92.4635 61.3672 92.8672 61.6979 93.3047 62.1562C93.7422 62.6094 94.1589 63.1823 94.5547 63.875C94.9505 64.5677 95.276 65.375 95.5312 66.2969C95.7865 67.2135 95.9141 68.2396 95.9141 69.375Z" fill="#1E398F"/>
<path d="M193.047 109.453V109.375C193.047 108.24 193.174 107.214 193.43 106.297C193.685 105.375 194.01 104.568 194.406 103.875C194.802 103.182 195.219 102.609 195.656 102.156C196.094 101.698 196.497 101.367 196.867 101.164L197.172 102.117C196.865 102.352 196.552 102.674 196.234 103.086C195.922 103.497 195.633 104.003 195.367 104.602C195.107 105.201 194.896 105.896 194.734 106.688C194.573 107.479 194.492 108.37 194.492 109.359V109.469C194.492 110.458 194.573 111.352 194.734 112.148C194.896 112.94 195.107 113.638 195.367 114.242C195.633 114.846 195.922 115.359 196.234 115.781C196.552 116.208 196.865 116.547 197.172 116.797L196.867 117.672C196.497 117.469 196.094 117.138 195.656 116.68C195.219 116.227 194.802 115.654 194.406 114.961C194.01 114.273 193.685 113.469 193.43 112.547C193.174 111.625 193.047 110.594 193.047 109.453ZM200.539 107.602H201.57C202.076 107.602 202.492 107.518 202.82 107.352C203.154 107.18 203.401 106.948 203.562 106.656C203.729 106.359 203.812 106.026 203.812 105.656C203.812 105.219 203.74 104.852 203.594 104.555C203.448 104.258 203.229 104.034 202.938 103.883C202.646 103.732 202.276 103.656 201.828 103.656C201.422 103.656 201.062 103.737 200.75 103.898C200.443 104.055 200.201 104.279 200.023 104.57C199.852 104.862 199.766 105.206 199.766 105.602H198.32C198.32 105.023 198.466 104.497 198.758 104.023C199.049 103.549 199.458 103.172 199.984 102.891C200.516 102.609 201.13 102.469 201.828 102.469C202.516 102.469 203.117 102.591 203.633 102.836C204.148 103.076 204.549 103.435 204.836 103.914C205.122 104.388 205.266 104.979 205.266 105.688C205.266 105.974 205.198 106.281 205.062 106.609C204.932 106.932 204.727 107.234 204.445 107.516C204.169 107.797 203.81 108.029 203.367 108.211C202.924 108.388 202.393 108.477 201.773 108.477H200.539V107.602ZM200.539 108.789V107.922H201.773C202.497 107.922 203.096 108.008 203.57 108.18C204.044 108.352 204.417 108.581 204.688 108.867C204.964 109.154 205.156 109.469 205.266 109.812C205.38 110.151 205.438 110.49 205.438 110.828C205.438 111.359 205.346 111.831 205.164 112.242C204.987 112.654 204.734 113.003 204.406 113.289C204.083 113.576 203.703 113.792 203.266 113.938C202.828 114.083 202.352 114.156 201.836 114.156C201.341 114.156 200.875 114.086 200.438 113.945C200.005 113.805 199.622 113.602 199.289 113.336C198.956 113.065 198.695 112.734 198.508 112.344C198.32 111.948 198.227 111.497 198.227 110.992H199.672C199.672 111.388 199.758 111.734 199.93 112.031C200.107 112.328 200.357 112.56 200.68 112.727C201.008 112.888 201.393 112.969 201.836 112.969C202.279 112.969 202.659 112.893 202.977 112.742C203.299 112.586 203.547 112.352 203.719 112.039C203.896 111.727 203.984 111.333 203.984 110.859C203.984 110.385 203.885 109.997 203.688 109.695C203.49 109.388 203.208 109.161 202.844 109.016C202.484 108.865 202.06 108.789 201.57 108.789H200.539ZM210.914 109.375V109.453C210.914 110.594 210.786 111.625 210.531 112.547C210.276 113.469 209.951 114.273 209.555 114.961C209.159 115.654 208.742 116.227 208.305 116.68C207.867 117.138 207.464 117.469 207.094 117.672L206.789 116.797C207.096 116.562 207.406 116.234 207.719 115.812C208.031 115.396 208.32 114.88 208.586 114.266C208.852 113.656 209.065 112.953 209.227 112.156C209.388 111.354 209.469 110.458 209.469 109.469V109.359C209.469 108.37 209.383 107.477 209.211 106.68C209.039 105.878 208.815 105.172 208.539 104.562C208.268 103.953 207.977 103.44 207.664 103.023C207.357 102.602 207.065 102.276 206.789 102.047L207.094 101.164C207.464 101.367 207.867 101.698 208.305 102.156C208.742 102.609 209.159 103.182 209.555 103.875C209.951 104.568 210.276 105.375 210.531 106.297C210.786 107.214 210.914 108.24 210.914 109.375Z" fill="#1E398F"/>
</svg>
