<svg width="839" height="128" viewBox="0 0 839 128" fill="none" xmlns="http://www.w3.org/2000/svg">
<path d="M23.3086 45.3164V45.2188C23.3086 43.7995 23.4681 42.5169 23.7871 41.3711C24.1061 40.2188 24.513 39.2096 25.0078 38.3438C25.5026 37.4779 26.0234 36.7617 26.5703 36.1953C27.1172 35.6224 27.6217 35.209 28.084 34.9551L28.4648 36.1465C28.0807 36.4395 27.6901 36.8431 27.293 37.3574C26.9023 37.8717 26.541 38.5033 26.209 39.252C25.8835 40.0007 25.6198 40.8698 25.418 41.8594C25.2161 42.849 25.1152 43.9622 25.1152 45.1992V45.3359C25.1152 46.5729 25.2161 47.6895 25.418 48.6855C25.6198 49.6751 25.8835 50.5475 26.209 51.3027C26.541 52.0579 26.9023 52.6992 27.293 53.2266C27.6901 53.7604 28.0807 54.1836 28.4648 54.4961L28.084 55.5898C27.6217 55.3359 27.1172 54.9225 26.5703 54.3496C26.0234 53.7832 25.5026 53.0671 25.0078 52.2012C24.513 51.3418 24.1061 50.3359 23.7871 49.1836C23.4681 48.0312 23.3086 46.7422 23.3086 45.3164ZM35.9746 36.7031V51H34.168V38.959L30.5254 40.2871V38.6562L35.6914 36.7031H35.9746ZM45.6426 45.2188V45.3164C45.6426 46.7422 45.4831 48.0312 45.1641 49.1836C44.8451 50.3359 44.4382 51.3418 43.9434 52.2012C43.4486 53.0671 42.9277 53.7832 42.3809 54.3496C41.834 54.9225 41.3294 55.3359 40.8672 55.5898L40.4863 54.4961C40.8704 54.2031 41.2578 53.793 41.6484 53.2656C42.0391 52.7448 42.4004 52.1003 42.7324 51.332C43.0645 50.5703 43.3314 49.6914 43.5332 48.6953C43.735 47.6927 43.8359 46.5729 43.8359 45.3359V45.1992C43.8359 43.9622 43.7285 42.8457 43.5137 41.8496C43.2988 40.847 43.0189 39.9648 42.6738 39.2031C42.3353 38.4414 41.9707 37.8001 41.5801 37.2793C41.196 36.752 40.8314 36.3451 40.4863 36.0586L40.8672 34.9551C41.3294 35.209 41.834 35.6224 42.3809 36.1953C42.9277 36.7617 43.4486 37.4779 43.9434 38.3438C44.4382 39.2096 44.8451 40.2188 45.1641 41.3711C45.4831 42.5169 45.6426 43.7995 45.6426 45.2188Z" fill="#1E398F"/>
<path d="M71.6135 62.4634V1H129.262H204.5V64H250.647V1H385.997V64H437.558V1H588V64H630.915V62.4634V1H763.5V64V127H630.915V64H588V127H437.558V64H385.997V127H250.647V64H204.5V127H71.6135V62.4634Z" fill="#D3E5FF"/>
<path d="M0 62.4634H71.6135M71.6135 62.4634V1H129.262H204.5V64M71.6135 62.4634V127H204.5V64M71.6135 62.4634L63.0198 54.7805M71.6135 62.4634L63.0198 70.1463M204.5 64H250.647M250.647 64V1H385.997V64M250.647 64V127H385.997V64M250.647 64L242.77 54.7805M250.647 64L242.77 73.9878M385.997 64H437.558M437.558 64V1H588V64M437.558 64V127H588V64M437.558 64L428.249 54.7805M437.558 64L428.249 73.9878M588 64H630.915M630.915 64V127H763.5V64M630.915 64V62.4634M630.915 64L620.889 73.9878M763.5 64V1H630.915V62.4634M763.5 64H830M830 64L819.974 54.7805M830 64L819.974 73.9878M620.889 54.7805L630.915 62.4634" stroke="#1E398F"/>
<path d="M776.375 82.6797H773.492L773.477 81.4688H776.094C776.526 81.4688 776.904 81.3958 777.227 81.25C777.549 81.1042 777.799 80.8958 777.977 80.625C778.159 80.349 778.25 80.0208 778.25 79.6406C778.25 79.224 778.169 78.8854 778.008 78.625C777.852 78.3594 777.609 78.1667 777.281 78.0469C776.958 77.9219 776.547 77.8594 776.047 77.8594H773.828V88H772.32V76.625H776.047C776.63 76.625 777.151 76.6849 777.609 76.8047C778.068 76.9193 778.456 77.1016 778.773 77.3516C779.096 77.5964 779.341 77.9089 779.508 78.2891C779.674 78.6693 779.758 79.125 779.758 79.6562C779.758 80.125 779.638 80.5495 779.398 80.9297C779.159 81.3047 778.826 81.612 778.398 81.8516C777.977 82.0911 777.482 82.2448 776.914 82.3125L776.375 82.6797ZM776.305 88H772.898L773.75 86.7734H776.305C776.784 86.7734 777.19 86.6901 777.523 86.5234C777.862 86.3568 778.12 86.1224 778.297 85.8203C778.474 85.513 778.562 85.151 778.562 84.7344C778.562 84.3125 778.487 83.9479 778.336 83.6406C778.185 83.3333 777.948 83.0964 777.625 82.9297C777.302 82.763 776.885 82.6797 776.375 82.6797H774.227L774.242 81.4688H777.18L777.5 81.9062C778.047 81.9531 778.51 82.1094 778.891 82.375C779.271 82.6354 779.56 82.9688 779.758 83.375C779.961 83.7812 780.062 84.2292 780.062 84.7188C780.062 85.4271 779.906 86.026 779.594 86.5156C779.286 87 778.852 87.3698 778.289 87.625C777.727 87.875 777.065 88 776.305 88ZM783.258 82.4531H785.797C786.479 82.4531 787.055 82.5729 787.523 82.8125C787.992 83.0469 788.346 83.3724 788.586 83.7891C788.831 84.2005 788.953 84.6693 788.953 85.1953C788.953 85.5859 788.885 85.9531 788.75 86.2969C788.615 86.6354 788.411 86.9323 788.141 87.1875C787.875 87.4427 787.544 87.6432 787.148 87.7891C786.758 87.9297 786.307 88 785.797 88H782.203V79.5469H783.648V86.8125H785.797C786.214 86.8125 786.547 86.737 786.797 86.5859C787.047 86.4349 787.227 86.2396 787.336 86C787.445 85.7604 787.5 85.5104 787.5 85.25C787.5 84.9948 787.445 84.7448 787.336 84.5C787.227 84.2552 787.047 84.0521 786.797 83.8906C786.547 83.724 786.214 83.6406 785.797 83.6406H783.258V82.4531ZM791.961 79.5469V88H790.516V79.5469H791.961ZM795.469 79.5469L797.32 82.625L799.195 79.5469H800.891L798.125 83.7188L800.977 88H799.305L797.352 84.8281L795.398 88H793.719L796.562 83.7188L793.805 79.5469H795.469ZM801.891 83.8672V83.6875C801.891 83.0781 801.979 82.513 802.156 81.9922C802.333 81.4661 802.589 81.0104 802.922 80.625C803.255 80.2344 803.659 79.9323 804.133 79.7188C804.607 79.5 805.138 79.3906 805.727 79.3906C806.32 79.3906 806.854 79.5 807.328 79.7188C807.807 79.9323 808.214 80.2344 808.547 80.625C808.885 81.0104 809.143 81.4661 809.32 81.9922C809.497 82.513 809.586 83.0781 809.586 83.6875V83.8672C809.586 84.4766 809.497 85.0417 809.32 85.5625C809.143 86.0833 808.885 86.5391 808.547 86.9297C808.214 87.3151 807.81 87.6172 807.336 87.8359C806.867 88.0495 806.336 88.1562 805.742 88.1562C805.148 88.1562 804.615 88.0495 804.141 87.8359C803.667 87.6172 803.26 87.3151 802.922 86.9297C802.589 86.5391 802.333 86.0833 802.156 85.5625C801.979 85.0417 801.891 84.4766 801.891 83.8672ZM803.336 83.6875V83.8672C803.336 84.2891 803.385 84.6875 803.484 85.0625C803.583 85.4323 803.732 85.7604 803.93 86.0469C804.133 86.3333 804.385 86.5599 804.688 86.7266C804.99 86.888 805.341 86.9688 805.742 86.9688C806.138 86.9688 806.484 86.888 806.781 86.7266C807.083 86.5599 807.333 86.3333 807.531 86.0469C807.729 85.7604 807.878 85.4323 807.977 85.0625C808.081 84.6875 808.133 84.2891 808.133 83.8672V83.6875C808.133 83.2708 808.081 82.8776 807.977 82.5078C807.878 82.1328 807.727 81.8021 807.523 81.5156C807.326 81.224 807.076 80.9948 806.773 80.8281C806.477 80.6615 806.128 80.5781 805.727 80.5781C805.331 80.5781 804.982 80.6615 804.68 80.8281C804.383 80.9948 804.133 81.224 803.93 81.5156C803.732 81.8021 803.583 82.1328 803.484 82.5078C803.385 82.8776 803.336 83.2708 803.336 83.6875ZM812.359 79.5469H813.805L813.68 82.7109C813.648 83.513 813.557 84.2057 813.406 84.7891C813.255 85.3724 813.062 85.8698 812.828 86.2812C812.594 86.6875 812.331 87.0286 812.039 87.3047C811.753 87.5807 811.456 87.8125 811.148 88H810.43L810.469 86.8203L810.766 86.8125C810.938 86.6094 811.104 86.401 811.266 86.1875C811.427 85.9688 811.576 85.7109 811.711 85.4141C811.846 85.112 811.958 84.7448 812.047 84.3125C812.141 83.875 812.201 83.3411 812.227 82.7109L812.359 79.5469ZM812.719 79.5469H817.805V88H816.359V80.8828H812.719V79.5469ZM810.102 86.8125H818.891V90.4922H817.445V88H811.547V90.4922H810.094L810.102 86.8125Z" fill="#1E398F"/>
<path d="M781.309 46.3164V46.2188C781.309 44.7995 781.468 43.5169 781.787 42.3711C782.106 41.2188 782.513 40.2096 783.008 39.3438C783.503 38.4779 784.023 37.7617 784.57 37.1953C785.117 36.6224 785.622 36.209 786.084 35.9551L786.465 37.1465C786.081 37.4395 785.69 37.8431 785.293 38.3574C784.902 38.8717 784.541 39.5033 784.209 40.252C783.883 41.0007 783.62 41.8698 783.418 42.8594C783.216 43.849 783.115 44.9622 783.115 46.1992V46.3359C783.115 47.5729 783.216 48.6895 783.418 49.6855C783.62 50.6751 783.883 51.5475 784.209 52.3027C784.541 53.0579 784.902 53.6992 785.293 54.2266C785.69 54.7604 786.081 55.1836 786.465 55.4961L786.084 56.5898C785.622 56.3359 785.117 55.9225 784.57 55.3496C784.023 54.7832 783.503 54.0671 783.008 53.2012C782.513 52.3418 782.106 51.3359 781.787 50.1836C781.468 49.0312 781.309 47.7422 781.309 46.3164ZM790.322 45.2324L788.877 44.8613L789.59 37.7812H796.885V39.4512H791.123L790.693 43.3184C790.954 43.1686 791.283 43.0286 791.68 42.8984C792.083 42.7682 792.546 42.7031 793.066 42.7031C793.724 42.7031 794.313 42.8171 794.834 43.0449C795.355 43.2663 795.798 43.5853 796.162 44.002C796.533 44.4186 796.816 44.9199 797.012 45.5059C797.207 46.0918 797.305 46.7461 797.305 47.4688C797.305 48.1523 797.21 48.7806 797.021 49.3535C796.839 49.9264 796.562 50.4277 796.191 50.8574C795.82 51.2806 795.352 51.6094 794.785 51.8438C794.225 52.0781 793.564 52.1953 792.803 52.1953C792.23 52.1953 791.686 52.1172 791.172 51.9609C790.664 51.7982 790.208 51.554 789.805 51.2285C789.408 50.8965 789.082 50.4863 788.828 49.998C788.581 49.5033 788.424 48.9238 788.359 48.2598H790.078C790.156 48.7936 790.312 49.2428 790.547 49.6074C790.781 49.972 791.087 50.2487 791.465 50.4375C791.849 50.6198 792.295 50.7109 792.803 50.7109C793.232 50.7109 793.613 50.6361 793.945 50.4863C794.277 50.3366 794.557 50.1217 794.785 49.8418C795.013 49.5618 795.186 49.2233 795.303 48.8262C795.426 48.429 795.488 47.9831 795.488 47.4883C795.488 47.0391 795.426 46.6224 795.303 46.2383C795.179 45.8542 794.993 45.5189 794.746 45.2324C794.505 44.946 794.209 44.7246 793.857 44.5684C793.506 44.4056 793.102 44.3242 792.646 44.3242C792.041 44.3242 791.582 44.4056 791.27 44.5684C790.964 44.7311 790.648 44.9525 790.322 45.2324ZM803.643 46.2188V46.3164C803.643 47.7422 803.483 49.0312 803.164 50.1836C802.845 51.3359 802.438 52.3418 801.943 53.2012C801.449 54.0671 800.928 54.7832 800.381 55.3496C799.834 55.9225 799.329 56.3359 798.867 56.5898L798.486 55.4961C798.87 55.2031 799.258 54.793 799.648 54.2656C800.039 53.7448 800.4 53.1003 800.732 52.332C801.064 51.5703 801.331 50.6914 801.533 49.6953C801.735 48.6927 801.836 47.5729 801.836 46.3359V46.1992C801.836 44.9622 801.729 43.8457 801.514 42.8496C801.299 41.847 801.019 40.9648 800.674 40.2031C800.335 39.4414 799.971 38.8001 799.58 38.2793C799.196 37.752 798.831 37.3451 798.486 37.0586L798.867 35.9551C799.329 36.209 799.834 36.6224 800.381 37.1953C800.928 37.7617 801.449 38.4779 801.943 39.3438C802.438 40.2096 802.845 41.2188 803.164 42.3711C803.483 43.5169 803.643 44.7995 803.643 46.2188Z" fill="#1E398F"/>
<path d="M598.309 45.3164V45.2188C598.309 43.7995 598.468 42.5169 598.787 41.3711C599.106 40.2188 599.513 39.2096 600.008 38.3438C600.503 37.4779 601.023 36.7617 601.57 36.1953C602.117 35.6224 602.622 35.209 603.084 34.9551L603.465 36.1465C603.081 36.4395 602.69 36.8431 602.293 37.3574C601.902 37.8717 601.541 38.5033 601.209 39.252C600.883 40.0007 600.62 40.8698 600.418 41.8594C600.216 42.849 600.115 43.9622 600.115 45.1992V45.3359C600.115 46.5729 600.216 47.6895 600.418 48.6855C600.62 49.6751 600.883 50.5475 601.209 51.3027C601.541 52.0579 601.902 52.6992 602.293 53.2266C602.69 53.7604 603.081 54.1836 603.465 54.4961L603.084 55.5898C602.622 55.3359 602.117 54.9225 601.57 54.3496C601.023 53.7832 600.503 53.0671 600.008 52.2012C599.513 51.3418 599.106 50.3359 598.787 49.1836C598.468 48.0312 598.309 46.7422 598.309 45.3164ZM614.646 46.2148V47.6992H604.373V46.6348L610.74 36.7812H612.215L610.633 39.6328L606.424 46.2148H614.646ZM612.664 36.7812V51H610.857V36.7812H612.664ZM620.643 45.2188V45.3164C620.643 46.7422 620.483 48.0312 620.164 49.1836C619.845 50.3359 619.438 51.3418 618.943 52.2012C618.449 53.0671 617.928 53.7832 617.381 54.3496C616.834 54.9225 616.329 55.3359 615.867 55.5898L615.486 54.4961C615.87 54.2031 616.258 53.793 616.648 53.2656C617.039 52.7448 617.4 52.1003 617.732 51.332C618.064 50.5703 618.331 49.6914 618.533 48.6953C618.735 47.6927 618.836 46.5729 618.836 45.3359V45.1992C618.836 43.9622 618.729 42.8457 618.514 41.8496C618.299 40.847 618.019 39.9648 617.674 39.2031C617.335 38.4414 616.971 37.8001 616.58 37.2793C616.196 36.752 615.831 36.3451 615.486 36.0586L615.867 34.9551C616.329 35.209 616.834 35.6224 617.381 36.1953C617.928 36.7617 618.449 37.4779 618.943 38.3438C619.438 39.2096 619.845 40.2188 620.164 41.3711C620.483 42.5169 620.643 43.7995 620.643 45.2188Z" fill="#1E398F"/>
<path d="M217.309 45.3164V45.2188C217.309 43.7995 217.468 42.5169 217.787 41.3711C218.106 40.2188 218.513 39.2096 219.008 38.3438C219.503 37.4779 220.023 36.7617 220.57 36.1953C221.117 35.6224 221.622 35.209 222.084 34.9551L222.465 36.1465C222.081 36.4395 221.69 36.8431 221.293 37.3574C220.902 37.8717 220.541 38.5033 220.209 39.252C219.883 40.0007 219.62 40.8698 219.418 41.8594C219.216 42.849 219.115 43.9622 219.115 45.1992V45.3359C219.115 46.5729 219.216 47.6895 219.418 48.6855C219.62 49.6751 219.883 50.5475 220.209 51.3027C220.541 52.0579 220.902 52.6992 221.293 53.2266C221.69 53.7604 222.081 54.1836 222.465 54.4961L222.084 55.5898C221.622 55.3359 221.117 54.9225 220.57 54.3496C220.023 53.7832 219.503 53.0671 219.008 52.2012C218.513 51.3418 218.106 50.3359 217.787 49.1836C217.468 48.0312 217.309 46.7422 217.309 45.3164ZM233.354 49.5156V51H224.047V49.7012L228.705 44.5156C229.278 43.8776 229.721 43.3372 230.033 42.8945C230.352 42.4453 230.574 42.0449 230.697 41.6934C230.827 41.3353 230.893 40.9707 230.893 40.5996C230.893 40.1309 230.795 39.7077 230.6 39.3301C230.411 38.946 230.131 38.64 229.76 38.4121C229.389 38.1842 228.939 38.0703 228.412 38.0703C227.781 38.0703 227.253 38.194 226.83 38.4414C226.413 38.6823 226.101 39.0208 225.893 39.457C225.684 39.8932 225.58 40.3945 225.58 40.9609H223.773C223.773 40.1602 223.949 39.4277 224.301 38.7637C224.652 38.0996 225.173 37.5723 225.863 37.1816C226.553 36.7845 227.403 36.5859 228.412 36.5859C229.311 36.5859 230.079 36.7454 230.717 37.0645C231.355 37.377 231.843 37.8197 232.182 38.3926C232.527 38.959 232.699 39.623 232.699 40.3848C232.699 40.8014 232.628 41.2246 232.484 41.6543C232.348 42.0775 232.156 42.5007 231.908 42.9238C231.667 43.347 231.384 43.7637 231.059 44.1738C230.74 44.584 230.398 44.9876 230.033 45.3848L226.225 49.5156H233.354ZM239.643 45.2188V45.3164C239.643 46.7422 239.483 48.0312 239.164 49.1836C238.845 50.3359 238.438 51.3418 237.943 52.2012C237.449 53.0671 236.928 53.7832 236.381 54.3496C235.834 54.9225 235.329 55.3359 234.867 55.5898L234.486 54.4961C234.87 54.2031 235.258 53.793 235.648 53.2656C236.039 52.7448 236.4 52.1003 236.732 51.332C237.064 50.5703 237.331 49.6914 237.533 48.6953C237.735 47.6927 237.836 46.5729 237.836 45.3359V45.1992C237.836 43.9622 237.729 42.8457 237.514 41.8496C237.299 40.847 237.019 39.9648 236.674 39.2031C236.335 38.4414 235.971 37.8001 235.58 37.2793C235.196 36.752 234.831 36.3451 234.486 36.0586L234.867 34.9551C235.329 35.209 235.834 35.6224 236.381 36.1953C236.928 36.7617 237.449 37.4779 237.943 38.3438C238.438 39.2096 238.845 40.2188 239.164 41.3711C239.483 42.5169 239.643 43.7995 239.643 45.2188Z" fill="#1E398F"/>
<path d="M401.309 45.3164V45.2188C401.309 43.7995 401.468 42.5169 401.787 41.3711C402.106 40.2188 402.513 39.2096 403.008 38.3438C403.503 37.4779 404.023 36.7617 404.57 36.1953C405.117 35.6224 405.622 35.209 406.084 34.9551L406.465 36.1465C406.081 36.4395 405.69 36.8431 405.293 37.3574C404.902 37.8717 404.541 38.5033 404.209 39.252C403.883 40.0007 403.62 40.8698 403.418 41.8594C403.216 42.849 403.115 43.9622 403.115 45.1992V45.3359C403.115 46.5729 403.216 47.6895 403.418 48.6855C403.62 49.6751 403.883 50.5475 404.209 51.3027C404.541 52.0579 404.902 52.6992 405.293 53.2266C405.69 53.7604 406.081 54.1836 406.465 54.4961L406.084 55.5898C405.622 55.3359 405.117 54.9225 404.57 54.3496C404.023 53.7832 403.503 53.0671 403.008 52.2012C402.513 51.3418 402.106 50.3359 401.787 49.1836C401.468 48.0312 401.309 46.7422 401.309 45.3164ZM410.674 43.002H411.963C412.594 43.002 413.115 42.8978 413.525 42.6895C413.942 42.4746 414.251 42.1849 414.453 41.8203C414.661 41.4492 414.766 41.0326 414.766 40.5703C414.766 40.0234 414.674 39.5645 414.492 39.1934C414.31 38.8223 414.036 38.5423 413.672 38.3535C413.307 38.1647 412.845 38.0703 412.285 38.0703C411.777 38.0703 411.328 38.1712 410.938 38.373C410.553 38.5684 410.251 38.8483 410.029 39.2129C409.814 39.5775 409.707 40.0072 409.707 40.502H407.9C407.9 39.7793 408.083 39.1217 408.447 38.5293C408.812 37.9368 409.323 37.4648 409.98 37.1133C410.645 36.7617 411.413 36.5859 412.285 36.5859C413.145 36.5859 413.896 36.7389 414.541 37.0449C415.186 37.3444 415.687 37.7936 416.045 38.3926C416.403 38.985 416.582 39.724 416.582 40.6094C416.582 40.9674 416.497 41.3516 416.328 41.7617C416.165 42.1654 415.908 42.543 415.557 42.8945C415.212 43.2461 414.762 43.5358 414.209 43.7637C413.656 43.985 412.992 44.0957 412.217 44.0957H410.674V43.002ZM410.674 44.4863V43.4023H412.217C413.122 43.4023 413.87 43.5098 414.463 43.7246C415.055 43.9395 415.521 44.2259 415.859 44.584C416.204 44.9421 416.445 45.3359 416.582 45.7656C416.725 46.1888 416.797 46.612 416.797 47.0352C416.797 47.6992 416.683 48.2884 416.455 48.8027C416.234 49.3171 415.918 49.7533 415.508 50.1113C415.104 50.4694 414.629 50.7396 414.082 50.9219C413.535 51.1042 412.939 51.1953 412.295 51.1953C411.676 51.1953 411.094 51.1074 410.547 50.9316C410.007 50.7559 409.528 50.502 409.111 50.1699C408.695 49.8314 408.369 49.418 408.135 48.9297C407.9 48.4349 407.783 47.8717 407.783 47.2402H409.59C409.59 47.735 409.697 48.168 409.912 48.5391C410.133 48.9102 410.446 49.1999 410.85 49.4082C411.26 49.61 411.742 49.7109 412.295 49.7109C412.848 49.7109 413.324 49.6165 413.721 49.4277C414.124 49.2324 414.434 48.9395 414.648 48.5488C414.87 48.1582 414.98 47.6667 414.98 47.0742C414.98 46.4818 414.857 45.9967 414.609 45.6191C414.362 45.235 414.01 44.9518 413.555 44.7695C413.105 44.5807 412.575 44.4863 411.963 44.4863H410.674ZM423.643 45.2188V45.3164C423.643 46.7422 423.483 48.0312 423.164 49.1836C422.845 50.3359 422.438 51.3418 421.943 52.2012C421.449 53.0671 420.928 53.7832 420.381 54.3496C419.834 54.9225 419.329 55.3359 418.867 55.5898L418.486 54.4961C418.87 54.2031 419.258 53.793 419.648 53.2656C420.039 52.7448 420.4 52.1003 420.732 51.332C421.064 50.5703 421.331 49.6914 421.533 48.6953C421.735 47.6927 421.836 46.5729 421.836 45.3359V45.1992C421.836 43.9622 421.729 42.8457 421.514 41.8496C421.299 40.847 421.019 39.9648 420.674 39.2031C420.335 38.4414 419.971 37.8001 419.58 37.2793C419.196 36.752 418.831 36.3451 418.486 36.0586L418.867 34.9551C419.329 35.209 419.834 35.6224 420.381 36.1953C420.928 36.7617 421.449 37.4779 421.943 38.3438C422.438 39.2096 422.845 40.2188 423.164 41.3711C423.483 42.5169 423.643 43.7995 423.643 45.2188Z" fill="#1E398F"/>
</svg>
