<svg width="31" height="33" viewBox="0 0 31 33" fill="none" xmlns="http://www.w3.org/2000/svg">
<path d="M29.5709 14.5432C29.5702 14.5425 29.5695 14.5418 29.5689 14.5411L17.4363 1.81442C16.9192 1.27169 16.2316 0.972717 15.5003 0.972717C14.7689 0.972717 14.0813 1.27145 13.564 1.81418L1.43777 14.5344C1.43369 14.5387 1.4296 14.5432 1.42552 14.5475C0.363548 15.6679 0.365363 17.4858 1.43074 18.6034C1.91747 19.1142 2.56033 19.4101 3.24766 19.4411C3.27557 19.4439 3.30371 19.4453 3.33207 19.4453H3.81563V28.8114C3.81563 30.6648 5.25315 32.1727 7.02038 32.1727H11.767C12.2481 32.1727 12.6384 31.7635 12.6384 31.2587V23.9157C12.6384 23.0699 13.2942 22.382 14.1004 22.382H16.9001C17.7063 22.382 18.3621 23.0699 18.3621 23.9157V31.2587C18.3621 31.7635 18.7522 32.1727 19.2335 32.1727H23.9801C25.7474 32.1727 27.1849 30.6648 27.1849 28.8114V19.4453H27.6333C28.3644 19.4453 29.0519 19.1466 29.5695 18.6039C30.636 17.4844 30.6365 15.6634 29.5709 14.5432Z" fill="white"/>
</svg>
