<svg width="12" height="611" viewBox="0 0 12 611" fill="none" xmlns="http://www.w3.org/2000/svg">
<path d="M6.08948 0.119792C3.14396 0.119791 0.756144 2.50761 0.756144 5.45312C0.756144 8.39864 3.14396 10.7865 6.08948 10.7865C9.035 10.7865 11.4228 8.39864 11.4228 5.45313C11.4228 2.50761 9.035 0.119792 6.08948 0.119792ZM6.08946 599.996C3.14394 599.996 0.756122 602.384 0.756122 605.33C0.756121 608.275 3.14394 610.663 6.08945 610.663C9.03497 610.663 11.4228 608.275 11.4228 605.33C11.4228 602.384 9.03497 599.996 6.08946 599.996ZM5.08948 5.45312L5.08945 605.33L7.08945 605.33L7.08948 5.45313L5.08948 5.45312Z" fill="#1E398F" fill-opacity="0.6"/>
</svg>
