<svg width="127" height="36" viewBox="0 0 127 36" fill="none" xmlns="http://www.w3.org/2000/svg">
<rect width="127" height="28.3636" rx="4" fill="white"/>
<path d="M63.5 36L55.2728 27.8182H71.7272L63.5 36Z" fill="white"/>
<path d="M38.2109 7H39.1484V17.3594L39.0859 19H38.2109V7ZM45.0312 14.6953V14.8594C45.0312 15.4896 44.9583 16.0677 44.8125 16.5938C44.6667 17.1198 44.4557 17.5755 44.1797 17.9609C43.9036 18.3411 43.5651 18.6354 43.1641 18.8438C42.7682 19.0521 42.3125 19.1562 41.7969 19.1562C41.2917 19.1562 40.8438 19.0781 40.4531 18.9219C40.0625 18.7604 39.7292 18.5339 39.4531 18.2422C39.1771 17.9453 38.9557 17.599 38.7891 17.2031C38.6224 16.8021 38.5052 16.362 38.4375 15.8828V13.7969C38.5156 13.2865 38.6406 12.8229 38.8125 12.4062C38.9844 11.9896 39.2057 11.6302 39.4766 11.3281C39.7526 11.026 40.0807 10.7943 40.4609 10.6328C40.8464 10.4714 41.2865 10.3906 41.7812 10.3906C42.2969 10.3906 42.7552 10.4922 43.1562 10.6953C43.5625 10.8932 43.9036 11.1823 44.1797 11.5625C44.4557 11.9375 44.6667 12.3906 44.8125 12.9219C44.9583 13.4479 45.0312 14.0391 45.0312 14.6953ZM44.0859 14.8594V14.6953C44.0859 14.2005 44.0391 13.7422 43.9453 13.3203C43.8516 12.8984 43.7031 12.5312 43.5 12.2188C43.3021 11.901 43.0469 11.6536 42.7344 11.4766C42.4219 11.2995 42.0469 11.2109 41.6094 11.2109C41.1615 11.2109 40.7786 11.2865 40.4609 11.4375C40.1484 11.5833 39.888 11.7786 39.6797 12.0234C39.4766 12.263 39.3151 12.526 39.1953 12.8125C39.0755 13.099 38.987 13.3802 38.9297 13.6562V16.0859C39.0182 16.4766 39.1719 16.8438 39.3906 17.1875C39.6094 17.5312 39.9036 17.8099 40.2734 18.0234C40.6432 18.2318 41.0938 18.3359 41.625 18.3359C42.0521 18.3359 42.4193 18.2474 42.7266 18.0703C43.0391 17.8932 43.2943 17.6484 43.4922 17.3359C43.6953 17.0234 43.8438 16.6562 43.9375 16.2344C44.0365 15.8125 44.0859 15.3542 44.0859 14.8594ZM52.1641 16.8438C52.1641 16.6146 52.1068 16.388 51.9922 16.1641C51.8776 15.9401 51.6562 15.7344 51.3281 15.5469C51.0052 15.3594 50.5286 15.2005 49.8984 15.0703C49.4297 14.9661 49.0104 14.849 48.6406 14.7188C48.276 14.5885 47.9688 14.4323 47.7188 14.25C47.4688 14.0677 47.2786 13.849 47.1484 13.5938C47.0182 13.3385 46.9531 13.0365 46.9531 12.6875C46.9531 12.375 47.0208 12.0807 47.1562 11.8047C47.2969 11.5234 47.4948 11.2786 47.75 11.0703C48.0104 10.8568 48.3229 10.6901 48.6875 10.5703C49.0573 10.4505 49.4714 10.3906 49.9297 10.3906C50.5807 10.3906 51.138 10.5026 51.6016 10.7266C52.0703 10.9453 52.4271 11.2448 52.6719 11.625C52.9219 12.0052 53.0469 12.4349 53.0469 12.9141H52.1172C52.1172 12.6224 52.0312 12.3464 51.8594 12.0859C51.6927 11.8255 51.4453 11.612 51.1172 11.4453C50.7943 11.2786 50.3984 11.1953 49.9297 11.1953C49.4453 11.1953 49.0521 11.2682 48.75 11.4141C48.4479 11.5599 48.2266 11.7448 48.0859 11.9688C47.9505 12.1927 47.8828 12.4245 47.8828 12.6641C47.8828 12.8516 47.9115 13.0234 47.9688 13.1797C48.0312 13.3307 48.1406 13.4714 48.2969 13.6016C48.4583 13.7318 48.6875 13.8542 48.9844 13.9688C49.2812 14.0833 49.6667 14.1953 50.1406 14.3047C50.8229 14.4557 51.3802 14.6406 51.8125 14.8594C52.25 15.0729 52.5729 15.3385 52.7812 15.6562C52.9896 15.9688 53.0938 16.349 53.0938 16.7969C53.0938 17.1458 53.0208 17.4661 52.875 17.7578C52.7292 18.0443 52.5182 18.2917 52.2422 18.5C51.9714 18.7083 51.6432 18.8698 51.2578 18.9844C50.8776 19.099 50.4505 19.1562 49.9766 19.1562C49.263 19.1562 48.6589 19.0391 48.1641 18.8047C47.6745 18.5651 47.3021 18.2526 47.0469 17.8672C46.7969 17.4766 46.6719 17.0625 46.6719 16.625H47.6016C47.6328 17.0625 47.7708 17.4089 48.0156 17.6641C48.2604 17.9141 48.5599 18.0911 48.9141 18.1953C49.2734 18.2995 49.6276 18.3516 49.9766 18.3516C50.4557 18.3516 50.8568 18.2812 51.1797 18.1406C51.5026 18 51.7474 17.8151 51.9141 17.5859C52.0807 17.3568 52.1641 17.1094 52.1641 16.8438ZM60.625 17.0469V10.5469H61.5625V19H60.6641L60.625 17.0469ZM60.7969 15.4844L61.2812 15.4688C61.2812 16 61.2188 16.4896 61.0938 16.9375C60.9688 17.3854 60.7734 17.776 60.5078 18.1094C60.2422 18.4427 59.8984 18.7005 59.4766 18.8828C59.0547 19.0651 58.5469 19.1562 57.9531 19.1562C57.5417 19.1562 57.1641 19.099 56.8203 18.9844C56.4818 18.8646 56.1901 18.6771 55.9453 18.4219C55.7005 18.1667 55.5104 17.8359 55.375 17.4297C55.2448 17.0234 55.1797 16.5312 55.1797 15.9531V10.5469H56.1094V15.9688C56.1094 16.4219 56.1589 16.7995 56.2578 17.1016C56.362 17.4036 56.5026 17.6458 56.6797 17.8281C56.862 18.0104 57.0703 18.1406 57.3047 18.2188C57.5391 18.2969 57.7917 18.3359 58.0625 18.3359C58.75 18.3359 59.2917 18.2031 59.6875 17.9375C60.0885 17.6719 60.3724 17.3229 60.5391 16.8906C60.7109 16.4531 60.7969 15.9844 60.7969 15.4844ZM65.0469 10.5469V19H64.1172V10.5469H65.0469ZM63.9531 8.10156C63.9531 7.92448 64.0078 7.77604 64.1172 7.65625C64.2318 7.53125 64.388 7.46875 64.5859 7.46875C64.7839 7.46875 64.9401 7.53125 65.0547 7.65625C65.1745 7.77604 65.2344 7.92448 65.2344 8.10156C65.2344 8.27344 65.1745 8.42188 65.0547 8.54688C64.9401 8.66667 64.7839 8.72656 64.5859 8.72656C64.388 8.72656 64.2318 8.66667 64.1172 8.54688C64.0078 8.42188 63.9531 8.27344 63.9531 8.10156ZM68.5312 11.9453V19H67.6016V10.5469H68.5078L68.5312 11.9453ZM71.5234 10.4844L71.5 11.3438C71.3958 11.3281 71.2943 11.3151 71.1953 11.3047C71.0964 11.2943 70.9896 11.2891 70.875 11.2891C70.4688 11.2891 70.112 11.3646 69.8047 11.5156C69.5026 11.6615 69.2474 11.8672 69.0391 12.1328C68.8307 12.3932 68.6719 12.7005 68.5625 13.0547C68.4531 13.4036 68.3906 13.7786 68.375 14.1797L68.0312 14.3125C68.0312 13.7604 68.0885 13.2474 68.2031 12.7734C68.3177 12.2995 68.4922 11.8854 68.7266 11.5312C68.9661 11.1719 69.2656 10.8932 69.625 10.6953C69.9896 10.4922 70.4167 10.3906 70.9062 10.3906C71.026 10.3906 71.1432 10.401 71.2578 10.4219C71.3776 10.4375 71.4661 10.4583 71.5234 10.4844ZM71.9375 18.4297C71.9375 18.2474 71.9948 18.0938 72.1094 17.9688C72.2292 17.8385 72.3906 17.7734 72.5938 17.7734C72.8021 17.7734 72.9661 17.8359 73.0859 17.9609C73.2057 18.0859 73.2656 18.2422 73.2656 18.4297C73.2656 18.6068 73.2057 18.7578 73.0859 18.8828C72.9661 19.0078 72.8021 19.0703 72.5938 19.0703C72.3906 19.0703 72.2292 19.0078 72.1094 18.8828C71.9948 18.7578 71.9375 18.6068 71.9375 18.4297ZM75.8359 7H76.7734V17.3594L76.7109 19H75.8359V7ZM82.6562 14.6953V14.8594C82.6562 15.4896 82.5833 16.0677 82.4375 16.5938C82.2917 17.1198 82.0807 17.5755 81.8047 17.9609C81.5286 18.3411 81.1901 18.6354 80.7891 18.8438C80.3932 19.0521 79.9375 19.1562 79.4219 19.1562C78.9167 19.1562 78.4688 19.0781 78.0781 18.9219C77.6875 18.7604 77.3542 18.5339 77.0781 18.2422C76.8021 17.9453 76.5807 17.599 76.4141 17.2031C76.2474 16.8021 76.1302 16.362 76.0625 15.8828V13.7969C76.1406 13.2865 76.2656 12.8229 76.4375 12.4062C76.6094 11.9896 76.8307 11.6302 77.1016 11.3281C77.3776 11.026 77.7057 10.7943 78.0859 10.6328C78.4714 10.4714 78.9115 10.3906 79.4062 10.3906C79.9219 10.3906 80.3802 10.4922 80.7812 10.6953C81.1875 10.8932 81.5286 11.1823 81.8047 11.5625C82.0807 11.9375 82.2917 12.3906 82.4375 12.9219C82.5833 13.4479 82.6562 14.0391 82.6562 14.6953ZM81.7109 14.8594V14.6953C81.7109 14.2005 81.6641 13.7422 81.5703 13.3203C81.4766 12.8984 81.3281 12.5312 81.125 12.2188C80.9271 11.901 80.6719 11.6536 80.3594 11.4766C80.0469 11.2995 79.6719 11.2109 79.2344 11.2109C78.7865 11.2109 78.4036 11.2865 78.0859 11.4375C77.7734 11.5833 77.513 11.7786 77.3047 12.0234C77.1016 12.263 76.9401 12.526 76.8203 12.8125C76.7005 13.099 76.612 13.3802 76.5547 13.6562V16.0859C76.6432 16.4766 76.7969 16.8438 77.0156 17.1875C77.2344 17.5312 77.5286 17.8099 77.8984 18.0234C78.2682 18.2318 78.7188 18.3359 79.25 18.3359C79.6771 18.3359 80.0443 18.2474 80.3516 18.0703C80.6641 17.8932 80.9193 17.6484 81.1172 17.3359C81.3203 17.0234 81.4688 16.6562 81.5625 16.2344C81.6615 15.8125 81.7109 15.3542 81.7109 14.8594ZM87.1406 18.1562L89.7734 10.5469H90.7812L87.2031 20.3594C87.1302 20.5521 87.0365 20.7656 86.9219 21C86.8125 21.2344 86.6667 21.4583 86.4844 21.6719C86.3073 21.8906 86.0833 22.0677 85.8125 22.2031C85.5469 22.3438 85.2214 22.4141 84.8359 22.4141C84.737 22.4141 84.6094 22.401 84.4531 22.375C84.3021 22.3542 84.1927 22.3333 84.125 22.3125L84.1172 21.5234C84.1745 21.5391 84.2578 21.5521 84.3672 21.5625C84.4766 21.5729 84.5521 21.5781 84.5938 21.5781C84.9323 21.5781 85.2161 21.5208 85.4453 21.4062C85.6797 21.2917 85.875 21.1198 86.0312 20.8906C86.1875 20.6667 86.3255 20.3854 86.4453 20.0469L87.1406 18.1562ZM84.6797 10.5469L87.375 17.8047L87.625 18.7812L86.9453 19.1641L83.6641 10.5469H84.6797Z" fill="#1E398F"/>
</svg>
